<svg xmlns="http://www.w3.org/2000/svg" xmlns:xlink="http://www.w3.org/1999/xlink" width="420" zoomAndPan="magnify" viewBox="0 0 315 37.5" height="50" preserveAspectRatio="xMidYMid meet" version="1.0"><defs><g/><clipPath id="b2c0e98cee"><path d="M 2.074219 0 L 312.925781 0 L 312.925781 37.007812 L 2.074219 37.007812 Z M 2.074219 0 " clip-rule="nonzero"/></clipPath></defs><g clip-path="url(#b2c0e98cee)"><path fill="#ffffff" d="M 2.074219 0 L 312.925781 0 L 312.925781 37.007812 L 2.074219 37.007812 Z M 2.074219 0 " fill-opacity="1" fill-rule="nonzero"/><path fill="#ffffff" d="M 2.074219 0 L 312.925781 0 L 312.925781 37.007812 L 2.074219 37.007812 Z M 2.074219 0 " fill-opacity="1" fill-rule="nonzero"/><path fill="#ffffff" d="M 2.074219 0 L 312.871094 0 L 312.871094 37.007812 L 2.074219 37.007812 Z M 2.074219 0 " fill-opacity="1" fill-rule="nonzero"/><path stroke-linecap="butt" transform="matrix(0.740132, 0, 0, 0.740132, 2.072368, 0.00000208549)" fill="none" stroke-linejoin="miter" d="M 0.0025 -0.00000281773 L 419.997517 -0.00000281773 L 419.997517 50.001666 L 0.0025 50.001666 Z M 0.0025 -0.00000281773 " stroke="#000000" stroke-width="4" stroke-opacity="1" stroke-miterlimit="4"/></g><g fill="#000000" fill-opacity="0.4"><g transform="translate(45.776254, 25.005724)"><g><path d="M 8 -6.984375 C 8.40625 -6.648438 8.722656 -6.242188 8.953125 -5.765625 C 9.171875 -5.285156 9.304688 -4.789062 9.359375 -4.28125 C 9.410156 -3.757812 9.367188 -3.25 9.234375 -2.75 C 9.097656 -2.226562 8.867188 -1.765625 8.546875 -1.359375 C 8.222656 -0.953125 7.8125 -0.628906 7.3125 -0.390625 C 6.8125 -0.128906 6.222656 0 5.546875 0 L 1.453125 0 C 1.304688 0 1.1875 -0.0546875 1.09375 -0.171875 C 0.976562 -0.265625 0.921875 -0.382812 0.921875 -0.53125 L 0.921875 -12.96875 C 0.921875 -13.113281 0.976562 -13.242188 1.09375 -13.359375 C 1.1875 -13.453125 1.304688 -13.5 1.453125 -13.5 L 4.5 -13.5 C 5.351562 -13.5 6.070312 -13.300781 6.65625 -12.90625 C 7.21875 -12.519531 7.640625 -12.03125 7.921875 -11.4375 C 8.203125 -10.851562 8.34375 -10.21875 8.34375 -9.53125 C 8.332031 -8.84375 8.171875 -8.207031 7.859375 -7.625 C 7.804688 -7.507812 7.789062 -7.394531 7.8125 -7.28125 C 7.832031 -7.15625 7.894531 -7.054688 8 -6.984375 Z M 3.53125 -11.421875 C 3.382812 -11.421875 3.265625 -11.375 3.171875 -11.28125 C 3.054688 -11.164062 3 -11.035156 3 -10.890625 L 3 -8.328125 C 3 -8.179688 3.054688 -8.054688 3.171875 -7.953125 C 3.265625 -7.847656 3.382812 -7.796875 3.53125 -7.796875 L 4.53125 -7.796875 C 4.914062 -7.796875 5.234375 -7.882812 5.484375 -8.0625 C 5.742188 -8.238281 5.941406 -8.460938 6.078125 -8.734375 C 6.210938 -9.003906 6.28125 -9.296875 6.28125 -9.609375 C 6.28125 -9.921875 6.21875 -10.210938 6.09375 -10.484375 C 5.957031 -10.753906 5.765625 -10.976562 5.515625 -11.15625 C 5.253906 -11.332031 4.925781 -11.421875 4.53125 -11.421875 Z M 5.578125 -2.078125 C 5.960938 -2.078125 6.285156 -2.171875 6.546875 -2.359375 C 6.796875 -2.523438 6.988281 -2.742188 7.125 -3.015625 C 7.25 -3.285156 7.316406 -3.582031 7.328125 -3.90625 C 7.328125 -4.207031 7.265625 -4.492188 7.140625 -4.765625 C 7.003906 -5.035156 6.8125 -5.265625 6.5625 -5.453125 C 6.300781 -5.617188 5.972656 -5.703125 5.578125 -5.703125 L 3.53125 -5.703125 C 3.382812 -5.703125 3.265625 -5.65625 3.171875 -5.5625 C 3.054688 -5.445312 3 -5.316406 3 -5.171875 L 3 -2.609375 C 3 -2.460938 3.054688 -2.34375 3.171875 -2.25 C 3.265625 -2.132812 3.382812 -2.078125 3.53125 -2.078125 Z M 5.578125 -2.078125 "/></g></g></g><g fill="#000000" fill-opacity="0.4"><g transform="translate(56.069561, 25.005724)"><g><path d="M 2.46875 -13.5 C 2.613281 -13.5 2.742188 -13.453125 2.859375 -13.359375 C 2.953125 -13.242188 3 -13.113281 3 -12.96875 L 3 -0.53125 C 3 -0.382812 2.953125 -0.265625 2.859375 -0.171875 C 2.742188 -0.0546875 2.613281 0 2.46875 0 L 1.453125 0 C 1.304688 0 1.1875 -0.0546875 1.09375 -0.171875 C 0.976562 -0.265625 0.921875 -0.382812 0.921875 -0.53125 L 0.921875 -12.96875 C 0.921875 -13.113281 0.976562 -13.242188 1.09375 -13.359375 C 1.1875 -13.453125 1.304688 -13.5 1.453125 -13.5 Z M 2.46875 -13.5 "/></g></g></g><g fill="#000000" fill-opacity="0.4"><g transform="translate(59.991701, 25.005724)"><g><path d="M 3 -13.5 C 4 -13.5 4.894531 -13.320312 5.6875 -12.96875 C 6.488281 -12.613281 7.171875 -12.132812 7.734375 -11.53125 C 8.285156 -10.914062 8.71875 -10.203125 9.03125 -9.390625 C 9.320312 -8.566406 9.46875 -7.691406 9.46875 -6.765625 C 9.46875 -5.828125 9.320312 -4.953125 9.03125 -4.140625 C 8.71875 -3.316406 8.285156 -2.597656 7.734375 -1.984375 C 7.171875 -1.367188 6.488281 -0.882812 5.6875 -0.53125 C 4.894531 -0.175781 4 0 3 0 L 1.453125 0 C 1.304688 0 1.1875 -0.0546875 1.09375 -0.171875 C 0.976562 -0.265625 0.921875 -0.382812 0.921875 -0.53125 L 0.921875 -12.96875 C 0.921875 -13.113281 0.976562 -13.242188 1.09375 -13.359375 C 1.1875 -13.453125 1.304688 -13.5 1.453125 -13.5 Z M 3 -2.65625 C 3 -2.476562 3.0625 -2.34375 3.1875 -2.25 C 3.300781 -2.132812 3.441406 -2.09375 3.609375 -2.125 C 4.203125 -2.195312 4.722656 -2.367188 5.171875 -2.640625 C 5.628906 -2.910156 6.007812 -3.253906 6.3125 -3.671875 C 6.625 -4.078125 6.859375 -4.546875 7.015625 -5.078125 C 7.160156 -5.609375 7.234375 -6.171875 7.234375 -6.765625 C 7.234375 -7.347656 7.160156 -7.910156 7.015625 -8.453125 C 6.859375 -8.984375 6.625 -9.457031 6.3125 -9.875 C 6.007812 -10.28125 5.628906 -10.617188 5.171875 -10.890625 C 4.722656 -11.160156 4.203125 -11.332031 3.609375 -11.40625 C 3.441406 -11.425781 3.300781 -11.382812 3.1875 -11.28125 C 3.0625 -11.164062 3 -11.03125 3 -10.875 Z M 3 -2.65625 "/></g></g></g><g fill="#000000" fill-opacity="0.4"><g transform="translate(70.37708, 25.005724)"><g><path d="M 8.421875 0 C 8.160156 0 7.988281 -0.132812 7.90625 -0.40625 C 7.863281 -0.539062 7.8125 -0.738281 7.75 -1 C 7.675781 -1.238281 7.585938 -1.578125 7.484375 -2.015625 C 7.390625 -2.273438 7.207031 -2.40625 6.9375 -2.40625 L 4 -2.40625 C 3.726562 -2.40625 3.550781 -2.273438 3.46875 -2.015625 C 3.375 -1.679688 3.300781 -1.378906 3.25 -1.109375 C 3.164062 -0.835938 3.097656 -0.601562 3.046875 -0.40625 C 2.953125 -0.132812 2.78125 0 2.53125 0 L 1.46875 0 C 1.300781 0 1.160156 -0.0703125 1.046875 -0.21875 C 0.941406 -0.351562 0.910156 -0.507812 0.953125 -0.6875 C 1.078125 -1.132812 1.234375 -1.707031 1.421875 -2.40625 C 1.597656 -3.09375 1.800781 -3.84375 2.03125 -4.65625 C 2.25 -5.457031 2.472656 -6.285156 2.703125 -7.140625 C 2.929688 -7.992188 3.148438 -8.804688 3.359375 -9.578125 C 3.546875 -10.335938 3.726562 -11.03125 3.90625 -11.65625 C 4.0625 -12.269531 4.191406 -12.75 4.296875 -13.09375 C 4.316406 -13.21875 4.375 -13.316406 4.46875 -13.390625 C 4.570312 -13.460938 4.6875 -13.5 4.8125 -13.5 L 6.140625 -13.5 C 6.253906 -13.5 6.363281 -13.460938 6.46875 -13.390625 C 6.5625 -13.316406 6.625 -13.21875 6.65625 -13.09375 C 7.082031 -11.476562 7.457031 -10.09375 7.78125 -8.9375 C 8.082031 -7.78125 8.335938 -6.8125 8.546875 -6.03125 C 8.753906 -5.238281 8.925781 -4.601562 9.0625 -4.125 C 9.1875 -3.644531 9.289062 -3.265625 9.375 -2.984375 C 9.445312 -2.691406 9.507812 -2.472656 9.5625 -2.328125 C 9.59375 -2.160156 9.628906 -2.007812 9.671875 -1.875 C 9.710938 -1.738281 9.753906 -1.585938 9.796875 -1.421875 C 9.835938 -1.242188 9.898438 -1 9.984375 -0.6875 C 10.035156 -0.507812 10.003906 -0.351562 9.890625 -0.21875 C 9.785156 -0.0703125 9.644531 0 9.46875 0 Z M 4.3125 -5.171875 C 4.257812 -5.003906 4.289062 -4.851562 4.40625 -4.71875 C 4.507812 -4.570312 4.648438 -4.5 4.828125 -4.5 L 6.109375 -4.5 C 6.285156 -4.5 6.429688 -4.570312 6.546875 -4.71875 C 6.648438 -4.851562 6.675781 -5.003906 6.625 -5.171875 C 6.53125 -5.515625 6.4375 -5.882812 6.34375 -6.28125 C 6.226562 -6.675781 6.109375 -7.09375 5.984375 -7.53125 C 5.953125 -7.664062 5.882812 -7.769531 5.78125 -7.84375 C 5.6875 -7.90625 5.582031 -7.9375 5.46875 -7.9375 C 5.363281 -7.9375 5.257812 -7.90625 5.15625 -7.84375 C 5.0625 -7.769531 4.992188 -7.664062 4.953125 -7.53125 C 4.847656 -7.132812 4.742188 -6.742188 4.640625 -6.359375 C 4.523438 -5.960938 4.414062 -5.566406 4.3125 -5.171875 Z M 4.3125 -5.171875 "/></g></g></g><g fill="#000000" fill-opacity="0.4"><g transform="translate(81.314872, 25.005724)"><g><path d="M 8.96875 -13.5 C 9.113281 -13.5 9.242188 -13.453125 9.359375 -13.359375 C 9.453125 -13.242188 9.5 -13.113281 9.5 -12.96875 L 9.5 -0.53125 C 9.5 -0.382812 9.453125 -0.265625 9.359375 -0.171875 C 9.242188 -0.0546875 9.113281 0 8.96875 0 L 7.546875 0 C 7.328125 0 7.171875 -0.101562 7.078125 -0.3125 L 3.390625 -8.203125 C 3.347656 -8.296875 3.273438 -8.332031 3.171875 -8.3125 C 3.054688 -8.28125 3 -8.210938 3 -8.109375 L 3 -0.53125 C 3 -0.382812 2.953125 -0.265625 2.859375 -0.171875 C 2.742188 -0.0546875 2.609375 0 2.453125 0 L 1.453125 0 C 1.304688 0 1.1875 -0.0546875 1.09375 -0.171875 C 0.976562 -0.265625 0.921875 -0.382812 0.921875 -0.53125 L 0.921875 -12.96875 C 0.921875 -13.113281 0.976562 -13.242188 1.09375 -13.359375 C 1.1875 -13.453125 1.304688 -13.5 1.453125 -13.5 L 2.875 -13.5 C 3.101562 -13.5 3.265625 -13.394531 3.359375 -13.1875 L 7.03125 -5.3125 C 7.070312 -5.207031 7.15625 -5.164062 7.28125 -5.1875 C 7.375 -5.21875 7.421875 -5.285156 7.421875 -5.390625 L 7.421875 -12.96875 C 7.421875 -13.113281 7.476562 -13.242188 7.59375 -13.359375 C 7.695312 -13.453125 7.828125 -13.5 7.984375 -13.5 Z M 8.96875 -13.5 "/></g></g></g><g fill="#000000" fill-opacity="0.4"><g transform="translate(91.737079, 25.005724)"><g><path d="M 12.078125 -7.03125 C 12.171875 -7.03125 12.25 -7.007812 12.3125 -6.96875 C 12.351562 -6.90625 12.375 -6.835938 12.375 -6.765625 C 12.375 -5.929688 12.273438 -5.109375 12.078125 -4.296875 C 11.867188 -3.484375 11.519531 -2.742188 11.03125 -2.078125 C 10.519531 -1.390625 9.894531 -0.875 9.15625 -0.53125 C 8.40625 -0.175781 7.570312 0 6.65625 0 C 4.78125 0 3.316406 -0.691406 2.265625 -2.078125 C 1.367188 -3.296875 0.921875 -4.851562 0.921875 -6.75 C 0.921875 -7.6875 1.035156 -8.550781 1.265625 -9.34375 C 1.492188 -10.125 1.828125 -10.8125 2.265625 -11.40625 C 2.785156 -12.101562 3.414062 -12.628906 4.15625 -12.984375 C 4.894531 -13.328125 5.726562 -13.5 6.65625 -13.5 C 7.570312 -13.5 8.40625 -13.328125 9.15625 -12.984375 C 9.894531 -12.628906 10.519531 -12.101562 11.03125 -11.40625 C 11.082031 -11.34375 11.101562 -11.273438 11.09375 -11.203125 C 11.0625 -11.117188 11.007812 -11.050781 10.9375 -11 L 9.609375 -10.25 C 9.492188 -10.164062 9.378906 -10.179688 9.265625 -10.296875 C 9.054688 -10.546875 8.835938 -10.742188 8.609375 -10.890625 C 8.359375 -11.035156 8.117188 -11.148438 7.890625 -11.234375 C 7.648438 -11.304688 7.425781 -11.359375 7.21875 -11.390625 C 7 -11.410156 6.8125 -11.421875 6.65625 -11.421875 C 6.375 -11.421875 6.03125 -11.378906 5.625 -11.296875 C 5.207031 -11.191406 4.804688 -10.984375 4.421875 -10.671875 C 4.023438 -10.347656 3.691406 -9.878906 3.421875 -9.265625 C 3.140625 -8.640625 3 -7.800781 3 -6.75 C 3 -5.6875 3.140625 -4.847656 3.421875 -4.234375 C 3.691406 -3.617188 4.023438 -3.15625 4.421875 -2.84375 C 4.804688 -2.519531 5.207031 -2.316406 5.625 -2.234375 C 6.03125 -2.128906 6.375 -2.078125 6.65625 -2.078125 C 6.875 -2.078125 7.132812 -2.101562 7.4375 -2.15625 C 7.75 -2.207031 8.070312 -2.320312 8.40625 -2.5 C 8.71875 -2.675781 9.023438 -2.929688 9.328125 -3.265625 C 9.609375 -3.597656 9.832031 -4.039062 10 -4.59375 C 10.03125 -4.6875 10.019531 -4.769531 9.96875 -4.84375 C 9.914062 -4.914062 9.84375 -4.953125 9.75 -4.953125 L 7.5 -4.953125 C 7.351562 -4.953125 7.226562 -5.007812 7.125 -5.125 C 7.019531 -5.21875 6.96875 -5.347656 6.96875 -5.515625 L 6.96875 -6.5 C 6.96875 -6.644531 7.019531 -6.773438 7.125 -6.890625 C 7.226562 -6.984375 7.351562 -7.03125 7.5 -7.03125 Z M 12.078125 -7.03125 "/></g></g></g><g fill="#000000" fill-opacity="0.4"><g transform="translate(105.031836, 25.005724)"><g/></g></g><g fill="#000000" fill-opacity="0.4"><g transform="translate(110.555969, 25.005724)"><g><path d="M 7.546875 -11.953125 C 7.546875 -11.804688 7.5 -11.6875 7.40625 -11.59375 C 7.289062 -11.476562 7.160156 -11.421875 7.015625 -11.421875 L 3.53125 -11.421875 C 3.382812 -11.421875 3.265625 -11.375 3.171875 -11.28125 C 3.054688 -11.164062 3 -11.035156 3 -10.890625 L 3 -9.78125 C 3 -9.632812 3.054688 -9.507812 3.171875 -9.40625 C 3.265625 -9.300781 3.382812 -9.25 3.53125 -9.25 L 5.84375 -9.25 C 6 -9.25 6.132812 -9.195312 6.25 -9.09375 C 6.34375 -8.988281 6.390625 -8.863281 6.390625 -8.71875 L 6.390625 -7.71875 C 6.390625 -7.570312 6.34375 -7.441406 6.25 -7.328125 C 6.132812 -7.222656 6 -7.171875 5.84375 -7.171875 L 3.53125 -7.171875 C 3.382812 -7.171875 3.265625 -7.117188 3.171875 -7.015625 C 3.054688 -6.910156 3 -6.78125 3 -6.625 L 3 -2.609375 C 3 -2.460938 3.054688 -2.34375 3.171875 -2.25 C 3.265625 -2.132812 3.382812 -2.078125 3.53125 -2.078125 L 7.015625 -2.078125 C 7.160156 -2.078125 7.289062 -2.03125 7.40625 -1.9375 C 7.5 -1.820312 7.546875 -1.691406 7.546875 -1.546875 L 7.546875 -0.53125 C 7.546875 -0.382812 7.5 -0.265625 7.40625 -0.171875 C 7.289062 -0.0546875 7.160156 0 7.015625 0 L 1.453125 0 C 1.304688 0 1.1875 -0.0546875 1.09375 -0.171875 C 0.976562 -0.265625 0.921875 -0.382812 0.921875 -0.53125 L 0.921875 -12.96875 C 0.921875 -13.113281 0.976562 -13.242188 1.09375 -13.359375 C 1.1875 -13.453125 1.304688 -13.5 1.453125 -13.5 L 7.015625 -13.5 C 7.160156 -13.5 7.289062 -13.453125 7.40625 -13.359375 C 7.5 -13.242188 7.546875 -13.113281 7.546875 -12.96875 Z M 7.546875 -11.953125 "/></g></g></g><g fill="#000000" fill-opacity="0.4"><g transform="translate(119.026309, 25.005724)"><g><path d="M 8.96875 -13.5 C 9.113281 -13.5 9.242188 -13.453125 9.359375 -13.359375 C 9.453125 -13.242188 9.5 -13.113281 9.5 -12.96875 L 9.5 -0.53125 C 9.5 -0.382812 9.453125 -0.265625 9.359375 -0.171875 C 9.242188 -0.0546875 9.113281 0 8.96875 0 L 7.546875 0 C 7.328125 0 7.171875 -0.101562 7.078125 -0.3125 L 3.390625 -8.203125 C 3.347656 -8.296875 3.273438 -8.332031 3.171875 -8.3125 C 3.054688 -8.28125 3 -8.210938 3 -8.109375 L 3 -0.53125 C 3 -0.382812 2.953125 -0.265625 2.859375 -0.171875 C 2.742188 -0.0546875 2.609375 0 2.453125 0 L 1.453125 0 C 1.304688 0 1.1875 -0.0546875 1.09375 -0.171875 C 0.976562 -0.265625 0.921875 -0.382812 0.921875 -0.53125 L 0.921875 -12.96875 C 0.921875 -13.113281 0.976562 -13.242188 1.09375 -13.359375 C 1.1875 -13.453125 1.304688 -13.5 1.453125 -13.5 L 2.875 -13.5 C 3.101562 -13.5 3.265625 -13.394531 3.359375 -13.1875 L 7.03125 -5.3125 C 7.070312 -5.207031 7.15625 -5.164062 7.28125 -5.1875 C 7.375 -5.21875 7.421875 -5.285156 7.421875 -5.390625 L 7.421875 -12.96875 C 7.421875 -13.113281 7.476562 -13.242188 7.59375 -13.359375 C 7.695312 -13.453125 7.828125 -13.5 7.984375 -13.5 Z M 8.96875 -13.5 "/></g></g></g><g fill="#000000" fill-opacity="0.4"><g transform="translate(129.448517, 25.005724)"><g><path d="M 7.546875 -11.953125 C 7.546875 -11.804688 7.5 -11.6875 7.40625 -11.59375 C 7.289062 -11.476562 7.160156 -11.421875 7.015625 -11.421875 L 3.53125 -11.421875 C 3.382812 -11.421875 3.265625 -11.375 3.171875 -11.28125 C 3.054688 -11.164062 3 -11.035156 3 -10.890625 L 3 -9.78125 C 3 -9.632812 3.054688 -9.507812 3.171875 -9.40625 C 3.265625 -9.300781 3.382812 -9.25 3.53125 -9.25 L 5.84375 -9.25 C 6 -9.25 6.132812 -9.195312 6.25 -9.09375 C 6.34375 -8.988281 6.390625 -8.863281 6.390625 -8.71875 L 6.390625 -7.71875 C 6.390625 -7.570312 6.34375 -7.441406 6.25 -7.328125 C 6.132812 -7.222656 6 -7.171875 5.84375 -7.171875 L 3.53125 -7.171875 C 3.382812 -7.171875 3.265625 -7.117188 3.171875 -7.015625 C 3.054688 -6.910156 3 -6.78125 3 -6.625 L 3 -2.609375 C 3 -2.460938 3.054688 -2.34375 3.171875 -2.25 C 3.265625 -2.132812 3.382812 -2.078125 3.53125 -2.078125 L 7.015625 -2.078125 C 7.160156 -2.078125 7.289062 -2.03125 7.40625 -1.9375 C 7.5 -1.820312 7.546875 -1.691406 7.546875 -1.546875 L 7.546875 -0.53125 C 7.546875 -0.382812 7.5 -0.265625 7.40625 -0.171875 C 7.289062 -0.0546875 7.160156 0 7.015625 0 L 1.453125 0 C 1.304688 0 1.1875 -0.0546875 1.09375 -0.171875 C 0.976562 -0.265625 0.921875 -0.382812 0.921875 -0.53125 L 0.921875 -12.96875 C 0.921875 -13.113281 0.976562 -13.242188 1.09375 -13.359375 C 1.1875 -13.453125 1.304688 -13.5 1.453125 -13.5 L 7.015625 -13.5 C 7.160156 -13.5 7.289062 -13.453125 7.40625 -13.359375 C 7.5 -13.242188 7.546875 -13.113281 7.546875 -12.96875 Z M 7.546875 -11.953125 "/></g></g></g><g fill="#000000" fill-opacity="0.4"><g transform="translate(137.918857, 25.005724)"><g><path d="M 4.5 -13.5 C 5.1875 -13.5 5.78125 -13.347656 6.28125 -13.046875 C 6.78125 -12.722656 7.191406 -12.3125 7.515625 -11.8125 C 7.835938 -11.300781 8.066406 -10.734375 8.203125 -10.109375 C 8.335938 -9.484375 8.378906 -8.851562 8.328125 -8.21875 C 8.265625 -7.582031 8.117188 -6.972656 7.890625 -6.390625 C 7.640625 -5.816406 7.304688 -5.332031 6.890625 -4.9375 C 6.703125 -4.78125 6.65625 -4.585938 6.75 -4.359375 L 8.0625 -0.71875 C 8.125 -0.539062 8.109375 -0.378906 8.015625 -0.234375 C 7.898438 -0.078125 7.742188 0 7.546875 0 L 6.5 0 C 6.238281 0 6.066406 -0.113281 5.984375 -0.34375 L 4.796875 -3.671875 C 4.703125 -3.898438 4.53125 -4.015625 4.28125 -4.015625 L 3.53125 -4.015625 C 3.382812 -4.015625 3.265625 -3.96875 3.171875 -3.875 C 3.054688 -3.757812 3 -3.628906 3 -3.484375 L 3 -0.53125 C 3 -0.382812 2.953125 -0.265625 2.859375 -0.171875 C 2.742188 -0.0546875 2.613281 0 2.46875 0 L 1.453125 0 C 1.304688 0 1.1875 -0.0546875 1.09375 -0.171875 C 0.976562 -0.265625 0.921875 -0.382812 0.921875 -0.53125 L 0.921875 -12.96875 C 0.921875 -13.113281 0.976562 -13.242188 1.09375 -13.359375 C 1.1875 -13.453125 1.304688 -13.5 1.453125 -13.5 Z M 3 -6.625 C 3 -6.476562 3.054688 -6.359375 3.171875 -6.265625 C 3.265625 -6.148438 3.382812 -6.09375 3.53125 -6.09375 L 4.53125 -6.09375 C 4.914062 -6.09375 5.234375 -6.226562 5.484375 -6.5 C 5.742188 -6.757812 5.941406 -7.085938 6.078125 -7.484375 C 6.210938 -7.867188 6.28125 -8.296875 6.28125 -8.765625 C 6.28125 -9.222656 6.21875 -9.648438 6.09375 -10.046875 C 5.957031 -10.429688 5.765625 -10.757812 5.515625 -11.03125 C 5.253906 -11.289062 4.925781 -11.421875 4.53125 -11.421875 L 3.53125 -11.421875 C 3.382812 -11.421875 3.265625 -11.375 3.171875 -11.28125 C 3.054688 -11.164062 3 -11.035156 3 -10.890625 Z M 3 -6.625 "/></g></g></g><g fill="#000000" fill-opacity="0.4"><g transform="translate(147.180997, 25.005724)"><g><path d="M 12.078125 -7.03125 C 12.171875 -7.03125 12.25 -7.007812 12.3125 -6.96875 C 12.351562 -6.90625 12.375 -6.835938 12.375 -6.765625 C 12.375 -5.929688 12.273438 -5.109375 12.078125 -4.296875 C 11.867188 -3.484375 11.519531 -2.742188 11.03125 -2.078125 C 10.519531 -1.390625 9.894531 -0.875 9.15625 -0.53125 C 8.40625 -0.175781 7.570312 0 6.65625 0 C 4.78125 0 3.316406 -0.691406 2.265625 -2.078125 C 1.367188 -3.296875 0.921875 -4.851562 0.921875 -6.75 C 0.921875 -7.6875 1.035156 -8.550781 1.265625 -9.34375 C 1.492188 -10.125 1.828125 -10.8125 2.265625 -11.40625 C 2.785156 -12.101562 3.414062 -12.628906 4.15625 -12.984375 C 4.894531 -13.328125 5.726562 -13.5 6.65625 -13.5 C 7.570312 -13.5 8.40625 -13.328125 9.15625 -12.984375 C 9.894531 -12.628906 10.519531 -12.101562 11.03125 -11.40625 C 11.082031 -11.34375 11.101562 -11.273438 11.09375 -11.203125 C 11.0625 -11.117188 11.007812 -11.050781 10.9375 -11 L 9.609375 -10.25 C 9.492188 -10.164062 9.378906 -10.179688 9.265625 -10.296875 C 9.054688 -10.546875 8.835938 -10.742188 8.609375 -10.890625 C 8.359375 -11.035156 8.117188 -11.148438 7.890625 -11.234375 C 7.648438 -11.304688 7.425781 -11.359375 7.21875 -11.390625 C 7 -11.410156 6.8125 -11.421875 6.65625 -11.421875 C 6.375 -11.421875 6.03125 -11.378906 5.625 -11.296875 C 5.207031 -11.191406 4.804688 -10.984375 4.421875 -10.671875 C 4.023438 -10.347656 3.691406 -9.878906 3.421875 -9.265625 C 3.140625 -8.640625 3 -7.800781 3 -6.75 C 3 -5.6875 3.140625 -4.847656 3.421875 -4.234375 C 3.691406 -3.617188 4.023438 -3.15625 4.421875 -2.84375 C 4.804688 -2.519531 5.207031 -2.316406 5.625 -2.234375 C 6.03125 -2.128906 6.375 -2.078125 6.65625 -2.078125 C 6.875 -2.078125 7.132812 -2.101562 7.4375 -2.15625 C 7.75 -2.207031 8.070312 -2.320312 8.40625 -2.5 C 8.71875 -2.675781 9.023438 -2.929688 9.328125 -3.265625 C 9.609375 -3.597656 9.832031 -4.039062 10 -4.59375 C 10.03125 -4.6875 10.019531 -4.769531 9.96875 -4.84375 C 9.914062 -4.914062 9.84375 -4.953125 9.75 -4.953125 L 7.5 -4.953125 C 7.351562 -4.953125 7.226562 -5.007812 7.125 -5.125 C 7.019531 -5.21875 6.96875 -5.347656 6.96875 -5.515625 L 6.96875 -6.5 C 6.96875 -6.644531 7.019531 -6.773438 7.125 -6.890625 C 7.226562 -6.984375 7.351562 -7.03125 7.5 -7.03125 Z M 12.078125 -7.03125 "/></g></g></g><g fill="#000000" fill-opacity="0.4"><g transform="translate(160.475753, 25.005724)"><g><path d="M 2.46875 -13.5 C 2.613281 -13.5 2.742188 -13.453125 2.859375 -13.359375 C 2.953125 -13.242188 3 -13.113281 3 -12.96875 L 3 -0.53125 C 3 -0.382812 2.953125 -0.265625 2.859375 -0.171875 C 2.742188 -0.0546875 2.613281 0 2.46875 0 L 1.453125 0 C 1.304688 0 1.1875 -0.0546875 1.09375 -0.171875 C 0.976562 -0.265625 0.921875 -0.382812 0.921875 -0.53125 L 0.921875 -12.96875 C 0.921875 -13.113281 0.976562 -13.242188 1.09375 -13.359375 C 1.1875 -13.453125 1.304688 -13.5 1.453125 -13.5 Z M 2.46875 -13.5 "/></g></g></g><g fill="#000000" fill-opacity="0.4"><g transform="translate(164.397893, 25.005724)"><g/></g></g><g fill="#000000" fill-opacity="0.4"><g transform="translate(169.922027, 25.005724)"><g><path d="M 8.53125 -11.953125 C 8.53125 -11.804688 8.476562 -11.6875 8.375 -11.59375 C 8.269531 -11.476562 8.140625 -11.421875 7.984375 -11.421875 L 6.296875 -11.421875 C 6.148438 -11.421875 6.03125 -11.375 5.9375 -11.28125 C 5.820312 -11.164062 5.765625 -11.035156 5.765625 -10.890625 L 5.765625 -0.53125 C 5.765625 -0.382812 5.71875 -0.265625 5.625 -0.171875 C 5.507812 -0.0546875 5.375 0 5.21875 0 L 4.21875 0 C 4.070312 0 3.945312 -0.0546875 3.84375 -0.171875 C 3.738281 -0.265625 3.6875 -0.382812 3.6875 -0.53125 L 3.6875 -10.890625 C 3.6875 -11.035156 3.632812 -11.164062 3.53125 -11.28125 C 3.425781 -11.375 3.300781 -11.421875 3.15625 -11.421875 L 1.453125 -11.421875 C 1.304688 -11.421875 1.1875 -11.476562 1.09375 -11.59375 C 0.976562 -11.6875 0.921875 -11.804688 0.921875 -11.953125 L 0.921875 -12.96875 C 0.921875 -13.113281 0.976562 -13.242188 1.09375 -13.359375 C 1.1875 -13.453125 1.304688 -13.5 1.453125 -13.5 L 7.984375 -13.5 C 8.140625 -13.5 8.269531 -13.453125 8.375 -13.359375 C 8.476562 -13.242188 8.53125 -13.113281 8.53125 -12.96875 Z M 8.53125 -11.953125 "/></g></g></g><g fill="#000000" fill-opacity="0.4"><g transform="translate(179.368301, 25.005724)"><g><path d="M 7.546875 -11.953125 C 7.546875 -11.804688 7.5 -11.6875 7.40625 -11.59375 C 7.289062 -11.476562 7.160156 -11.421875 7.015625 -11.421875 L 3.53125 -11.421875 C 3.382812 -11.421875 3.265625 -11.375 3.171875 -11.28125 C 3.054688 -11.164062 3 -11.035156 3 -10.890625 L 3 -9.78125 C 3 -9.632812 3.054688 -9.507812 3.171875 -9.40625 C 3.265625 -9.300781 3.382812 -9.25 3.53125 -9.25 L 5.84375 -9.25 C 6 -9.25 6.132812 -9.195312 6.25 -9.09375 C 6.34375 -8.988281 6.390625 -8.863281 6.390625 -8.71875 L 6.390625 -7.71875 C 6.390625 -7.570312 6.34375 -7.441406 6.25 -7.328125 C 6.132812 -7.222656 6 -7.171875 5.84375 -7.171875 L 3.53125 -7.171875 C 3.382812 -7.171875 3.265625 -7.117188 3.171875 -7.015625 C 3.054688 -6.910156 3 -6.78125 3 -6.625 L 3 -2.609375 C 3 -2.460938 3.054688 -2.34375 3.171875 -2.25 C 3.265625 -2.132812 3.382812 -2.078125 3.53125 -2.078125 L 7.015625 -2.078125 C 7.160156 -2.078125 7.289062 -2.03125 7.40625 -1.9375 C 7.5 -1.820312 7.546875 -1.691406 7.546875 -1.546875 L 7.546875 -0.53125 C 7.546875 -0.382812 7.5 -0.265625 7.40625 -0.171875 C 7.289062 -0.0546875 7.160156 0 7.015625 0 L 1.453125 0 C 1.304688 0 1.1875 -0.0546875 1.09375 -0.171875 C 0.976562 -0.265625 0.921875 -0.382812 0.921875 -0.53125 L 0.921875 -12.96875 C 0.921875 -13.113281 0.976562 -13.242188 1.09375 -13.359375 C 1.1875 -13.453125 1.304688 -13.5 1.453125 -13.5 L 7.015625 -13.5 C 7.160156 -13.5 7.289062 -13.453125 7.40625 -13.359375 C 7.5 -13.242188 7.546875 -13.113281 7.546875 -12.96875 Z M 7.546875 -11.953125 "/></g></g></g><g fill="#000000" fill-opacity="0.4"><g transform="translate(187.83864, 25.005724)"><g><path d="M 4.5 -13.5 C 5.1875 -13.5 5.78125 -13.347656 6.28125 -13.046875 C 6.78125 -12.722656 7.191406 -12.3125 7.515625 -11.8125 C 7.835938 -11.300781 8.066406 -10.734375 8.203125 -10.109375 C 8.335938 -9.484375 8.378906 -8.851562 8.328125 -8.21875 C 8.265625 -7.582031 8.117188 -6.972656 7.890625 -6.390625 C 7.640625 -5.816406 7.304688 -5.332031 6.890625 -4.9375 C 6.703125 -4.78125 6.65625 -4.585938 6.75 -4.359375 L 8.0625 -0.71875 C 8.125 -0.539062 8.109375 -0.378906 8.015625 -0.234375 C 7.898438 -0.078125 7.742188 0 7.546875 0 L 6.5 0 C 6.238281 0 6.066406 -0.113281 5.984375 -0.34375 L 4.796875 -3.671875 C 4.703125 -3.898438 4.53125 -4.015625 4.28125 -4.015625 L 3.53125 -4.015625 C 3.382812 -4.015625 3.265625 -3.96875 3.171875 -3.875 C 3.054688 -3.757812 3 -3.628906 3 -3.484375 L 3 -0.53125 C 3 -0.382812 2.953125 -0.265625 2.859375 -0.171875 C 2.742188 -0.0546875 2.613281 0 2.46875 0 L 1.453125 0 C 1.304688 0 1.1875 -0.0546875 1.09375 -0.171875 C 0.976562 -0.265625 0.921875 -0.382812 0.921875 -0.53125 L 0.921875 -12.96875 C 0.921875 -13.113281 0.976562 -13.242188 1.09375 -13.359375 C 1.1875 -13.453125 1.304688 -13.5 1.453125 -13.5 Z M 3 -6.625 C 3 -6.476562 3.054688 -6.359375 3.171875 -6.265625 C 3.265625 -6.148438 3.382812 -6.09375 3.53125 -6.09375 L 4.53125 -6.09375 C 4.914062 -6.09375 5.234375 -6.226562 5.484375 -6.5 C 5.742188 -6.757812 5.941406 -7.085938 6.078125 -7.484375 C 6.210938 -7.867188 6.28125 -8.296875 6.28125 -8.765625 C 6.28125 -9.222656 6.21875 -9.648438 6.09375 -10.046875 C 5.957031 -10.429688 5.765625 -10.757812 5.515625 -11.03125 C 5.253906 -11.289062 4.925781 -11.421875 4.53125 -11.421875 L 3.53125 -11.421875 C 3.382812 -11.421875 3.265625 -11.375 3.171875 -11.28125 C 3.054688 -11.164062 3 -11.035156 3 -10.890625 Z M 3 -6.625 "/></g></g></g><g fill="#000000" fill-opacity="0.4"><g transform="translate(197.10078, 25.005724)"><g><path d="M 8 -6.984375 C 8.40625 -6.648438 8.722656 -6.242188 8.953125 -5.765625 C 9.171875 -5.285156 9.304688 -4.789062 9.359375 -4.28125 C 9.410156 -3.757812 9.367188 -3.25 9.234375 -2.75 C 9.097656 -2.226562 8.867188 -1.765625 8.546875 -1.359375 C 8.222656 -0.953125 7.8125 -0.628906 7.3125 -0.390625 C 6.8125 -0.128906 6.222656 0 5.546875 0 L 1.453125 0 C 1.304688 0 1.1875 -0.0546875 1.09375 -0.171875 C 0.976562 -0.265625 0.921875 -0.382812 0.921875 -0.53125 L 0.921875 -12.96875 C 0.921875 -13.113281 0.976562 -13.242188 1.09375 -13.359375 C 1.1875 -13.453125 1.304688 -13.5 1.453125 -13.5 L 4.5 -13.5 C 5.351562 -13.5 6.070312 -13.300781 6.65625 -12.90625 C 7.21875 -12.519531 7.640625 -12.03125 7.921875 -11.4375 C 8.203125 -10.851562 8.34375 -10.21875 8.34375 -9.53125 C 8.332031 -8.84375 8.171875 -8.207031 7.859375 -7.625 C 7.804688 -7.507812 7.789062 -7.394531 7.8125 -7.28125 C 7.832031 -7.15625 7.894531 -7.054688 8 -6.984375 Z M 3.53125 -11.421875 C 3.382812 -11.421875 3.265625 -11.375 3.171875 -11.28125 C 3.054688 -11.164062 3 -11.035156 3 -10.890625 L 3 -8.328125 C 3 -8.179688 3.054688 -8.054688 3.171875 -7.953125 C 3.265625 -7.847656 3.382812 -7.796875 3.53125 -7.796875 L 4.53125 -7.796875 C 4.914062 -7.796875 5.234375 -7.882812 5.484375 -8.0625 C 5.742188 -8.238281 5.941406 -8.460938 6.078125 -8.734375 C 6.210938 -9.003906 6.28125 -9.296875 6.28125 -9.609375 C 6.28125 -9.921875 6.21875 -10.210938 6.09375 -10.484375 C 5.957031 -10.753906 5.765625 -10.976562 5.515625 -11.15625 C 5.253906 -11.332031 4.925781 -11.421875 4.53125 -11.421875 Z M 5.578125 -2.078125 C 5.960938 -2.078125 6.285156 -2.171875 6.546875 -2.359375 C 6.796875 -2.523438 6.988281 -2.742188 7.125 -3.015625 C 7.25 -3.285156 7.316406 -3.582031 7.328125 -3.90625 C 7.328125 -4.207031 7.265625 -4.492188 7.140625 -4.765625 C 7.003906 -5.035156 6.8125 -5.265625 6.5625 -5.453125 C 6.300781 -5.617188 5.972656 -5.703125 5.578125 -5.703125 L 3.53125 -5.703125 C 3.382812 -5.703125 3.265625 -5.65625 3.171875 -5.5625 C 3.054688 -5.445312 3 -5.316406 3 -5.171875 L 3 -2.609375 C 3 -2.460938 3.054688 -2.34375 3.171875 -2.25 C 3.265625 -2.132812 3.382812 -2.078125 3.53125 -2.078125 Z M 5.578125 -2.078125 "/></g></g></g><g fill="#000000" fill-opacity="0.4"><g transform="translate(207.394087, 25.005724)"><g><path d="M 8.421875 0 C 8.160156 0 7.988281 -0.132812 7.90625 -0.40625 C 7.863281 -0.539062 7.8125 -0.738281 7.75 -1 C 7.675781 -1.238281 7.585938 -1.578125 7.484375 -2.015625 C 7.390625 -2.273438 7.207031 -2.40625 6.9375 -2.40625 L 4 -2.40625 C 3.726562 -2.40625 3.550781 -2.273438 3.46875 -2.015625 C 3.375 -1.679688 3.300781 -1.378906 3.25 -1.109375 C 3.164062 -0.835938 3.097656 -0.601562 3.046875 -0.40625 C 2.953125 -0.132812 2.78125 0 2.53125 0 L 1.46875 0 C 1.300781 0 1.160156 -0.0703125 1.046875 -0.21875 C 0.941406 -0.351562 0.910156 -0.507812 0.953125 -0.6875 C 1.078125 -1.132812 1.234375 -1.707031 1.421875 -2.40625 C 1.597656 -3.09375 1.800781 -3.84375 2.03125 -4.65625 C 2.25 -5.457031 2.472656 -6.285156 2.703125 -7.140625 C 2.929688 -7.992188 3.148438 -8.804688 3.359375 -9.578125 C 3.546875 -10.335938 3.726562 -11.03125 3.90625 -11.65625 C 4.0625 -12.269531 4.191406 -12.75 4.296875 -13.09375 C 4.316406 -13.21875 4.375 -13.316406 4.46875 -13.390625 C 4.570312 -13.460938 4.6875 -13.5 4.8125 -13.5 L 6.140625 -13.5 C 6.253906 -13.5 6.363281 -13.460938 6.46875 -13.390625 C 6.5625 -13.316406 6.625 -13.21875 6.65625 -13.09375 C 7.082031 -11.476562 7.457031 -10.09375 7.78125 -8.9375 C 8.082031 -7.78125 8.335938 -6.8125 8.546875 -6.03125 C 8.753906 -5.238281 8.925781 -4.601562 9.0625 -4.125 C 9.1875 -3.644531 9.289062 -3.265625 9.375 -2.984375 C 9.445312 -2.691406 9.507812 -2.472656 9.5625 -2.328125 C 9.59375 -2.160156 9.628906 -2.007812 9.671875 -1.875 C 9.710938 -1.738281 9.753906 -1.585938 9.796875 -1.421875 C 9.835938 -1.242188 9.898438 -1 9.984375 -0.6875 C 10.035156 -0.507812 10.003906 -0.351562 9.890625 -0.21875 C 9.785156 -0.0703125 9.644531 0 9.46875 0 Z M 4.3125 -5.171875 C 4.257812 -5.003906 4.289062 -4.851562 4.40625 -4.71875 C 4.507812 -4.570312 4.648438 -4.5 4.828125 -4.5 L 6.109375 -4.5 C 6.285156 -4.5 6.429688 -4.570312 6.546875 -4.71875 C 6.648438 -4.851562 6.675781 -5.003906 6.625 -5.171875 C 6.53125 -5.515625 6.4375 -5.882812 6.34375 -6.28125 C 6.226562 -6.675781 6.109375 -7.09375 5.984375 -7.53125 C 5.953125 -7.664062 5.882812 -7.769531 5.78125 -7.84375 C 5.6875 -7.90625 5.582031 -7.9375 5.46875 -7.9375 C 5.363281 -7.9375 5.257812 -7.90625 5.15625 -7.84375 C 5.0625 -7.769531 4.992188 -7.664062 4.953125 -7.53125 C 4.847656 -7.132812 4.742188 -6.742188 4.640625 -6.359375 C 4.523438 -5.960938 4.414062 -5.566406 4.3125 -5.171875 Z M 4.3125 -5.171875 "/></g></g></g><g fill="#000000" fill-opacity="0.4"><g transform="translate(218.331878, 25.005724)"><g><path d="M 4.5 -13.5 C 5.1875 -13.5 5.78125 -13.347656 6.28125 -13.046875 C 6.78125 -12.722656 7.191406 -12.3125 7.515625 -11.8125 C 7.835938 -11.300781 8.066406 -10.734375 8.203125 -10.109375 C 8.335938 -9.484375 8.378906 -8.851562 8.328125 -8.21875 C 8.265625 -7.582031 8.117188 -6.972656 7.890625 -6.390625 C 7.640625 -5.816406 7.304688 -5.332031 6.890625 -4.9375 C 6.703125 -4.78125 6.65625 -4.585938 6.75 -4.359375 L 8.0625 -0.71875 C 8.125 -0.539062 8.109375 -0.378906 8.015625 -0.234375 C 7.898438 -0.078125 7.742188 0 7.546875 0 L 6.5 0 C 6.238281 0 6.066406 -0.113281 5.984375 -0.34375 L 4.796875 -3.671875 C 4.703125 -3.898438 4.53125 -4.015625 4.28125 -4.015625 L 3.53125 -4.015625 C 3.382812 -4.015625 3.265625 -3.96875 3.171875 -3.875 C 3.054688 -3.757812 3 -3.628906 3 -3.484375 L 3 -0.53125 C 3 -0.382812 2.953125 -0.265625 2.859375 -0.171875 C 2.742188 -0.0546875 2.613281 0 2.46875 0 L 1.453125 0 C 1.304688 0 1.1875 -0.0546875 1.09375 -0.171875 C 0.976562 -0.265625 0.921875 -0.382812 0.921875 -0.53125 L 0.921875 -12.96875 C 0.921875 -13.113281 0.976562 -13.242188 1.09375 -13.359375 C 1.1875 -13.453125 1.304688 -13.5 1.453125 -13.5 Z M 3 -6.625 C 3 -6.476562 3.054688 -6.359375 3.171875 -6.265625 C 3.265625 -6.148438 3.382812 -6.09375 3.53125 -6.09375 L 4.53125 -6.09375 C 4.914062 -6.09375 5.234375 -6.226562 5.484375 -6.5 C 5.742188 -6.757812 5.941406 -7.085938 6.078125 -7.484375 C 6.210938 -7.867188 6.28125 -8.296875 6.28125 -8.765625 C 6.28125 -9.222656 6.21875 -9.648438 6.09375 -10.046875 C 5.957031 -10.429688 5.765625 -10.757812 5.515625 -11.03125 C 5.253906 -11.289062 4.925781 -11.421875 4.53125 -11.421875 L 3.53125 -11.421875 C 3.382812 -11.421875 3.265625 -11.375 3.171875 -11.28125 C 3.054688 -11.164062 3 -11.035156 3 -10.890625 Z M 3 -6.625 "/></g></g></g><g fill="#000000" fill-opacity="0.4"><g transform="translate(227.594029, 25.005724)"><g><path d="M 8.234375 -13.5 C 8.378906 -13.5 8.507812 -13.453125 8.625 -13.359375 C 8.71875 -13.242188 8.765625 -13.113281 8.765625 -12.96875 L 8.765625 -3.921875 C 8.765625 -3.378906 8.664062 -2.867188 8.46875 -2.390625 C 8.257812 -1.910156 7.976562 -1.492188 7.625 -1.140625 C 7.269531 -0.785156 6.851562 -0.507812 6.375 -0.3125 C 5.894531 -0.101562 5.382812 0 4.84375 0 C 4.300781 0 3.796875 -0.101562 3.328125 -0.3125 C 2.847656 -0.519531 2.429688 -0.800781 2.078125 -1.15625 C 1.722656 -1.507812 1.441406 -1.925781 1.234375 -2.40625 C 1.023438 -2.875 0.921875 -3.378906 0.921875 -3.921875 L 0.921875 -12.96875 C 0.921875 -13.113281 0.976562 -13.242188 1.09375 -13.359375 C 1.1875 -13.453125 1.304688 -13.5 1.453125 -13.5 L 2.453125 -13.5 C 2.609375 -13.5 2.742188 -13.453125 2.859375 -13.359375 C 2.953125 -13.242188 3 -13.113281 3 -12.96875 L 3 -3.984375 C 3 -3.722656 3.050781 -3.476562 3.15625 -3.25 C 3.25 -3.007812 3.382812 -2.804688 3.5625 -2.640625 C 3.726562 -2.460938 3.925781 -2.328125 4.15625 -2.234375 C 4.394531 -2.128906 4.644531 -2.078125 4.90625 -2.078125 C 5.40625 -2.078125 5.828125 -2.25 6.171875 -2.59375 C 6.515625 -2.9375 6.6875 -3.363281 6.6875 -3.875 L 6.6875 -12.96875 C 6.6875 -13.113281 6.742188 -13.242188 6.859375 -13.359375 C 6.960938 -13.453125 7.085938 -13.5 7.234375 -13.5 Z M 8.234375 -13.5 "/></g></g></g><g fill="#000000" fill-opacity="0.4"><g transform="translate(237.279669, 25.005724)"><g><path d="M 4.96875 -7.078125 C 4.90625 -6.972656 4.875 -6.867188 4.875 -6.765625 C 4.875 -6.640625 4.90625 -6.523438 4.96875 -6.421875 L 9.0625 -0.859375 C 9.195312 -0.691406 9.21875 -0.503906 9.125 -0.296875 C 9.019531 -0.0976562 8.859375 0 8.640625 0 L 7.40625 0 C 7.21875 0 7.070312 -0.0703125 6.96875 -0.21875 L 3.578125 -4.828125 C 3.523438 -4.878906 3.476562 -4.90625 3.4375 -4.90625 C 3.394531 -4.90625 3.359375 -4.878906 3.328125 -4.828125 L 3.015625 -4.421875 C 3.003906 -4.410156 3 -4.378906 3 -4.328125 L 3 -0.546875 C 3 -0.390625 2.953125 -0.265625 2.859375 -0.171875 C 2.742188 -0.0546875 2.609375 0 2.453125 0 L 1.46875 0 C 1.3125 0 1.1875 -0.0546875 1.09375 -0.171875 C 0.976562 -0.265625 0.921875 -0.390625 0.921875 -0.546875 L 0.921875 -12.953125 C 0.921875 -13.109375 0.976562 -13.242188 1.09375 -13.359375 C 1.1875 -13.453125 1.3125 -13.5 1.46875 -13.5 L 2.453125 -13.5 C 2.609375 -13.5 2.742188 -13.453125 2.859375 -13.359375 C 2.953125 -13.242188 3 -13.109375 3 -12.953125 L 3 -8.359375 C 3 -8.273438 3.035156 -8.226562 3.109375 -8.21875 C 3.179688 -8.1875 3.238281 -8.203125 3.28125 -8.265625 L 6.96875 -13.28125 C 7.082031 -13.425781 7.226562 -13.5 7.40625 -13.5 L 8.640625 -13.5 C 8.859375 -13.5 9.019531 -13.398438 9.125 -13.203125 C 9.21875 -12.992188 9.195312 -12.804688 9.0625 -12.640625 Z M 4.96875 -7.078125 "/></g></g></g><g fill="#000000" fill-opacity="0.4"><g transform="translate(247.388832, 25.005724)"><g><path d="M 8.421875 0 C 8.160156 0 7.988281 -0.132812 7.90625 -0.40625 C 7.863281 -0.539062 7.8125 -0.738281 7.75 -1 C 7.675781 -1.238281 7.585938 -1.578125 7.484375 -2.015625 C 7.390625 -2.273438 7.207031 -2.40625 6.9375 -2.40625 L 4 -2.40625 C 3.726562 -2.40625 3.550781 -2.273438 3.46875 -2.015625 C 3.375 -1.679688 3.300781 -1.378906 3.25 -1.109375 C 3.164062 -0.835938 3.097656 -0.601562 3.046875 -0.40625 C 2.953125 -0.132812 2.78125 0 2.53125 0 L 1.46875 0 C 1.300781 0 1.160156 -0.0703125 1.046875 -0.21875 C 0.941406 -0.351562 0.910156 -0.507812 0.953125 -0.6875 C 1.078125 -1.132812 1.234375 -1.707031 1.421875 -2.40625 C 1.597656 -3.09375 1.800781 -3.84375 2.03125 -4.65625 C 2.25 -5.457031 2.472656 -6.285156 2.703125 -7.140625 C 2.929688 -7.992188 3.148438 -8.804688 3.359375 -9.578125 C 3.546875 -10.335938 3.726562 -11.03125 3.90625 -11.65625 C 4.0625 -12.269531 4.191406 -12.75 4.296875 -13.09375 C 4.316406 -13.21875 4.375 -13.316406 4.46875 -13.390625 C 4.570312 -13.460938 4.6875 -13.5 4.8125 -13.5 L 6.140625 -13.5 C 6.253906 -13.5 6.363281 -13.460938 6.46875 -13.390625 C 6.5625 -13.316406 6.625 -13.21875 6.65625 -13.09375 C 7.082031 -11.476562 7.457031 -10.09375 7.78125 -8.9375 C 8.082031 -7.78125 8.335938 -6.8125 8.546875 -6.03125 C 8.753906 -5.238281 8.925781 -4.601562 9.0625 -4.125 C 9.1875 -3.644531 9.289062 -3.265625 9.375 -2.984375 C 9.445312 -2.691406 9.507812 -2.472656 9.5625 -2.328125 C 9.59375 -2.160156 9.628906 -2.007812 9.671875 -1.875 C 9.710938 -1.738281 9.753906 -1.585938 9.796875 -1.421875 C 9.835938 -1.242188 9.898438 -1 9.984375 -0.6875 C 10.035156 -0.507812 10.003906 -0.351562 9.890625 -0.21875 C 9.785156 -0.0703125 9.644531 0 9.46875 0 Z M 4.3125 -5.171875 C 4.257812 -5.003906 4.289062 -4.851562 4.40625 -4.71875 C 4.507812 -4.570312 4.648438 -4.5 4.828125 -4.5 L 6.109375 -4.5 C 6.285156 -4.5 6.429688 -4.570312 6.546875 -4.71875 C 6.648438 -4.851562 6.675781 -5.003906 6.625 -5.171875 C 6.53125 -5.515625 6.4375 -5.882812 6.34375 -6.28125 C 6.226562 -6.675781 6.109375 -7.09375 5.984375 -7.53125 C 5.953125 -7.664062 5.882812 -7.769531 5.78125 -7.84375 C 5.6875 -7.90625 5.582031 -7.9375 5.46875 -7.9375 C 5.363281 -7.9375 5.257812 -7.90625 5.15625 -7.84375 C 5.0625 -7.769531 4.992188 -7.664062 4.953125 -7.53125 C 4.847656 -7.132812 4.742188 -6.742188 4.640625 -6.359375 C 4.523438 -5.960938 4.414062 -5.566406 4.3125 -5.171875 Z M 4.3125 -5.171875 "/></g></g></g><g fill="#000000" fill-opacity="0.4"><g transform="translate(258.326612, 25.005724)"><g><path d="M 8.96875 -13.5 C 9.113281 -13.5 9.242188 -13.453125 9.359375 -13.359375 C 9.453125 -13.242188 9.5 -13.113281 9.5 -12.96875 L 9.5 -0.53125 C 9.5 -0.382812 9.453125 -0.265625 9.359375 -0.171875 C 9.242188 -0.0546875 9.113281 0 8.96875 0 L 7.546875 0 C 7.328125 0 7.171875 -0.101562 7.078125 -0.3125 L 3.390625 -8.203125 C 3.347656 -8.296875 3.273438 -8.332031 3.171875 -8.3125 C 3.054688 -8.28125 3 -8.210938 3 -8.109375 L 3 -0.53125 C 3 -0.382812 2.953125 -0.265625 2.859375 -0.171875 C 2.742188 -0.0546875 2.609375 0 2.453125 0 L 1.453125 0 C 1.304688 0 1.1875 -0.0546875 1.09375 -0.171875 C 0.976562 -0.265625 0.921875 -0.382812 0.921875 -0.53125 L 0.921875 -12.96875 C 0.921875 -13.113281 0.976562 -13.242188 1.09375 -13.359375 C 1.1875 -13.453125 1.304688 -13.5 1.453125 -13.5 L 2.875 -13.5 C 3.101562 -13.5 3.265625 -13.394531 3.359375 -13.1875 L 7.03125 -5.3125 C 7.070312 -5.207031 7.15625 -5.164062 7.28125 -5.1875 C 7.375 -5.21875 7.421875 -5.285156 7.421875 -5.390625 L 7.421875 -12.96875 C 7.421875 -13.113281 7.476562 -13.242188 7.59375 -13.359375 C 7.695312 -13.453125 7.828125 -13.5 7.984375 -13.5 Z M 8.96875 -13.5 "/></g></g></g><g fill="#000000" fill-opacity="1"><g transform="translate(46.478916, 23.68421)"><g><path d="M 8 -6.984375 C 8.40625 -6.648438 8.722656 -6.242188 8.953125 -5.765625 C 9.171875 -5.285156 9.304688 -4.789062 9.359375 -4.28125 C 9.410156 -3.757812 9.367188 -3.25 9.234375 -2.75 C 9.097656 -2.226562 8.867188 -1.765625 8.546875 -1.359375 C 8.222656 -0.953125 7.8125 -0.628906 7.3125 -0.390625 C 6.8125 -0.128906 6.222656 0 5.546875 0 L 1.453125 0 C 1.304688 0 1.1875 -0.0546875 1.09375 -0.171875 C 0.976562 -0.265625 0.921875 -0.382812 0.921875 -0.53125 L 0.921875 -12.96875 C 0.921875 -13.113281 0.976562 -13.242188 1.09375 -13.359375 C 1.1875 -13.453125 1.304688 -13.5 1.453125 -13.5 L 4.5 -13.5 C 5.351562 -13.5 6.070312 -13.300781 6.65625 -12.90625 C 7.21875 -12.519531 7.640625 -12.03125 7.921875 -11.4375 C 8.203125 -10.851562 8.34375 -10.21875 8.34375 -9.53125 C 8.332031 -8.84375 8.171875 -8.207031 7.859375 -7.625 C 7.804688 -7.507812 7.789062 -7.394531 7.8125 -7.28125 C 7.832031 -7.15625 7.894531 -7.054688 8 -6.984375 Z M 3.53125 -11.421875 C 3.382812 -11.421875 3.265625 -11.375 3.171875 -11.28125 C 3.054688 -11.164062 3 -11.035156 3 -10.890625 L 3 -8.328125 C 3 -8.179688 3.054688 -8.054688 3.171875 -7.953125 C 3.265625 -7.847656 3.382812 -7.796875 3.53125 -7.796875 L 4.53125 -7.796875 C 4.914062 -7.796875 5.234375 -7.882812 5.484375 -8.0625 C 5.742188 -8.238281 5.941406 -8.460938 6.078125 -8.734375 C 6.210938 -9.003906 6.28125 -9.296875 6.28125 -9.609375 C 6.28125 -9.921875 6.21875 -10.210938 6.09375 -10.484375 C 5.957031 -10.753906 5.765625 -10.976562 5.515625 -11.15625 C 5.253906 -11.332031 4.925781 -11.421875 4.53125 -11.421875 Z M 5.578125 -2.078125 C 5.960938 -2.078125 6.285156 -2.171875 6.546875 -2.359375 C 6.796875 -2.523438 6.988281 -2.742188 7.125 -3.015625 C 7.25 -3.285156 7.316406 -3.582031 7.328125 -3.90625 C 7.328125 -4.207031 7.265625 -4.492188 7.140625 -4.765625 C 7.003906 -5.035156 6.8125 -5.265625 6.5625 -5.453125 C 6.300781 -5.617188 5.972656 -5.703125 5.578125 -5.703125 L 3.53125 -5.703125 C 3.382812 -5.703125 3.265625 -5.65625 3.171875 -5.5625 C 3.054688 -5.445312 3 -5.316406 3 -5.171875 L 3 -2.609375 C 3 -2.460938 3.054688 -2.34375 3.171875 -2.25 C 3.265625 -2.132812 3.382812 -2.078125 3.53125 -2.078125 Z M 5.578125 -2.078125 "/></g></g></g><g fill="#000000" fill-opacity="1"><g transform="translate(56.772222, 23.68421)"><g><path d="M 2.46875 -13.5 C 2.613281 -13.5 2.742188 -13.453125 2.859375 -13.359375 C 2.953125 -13.242188 3 -13.113281 3 -12.96875 L 3 -0.53125 C 3 -0.382812 2.953125 -0.265625 2.859375 -0.171875 C 2.742188 -0.0546875 2.613281 0 2.46875 0 L 1.453125 0 C 1.304688 0 1.1875 -0.0546875 1.09375 -0.171875 C 0.976562 -0.265625 0.921875 -0.382812 0.921875 -0.53125 L 0.921875 -12.96875 C 0.921875 -13.113281 0.976562 -13.242188 1.09375 -13.359375 C 1.1875 -13.453125 1.304688 -13.5 1.453125 -13.5 Z M 2.46875 -13.5 "/></g></g></g><g fill="#000000" fill-opacity="1"><g transform="translate(60.694363, 23.68421)"><g><path d="M 3 -13.5 C 4 -13.5 4.894531 -13.320312 5.6875 -12.96875 C 6.488281 -12.613281 7.171875 -12.132812 7.734375 -11.53125 C 8.285156 -10.914062 8.71875 -10.203125 9.03125 -9.390625 C 9.320312 -8.566406 9.46875 -7.691406 9.46875 -6.765625 C 9.46875 -5.828125 9.320312 -4.953125 9.03125 -4.140625 C 8.71875 -3.316406 8.285156 -2.597656 7.734375 -1.984375 C 7.171875 -1.367188 6.488281 -0.882812 5.6875 -0.53125 C 4.894531 -0.175781 4 0 3 0 L 1.453125 0 C 1.304688 0 1.1875 -0.0546875 1.09375 -0.171875 C 0.976562 -0.265625 0.921875 -0.382812 0.921875 -0.53125 L 0.921875 -12.96875 C 0.921875 -13.113281 0.976562 -13.242188 1.09375 -13.359375 C 1.1875 -13.453125 1.304688 -13.5 1.453125 -13.5 Z M 3 -2.65625 C 3 -2.476562 3.0625 -2.34375 3.1875 -2.25 C 3.300781 -2.132812 3.441406 -2.09375 3.609375 -2.125 C 4.203125 -2.195312 4.722656 -2.367188 5.171875 -2.640625 C 5.628906 -2.910156 6.007812 -3.253906 6.3125 -3.671875 C 6.625 -4.078125 6.859375 -4.546875 7.015625 -5.078125 C 7.160156 -5.609375 7.234375 -6.171875 7.234375 -6.765625 C 7.234375 -7.347656 7.160156 -7.910156 7.015625 -8.453125 C 6.859375 -8.984375 6.625 -9.457031 6.3125 -9.875 C 6.007812 -10.28125 5.628906 -10.617188 5.171875 -10.890625 C 4.722656 -11.160156 4.203125 -11.332031 3.609375 -11.40625 C 3.441406 -11.425781 3.300781 -11.382812 3.1875 -11.28125 C 3.0625 -11.164062 3 -11.03125 3 -10.875 Z M 3 -2.65625 "/></g></g></g><g fill="#000000" fill-opacity="1"><g transform="translate(71.079741, 23.68421)"><g><path d="M 8.421875 0 C 8.160156 0 7.988281 -0.132812 7.90625 -0.40625 C 7.863281 -0.539062 7.8125 -0.738281 7.75 -1 C 7.675781 -1.238281 7.585938 -1.578125 7.484375 -2.015625 C 7.390625 -2.273438 7.207031 -2.40625 6.9375 -2.40625 L 4 -2.40625 C 3.726562 -2.40625 3.550781 -2.273438 3.46875 -2.015625 C 3.375 -1.679688 3.300781 -1.378906 3.25 -1.109375 C 3.164062 -0.835938 3.097656 -0.601562 3.046875 -0.40625 C 2.953125 -0.132812 2.78125 0 2.53125 0 L 1.46875 0 C 1.300781 0 1.160156 -0.0703125 1.046875 -0.21875 C 0.941406 -0.351562 0.910156 -0.507812 0.953125 -0.6875 C 1.078125 -1.132812 1.234375 -1.707031 1.421875 -2.40625 C 1.597656 -3.09375 1.800781 -3.84375 2.03125 -4.65625 C 2.25 -5.457031 2.472656 -6.285156 2.703125 -7.140625 C 2.929688 -7.992188 3.148438 -8.804688 3.359375 -9.578125 C 3.546875 -10.335938 3.726562 -11.03125 3.90625 -11.65625 C 4.0625 -12.269531 4.191406 -12.75 4.296875 -13.09375 C 4.316406 -13.21875 4.375 -13.316406 4.46875 -13.390625 C 4.570312 -13.460938 4.6875 -13.5 4.8125 -13.5 L 6.140625 -13.5 C 6.253906 -13.5 6.363281 -13.460938 6.46875 -13.390625 C 6.5625 -13.316406 6.625 -13.21875 6.65625 -13.09375 C 7.082031 -11.476562 7.457031 -10.09375 7.78125 -8.9375 C 8.082031 -7.78125 8.335938 -6.8125 8.546875 -6.03125 C 8.753906 -5.238281 8.925781 -4.601562 9.0625 -4.125 C 9.1875 -3.644531 9.289062 -3.265625 9.375 -2.984375 C 9.445312 -2.691406 9.507812 -2.472656 9.5625 -2.328125 C 9.59375 -2.160156 9.628906 -2.007812 9.671875 -1.875 C 9.710938 -1.738281 9.753906 -1.585938 9.796875 -1.421875 C 9.835938 -1.242188 9.898438 -1 9.984375 -0.6875 C 10.035156 -0.507812 10.003906 -0.351562 9.890625 -0.21875 C 9.785156 -0.0703125 9.644531 0 9.46875 0 Z M 4.3125 -5.171875 C 4.257812 -5.003906 4.289062 -4.851562 4.40625 -4.71875 C 4.507812 -4.570312 4.648438 -4.5 4.828125 -4.5 L 6.109375 -4.5 C 6.285156 -4.5 6.429688 -4.570312 6.546875 -4.71875 C 6.648438 -4.851562 6.675781 -5.003906 6.625 -5.171875 C 6.53125 -5.515625 6.4375 -5.882812 6.34375 -6.28125 C 6.226562 -6.675781 6.109375 -7.09375 5.984375 -7.53125 C 5.953125 -7.664062 5.882812 -7.769531 5.78125 -7.84375 C 5.6875 -7.90625 5.582031 -7.9375 5.46875 -7.9375 C 5.363281 -7.9375 5.257812 -7.90625 5.15625 -7.84375 C 5.0625 -7.769531 4.992188 -7.664062 4.953125 -7.53125 C 4.847656 -7.132812 4.742188 -6.742188 4.640625 -6.359375 C 4.523438 -5.960938 4.414062 -5.566406 4.3125 -5.171875 Z M 4.3125 -5.171875 "/></g></g></g><g fill="#000000" fill-opacity="1"><g transform="translate(82.017533, 23.68421)"><g><path d="M 8.96875 -13.5 C 9.113281 -13.5 9.242188 -13.453125 9.359375 -13.359375 C 9.453125 -13.242188 9.5 -13.113281 9.5 -12.96875 L 9.5 -0.53125 C 9.5 -0.382812 9.453125 -0.265625 9.359375 -0.171875 C 9.242188 -0.0546875 9.113281 0 8.96875 0 L 7.546875 0 C 7.328125 0 7.171875 -0.101562 7.078125 -0.3125 L 3.390625 -8.203125 C 3.347656 -8.296875 3.273438 -8.332031 3.171875 -8.3125 C 3.054688 -8.28125 3 -8.210938 3 -8.109375 L 3 -0.53125 C 3 -0.382812 2.953125 -0.265625 2.859375 -0.171875 C 2.742188 -0.0546875 2.609375 0 2.453125 0 L 1.453125 0 C 1.304688 0 1.1875 -0.0546875 1.09375 -0.171875 C 0.976562 -0.265625 0.921875 -0.382812 0.921875 -0.53125 L 0.921875 -12.96875 C 0.921875 -13.113281 0.976562 -13.242188 1.09375 -13.359375 C 1.1875 -13.453125 1.304688 -13.5 1.453125 -13.5 L 2.875 -13.5 C 3.101562 -13.5 3.265625 -13.394531 3.359375 -13.1875 L 7.03125 -5.3125 C 7.070312 -5.207031 7.15625 -5.164062 7.28125 -5.1875 C 7.375 -5.21875 7.421875 -5.285156 7.421875 -5.390625 L 7.421875 -12.96875 C 7.421875 -13.113281 7.476562 -13.242188 7.59375 -13.359375 C 7.695312 -13.453125 7.828125 -13.5 7.984375 -13.5 Z M 8.96875 -13.5 "/></g></g></g><g fill="#000000" fill-opacity="1"><g transform="translate(92.439741, 23.68421)"><g><path d="M 12.078125 -7.03125 C 12.171875 -7.03125 12.25 -7.007812 12.3125 -6.96875 C 12.351562 -6.90625 12.375 -6.835938 12.375 -6.765625 C 12.375 -5.929688 12.273438 -5.109375 12.078125 -4.296875 C 11.867188 -3.484375 11.519531 -2.742188 11.03125 -2.078125 C 10.519531 -1.390625 9.894531 -0.875 9.15625 -0.53125 C 8.40625 -0.175781 7.570312 0 6.65625 0 C 4.78125 0 3.316406 -0.691406 2.265625 -2.078125 C 1.367188 -3.296875 0.921875 -4.851562 0.921875 -6.75 C 0.921875 -7.6875 1.035156 -8.550781 1.265625 -9.34375 C 1.492188 -10.125 1.828125 -10.8125 2.265625 -11.40625 C 2.785156 -12.101562 3.414062 -12.628906 4.15625 -12.984375 C 4.894531 -13.328125 5.726562 -13.5 6.65625 -13.5 C 7.570312 -13.5 8.40625 -13.328125 9.15625 -12.984375 C 9.894531 -12.628906 10.519531 -12.101562 11.03125 -11.40625 C 11.082031 -11.34375 11.101562 -11.273438 11.09375 -11.203125 C 11.0625 -11.117188 11.007812 -11.050781 10.9375 -11 L 9.609375 -10.25 C 9.492188 -10.164062 9.378906 -10.179688 9.265625 -10.296875 C 9.054688 -10.546875 8.835938 -10.742188 8.609375 -10.890625 C 8.359375 -11.035156 8.117188 -11.148438 7.890625 -11.234375 C 7.648438 -11.304688 7.425781 -11.359375 7.21875 -11.390625 C 7 -11.410156 6.8125 -11.421875 6.65625 -11.421875 C 6.375 -11.421875 6.03125 -11.378906 5.625 -11.296875 C 5.207031 -11.191406 4.804688 -10.984375 4.421875 -10.671875 C 4.023438 -10.347656 3.691406 -9.878906 3.421875 -9.265625 C 3.140625 -8.640625 3 -7.800781 3 -6.75 C 3 -5.6875 3.140625 -4.847656 3.421875 -4.234375 C 3.691406 -3.617188 4.023438 -3.15625 4.421875 -2.84375 C 4.804688 -2.519531 5.207031 -2.316406 5.625 -2.234375 C 6.03125 -2.128906 6.375 -2.078125 6.65625 -2.078125 C 6.875 -2.078125 7.132812 -2.101562 7.4375 -2.15625 C 7.75 -2.207031 8.070312 -2.320312 8.40625 -2.5 C 8.71875 -2.675781 9.023438 -2.929688 9.328125 -3.265625 C 9.609375 -3.597656 9.832031 -4.039062 10 -4.59375 C 10.03125 -4.6875 10.019531 -4.769531 9.96875 -4.84375 C 9.914062 -4.914062 9.84375 -4.953125 9.75 -4.953125 L 7.5 -4.953125 C 7.351562 -4.953125 7.226562 -5.007812 7.125 -5.125 C 7.019531 -5.21875 6.96875 -5.347656 6.96875 -5.515625 L 6.96875 -6.5 C 6.96875 -6.644531 7.019531 -6.773438 7.125 -6.890625 C 7.226562 -6.984375 7.351562 -7.03125 7.5 -7.03125 Z M 12.078125 -7.03125 "/></g></g></g><g fill="#000000" fill-opacity="1"><g transform="translate(105.734497, 23.68421)"><g/></g></g><g fill="#000000" fill-opacity="1"><g transform="translate(111.258631, 23.68421)"><g><path d="M 7.546875 -11.953125 C 7.546875 -11.804688 7.5 -11.6875 7.40625 -11.59375 C 7.289062 -11.476562 7.160156 -11.421875 7.015625 -11.421875 L 3.53125 -11.421875 C 3.382812 -11.421875 3.265625 -11.375 3.171875 -11.28125 C 3.054688 -11.164062 3 -11.035156 3 -10.890625 L 3 -9.78125 C 3 -9.632812 3.054688 -9.507812 3.171875 -9.40625 C 3.265625 -9.300781 3.382812 -9.25 3.53125 -9.25 L 5.84375 -9.25 C 6 -9.25 6.132812 -9.195312 6.25 -9.09375 C 6.34375 -8.988281 6.390625 -8.863281 6.390625 -8.71875 L 6.390625 -7.71875 C 6.390625 -7.570312 6.34375 -7.441406 6.25 -7.328125 C 6.132812 -7.222656 6 -7.171875 5.84375 -7.171875 L 3.53125 -7.171875 C 3.382812 -7.171875 3.265625 -7.117188 3.171875 -7.015625 C 3.054688 -6.910156 3 -6.78125 3 -6.625 L 3 -2.609375 C 3 -2.460938 3.054688 -2.34375 3.171875 -2.25 C 3.265625 -2.132812 3.382812 -2.078125 3.53125 -2.078125 L 7.015625 -2.078125 C 7.160156 -2.078125 7.289062 -2.03125 7.40625 -1.9375 C 7.5 -1.820312 7.546875 -1.691406 7.546875 -1.546875 L 7.546875 -0.53125 C 7.546875 -0.382812 7.5 -0.265625 7.40625 -0.171875 C 7.289062 -0.0546875 7.160156 0 7.015625 0 L 1.453125 0 C 1.304688 0 1.1875 -0.0546875 1.09375 -0.171875 C 0.976562 -0.265625 0.921875 -0.382812 0.921875 -0.53125 L 0.921875 -12.96875 C 0.921875 -13.113281 0.976562 -13.242188 1.09375 -13.359375 C 1.1875 -13.453125 1.304688 -13.5 1.453125 -13.5 L 7.015625 -13.5 C 7.160156 -13.5 7.289062 -13.453125 7.40625 -13.359375 C 7.5 -13.242188 7.546875 -13.113281 7.546875 -12.96875 Z M 7.546875 -11.953125 "/></g></g></g><g fill="#000000" fill-opacity="1"><g transform="translate(119.72897, 23.68421)"><g><path d="M 8.96875 -13.5 C 9.113281 -13.5 9.242188 -13.453125 9.359375 -13.359375 C 9.453125 -13.242188 9.5 -13.113281 9.5 -12.96875 L 9.5 -0.53125 C 9.5 -0.382812 9.453125 -0.265625 9.359375 -0.171875 C 9.242188 -0.0546875 9.113281 0 8.96875 0 L 7.546875 0 C 7.328125 0 7.171875 -0.101562 7.078125 -0.3125 L 3.390625 -8.203125 C 3.347656 -8.296875 3.273438 -8.332031 3.171875 -8.3125 C 3.054688 -8.28125 3 -8.210938 3 -8.109375 L 3 -0.53125 C 3 -0.382812 2.953125 -0.265625 2.859375 -0.171875 C 2.742188 -0.0546875 2.609375 0 2.453125 0 L 1.453125 0 C 1.304688 0 1.1875 -0.0546875 1.09375 -0.171875 C 0.976562 -0.265625 0.921875 -0.382812 0.921875 -0.53125 L 0.921875 -12.96875 C 0.921875 -13.113281 0.976562 -13.242188 1.09375 -13.359375 C 1.1875 -13.453125 1.304688 -13.5 1.453125 -13.5 L 2.875 -13.5 C 3.101562 -13.5 3.265625 -13.394531 3.359375 -13.1875 L 7.03125 -5.3125 C 7.070312 -5.207031 7.15625 -5.164062 7.28125 -5.1875 C 7.375 -5.21875 7.421875 -5.285156 7.421875 -5.390625 L 7.421875 -12.96875 C 7.421875 -13.113281 7.476562 -13.242188 7.59375 -13.359375 C 7.695312 -13.453125 7.828125 -13.5 7.984375 -13.5 Z M 8.96875 -13.5 "/></g></g></g><g fill="#000000" fill-opacity="1"><g transform="translate(130.151178, 23.68421)"><g><path d="M 7.546875 -11.953125 C 7.546875 -11.804688 7.5 -11.6875 7.40625 -11.59375 C 7.289062 -11.476562 7.160156 -11.421875 7.015625 -11.421875 L 3.53125 -11.421875 C 3.382812 -11.421875 3.265625 -11.375 3.171875 -11.28125 C 3.054688 -11.164062 3 -11.035156 3 -10.890625 L 3 -9.78125 C 3 -9.632812 3.054688 -9.507812 3.171875 -9.40625 C 3.265625 -9.300781 3.382812 -9.25 3.53125 -9.25 L 5.84375 -9.25 C 6 -9.25 6.132812 -9.195312 6.25 -9.09375 C 6.34375 -8.988281 6.390625 -8.863281 6.390625 -8.71875 L 6.390625 -7.71875 C 6.390625 -7.570312 6.34375 -7.441406 6.25 -7.328125 C 6.132812 -7.222656 6 -7.171875 5.84375 -7.171875 L 3.53125 -7.171875 C 3.382812 -7.171875 3.265625 -7.117188 3.171875 -7.015625 C 3.054688 -6.910156 3 -6.78125 3 -6.625 L 3 -2.609375 C 3 -2.460938 3.054688 -2.34375 3.171875 -2.25 C 3.265625 -2.132812 3.382812 -2.078125 3.53125 -2.078125 L 7.015625 -2.078125 C 7.160156 -2.078125 7.289062 -2.03125 7.40625 -1.9375 C 7.5 -1.820312 7.546875 -1.691406 7.546875 -1.546875 L 7.546875 -0.53125 C 7.546875 -0.382812 7.5 -0.265625 7.40625 -0.171875 C 7.289062 -0.0546875 7.160156 0 7.015625 0 L 1.453125 0 C 1.304688 0 1.1875 -0.0546875 1.09375 -0.171875 C 0.976562 -0.265625 0.921875 -0.382812 0.921875 -0.53125 L 0.921875 -12.96875 C 0.921875 -13.113281 0.976562 -13.242188 1.09375 -13.359375 C 1.1875 -13.453125 1.304688 -13.5 1.453125 -13.5 L 7.015625 -13.5 C 7.160156 -13.5 7.289062 -13.453125 7.40625 -13.359375 C 7.5 -13.242188 7.546875 -13.113281 7.546875 -12.96875 Z M 7.546875 -11.953125 "/></g></g></g><g fill="#000000" fill-opacity="1"><g transform="translate(138.621518, 23.68421)"><g><path d="M 4.5 -13.5 C 5.1875 -13.5 5.78125 -13.347656 6.28125 -13.046875 C 6.78125 -12.722656 7.191406 -12.3125 7.515625 -11.8125 C 7.835938 -11.300781 8.066406 -10.734375 8.203125 -10.109375 C 8.335938 -9.484375 8.378906 -8.851562 8.328125 -8.21875 C 8.265625 -7.582031 8.117188 -6.972656 7.890625 -6.390625 C 7.640625 -5.816406 7.304688 -5.332031 6.890625 -4.9375 C 6.703125 -4.78125 6.65625 -4.585938 6.75 -4.359375 L 8.0625 -0.71875 C 8.125 -0.539062 8.109375 -0.378906 8.015625 -0.234375 C 7.898438 -0.078125 7.742188 0 7.546875 0 L 6.5 0 C 6.238281 0 6.066406 -0.113281 5.984375 -0.34375 L 4.796875 -3.671875 C 4.703125 -3.898438 4.53125 -4.015625 4.28125 -4.015625 L 3.53125 -4.015625 C 3.382812 -4.015625 3.265625 -3.96875 3.171875 -3.875 C 3.054688 -3.757812 3 -3.628906 3 -3.484375 L 3 -0.53125 C 3 -0.382812 2.953125 -0.265625 2.859375 -0.171875 C 2.742188 -0.0546875 2.613281 0 2.46875 0 L 1.453125 0 C 1.304688 0 1.1875 -0.0546875 1.09375 -0.171875 C 0.976562 -0.265625 0.921875 -0.382812 0.921875 -0.53125 L 0.921875 -12.96875 C 0.921875 -13.113281 0.976562 -13.242188 1.09375 -13.359375 C 1.1875 -13.453125 1.304688 -13.5 1.453125 -13.5 Z M 3 -6.625 C 3 -6.476562 3.054688 -6.359375 3.171875 -6.265625 C 3.265625 -6.148438 3.382812 -6.09375 3.53125 -6.09375 L 4.53125 -6.09375 C 4.914062 -6.09375 5.234375 -6.226562 5.484375 -6.5 C 5.742188 -6.757812 5.941406 -7.085938 6.078125 -7.484375 C 6.210938 -7.867188 6.28125 -8.296875 6.28125 -8.765625 C 6.28125 -9.222656 6.21875 -9.648438 6.09375 -10.046875 C 5.957031 -10.429688 5.765625 -10.757812 5.515625 -11.03125 C 5.253906 -11.289062 4.925781 -11.421875 4.53125 -11.421875 L 3.53125 -11.421875 C 3.382812 -11.421875 3.265625 -11.375 3.171875 -11.28125 C 3.054688 -11.164062 3 -11.035156 3 -10.890625 Z M 3 -6.625 "/></g></g></g><g fill="#000000" fill-opacity="1"><g transform="translate(147.883658, 23.68421)"><g><path d="M 12.078125 -7.03125 C 12.171875 -7.03125 12.25 -7.007812 12.3125 -6.96875 C 12.351562 -6.90625 12.375 -6.835938 12.375 -6.765625 C 12.375 -5.929688 12.273438 -5.109375 12.078125 -4.296875 C 11.867188 -3.484375 11.519531 -2.742188 11.03125 -2.078125 C 10.519531 -1.390625 9.894531 -0.875 9.15625 -0.53125 C 8.40625 -0.175781 7.570312 0 6.65625 0 C 4.78125 0 3.316406 -0.691406 2.265625 -2.078125 C 1.367188 -3.296875 0.921875 -4.851562 0.921875 -6.75 C 0.921875 -7.6875 1.035156 -8.550781 1.265625 -9.34375 C 1.492188 -10.125 1.828125 -10.8125 2.265625 -11.40625 C 2.785156 -12.101562 3.414062 -12.628906 4.15625 -12.984375 C 4.894531 -13.328125 5.726562 -13.5 6.65625 -13.5 C 7.570312 -13.5 8.40625 -13.328125 9.15625 -12.984375 C 9.894531 -12.628906 10.519531 -12.101562 11.03125 -11.40625 C 11.082031 -11.34375 11.101562 -11.273438 11.09375 -11.203125 C 11.0625 -11.117188 11.007812 -11.050781 10.9375 -11 L 9.609375 -10.25 C 9.492188 -10.164062 9.378906 -10.179688 9.265625 -10.296875 C 9.054688 -10.546875 8.835938 -10.742188 8.609375 -10.890625 C 8.359375 -11.035156 8.117188 -11.148438 7.890625 -11.234375 C 7.648438 -11.304688 7.425781 -11.359375 7.21875 -11.390625 C 7 -11.410156 6.8125 -11.421875 6.65625 -11.421875 C 6.375 -11.421875 6.03125 -11.378906 5.625 -11.296875 C 5.207031 -11.191406 4.804688 -10.984375 4.421875 -10.671875 C 4.023438 -10.347656 3.691406 -9.878906 3.421875 -9.265625 C 3.140625 -8.640625 3 -7.800781 3 -6.75 C 3 -5.6875 3.140625 -4.847656 3.421875 -4.234375 C 3.691406 -3.617188 4.023438 -3.15625 4.421875 -2.84375 C 4.804688 -2.519531 5.207031 -2.316406 5.625 -2.234375 C 6.03125 -2.128906 6.375 -2.078125 6.65625 -2.078125 C 6.875 -2.078125 7.132812 -2.101562 7.4375 -2.15625 C 7.75 -2.207031 8.070312 -2.320312 8.40625 -2.5 C 8.71875 -2.675781 9.023438 -2.929688 9.328125 -3.265625 C 9.609375 -3.597656 9.832031 -4.039062 10 -4.59375 C 10.03125 -4.6875 10.019531 -4.769531 9.96875 -4.84375 C 9.914062 -4.914062 9.84375 -4.953125 9.75 -4.953125 L 7.5 -4.953125 C 7.351562 -4.953125 7.226562 -5.007812 7.125 -5.125 C 7.019531 -5.21875 6.96875 -5.347656 6.96875 -5.515625 L 6.96875 -6.5 C 6.96875 -6.644531 7.019531 -6.773438 7.125 -6.890625 C 7.226562 -6.984375 7.351562 -7.03125 7.5 -7.03125 Z M 12.078125 -7.03125 "/></g></g></g><g fill="#000000" fill-opacity="1"><g transform="translate(161.178414, 23.68421)"><g><path d="M 2.46875 -13.5 C 2.613281 -13.5 2.742188 -13.453125 2.859375 -13.359375 C 2.953125 -13.242188 3 -13.113281 3 -12.96875 L 3 -0.53125 C 3 -0.382812 2.953125 -0.265625 2.859375 -0.171875 C 2.742188 -0.0546875 2.613281 0 2.46875 0 L 1.453125 0 C 1.304688 0 1.1875 -0.0546875 1.09375 -0.171875 C 0.976562 -0.265625 0.921875 -0.382812 0.921875 -0.53125 L 0.921875 -12.96875 C 0.921875 -13.113281 0.976562 -13.242188 1.09375 -13.359375 C 1.1875 -13.453125 1.304688 -13.5 1.453125 -13.5 Z M 2.46875 -13.5 "/></g></g></g><g fill="#000000" fill-opacity="1"><g transform="translate(165.100554, 23.68421)"><g/></g></g><g fill="#000000" fill-opacity="1"><g transform="translate(170.624688, 23.68421)"><g><path d="M 8.53125 -11.953125 C 8.53125 -11.804688 8.476562 -11.6875 8.375 -11.59375 C 8.269531 -11.476562 8.140625 -11.421875 7.984375 -11.421875 L 6.296875 -11.421875 C 6.148438 -11.421875 6.03125 -11.375 5.9375 -11.28125 C 5.820312 -11.164062 5.765625 -11.035156 5.765625 -10.890625 L 5.765625 -0.53125 C 5.765625 -0.382812 5.71875 -0.265625 5.625 -0.171875 C 5.507812 -0.0546875 5.375 0 5.21875 0 L 4.21875 0 C 4.070312 0 3.945312 -0.0546875 3.84375 -0.171875 C 3.738281 -0.265625 3.6875 -0.382812 3.6875 -0.53125 L 3.6875 -10.890625 C 3.6875 -11.035156 3.632812 -11.164062 3.53125 -11.28125 C 3.425781 -11.375 3.300781 -11.421875 3.15625 -11.421875 L 1.453125 -11.421875 C 1.304688 -11.421875 1.1875 -11.476562 1.09375 -11.59375 C 0.976562 -11.6875 0.921875 -11.804688 0.921875 -11.953125 L 0.921875 -12.96875 C 0.921875 -13.113281 0.976562 -13.242188 1.09375 -13.359375 C 1.1875 -13.453125 1.304688 -13.5 1.453125 -13.5 L 7.984375 -13.5 C 8.140625 -13.5 8.269531 -13.453125 8.375 -13.359375 C 8.476562 -13.242188 8.53125 -13.113281 8.53125 -12.96875 Z M 8.53125 -11.953125 "/></g></g></g><g fill="#000000" fill-opacity="1"><g transform="translate(180.070962, 23.68421)"><g><path d="M 7.546875 -11.953125 C 7.546875 -11.804688 7.5 -11.6875 7.40625 -11.59375 C 7.289062 -11.476562 7.160156 -11.421875 7.015625 -11.421875 L 3.53125 -11.421875 C 3.382812 -11.421875 3.265625 -11.375 3.171875 -11.28125 C 3.054688 -11.164062 3 -11.035156 3 -10.890625 L 3 -9.78125 C 3 -9.632812 3.054688 -9.507812 3.171875 -9.40625 C 3.265625 -9.300781 3.382812 -9.25 3.53125 -9.25 L 5.84375 -9.25 C 6 -9.25 6.132812 -9.195312 6.25 -9.09375 C 6.34375 -8.988281 6.390625 -8.863281 6.390625 -8.71875 L 6.390625 -7.71875 C 6.390625 -7.570312 6.34375 -7.441406 6.25 -7.328125 C 6.132812 -7.222656 6 -7.171875 5.84375 -7.171875 L 3.53125 -7.171875 C 3.382812 -7.171875 3.265625 -7.117188 3.171875 -7.015625 C 3.054688 -6.910156 3 -6.78125 3 -6.625 L 3 -2.609375 C 3 -2.460938 3.054688 -2.34375 3.171875 -2.25 C 3.265625 -2.132812 3.382812 -2.078125 3.53125 -2.078125 L 7.015625 -2.078125 C 7.160156 -2.078125 7.289062 -2.03125 7.40625 -1.9375 C 7.5 -1.820312 7.546875 -1.691406 7.546875 -1.546875 L 7.546875 -0.53125 C 7.546875 -0.382812 7.5 -0.265625 7.40625 -0.171875 C 7.289062 -0.0546875 7.160156 0 7.015625 0 L 1.453125 0 C 1.304688 0 1.1875 -0.0546875 1.09375 -0.171875 C 0.976562 -0.265625 0.921875 -0.382812 0.921875 -0.53125 L 0.921875 -12.96875 C 0.921875 -13.113281 0.976562 -13.242188 1.09375 -13.359375 C 1.1875 -13.453125 1.304688 -13.5 1.453125 -13.5 L 7.015625 -13.5 C 7.160156 -13.5 7.289062 -13.453125 7.40625 -13.359375 C 7.5 -13.242188 7.546875 -13.113281 7.546875 -12.96875 Z M 7.546875 -11.953125 "/></g></g></g><g fill="#000000" fill-opacity="1"><g transform="translate(188.541302, 23.68421)"><g><path d="M 4.5 -13.5 C 5.1875 -13.5 5.78125 -13.347656 6.28125 -13.046875 C 6.78125 -12.722656 7.191406 -12.3125 7.515625 -11.8125 C 7.835938 -11.300781 8.066406 -10.734375 8.203125 -10.109375 C 8.335938 -9.484375 8.378906 -8.851562 8.328125 -8.21875 C 8.265625 -7.582031 8.117188 -6.972656 7.890625 -6.390625 C 7.640625 -5.816406 7.304688 -5.332031 6.890625 -4.9375 C 6.703125 -4.78125 6.65625 -4.585938 6.75 -4.359375 L 8.0625 -0.71875 C 8.125 -0.539062 8.109375 -0.378906 8.015625 -0.234375 C 7.898438 -0.078125 7.742188 0 7.546875 0 L 6.5 0 C 6.238281 0 6.066406 -0.113281 5.984375 -0.34375 L 4.796875 -3.671875 C 4.703125 -3.898438 4.53125 -4.015625 4.28125 -4.015625 L 3.53125 -4.015625 C 3.382812 -4.015625 3.265625 -3.96875 3.171875 -3.875 C 3.054688 -3.757812 3 -3.628906 3 -3.484375 L 3 -0.53125 C 3 -0.382812 2.953125 -0.265625 2.859375 -0.171875 C 2.742188 -0.0546875 2.613281 0 2.46875 0 L 1.453125 0 C 1.304688 0 1.1875 -0.0546875 1.09375 -0.171875 C 0.976562 -0.265625 0.921875 -0.382812 0.921875 -0.53125 L 0.921875 -12.96875 C 0.921875 -13.113281 0.976562 -13.242188 1.09375 -13.359375 C 1.1875 -13.453125 1.304688 -13.5 1.453125 -13.5 Z M 3 -6.625 C 3 -6.476562 3.054688 -6.359375 3.171875 -6.265625 C 3.265625 -6.148438 3.382812 -6.09375 3.53125 -6.09375 L 4.53125 -6.09375 C 4.914062 -6.09375 5.234375 -6.226562 5.484375 -6.5 C 5.742188 -6.757812 5.941406 -7.085938 6.078125 -7.484375 C 6.210938 -7.867188 6.28125 -8.296875 6.28125 -8.765625 C 6.28125 -9.222656 6.21875 -9.648438 6.09375 -10.046875 C 5.957031 -10.429688 5.765625 -10.757812 5.515625 -11.03125 C 5.253906 -11.289062 4.925781 -11.421875 4.53125 -11.421875 L 3.53125 -11.421875 C 3.382812 -11.421875 3.265625 -11.375 3.171875 -11.28125 C 3.054688 -11.164062 3 -11.035156 3 -10.890625 Z M 3 -6.625 "/></g></g></g><g fill="#000000" fill-opacity="1"><g transform="translate(197.803442, 23.68421)"><g><path d="M 8 -6.984375 C 8.40625 -6.648438 8.722656 -6.242188 8.953125 -5.765625 C 9.171875 -5.285156 9.304688 -4.789062 9.359375 -4.28125 C 9.410156 -3.757812 9.367188 -3.25 9.234375 -2.75 C 9.097656 -2.226562 8.867188 -1.765625 8.546875 -1.359375 C 8.222656 -0.953125 7.8125 -0.628906 7.3125 -0.390625 C 6.8125 -0.128906 6.222656 0 5.546875 0 L 1.453125 0 C 1.304688 0 1.1875 -0.0546875 1.09375 -0.171875 C 0.976562 -0.265625 0.921875 -0.382812 0.921875 -0.53125 L 0.921875 -12.96875 C 0.921875 -13.113281 0.976562 -13.242188 1.09375 -13.359375 C 1.1875 -13.453125 1.304688 -13.5 1.453125 -13.5 L 4.5 -13.5 C 5.351562 -13.5 6.070312 -13.300781 6.65625 -12.90625 C 7.21875 -12.519531 7.640625 -12.03125 7.921875 -11.4375 C 8.203125 -10.851562 8.34375 -10.21875 8.34375 -9.53125 C 8.332031 -8.84375 8.171875 -8.207031 7.859375 -7.625 C 7.804688 -7.507812 7.789062 -7.394531 7.8125 -7.28125 C 7.832031 -7.15625 7.894531 -7.054688 8 -6.984375 Z M 3.53125 -11.421875 C 3.382812 -11.421875 3.265625 -11.375 3.171875 -11.28125 C 3.054688 -11.164062 3 -11.035156 3 -10.890625 L 3 -8.328125 C 3 -8.179688 3.054688 -8.054688 3.171875 -7.953125 C 3.265625 -7.847656 3.382812 -7.796875 3.53125 -7.796875 L 4.53125 -7.796875 C 4.914062 -7.796875 5.234375 -7.882812 5.484375 -8.0625 C 5.742188 -8.238281 5.941406 -8.460938 6.078125 -8.734375 C 6.210938 -9.003906 6.28125 -9.296875 6.28125 -9.609375 C 6.28125 -9.921875 6.21875 -10.210938 6.09375 -10.484375 C 5.957031 -10.753906 5.765625 -10.976562 5.515625 -11.15625 C 5.253906 -11.332031 4.925781 -11.421875 4.53125 -11.421875 Z M 5.578125 -2.078125 C 5.960938 -2.078125 6.285156 -2.171875 6.546875 -2.359375 C 6.796875 -2.523438 6.988281 -2.742188 7.125 -3.015625 C 7.25 -3.285156 7.316406 -3.582031 7.328125 -3.90625 C 7.328125 -4.207031 7.265625 -4.492188 7.140625 -4.765625 C 7.003906 -5.035156 6.8125 -5.265625 6.5625 -5.453125 C 6.300781 -5.617188 5.972656 -5.703125 5.578125 -5.703125 L 3.53125 -5.703125 C 3.382812 -5.703125 3.265625 -5.65625 3.171875 -5.5625 C 3.054688 -5.445312 3 -5.316406 3 -5.171875 L 3 -2.609375 C 3 -2.460938 3.054688 -2.34375 3.171875 -2.25 C 3.265625 -2.132812 3.382812 -2.078125 3.53125 -2.078125 Z M 5.578125 -2.078125 "/></g></g></g><g fill="#000000" fill-opacity="1"><g transform="translate(208.096748, 23.68421)"><g><path d="M 8.421875 0 C 8.160156 0 7.988281 -0.132812 7.90625 -0.40625 C 7.863281 -0.539062 7.8125 -0.738281 7.75 -1 C 7.675781 -1.238281 7.585938 -1.578125 7.484375 -2.015625 C 7.390625 -2.273438 7.207031 -2.40625 6.9375 -2.40625 L 4 -2.40625 C 3.726562 -2.40625 3.550781 -2.273438 3.46875 -2.015625 C 3.375 -1.679688 3.300781 -1.378906 3.25 -1.109375 C 3.164062 -0.835938 3.097656 -0.601562 3.046875 -0.40625 C 2.953125 -0.132812 2.78125 0 2.53125 0 L 1.46875 0 C 1.300781 0 1.160156 -0.0703125 1.046875 -0.21875 C 0.941406 -0.351562 0.910156 -0.507812 0.953125 -0.6875 C 1.078125 -1.132812 1.234375 -1.707031 1.421875 -2.40625 C 1.597656 -3.09375 1.800781 -3.84375 2.03125 -4.65625 C 2.25 -5.457031 2.472656 -6.285156 2.703125 -7.140625 C 2.929688 -7.992188 3.148438 -8.804688 3.359375 -9.578125 C 3.546875 -10.335938 3.726562 -11.03125 3.90625 -11.65625 C 4.0625 -12.269531 4.191406 -12.75 4.296875 -13.09375 C 4.316406 -13.21875 4.375 -13.316406 4.46875 -13.390625 C 4.570312 -13.460938 4.6875 -13.5 4.8125 -13.5 L 6.140625 -13.5 C 6.253906 -13.5 6.363281 -13.460938 6.46875 -13.390625 C 6.5625 -13.316406 6.625 -13.21875 6.65625 -13.09375 C 7.082031 -11.476562 7.457031 -10.09375 7.78125 -8.9375 C 8.082031 -7.78125 8.335938 -6.8125 8.546875 -6.03125 C 8.753906 -5.238281 8.925781 -4.601562 9.0625 -4.125 C 9.1875 -3.644531 9.289062 -3.265625 9.375 -2.984375 C 9.445312 -2.691406 9.507812 -2.472656 9.5625 -2.328125 C 9.59375 -2.160156 9.628906 -2.007812 9.671875 -1.875 C 9.710938 -1.738281 9.753906 -1.585938 9.796875 -1.421875 C 9.835938 -1.242188 9.898438 -1 9.984375 -0.6875 C 10.035156 -0.507812 10.003906 -0.351562 9.890625 -0.21875 C 9.785156 -0.0703125 9.644531 0 9.46875 0 Z M 4.3125 -5.171875 C 4.257812 -5.003906 4.289062 -4.851562 4.40625 -4.71875 C 4.507812 -4.570312 4.648438 -4.5 4.828125 -4.5 L 6.109375 -4.5 C 6.285156 -4.5 6.429688 -4.570312 6.546875 -4.71875 C 6.648438 -4.851562 6.675781 -5.003906 6.625 -5.171875 C 6.53125 -5.515625 6.4375 -5.882812 6.34375 -6.28125 C 6.226562 -6.675781 6.109375 -7.09375 5.984375 -7.53125 C 5.953125 -7.664062 5.882812 -7.769531 5.78125 -7.84375 C 5.6875 -7.90625 5.582031 -7.9375 5.46875 -7.9375 C 5.363281 -7.9375 5.257812 -7.90625 5.15625 -7.84375 C 5.0625 -7.769531 4.992188 -7.664062 4.953125 -7.53125 C 4.847656 -7.132812 4.742188 -6.742188 4.640625 -6.359375 C 4.523438 -5.960938 4.414062 -5.566406 4.3125 -5.171875 Z M 4.3125 -5.171875 "/></g></g></g><g fill="#000000" fill-opacity="1"><g transform="translate(219.03454, 23.68421)"><g><path d="M 4.5 -13.5 C 5.1875 -13.5 5.78125 -13.347656 6.28125 -13.046875 C 6.78125 -12.722656 7.191406 -12.3125 7.515625 -11.8125 C 7.835938 -11.300781 8.066406 -10.734375 8.203125 -10.109375 C 8.335938 -9.484375 8.378906 -8.851562 8.328125 -8.21875 C 8.265625 -7.582031 8.117188 -6.972656 7.890625 -6.390625 C 7.640625 -5.816406 7.304688 -5.332031 6.890625 -4.9375 C 6.703125 -4.78125 6.65625 -4.585938 6.75 -4.359375 L 8.0625 -0.71875 C 8.125 -0.539062 8.109375 -0.378906 8.015625 -0.234375 C 7.898438 -0.078125 7.742188 0 7.546875 0 L 6.5 0 C 6.238281 0 6.066406 -0.113281 5.984375 -0.34375 L 4.796875 -3.671875 C 4.703125 -3.898438 4.53125 -4.015625 4.28125 -4.015625 L 3.53125 -4.015625 C 3.382812 -4.015625 3.265625 -3.96875 3.171875 -3.875 C 3.054688 -3.757812 3 -3.628906 3 -3.484375 L 3 -0.53125 C 3 -0.382812 2.953125 -0.265625 2.859375 -0.171875 C 2.742188 -0.0546875 2.613281 0 2.46875 0 L 1.453125 0 C 1.304688 0 1.1875 -0.0546875 1.09375 -0.171875 C 0.976562 -0.265625 0.921875 -0.382812 0.921875 -0.53125 L 0.921875 -12.96875 C 0.921875 -13.113281 0.976562 -13.242188 1.09375 -13.359375 C 1.1875 -13.453125 1.304688 -13.5 1.453125 -13.5 Z M 3 -6.625 C 3 -6.476562 3.054688 -6.359375 3.171875 -6.265625 C 3.265625 -6.148438 3.382812 -6.09375 3.53125 -6.09375 L 4.53125 -6.09375 C 4.914062 -6.09375 5.234375 -6.226562 5.484375 -6.5 C 5.742188 -6.757812 5.941406 -7.085938 6.078125 -7.484375 C 6.210938 -7.867188 6.28125 -8.296875 6.28125 -8.765625 C 6.28125 -9.222656 6.21875 -9.648438 6.09375 -10.046875 C 5.957031 -10.429688 5.765625 -10.757812 5.515625 -11.03125 C 5.253906 -11.289062 4.925781 -11.421875 4.53125 -11.421875 L 3.53125 -11.421875 C 3.382812 -11.421875 3.265625 -11.375 3.171875 -11.28125 C 3.054688 -11.164062 3 -11.035156 3 -10.890625 Z M 3 -6.625 "/></g></g></g><g fill="#000000" fill-opacity="1"><g transform="translate(228.29669, 23.68421)"><g><path d="M 8.234375 -13.5 C 8.378906 -13.5 8.507812 -13.453125 8.625 -13.359375 C 8.71875 -13.242188 8.765625 -13.113281 8.765625 -12.96875 L 8.765625 -3.921875 C 8.765625 -3.378906 8.664062 -2.867188 8.46875 -2.390625 C 8.257812 -1.910156 7.976562 -1.492188 7.625 -1.140625 C 7.269531 -0.785156 6.851562 -0.507812 6.375 -0.3125 C 5.894531 -0.101562 5.382812 0 4.84375 0 C 4.300781 0 3.796875 -0.101562 3.328125 -0.3125 C 2.847656 -0.519531 2.429688 -0.800781 2.078125 -1.15625 C 1.722656 -1.507812 1.441406 -1.925781 1.234375 -2.40625 C 1.023438 -2.875 0.921875 -3.378906 0.921875 -3.921875 L 0.921875 -12.96875 C 0.921875 -13.113281 0.976562 -13.242188 1.09375 -13.359375 C 1.1875 -13.453125 1.304688 -13.5 1.453125 -13.5 L 2.453125 -13.5 C 2.609375 -13.5 2.742188 -13.453125 2.859375 -13.359375 C 2.953125 -13.242188 3 -13.113281 3 -12.96875 L 3 -3.984375 C 3 -3.722656 3.050781 -3.476562 3.15625 -3.25 C 3.25 -3.007812 3.382812 -2.804688 3.5625 -2.640625 C 3.726562 -2.460938 3.925781 -2.328125 4.15625 -2.234375 C 4.394531 -2.128906 4.644531 -2.078125 4.90625 -2.078125 C 5.40625 -2.078125 5.828125 -2.25 6.171875 -2.59375 C 6.515625 -2.9375 6.6875 -3.363281 6.6875 -3.875 L 6.6875 -12.96875 C 6.6875 -13.113281 6.742188 -13.242188 6.859375 -13.359375 C 6.960938 -13.453125 7.085938 -13.5 7.234375 -13.5 Z M 8.234375 -13.5 "/></g></g></g><g fill="#000000" fill-opacity="1"><g transform="translate(237.982331, 23.68421)"><g><path d="M 4.96875 -7.078125 C 4.90625 -6.972656 4.875 -6.867188 4.875 -6.765625 C 4.875 -6.640625 4.90625 -6.523438 4.96875 -6.421875 L 9.0625 -0.859375 C 9.195312 -0.691406 9.21875 -0.503906 9.125 -0.296875 C 9.019531 -0.0976562 8.859375 0 8.640625 0 L 7.40625 0 C 7.21875 0 7.070312 -0.0703125 6.96875 -0.21875 L 3.578125 -4.828125 C 3.523438 -4.878906 3.476562 -4.90625 3.4375 -4.90625 C 3.394531 -4.90625 3.359375 -4.878906 3.328125 -4.828125 L 3.015625 -4.421875 C 3.003906 -4.410156 3 -4.378906 3 -4.328125 L 3 -0.546875 C 3 -0.390625 2.953125 -0.265625 2.859375 -0.171875 C 2.742188 -0.0546875 2.609375 0 2.453125 0 L 1.46875 0 C 1.3125 0 1.1875 -0.0546875 1.09375 -0.171875 C 0.976562 -0.265625 0.921875 -0.390625 0.921875 -0.546875 L 0.921875 -12.953125 C 0.921875 -13.109375 0.976562 -13.242188 1.09375 -13.359375 C 1.1875 -13.453125 1.3125 -13.5 1.46875 -13.5 L 2.453125 -13.5 C 2.609375 -13.5 2.742188 -13.453125 2.859375 -13.359375 C 2.953125 -13.242188 3 -13.109375 3 -12.953125 L 3 -8.359375 C 3 -8.273438 3.035156 -8.226562 3.109375 -8.21875 C 3.179688 -8.1875 3.238281 -8.203125 3.28125 -8.265625 L 6.96875 -13.28125 C 7.082031 -13.425781 7.226562 -13.5 7.40625 -13.5 L 8.640625 -13.5 C 8.859375 -13.5 9.019531 -13.398438 9.125 -13.203125 C 9.21875 -12.992188 9.195312 -12.804688 9.0625 -12.640625 Z M 4.96875 -7.078125 "/></g></g></g><g fill="#000000" fill-opacity="1"><g transform="translate(248.091493, 23.68421)"><g><path d="M 8.421875 0 C 8.160156 0 7.988281 -0.132812 7.90625 -0.40625 C 7.863281 -0.539062 7.8125 -0.738281 7.75 -1 C 7.675781 -1.238281 7.585938 -1.578125 7.484375 -2.015625 C 7.390625 -2.273438 7.207031 -2.40625 6.9375 -2.40625 L 4 -2.40625 C 3.726562 -2.40625 3.550781 -2.273438 3.46875 -2.015625 C 3.375 -1.679688 3.300781 -1.378906 3.25 -1.109375 C 3.164062 -0.835938 3.097656 -0.601562 3.046875 -0.40625 C 2.953125 -0.132812 2.78125 0 2.53125 0 L 1.46875 0 C 1.300781 0 1.160156 -0.0703125 1.046875 -0.21875 C 0.941406 -0.351562 0.910156 -0.507812 0.953125 -0.6875 C 1.078125 -1.132812 1.234375 -1.707031 1.421875 -2.40625 C 1.597656 -3.09375 1.800781 -3.84375 2.03125 -4.65625 C 2.25 -5.457031 2.472656 -6.285156 2.703125 -7.140625 C 2.929688 -7.992188 3.148438 -8.804688 3.359375 -9.578125 C 3.546875 -10.335938 3.726562 -11.03125 3.90625 -11.65625 C 4.0625 -12.269531 4.191406 -12.75 4.296875 -13.09375 C 4.316406 -13.21875 4.375 -13.316406 4.46875 -13.390625 C 4.570312 -13.460938 4.6875 -13.5 4.8125 -13.5 L 6.140625 -13.5 C 6.253906 -13.5 6.363281 -13.460938 6.46875 -13.390625 C 6.5625 -13.316406 6.625 -13.21875 6.65625 -13.09375 C 7.082031 -11.476562 7.457031 -10.09375 7.78125 -8.9375 C 8.082031 -7.78125 8.335938 -6.8125 8.546875 -6.03125 C 8.753906 -5.238281 8.925781 -4.601562 9.0625 -4.125 C 9.1875 -3.644531 9.289062 -3.265625 9.375 -2.984375 C 9.445312 -2.691406 9.507812 -2.472656 9.5625 -2.328125 C 9.59375 -2.160156 9.628906 -2.007812 9.671875 -1.875 C 9.710938 -1.738281 9.753906 -1.585938 9.796875 -1.421875 C 9.835938 -1.242188 9.898438 -1 9.984375 -0.6875 C 10.035156 -0.507812 10.003906 -0.351562 9.890625 -0.21875 C 9.785156 -0.0703125 9.644531 0 9.46875 0 Z M 4.3125 -5.171875 C 4.257812 -5.003906 4.289062 -4.851562 4.40625 -4.71875 C 4.507812 -4.570312 4.648438 -4.5 4.828125 -4.5 L 6.109375 -4.5 C 6.285156 -4.5 6.429688 -4.570312 6.546875 -4.71875 C 6.648438 -4.851562 6.675781 -5.003906 6.625 -5.171875 C 6.53125 -5.515625 6.4375 -5.882812 6.34375 -6.28125 C 6.226562 -6.675781 6.109375 -7.09375 5.984375 -7.53125 C 5.953125 -7.664062 5.882812 -7.769531 5.78125 -7.84375 C 5.6875 -7.90625 5.582031 -7.9375 5.46875 -7.9375 C 5.363281 -7.9375 5.257812 -7.90625 5.15625 -7.84375 C 5.0625 -7.769531 4.992188 -7.664062 4.953125 -7.53125 C 4.847656 -7.132812 4.742188 -6.742188 4.640625 -6.359375 C 4.523438 -5.960938 4.414062 -5.566406 4.3125 -5.171875 Z M 4.3125 -5.171875 "/></g></g></g><g fill="#000000" fill-opacity="1"><g transform="translate(259.029274, 23.68421)"><g><path d="M 8.96875 -13.5 C 9.113281 -13.5 9.242188 -13.453125 9.359375 -13.359375 C 9.453125 -13.242188 9.5 -13.113281 9.5 -12.96875 L 9.5 -0.53125 C 9.5 -0.382812 9.453125 -0.265625 9.359375 -0.171875 C 9.242188 -0.0546875 9.113281 0 8.96875 0 L 7.546875 0 C 7.328125 0 7.171875 -0.101562 7.078125 -0.3125 L 3.390625 -8.203125 C 3.347656 -8.296875 3.273438 -8.332031 3.171875 -8.3125 C 3.054688 -8.28125 3 -8.210938 3 -8.109375 L 3 -0.53125 C 3 -0.382812 2.953125 -0.265625 2.859375 -0.171875 C 2.742188 -0.0546875 2.609375 0 2.453125 0 L 1.453125 0 C 1.304688 0 1.1875 -0.0546875 1.09375 -0.171875 C 0.976562 -0.265625 0.921875 -0.382812 0.921875 -0.53125 L 0.921875 -12.96875 C 0.921875 -13.113281 0.976562 -13.242188 1.09375 -13.359375 C 1.1875 -13.453125 1.304688 -13.5 1.453125 -13.5 L 2.875 -13.5 C 3.101562 -13.5 3.265625 -13.394531 3.359375 -13.1875 L 7.03125 -5.3125 C 7.070312 -5.207031 7.15625 -5.164062 7.28125 -5.1875 C 7.375 -5.21875 7.421875 -5.285156 7.421875 -5.390625 L 7.421875 -12.96875 C 7.421875 -13.113281 7.476562 -13.242188 7.59375 -13.359375 C 7.695312 -13.453125 7.828125 -13.5 7.984375 -13.5 Z M 8.96875 -13.5 "/></g></g></g></svg>