<svg xmlns="http://www.w3.org/2000/svg" xmlns:xlink="http://www.w3.org/1999/xlink" width="350" zoomAndPan="magnify" viewBox="0 0 262.5 37.5" height="50" preserveAspectRatio="xMidYMid meet" version="1.0"><defs><g/><clipPath id="e7ca97256e"><path d="M 1.480469 0 L 260.527344 0 L 260.527344 37.007812 L 1.480469 37.007812 Z M 1.480469 0 " clip-rule="nonzero"/></clipPath></defs><g clip-path="url(#e7ca97256e)"><path fill="#ffffff" d="M 1.480469 0 L 260.527344 0 L 260.527344 37.007812 L 1.480469 37.007812 Z M 1.480469 0 " fill-opacity="1" fill-rule="nonzero"/><path fill="#ffffff" d="M 1.480469 0 L 260.527344 0 L 260.527344 37.007812 L 1.480469 37.007812 Z M 1.480469 0 " fill-opacity="1" fill-rule="nonzero"/><path stroke-linecap="butt" transform="matrix(0.740132, 0, 0, 0.740132, 1.480263, 0.000000986842)" fill-opacity="1" fill="#ffffff" fill-rule="nonzero" stroke-linejoin="miter" d="M 0.000277778 -0.00000133333 L 350.001426 -0.00000133333 L 350.001426 50.001671 L 0.000277778 50.001671 Z M 0.000277778 -0.00000133333 " stroke="#000000" stroke-width="4" stroke-opacity="1" stroke-miterlimit="4"/></g><g fill="#000000" fill-opacity="0.4"><g transform="translate(59.373668, 25.470189)"><g><path d="M 2.640625 -14.46875 C 2.796875 -14.46875 2.9375 -14.414062 3.0625 -14.3125 C 3.164062 -14.1875 3.21875 -14.046875 3.21875 -13.890625 L 3.21875 -0.578125 C 3.21875 -0.410156 3.164062 -0.273438 3.0625 -0.171875 C 2.9375 -0.0546875 2.796875 0 2.640625 0 L 1.5625 0 C 1.40625 0 1.273438 -0.0546875 1.171875 -0.171875 C 1.046875 -0.273438 0.984375 -0.410156 0.984375 -0.578125 L 0.984375 -13.890625 C 0.984375 -14.046875 1.046875 -14.1875 1.171875 -14.3125 C 1.273438 -14.414062 1.40625 -14.46875 1.5625 -14.46875 Z M 2.640625 -14.46875 "/></g></g></g><g fill="#000000" fill-opacity="0.4"><g transform="translate(63.575961, 25.470189)"><g><path d="M 9.609375 -14.46875 C 9.765625 -14.46875 9.90625 -14.414062 10.03125 -14.3125 C 10.132812 -14.1875 10.1875 -14.046875 10.1875 -13.890625 L 10.1875 -0.578125 C 10.1875 -0.410156 10.132812 -0.273438 10.03125 -0.171875 C 9.90625 -0.0546875 9.765625 0 9.609375 0 L 8.09375 0 C 7.851562 0 7.679688 -0.109375 7.578125 -0.328125 L 3.625 -8.78125 C 3.59375 -8.882812 3.515625 -8.925781 3.390625 -8.90625 C 3.273438 -8.875 3.21875 -8.800781 3.21875 -8.6875 L 3.21875 -0.578125 C 3.21875 -0.410156 3.164062 -0.273438 3.0625 -0.171875 C 2.9375 -0.0546875 2.789062 0 2.625 0 L 1.5625 0 C 1.40625 0 1.273438 -0.0546875 1.171875 -0.171875 C 1.046875 -0.273438 0.984375 -0.410156 0.984375 -0.578125 L 0.984375 -13.890625 C 0.984375 -14.046875 1.046875 -14.1875 1.171875 -14.3125 C 1.273438 -14.414062 1.40625 -14.46875 1.5625 -14.46875 L 3.078125 -14.46875 C 3.328125 -14.46875 3.5 -14.351562 3.59375 -14.125 L 7.53125 -5.6875 C 7.570312 -5.582031 7.660156 -5.539062 7.796875 -5.5625 C 7.898438 -5.59375 7.953125 -5.664062 7.953125 -5.78125 L 7.953125 -13.890625 C 7.953125 -14.046875 8.007812 -14.1875 8.125 -14.3125 C 8.25 -14.414062 8.390625 -14.46875 8.546875 -14.46875 Z M 9.609375 -14.46875 "/></g></g></g><g fill="#000000" fill-opacity="0.4"><g transform="translate(74.742612, 25.470189)"><g><path d="M 3.21875 -14.46875 C 4.28125 -14.46875 5.238281 -14.273438 6.09375 -13.890625 C 6.945312 -13.515625 7.675781 -13.003906 8.28125 -12.359375 C 8.875 -11.691406 9.335938 -10.925781 9.671875 -10.0625 C 9.984375 -9.1875 10.140625 -8.25 10.140625 -7.25 C 10.140625 -6.25 9.984375 -5.3125 9.671875 -4.4375 C 9.335938 -3.5625 8.875 -2.789062 8.28125 -2.125 C 7.675781 -1.46875 6.945312 -0.953125 6.09375 -0.578125 C 5.238281 -0.191406 4.28125 0 3.21875 0 L 1.5625 0 C 1.40625 0 1.273438 -0.0546875 1.171875 -0.171875 C 1.046875 -0.273438 0.984375 -0.410156 0.984375 -0.578125 L 0.984375 -13.890625 C 0.984375 -14.046875 1.046875 -14.1875 1.171875 -14.3125 C 1.273438 -14.414062 1.40625 -14.46875 1.5625 -14.46875 Z M 3.21875 -2.84375 C 3.21875 -2.65625 3.28125 -2.507812 3.40625 -2.40625 C 3.53125 -2.289062 3.6875 -2.242188 3.875 -2.265625 C 4.5 -2.347656 5.054688 -2.535156 5.546875 -2.828125 C 6.035156 -3.109375 6.441406 -3.472656 6.765625 -3.921875 C 7.097656 -4.359375 7.347656 -4.867188 7.515625 -5.453125 C 7.671875 -6.015625 7.75 -6.613281 7.75 -7.25 C 7.75 -7.875 7.671875 -8.476562 7.515625 -9.0625 C 7.347656 -9.625 7.097656 -10.128906 6.765625 -10.578125 C 6.441406 -11.015625 6.035156 -11.375 5.546875 -11.65625 C 5.054688 -11.945312 4.5 -12.132812 3.875 -12.21875 C 3.6875 -12.238281 3.53125 -12.191406 3.40625 -12.078125 C 3.28125 -11.960938 3.21875 -11.816406 3.21875 -11.640625 Z M 3.21875 -2.84375 "/></g></g></g><g fill="#000000" fill-opacity="0.4"><g transform="translate(85.869804, 25.470189)"><g><path d="M 6.46875 0 C 4.644531 0 3.234375 -0.765625 2.234375 -2.296875 C 1.398438 -3.578125 0.984375 -5.21875 0.984375 -7.21875 C 0.984375 -8.207031 1.085938 -9.125 1.296875 -9.96875 C 1.515625 -10.789062 1.828125 -11.519531 2.234375 -12.15625 C 3.234375 -13.695312 4.644531 -14.46875 6.46875 -14.46875 C 8.300781 -14.46875 9.71875 -13.695312 10.71875 -12.15625 C 11.125 -11.519531 11.429688 -10.789062 11.640625 -9.96875 C 11.847656 -9.125 11.953125 -8.207031 11.953125 -7.21875 C 11.953125 -5.21875 11.539062 -3.578125 10.71875 -2.296875 C 9.71875 -0.765625 8.300781 0 6.46875 0 Z M 6.46875 -12.234375 C 5.96875 -12.234375 5.539062 -12.140625 5.1875 -11.953125 C 4.832031 -11.753906 4.535156 -11.503906 4.296875 -11.203125 C 4.046875 -10.890625 3.847656 -10.550781 3.703125 -10.1875 C 3.566406 -9.800781 3.460938 -9.425781 3.390625 -9.0625 C 3.316406 -8.675781 3.269531 -8.328125 3.25 -8.015625 C 3.226562 -7.679688 3.21875 -7.414062 3.21875 -7.21875 C 3.21875 -7.019531 3.226562 -6.765625 3.25 -6.453125 C 3.269531 -6.117188 3.316406 -5.769531 3.390625 -5.40625 C 3.460938 -5.039062 3.566406 -4.671875 3.703125 -4.296875 C 3.847656 -3.921875 4.046875 -3.582031 4.296875 -3.28125 C 4.535156 -2.957031 4.832031 -2.707031 5.1875 -2.53125 C 5.539062 -2.332031 5.96875 -2.234375 6.46875 -2.234375 C 6.96875 -2.234375 7.394531 -2.332031 7.75 -2.53125 C 8.101562 -2.707031 8.40625 -2.957031 8.65625 -3.28125 C 8.894531 -3.582031 9.085938 -3.921875 9.234375 -4.296875 C 9.378906 -4.671875 9.492188 -5.039062 9.578125 -5.40625 C 9.640625 -5.769531 9.679688 -6.117188 9.703125 -6.453125 C 9.722656 -6.765625 9.734375 -7.019531 9.734375 -7.21875 C 9.734375 -7.414062 9.722656 -7.679688 9.703125 -8.015625 C 9.679688 -8.328125 9.640625 -8.675781 9.578125 -9.0625 C 9.492188 -9.425781 9.378906 -9.800781 9.234375 -10.1875 C 9.085938 -10.550781 8.894531 -10.890625 8.65625 -11.203125 C 8.40625 -11.503906 8.101562 -11.753906 7.75 -11.953125 C 7.394531 -12.140625 6.96875 -12.234375 6.46875 -12.234375 Z M 6.46875 -12.234375 "/></g></g></g><g fill="#000000" fill-opacity="0.4"><g transform="translate(98.812066, 25.470189)"><g><path d="M 9.609375 -14.46875 C 9.765625 -14.46875 9.90625 -14.414062 10.03125 -14.3125 C 10.132812 -14.1875 10.1875 -14.046875 10.1875 -13.890625 L 10.1875 -0.578125 C 10.1875 -0.410156 10.132812 -0.273438 10.03125 -0.171875 C 9.90625 -0.0546875 9.765625 0 9.609375 0 L 8.09375 0 C 7.851562 0 7.679688 -0.109375 7.578125 -0.328125 L 3.625 -8.78125 C 3.59375 -8.882812 3.515625 -8.925781 3.390625 -8.90625 C 3.273438 -8.875 3.21875 -8.800781 3.21875 -8.6875 L 3.21875 -0.578125 C 3.21875 -0.410156 3.164062 -0.273438 3.0625 -0.171875 C 2.9375 -0.0546875 2.789062 0 2.625 0 L 1.5625 0 C 1.40625 0 1.273438 -0.0546875 1.171875 -0.171875 C 1.046875 -0.273438 0.984375 -0.410156 0.984375 -0.578125 L 0.984375 -13.890625 C 0.984375 -14.046875 1.046875 -14.1875 1.171875 -14.3125 C 1.273438 -14.414062 1.40625 -14.46875 1.5625 -14.46875 L 3.078125 -14.46875 C 3.328125 -14.46875 3.5 -14.351562 3.59375 -14.125 L 7.53125 -5.6875 C 7.570312 -5.582031 7.660156 -5.539062 7.796875 -5.5625 C 7.898438 -5.59375 7.953125 -5.664062 7.953125 -5.78125 L 7.953125 -13.890625 C 7.953125 -14.046875 8.007812 -14.1875 8.125 -14.3125 C 8.25 -14.414062 8.390625 -14.46875 8.546875 -14.46875 Z M 9.609375 -14.46875 "/></g></g></g><g fill="#000000" fill-opacity="0.4"><g transform="translate(109.978717, 25.470189)"><g><path d="M 8.09375 -12.8125 C 8.09375 -12.65625 8.039062 -12.519531 7.9375 -12.40625 C 7.8125 -12.289062 7.671875 -12.234375 7.515625 -12.234375 L 3.78125 -12.234375 C 3.625 -12.234375 3.492188 -12.179688 3.390625 -12.078125 C 3.273438 -11.960938 3.21875 -11.820312 3.21875 -11.65625 L 3.21875 -10.484375 C 3.21875 -10.316406 3.273438 -10.179688 3.390625 -10.078125 C 3.492188 -9.960938 3.625 -9.90625 3.78125 -9.90625 L 6.25 -9.90625 C 6.425781 -9.90625 6.570312 -9.851562 6.6875 -9.75 C 6.789062 -9.632812 6.84375 -9.492188 6.84375 -9.328125 L 6.84375 -8.265625 C 6.84375 -8.109375 6.789062 -7.972656 6.6875 -7.859375 C 6.570312 -7.734375 6.425781 -7.671875 6.25 -7.671875 L 3.78125 -7.671875 C 3.625 -7.671875 3.492188 -7.617188 3.390625 -7.515625 C 3.273438 -7.398438 3.21875 -7.265625 3.21875 -7.109375 L 3.21875 -2.796875 C 3.21875 -2.640625 3.273438 -2.507812 3.390625 -2.40625 C 3.492188 -2.289062 3.625 -2.234375 3.78125 -2.234375 L 7.515625 -2.234375 C 7.671875 -2.234375 7.8125 -2.179688 7.9375 -2.078125 C 8.039062 -1.953125 8.09375 -1.8125 8.09375 -1.65625 L 8.09375 -0.578125 C 8.09375 -0.410156 8.039062 -0.273438 7.9375 -0.171875 C 7.8125 -0.0546875 7.671875 0 7.515625 0 L 1.5625 0 C 1.40625 0 1.273438 -0.0546875 1.171875 -0.171875 C 1.046875 -0.273438 0.984375 -0.410156 0.984375 -0.578125 L 0.984375 -13.890625 C 0.984375 -14.046875 1.046875 -14.1875 1.171875 -14.3125 C 1.273438 -14.414062 1.40625 -14.46875 1.5625 -14.46875 L 7.515625 -14.46875 C 7.671875 -14.46875 7.8125 -14.414062 7.9375 -14.3125 C 8.039062 -14.1875 8.09375 -14.046875 8.09375 -13.890625 Z M 8.09375 -12.8125 "/></g></g></g><g fill="#000000" fill-opacity="0.4"><g transform="translate(119.054081, 25.470189)"><g><path d="M 4.515625 -14.46875 C 5.660156 -14.46875 6.523438 -14.15625 7.109375 -13.53125 C 7.679688 -12.914062 7.96875 -12.039062 7.96875 -10.90625 C 7.96875 -10.78125 7.929688 -10.675781 7.859375 -10.59375 C 7.765625 -10.5 7.648438 -10.453125 7.515625 -10.453125 L 6.203125 -10.453125 C 6.066406 -10.453125 5.957031 -10.5 5.875 -10.59375 C 5.789062 -10.675781 5.75 -10.78125 5.75 -10.90625 L 5.75 -11.046875 C 5.75 -11.546875 5.648438 -11.910156 5.453125 -12.140625 C 5.253906 -12.347656 4.960938 -12.453125 4.578125 -12.453125 C 4.191406 -12.453125 3.898438 -12.347656 3.703125 -12.140625 C 3.492188 -11.910156 3.390625 -11.546875 3.390625 -11.046875 C 3.390625 -10.785156 3.425781 -10.546875 3.5 -10.328125 C 3.5625 -10.085938 3.671875 -9.847656 3.828125 -9.609375 C 3.984375 -9.367188 4.191406 -9.117188 4.453125 -8.859375 C 4.703125 -8.585938 5.019531 -8.289062 5.40625 -7.96875 C 5.894531 -7.5625 6.3125 -7.179688 6.65625 -6.828125 C 6.976562 -6.460938 7.238281 -6.109375 7.4375 -5.765625 C 7.632812 -5.410156 7.78125 -5.054688 7.875 -4.703125 C 7.957031 -4.335938 8 -3.953125 8 -3.546875 C 8 -2.398438 7.707031 -1.523438 7.125 -0.921875 C 6.53125 -0.304688 5.65625 0 4.5 0 C 3.34375 0 2.46875 -0.304688 1.875 -0.921875 C 1.28125 -1.523438 0.984375 -2.398438 0.984375 -3.546875 L 0.984375 -3.984375 C 0.984375 -4.097656 1.03125 -4.203125 1.125 -4.296875 C 1.207031 -4.378906 1.304688 -4.421875 1.421875 -4.421875 L 2.765625 -4.421875 C 2.878906 -4.421875 2.984375 -4.378906 3.078125 -4.296875 C 3.171875 -4.203125 3.21875 -4.097656 3.21875 -3.984375 L 3.21875 -3.40625 C 3.21875 -2.914062 3.320312 -2.5625 3.53125 -2.34375 C 3.738281 -2.132812 4.035156 -2.03125 4.421875 -2.03125 C 4.804688 -2.03125 5.109375 -2.132812 5.328125 -2.34375 C 5.535156 -2.5625 5.640625 -2.914062 5.640625 -3.40625 C 5.640625 -3.65625 5.609375 -3.898438 5.546875 -4.140625 C 5.484375 -4.378906 5.367188 -4.617188 5.203125 -4.859375 C 5.046875 -5.085938 4.84375 -5.34375 4.59375 -5.625 C 4.332031 -5.882812 4.007812 -6.175781 3.625 -6.5 C 3.144531 -6.90625 2.738281 -7.285156 2.40625 -7.640625 C 2.082031 -7.992188 1.820312 -8.347656 1.625 -8.703125 C 1.40625 -9.054688 1.257812 -9.410156 1.1875 -9.765625 C 1.09375 -10.117188 1.046875 -10.5 1.046875 -10.90625 C 1.046875 -12.039062 1.335938 -12.914062 1.921875 -13.53125 C 2.492188 -14.15625 3.359375 -14.46875 4.515625 -14.46875 Z M 4.515625 -14.46875 "/></g></g></g><g fill="#000000" fill-opacity="0.4"><g transform="translate(128.030807, 25.470189)"><g><path d="M 2.640625 -14.46875 C 2.796875 -14.46875 2.9375 -14.414062 3.0625 -14.3125 C 3.164062 -14.1875 3.21875 -14.046875 3.21875 -13.890625 L 3.21875 -0.578125 C 3.21875 -0.410156 3.164062 -0.273438 3.0625 -0.171875 C 2.9375 -0.0546875 2.796875 0 2.640625 0 L 1.5625 0 C 1.40625 0 1.273438 -0.0546875 1.171875 -0.171875 C 1.046875 -0.273438 0.984375 -0.410156 0.984375 -0.578125 L 0.984375 -13.890625 C 0.984375 -14.046875 1.046875 -14.1875 1.171875 -14.3125 C 1.273438 -14.414062 1.40625 -14.46875 1.5625 -14.46875 Z M 2.640625 -14.46875 "/></g></g></g><g fill="#000000" fill-opacity="0.4"><g transform="translate(132.2331, 25.470189)"><g><path d="M 9.015625 0 C 8.742188 0 8.5625 -0.144531 8.46875 -0.4375 C 8.425781 -0.582031 8.375 -0.789062 8.3125 -1.0625 C 8.226562 -1.320312 8.128906 -1.6875 8.015625 -2.15625 C 7.921875 -2.4375 7.726562 -2.578125 7.4375 -2.578125 L 4.28125 -2.578125 C 3.988281 -2.578125 3.796875 -2.4375 3.703125 -2.15625 C 3.617188 -1.800781 3.539062 -1.476562 3.46875 -1.1875 C 3.394531 -0.894531 3.320312 -0.644531 3.25 -0.4375 C 3.164062 -0.144531 2.984375 0 2.703125 0 L 1.578125 0 C 1.390625 0 1.238281 -0.078125 1.125 -0.234375 C 1.007812 -0.378906 0.976562 -0.546875 1.03125 -0.734375 C 1.15625 -1.210938 1.316406 -1.828125 1.515625 -2.578125 C 1.710938 -3.316406 1.929688 -4.125 2.171875 -5 C 2.410156 -5.851562 2.65625 -6.738281 2.90625 -7.65625 C 3.132812 -8.5625 3.363281 -9.429688 3.59375 -10.265625 C 3.800781 -11.078125 4 -11.816406 4.1875 -12.484375 C 4.351562 -13.148438 4.488281 -13.664062 4.59375 -14.03125 C 4.625 -14.164062 4.691406 -14.269531 4.796875 -14.34375 C 4.898438 -14.425781 5.019531 -14.46875 5.15625 -14.46875 L 6.578125 -14.46875 C 6.703125 -14.46875 6.816406 -14.425781 6.921875 -14.34375 C 7.023438 -14.269531 7.09375 -14.164062 7.125 -14.03125 C 7.582031 -12.289062 7.984375 -10.804688 8.328125 -9.578125 C 8.660156 -8.335938 8.9375 -7.296875 9.15625 -6.453125 C 9.382812 -5.609375 9.566406 -4.929688 9.703125 -4.421875 C 9.835938 -3.910156 9.953125 -3.503906 10.046875 -3.203125 C 10.117188 -2.878906 10.179688 -2.640625 10.234375 -2.484375 C 10.273438 -2.316406 10.316406 -2.160156 10.359375 -2.015625 C 10.398438 -1.867188 10.445312 -1.703125 10.5 -1.515625 C 10.539062 -1.335938 10.609375 -1.078125 10.703125 -0.734375 C 10.753906 -0.546875 10.71875 -0.378906 10.59375 -0.234375 C 10.476562 -0.078125 10.328125 0 10.140625 0 Z M 4.625 -5.546875 C 4.5625 -5.359375 4.59375 -5.191406 4.71875 -5.046875 C 4.832031 -4.890625 4.984375 -4.8125 5.171875 -4.8125 L 6.546875 -4.8125 C 6.734375 -4.8125 6.882812 -4.890625 7 -5.046875 C 7.125 -5.191406 7.160156 -5.359375 7.109375 -5.546875 C 7.003906 -5.910156 6.894531 -6.304688 6.78125 -6.734375 C 6.664062 -7.148438 6.539062 -7.597656 6.40625 -8.078125 C 6.375 -8.210938 6.304688 -8.320312 6.203125 -8.40625 C 6.085938 -8.46875 5.972656 -8.5 5.859375 -8.5 C 5.742188 -8.5 5.632812 -8.46875 5.53125 -8.40625 C 5.425781 -8.320312 5.351562 -8.210938 5.3125 -8.078125 C 5.1875 -7.648438 5.070312 -7.226562 4.96875 -6.8125 C 4.851562 -6.382812 4.738281 -5.960938 4.625 -5.546875 Z M 4.625 -5.546875 "/></g></g></g><g fill="#000000" fill-opacity="0.4"><g transform="translate(143.952162, 25.470189)"><g><path d="M 0.984375 -7.78125 C 0.984375 -7.9375 1.046875 -8.070312 1.171875 -8.1875 C 1.273438 -8.289062 1.40625 -8.34375 1.5625 -8.34375 L 5.078125 -8.34375 C 5.234375 -8.34375 5.367188 -8.289062 5.484375 -8.1875 C 5.585938 -8.070312 5.640625 -7.9375 5.640625 -7.78125 L 5.640625 -6.6875 C 5.640625 -6.53125 5.585938 -6.398438 5.484375 -6.296875 C 5.367188 -6.179688 5.234375 -6.125 5.078125 -6.125 L 1.5625 -6.125 C 1.40625 -6.125 1.273438 -6.179688 1.171875 -6.296875 C 1.046875 -6.398438 0.984375 -6.53125 0.984375 -6.6875 Z M 0.984375 -7.78125 "/></g></g></g><g fill="#000000" fill-opacity="0.4"><g transform="translate(150.581126, 25.470189)"><g><path d="M 2.640625 -14.46875 C 2.796875 -14.46875 2.9375 -14.414062 3.0625 -14.3125 C 3.164062 -14.1875 3.21875 -14.046875 3.21875 -13.890625 L 3.21875 -0.578125 C 3.21875 -0.410156 3.164062 -0.273438 3.0625 -0.171875 C 2.9375 -0.0546875 2.796875 0 2.640625 0 L 1.5625 0 C 1.40625 0 1.273438 -0.0546875 1.171875 -0.171875 C 1.046875 -0.273438 0.984375 -0.410156 0.984375 -0.578125 L 0.984375 -13.890625 C 0.984375 -14.046875 1.046875 -14.1875 1.171875 -14.3125 C 1.273438 -14.414062 1.40625 -14.46875 1.5625 -14.46875 Z M 2.640625 -14.46875 "/></g></g></g><g fill="#000000" fill-opacity="0.4"><g transform="translate(154.783419, 25.470189)"><g><path d="M 9.140625 -12.8125 C 9.140625 -12.65625 9.085938 -12.519531 8.984375 -12.40625 C 8.859375 -12.289062 8.710938 -12.234375 8.546875 -12.234375 L 6.75 -12.234375 C 6.59375 -12.234375 6.460938 -12.179688 6.359375 -12.078125 C 6.234375 -11.960938 6.171875 -11.820312 6.171875 -11.65625 L 6.171875 -0.578125 C 6.171875 -0.410156 6.117188 -0.273438 6.015625 -0.171875 C 5.898438 -0.0546875 5.753906 0 5.578125 0 L 4.515625 0 C 4.359375 0 4.226562 -0.0546875 4.125 -0.171875 C 4.007812 -0.273438 3.953125 -0.410156 3.953125 -0.578125 L 3.953125 -11.65625 C 3.953125 -11.820312 3.894531 -11.960938 3.78125 -12.078125 C 3.664062 -12.179688 3.53125 -12.234375 3.375 -12.234375 L 1.5625 -12.234375 C 1.40625 -12.234375 1.273438 -12.289062 1.171875 -12.40625 C 1.046875 -12.519531 0.984375 -12.65625 0.984375 -12.8125 L 0.984375 -13.890625 C 0.984375 -14.046875 1.046875 -14.1875 1.171875 -14.3125 C 1.273438 -14.414062 1.40625 -14.46875 1.5625 -14.46875 L 8.546875 -14.46875 C 8.710938 -14.46875 8.859375 -14.414062 8.984375 -14.3125 C 9.085938 -14.1875 9.140625 -14.046875 9.140625 -13.890625 Z M 9.140625 -12.8125 "/></g></g></g><g fill="#000000" fill-opacity="0.4"><g transform="translate(164.904426, 25.470189)"><g><path d="M 9.015625 0 C 8.742188 0 8.5625 -0.144531 8.46875 -0.4375 C 8.425781 -0.582031 8.375 -0.789062 8.3125 -1.0625 C 8.226562 -1.320312 8.128906 -1.6875 8.015625 -2.15625 C 7.921875 -2.4375 7.726562 -2.578125 7.4375 -2.578125 L 4.28125 -2.578125 C 3.988281 -2.578125 3.796875 -2.4375 3.703125 -2.15625 C 3.617188 -1.800781 3.539062 -1.476562 3.46875 -1.1875 C 3.394531 -0.894531 3.320312 -0.644531 3.25 -0.4375 C 3.164062 -0.144531 2.984375 0 2.703125 0 L 1.578125 0 C 1.390625 0 1.238281 -0.078125 1.125 -0.234375 C 1.007812 -0.378906 0.976562 -0.546875 1.03125 -0.734375 C 1.15625 -1.210938 1.316406 -1.828125 1.515625 -2.578125 C 1.710938 -3.316406 1.929688 -4.125 2.171875 -5 C 2.410156 -5.851562 2.65625 -6.738281 2.90625 -7.65625 C 3.132812 -8.5625 3.363281 -9.429688 3.59375 -10.265625 C 3.800781 -11.078125 4 -11.816406 4.1875 -12.484375 C 4.351562 -13.148438 4.488281 -13.664062 4.59375 -14.03125 C 4.625 -14.164062 4.691406 -14.269531 4.796875 -14.34375 C 4.898438 -14.425781 5.019531 -14.46875 5.15625 -14.46875 L 6.578125 -14.46875 C 6.703125 -14.46875 6.816406 -14.425781 6.921875 -14.34375 C 7.023438 -14.269531 7.09375 -14.164062 7.125 -14.03125 C 7.582031 -12.289062 7.984375 -10.804688 8.328125 -9.578125 C 8.660156 -8.335938 8.9375 -7.296875 9.15625 -6.453125 C 9.382812 -5.609375 9.566406 -4.929688 9.703125 -4.421875 C 9.835938 -3.910156 9.953125 -3.503906 10.046875 -3.203125 C 10.117188 -2.878906 10.179688 -2.640625 10.234375 -2.484375 C 10.273438 -2.316406 10.316406 -2.160156 10.359375 -2.015625 C 10.398438 -1.867188 10.445312 -1.703125 10.5 -1.515625 C 10.539062 -1.335938 10.609375 -1.078125 10.703125 -0.734375 C 10.753906 -0.546875 10.71875 -0.378906 10.59375 -0.234375 C 10.476562 -0.078125 10.328125 0 10.140625 0 Z M 4.625 -5.546875 C 4.5625 -5.359375 4.59375 -5.191406 4.71875 -5.046875 C 4.832031 -4.890625 4.984375 -4.8125 5.171875 -4.8125 L 6.546875 -4.8125 C 6.734375 -4.8125 6.882812 -4.890625 7 -5.046875 C 7.125 -5.191406 7.160156 -5.359375 7.109375 -5.546875 C 7.003906 -5.910156 6.894531 -6.304688 6.78125 -6.734375 C 6.664062 -7.148438 6.539062 -7.597656 6.40625 -8.078125 C 6.375 -8.210938 6.304688 -8.320312 6.203125 -8.40625 C 6.085938 -8.46875 5.972656 -8.5 5.859375 -8.5 C 5.742188 -8.5 5.632812 -8.46875 5.53125 -8.40625 C 5.425781 -8.320312 5.351562 -8.210938 5.3125 -8.078125 C 5.1875 -7.648438 5.070312 -7.226562 4.96875 -6.8125 C 4.851562 -6.382812 4.738281 -5.960938 4.625 -5.546875 Z M 4.625 -5.546875 "/></g></g></g><g fill="#000000" fill-opacity="0.4"><g transform="translate(176.623488, 25.470189)"><g><path d="M 7 -2.234375 C 7.164062 -2.234375 7.304688 -2.179688 7.421875 -2.078125 C 7.523438 -1.953125 7.578125 -1.8125 7.578125 -1.65625 L 7.578125 -0.578125 C 7.578125 -0.410156 7.523438 -0.273438 7.421875 -0.171875 C 7.304688 -0.0546875 7.164062 0 7 0 L 1.5625 0 C 1.40625 0 1.273438 -0.0546875 1.171875 -0.171875 C 1.046875 -0.273438 0.984375 -0.410156 0.984375 -0.578125 L 0.984375 -13.890625 C 0.984375 -14.046875 1.046875 -14.1875 1.171875 -14.3125 C 1.273438 -14.414062 1.40625 -14.46875 1.5625 -14.46875 L 2.640625 -14.46875 C 2.796875 -14.46875 2.9375 -14.414062 3.0625 -14.3125 C 3.164062 -14.1875 3.21875 -14.046875 3.21875 -13.890625 L 3.21875 -2.796875 C 3.21875 -2.640625 3.273438 -2.507812 3.390625 -2.40625 C 3.492188 -2.289062 3.625 -2.234375 3.78125 -2.234375 Z M 7 -2.234375 "/></g></g></g><g fill="#000000" fill-opacity="0.4"><g transform="translate(185.185901, 25.470189)"><g><path d="M 2.640625 -14.46875 C 2.796875 -14.46875 2.9375 -14.414062 3.0625 -14.3125 C 3.164062 -14.1875 3.21875 -14.046875 3.21875 -13.890625 L 3.21875 -0.578125 C 3.21875 -0.410156 3.164062 -0.273438 3.0625 -0.171875 C 2.9375 -0.0546875 2.796875 0 2.640625 0 L 1.5625 0 C 1.40625 0 1.273438 -0.0546875 1.171875 -0.171875 C 1.046875 -0.273438 0.984375 -0.410156 0.984375 -0.578125 L 0.984375 -13.890625 C 0.984375 -14.046875 1.046875 -14.1875 1.171875 -14.3125 C 1.273438 -14.414062 1.40625 -14.46875 1.5625 -14.46875 Z M 2.640625 -14.46875 "/></g></g></g><g fill="#000000" fill-opacity="0.4"><g transform="translate(189.388194, 25.470189)"><g><path d="M 9.015625 0 C 8.742188 0 8.5625 -0.144531 8.46875 -0.4375 C 8.425781 -0.582031 8.375 -0.789062 8.3125 -1.0625 C 8.226562 -1.320312 8.128906 -1.6875 8.015625 -2.15625 C 7.921875 -2.4375 7.726562 -2.578125 7.4375 -2.578125 L 4.28125 -2.578125 C 3.988281 -2.578125 3.796875 -2.4375 3.703125 -2.15625 C 3.617188 -1.800781 3.539062 -1.476562 3.46875 -1.1875 C 3.394531 -0.894531 3.320312 -0.644531 3.25 -0.4375 C 3.164062 -0.144531 2.984375 0 2.703125 0 L 1.578125 0 C 1.390625 0 1.238281 -0.078125 1.125 -0.234375 C 1.007812 -0.378906 0.976562 -0.546875 1.03125 -0.734375 C 1.15625 -1.210938 1.316406 -1.828125 1.515625 -2.578125 C 1.710938 -3.316406 1.929688 -4.125 2.171875 -5 C 2.410156 -5.851562 2.65625 -6.738281 2.90625 -7.65625 C 3.132812 -8.5625 3.363281 -9.429688 3.59375 -10.265625 C 3.800781 -11.078125 4 -11.816406 4.1875 -12.484375 C 4.351562 -13.148438 4.488281 -13.664062 4.59375 -14.03125 C 4.625 -14.164062 4.691406 -14.269531 4.796875 -14.34375 C 4.898438 -14.425781 5.019531 -14.46875 5.15625 -14.46875 L 6.578125 -14.46875 C 6.703125 -14.46875 6.816406 -14.425781 6.921875 -14.34375 C 7.023438 -14.269531 7.09375 -14.164062 7.125 -14.03125 C 7.582031 -12.289062 7.984375 -10.804688 8.328125 -9.578125 C 8.660156 -8.335938 8.9375 -7.296875 9.15625 -6.453125 C 9.382812 -5.609375 9.566406 -4.929688 9.703125 -4.421875 C 9.835938 -3.910156 9.953125 -3.503906 10.046875 -3.203125 C 10.117188 -2.878906 10.179688 -2.640625 10.234375 -2.484375 C 10.273438 -2.316406 10.316406 -2.160156 10.359375 -2.015625 C 10.398438 -1.867188 10.445312 -1.703125 10.5 -1.515625 C 10.539062 -1.335938 10.609375 -1.078125 10.703125 -0.734375 C 10.753906 -0.546875 10.71875 -0.378906 10.59375 -0.234375 C 10.476562 -0.078125 10.328125 0 10.140625 0 Z M 4.625 -5.546875 C 4.5625 -5.359375 4.59375 -5.191406 4.71875 -5.046875 C 4.832031 -4.890625 4.984375 -4.8125 5.171875 -4.8125 L 6.546875 -4.8125 C 6.734375 -4.8125 6.882812 -4.890625 7 -5.046875 C 7.125 -5.191406 7.160156 -5.359375 7.109375 -5.546875 C 7.003906 -5.910156 6.894531 -6.304688 6.78125 -6.734375 C 6.664062 -7.148438 6.539062 -7.597656 6.40625 -8.078125 C 6.375 -8.210938 6.304688 -8.320312 6.203125 -8.40625 C 6.085938 -8.46875 5.972656 -8.5 5.859375 -8.5 C 5.742188 -8.5 5.632812 -8.46875 5.53125 -8.40625 C 5.425781 -8.320312 5.351562 -8.210938 5.3125 -8.078125 C 5.1875 -7.648438 5.070312 -7.226562 4.96875 -6.8125 C 4.851562 -6.382812 4.738281 -5.960938 4.625 -5.546875 Z M 4.625 -5.546875 "/></g></g></g><g fill="#000000" fill-opacity="1"><g transform="translate(60.12652, 24.054276)"><g><path d="M 2.640625 -14.46875 C 2.796875 -14.46875 2.9375 -14.414062 3.0625 -14.3125 C 3.164062 -14.1875 3.21875 -14.046875 3.21875 -13.890625 L 3.21875 -0.578125 C 3.21875 -0.410156 3.164062 -0.273438 3.0625 -0.171875 C 2.9375 -0.0546875 2.796875 0 2.640625 0 L 1.5625 0 C 1.40625 0 1.273438 -0.0546875 1.171875 -0.171875 C 1.046875 -0.273438 0.984375 -0.410156 0.984375 -0.578125 L 0.984375 -13.890625 C 0.984375 -14.046875 1.046875 -14.1875 1.171875 -14.3125 C 1.273438 -14.414062 1.40625 -14.46875 1.5625 -14.46875 Z M 2.640625 -14.46875 "/></g></g></g><g fill="#000000" fill-opacity="1"><g transform="translate(64.328813, 24.054276)"><g><path d="M 9.609375 -14.46875 C 9.765625 -14.46875 9.90625 -14.414062 10.03125 -14.3125 C 10.132812 -14.1875 10.1875 -14.046875 10.1875 -13.890625 L 10.1875 -0.578125 C 10.1875 -0.410156 10.132812 -0.273438 10.03125 -0.171875 C 9.90625 -0.0546875 9.765625 0 9.609375 0 L 8.09375 0 C 7.851562 0 7.679688 -0.109375 7.578125 -0.328125 L 3.625 -8.78125 C 3.59375 -8.882812 3.515625 -8.925781 3.390625 -8.90625 C 3.273438 -8.875 3.21875 -8.800781 3.21875 -8.6875 L 3.21875 -0.578125 C 3.21875 -0.410156 3.164062 -0.273438 3.0625 -0.171875 C 2.9375 -0.0546875 2.789062 0 2.625 0 L 1.5625 0 C 1.40625 0 1.273438 -0.0546875 1.171875 -0.171875 C 1.046875 -0.273438 0.984375 -0.410156 0.984375 -0.578125 L 0.984375 -13.890625 C 0.984375 -14.046875 1.046875 -14.1875 1.171875 -14.3125 C 1.273438 -14.414062 1.40625 -14.46875 1.5625 -14.46875 L 3.078125 -14.46875 C 3.328125 -14.46875 3.5 -14.351562 3.59375 -14.125 L 7.53125 -5.6875 C 7.570312 -5.582031 7.660156 -5.539062 7.796875 -5.5625 C 7.898438 -5.59375 7.953125 -5.664062 7.953125 -5.78125 L 7.953125 -13.890625 C 7.953125 -14.046875 8.007812 -14.1875 8.125 -14.3125 C 8.25 -14.414062 8.390625 -14.46875 8.546875 -14.46875 Z M 9.609375 -14.46875 "/></g></g></g><g fill="#000000" fill-opacity="1"><g transform="translate(75.495464, 24.054276)"><g><path d="M 3.21875 -14.46875 C 4.28125 -14.46875 5.238281 -14.273438 6.09375 -13.890625 C 6.945312 -13.515625 7.675781 -13.003906 8.28125 -12.359375 C 8.875 -11.691406 9.335938 -10.925781 9.671875 -10.0625 C 9.984375 -9.1875 10.140625 -8.25 10.140625 -7.25 C 10.140625 -6.25 9.984375 -5.3125 9.671875 -4.4375 C 9.335938 -3.5625 8.875 -2.789062 8.28125 -2.125 C 7.675781 -1.46875 6.945312 -0.953125 6.09375 -0.578125 C 5.238281 -0.191406 4.28125 0 3.21875 0 L 1.5625 0 C 1.40625 0 1.273438 -0.0546875 1.171875 -0.171875 C 1.046875 -0.273438 0.984375 -0.410156 0.984375 -0.578125 L 0.984375 -13.890625 C 0.984375 -14.046875 1.046875 -14.1875 1.171875 -14.3125 C 1.273438 -14.414062 1.40625 -14.46875 1.5625 -14.46875 Z M 3.21875 -2.84375 C 3.21875 -2.65625 3.28125 -2.507812 3.40625 -2.40625 C 3.53125 -2.289062 3.6875 -2.242188 3.875 -2.265625 C 4.5 -2.347656 5.054688 -2.535156 5.546875 -2.828125 C 6.035156 -3.109375 6.441406 -3.472656 6.765625 -3.921875 C 7.097656 -4.359375 7.347656 -4.867188 7.515625 -5.453125 C 7.671875 -6.015625 7.75 -6.613281 7.75 -7.25 C 7.75 -7.875 7.671875 -8.476562 7.515625 -9.0625 C 7.347656 -9.625 7.097656 -10.128906 6.765625 -10.578125 C 6.441406 -11.015625 6.035156 -11.375 5.546875 -11.65625 C 5.054688 -11.945312 4.5 -12.132812 3.875 -12.21875 C 3.6875 -12.238281 3.53125 -12.191406 3.40625 -12.078125 C 3.28125 -11.960938 3.21875 -11.816406 3.21875 -11.640625 Z M 3.21875 -2.84375 "/></g></g></g><g fill="#000000" fill-opacity="1"><g transform="translate(86.622656, 24.054276)"><g><path d="M 6.46875 0 C 4.644531 0 3.234375 -0.765625 2.234375 -2.296875 C 1.398438 -3.578125 0.984375 -5.21875 0.984375 -7.21875 C 0.984375 -8.207031 1.085938 -9.125 1.296875 -9.96875 C 1.515625 -10.789062 1.828125 -11.519531 2.234375 -12.15625 C 3.234375 -13.695312 4.644531 -14.46875 6.46875 -14.46875 C 8.300781 -14.46875 9.71875 -13.695312 10.71875 -12.15625 C 11.125 -11.519531 11.429688 -10.789062 11.640625 -9.96875 C 11.847656 -9.125 11.953125 -8.207031 11.953125 -7.21875 C 11.953125 -5.21875 11.539062 -3.578125 10.71875 -2.296875 C 9.71875 -0.765625 8.300781 0 6.46875 0 Z M 6.46875 -12.234375 C 5.96875 -12.234375 5.539062 -12.140625 5.1875 -11.953125 C 4.832031 -11.753906 4.535156 -11.503906 4.296875 -11.203125 C 4.046875 -10.890625 3.847656 -10.550781 3.703125 -10.1875 C 3.566406 -9.800781 3.460938 -9.425781 3.390625 -9.0625 C 3.316406 -8.675781 3.269531 -8.328125 3.25 -8.015625 C 3.226562 -7.679688 3.21875 -7.414062 3.21875 -7.21875 C 3.21875 -7.019531 3.226562 -6.765625 3.25 -6.453125 C 3.269531 -6.117188 3.316406 -5.769531 3.390625 -5.40625 C 3.460938 -5.039062 3.566406 -4.671875 3.703125 -4.296875 C 3.847656 -3.921875 4.046875 -3.582031 4.296875 -3.28125 C 4.535156 -2.957031 4.832031 -2.707031 5.1875 -2.53125 C 5.539062 -2.332031 5.96875 -2.234375 6.46875 -2.234375 C 6.96875 -2.234375 7.394531 -2.332031 7.75 -2.53125 C 8.101562 -2.707031 8.40625 -2.957031 8.65625 -3.28125 C 8.894531 -3.582031 9.085938 -3.921875 9.234375 -4.296875 C 9.378906 -4.671875 9.492188 -5.039062 9.578125 -5.40625 C 9.640625 -5.769531 9.679688 -6.117188 9.703125 -6.453125 C 9.722656 -6.765625 9.734375 -7.019531 9.734375 -7.21875 C 9.734375 -7.414062 9.722656 -7.679688 9.703125 -8.015625 C 9.679688 -8.328125 9.640625 -8.675781 9.578125 -9.0625 C 9.492188 -9.425781 9.378906 -9.800781 9.234375 -10.1875 C 9.085938 -10.550781 8.894531 -10.890625 8.65625 -11.203125 C 8.40625 -11.503906 8.101562 -11.753906 7.75 -11.953125 C 7.394531 -12.140625 6.96875 -12.234375 6.46875 -12.234375 Z M 6.46875 -12.234375 "/></g></g></g><g fill="#000000" fill-opacity="1"><g transform="translate(99.564918, 24.054276)"><g><path d="M 9.609375 -14.46875 C 9.765625 -14.46875 9.90625 -14.414062 10.03125 -14.3125 C 10.132812 -14.1875 10.1875 -14.046875 10.1875 -13.890625 L 10.1875 -0.578125 C 10.1875 -0.410156 10.132812 -0.273438 10.03125 -0.171875 C 9.90625 -0.0546875 9.765625 0 9.609375 0 L 8.09375 0 C 7.851562 0 7.679688 -0.109375 7.578125 -0.328125 L 3.625 -8.78125 C 3.59375 -8.882812 3.515625 -8.925781 3.390625 -8.90625 C 3.273438 -8.875 3.21875 -8.800781 3.21875 -8.6875 L 3.21875 -0.578125 C 3.21875 -0.410156 3.164062 -0.273438 3.0625 -0.171875 C 2.9375 -0.0546875 2.789062 0 2.625 0 L 1.5625 0 C 1.40625 0 1.273438 -0.0546875 1.171875 -0.171875 C 1.046875 -0.273438 0.984375 -0.410156 0.984375 -0.578125 L 0.984375 -13.890625 C 0.984375 -14.046875 1.046875 -14.1875 1.171875 -14.3125 C 1.273438 -14.414062 1.40625 -14.46875 1.5625 -14.46875 L 3.078125 -14.46875 C 3.328125 -14.46875 3.5 -14.351562 3.59375 -14.125 L 7.53125 -5.6875 C 7.570312 -5.582031 7.660156 -5.539062 7.796875 -5.5625 C 7.898438 -5.59375 7.953125 -5.664062 7.953125 -5.78125 L 7.953125 -13.890625 C 7.953125 -14.046875 8.007812 -14.1875 8.125 -14.3125 C 8.25 -14.414062 8.390625 -14.46875 8.546875 -14.46875 Z M 9.609375 -14.46875 "/></g></g></g><g fill="#000000" fill-opacity="1"><g transform="translate(110.731569, 24.054276)"><g><path d="M 8.09375 -12.8125 C 8.09375 -12.65625 8.039062 -12.519531 7.9375 -12.40625 C 7.8125 -12.289062 7.671875 -12.234375 7.515625 -12.234375 L 3.78125 -12.234375 C 3.625 -12.234375 3.492188 -12.179688 3.390625 -12.078125 C 3.273438 -11.960938 3.21875 -11.820312 3.21875 -11.65625 L 3.21875 -10.484375 C 3.21875 -10.316406 3.273438 -10.179688 3.390625 -10.078125 C 3.492188 -9.960938 3.625 -9.90625 3.78125 -9.90625 L 6.25 -9.90625 C 6.425781 -9.90625 6.570312 -9.851562 6.6875 -9.75 C 6.789062 -9.632812 6.84375 -9.492188 6.84375 -9.328125 L 6.84375 -8.265625 C 6.84375 -8.109375 6.789062 -7.972656 6.6875 -7.859375 C 6.570312 -7.734375 6.425781 -7.671875 6.25 -7.671875 L 3.78125 -7.671875 C 3.625 -7.671875 3.492188 -7.617188 3.390625 -7.515625 C 3.273438 -7.398438 3.21875 -7.265625 3.21875 -7.109375 L 3.21875 -2.796875 C 3.21875 -2.640625 3.273438 -2.507812 3.390625 -2.40625 C 3.492188 -2.289062 3.625 -2.234375 3.78125 -2.234375 L 7.515625 -2.234375 C 7.671875 -2.234375 7.8125 -2.179688 7.9375 -2.078125 C 8.039062 -1.953125 8.09375 -1.8125 8.09375 -1.65625 L 8.09375 -0.578125 C 8.09375 -0.410156 8.039062 -0.273438 7.9375 -0.171875 C 7.8125 -0.0546875 7.671875 0 7.515625 0 L 1.5625 0 C 1.40625 0 1.273438 -0.0546875 1.171875 -0.171875 C 1.046875 -0.273438 0.984375 -0.410156 0.984375 -0.578125 L 0.984375 -13.890625 C 0.984375 -14.046875 1.046875 -14.1875 1.171875 -14.3125 C 1.273438 -14.414062 1.40625 -14.46875 1.5625 -14.46875 L 7.515625 -14.46875 C 7.671875 -14.46875 7.8125 -14.414062 7.9375 -14.3125 C 8.039062 -14.1875 8.09375 -14.046875 8.09375 -13.890625 Z M 8.09375 -12.8125 "/></g></g></g><g fill="#000000" fill-opacity="1"><g transform="translate(119.806933, 24.054276)"><g><path d="M 4.515625 -14.46875 C 5.660156 -14.46875 6.523438 -14.15625 7.109375 -13.53125 C 7.679688 -12.914062 7.96875 -12.039062 7.96875 -10.90625 C 7.96875 -10.78125 7.929688 -10.675781 7.859375 -10.59375 C 7.765625 -10.5 7.648438 -10.453125 7.515625 -10.453125 L 6.203125 -10.453125 C 6.066406 -10.453125 5.957031 -10.5 5.875 -10.59375 C 5.789062 -10.675781 5.75 -10.78125 5.75 -10.90625 L 5.75 -11.046875 C 5.75 -11.546875 5.648438 -11.910156 5.453125 -12.140625 C 5.253906 -12.347656 4.960938 -12.453125 4.578125 -12.453125 C 4.191406 -12.453125 3.898438 -12.347656 3.703125 -12.140625 C 3.492188 -11.910156 3.390625 -11.546875 3.390625 -11.046875 C 3.390625 -10.785156 3.425781 -10.546875 3.5 -10.328125 C 3.5625 -10.085938 3.671875 -9.847656 3.828125 -9.609375 C 3.984375 -9.367188 4.191406 -9.117188 4.453125 -8.859375 C 4.703125 -8.585938 5.019531 -8.289062 5.40625 -7.96875 C 5.894531 -7.5625 6.3125 -7.179688 6.65625 -6.828125 C 6.976562 -6.460938 7.238281 -6.109375 7.4375 -5.765625 C 7.632812 -5.410156 7.78125 -5.054688 7.875 -4.703125 C 7.957031 -4.335938 8 -3.953125 8 -3.546875 C 8 -2.398438 7.707031 -1.523438 7.125 -0.921875 C 6.53125 -0.304688 5.65625 0 4.5 0 C 3.34375 0 2.46875 -0.304688 1.875 -0.921875 C 1.28125 -1.523438 0.984375 -2.398438 0.984375 -3.546875 L 0.984375 -3.984375 C 0.984375 -4.097656 1.03125 -4.203125 1.125 -4.296875 C 1.207031 -4.378906 1.304688 -4.421875 1.421875 -4.421875 L 2.765625 -4.421875 C 2.878906 -4.421875 2.984375 -4.378906 3.078125 -4.296875 C 3.171875 -4.203125 3.21875 -4.097656 3.21875 -3.984375 L 3.21875 -3.40625 C 3.21875 -2.914062 3.320312 -2.5625 3.53125 -2.34375 C 3.738281 -2.132812 4.035156 -2.03125 4.421875 -2.03125 C 4.804688 -2.03125 5.109375 -2.132812 5.328125 -2.34375 C 5.535156 -2.5625 5.640625 -2.914062 5.640625 -3.40625 C 5.640625 -3.65625 5.609375 -3.898438 5.546875 -4.140625 C 5.484375 -4.378906 5.367188 -4.617188 5.203125 -4.859375 C 5.046875 -5.085938 4.84375 -5.34375 4.59375 -5.625 C 4.332031 -5.882812 4.007812 -6.175781 3.625 -6.5 C 3.144531 -6.90625 2.738281 -7.285156 2.40625 -7.640625 C 2.082031 -7.992188 1.820312 -8.347656 1.625 -8.703125 C 1.40625 -9.054688 1.257812 -9.410156 1.1875 -9.765625 C 1.09375 -10.117188 1.046875 -10.5 1.046875 -10.90625 C 1.046875 -12.039062 1.335938 -12.914062 1.921875 -13.53125 C 2.492188 -14.15625 3.359375 -14.46875 4.515625 -14.46875 Z M 4.515625 -14.46875 "/></g></g></g><g fill="#000000" fill-opacity="1"><g transform="translate(128.78366, 24.054276)"><g><path d="M 2.640625 -14.46875 C 2.796875 -14.46875 2.9375 -14.414062 3.0625 -14.3125 C 3.164062 -14.1875 3.21875 -14.046875 3.21875 -13.890625 L 3.21875 -0.578125 C 3.21875 -0.410156 3.164062 -0.273438 3.0625 -0.171875 C 2.9375 -0.0546875 2.796875 0 2.640625 0 L 1.5625 0 C 1.40625 0 1.273438 -0.0546875 1.171875 -0.171875 C 1.046875 -0.273438 0.984375 -0.410156 0.984375 -0.578125 L 0.984375 -13.890625 C 0.984375 -14.046875 1.046875 -14.1875 1.171875 -14.3125 C 1.273438 -14.414062 1.40625 -14.46875 1.5625 -14.46875 Z M 2.640625 -14.46875 "/></g></g></g><g fill="#000000" fill-opacity="1"><g transform="translate(132.985953, 24.054276)"><g><path d="M 9.015625 0 C 8.742188 0 8.5625 -0.144531 8.46875 -0.4375 C 8.425781 -0.582031 8.375 -0.789062 8.3125 -1.0625 C 8.226562 -1.320312 8.128906 -1.6875 8.015625 -2.15625 C 7.921875 -2.4375 7.726562 -2.578125 7.4375 -2.578125 L 4.28125 -2.578125 C 3.988281 -2.578125 3.796875 -2.4375 3.703125 -2.15625 C 3.617188 -1.800781 3.539062 -1.476562 3.46875 -1.1875 C 3.394531 -0.894531 3.320312 -0.644531 3.25 -0.4375 C 3.164062 -0.144531 2.984375 0 2.703125 0 L 1.578125 0 C 1.390625 0 1.238281 -0.078125 1.125 -0.234375 C 1.007812 -0.378906 0.976562 -0.546875 1.03125 -0.734375 C 1.15625 -1.210938 1.316406 -1.828125 1.515625 -2.578125 C 1.710938 -3.316406 1.929688 -4.125 2.171875 -5 C 2.410156 -5.851562 2.65625 -6.738281 2.90625 -7.65625 C 3.132812 -8.5625 3.363281 -9.429688 3.59375 -10.265625 C 3.800781 -11.078125 4 -11.816406 4.1875 -12.484375 C 4.351562 -13.148438 4.488281 -13.664062 4.59375 -14.03125 C 4.625 -14.164062 4.691406 -14.269531 4.796875 -14.34375 C 4.898438 -14.425781 5.019531 -14.46875 5.15625 -14.46875 L 6.578125 -14.46875 C 6.703125 -14.46875 6.816406 -14.425781 6.921875 -14.34375 C 7.023438 -14.269531 7.09375 -14.164062 7.125 -14.03125 C 7.582031 -12.289062 7.984375 -10.804688 8.328125 -9.578125 C 8.660156 -8.335938 8.9375 -7.296875 9.15625 -6.453125 C 9.382812 -5.609375 9.566406 -4.929688 9.703125 -4.421875 C 9.835938 -3.910156 9.953125 -3.503906 10.046875 -3.203125 C 10.117188 -2.878906 10.179688 -2.640625 10.234375 -2.484375 C 10.273438 -2.316406 10.316406 -2.160156 10.359375 -2.015625 C 10.398438 -1.867188 10.445312 -1.703125 10.5 -1.515625 C 10.539062 -1.335938 10.609375 -1.078125 10.703125 -0.734375 C 10.753906 -0.546875 10.71875 -0.378906 10.59375 -0.234375 C 10.476562 -0.078125 10.328125 0 10.140625 0 Z M 4.625 -5.546875 C 4.5625 -5.359375 4.59375 -5.191406 4.71875 -5.046875 C 4.832031 -4.890625 4.984375 -4.8125 5.171875 -4.8125 L 6.546875 -4.8125 C 6.734375 -4.8125 6.882812 -4.890625 7 -5.046875 C 7.125 -5.191406 7.160156 -5.359375 7.109375 -5.546875 C 7.003906 -5.910156 6.894531 -6.304688 6.78125 -6.734375 C 6.664062 -7.148438 6.539062 -7.597656 6.40625 -8.078125 C 6.375 -8.210938 6.304688 -8.320312 6.203125 -8.40625 C 6.085938 -8.46875 5.972656 -8.5 5.859375 -8.5 C 5.742188 -8.5 5.632812 -8.46875 5.53125 -8.40625 C 5.425781 -8.320312 5.351562 -8.210938 5.3125 -8.078125 C 5.1875 -7.648438 5.070312 -7.226562 4.96875 -6.8125 C 4.851562 -6.382812 4.738281 -5.960938 4.625 -5.546875 Z M 4.625 -5.546875 "/></g></g></g><g fill="#000000" fill-opacity="1"><g transform="translate(144.705015, 24.054276)"><g><path d="M 0.984375 -7.78125 C 0.984375 -7.9375 1.046875 -8.070312 1.171875 -8.1875 C 1.273438 -8.289062 1.40625 -8.34375 1.5625 -8.34375 L 5.078125 -8.34375 C 5.234375 -8.34375 5.367188 -8.289062 5.484375 -8.1875 C 5.585938 -8.070312 5.640625 -7.9375 5.640625 -7.78125 L 5.640625 -6.6875 C 5.640625 -6.53125 5.585938 -6.398438 5.484375 -6.296875 C 5.367188 -6.179688 5.234375 -6.125 5.078125 -6.125 L 1.5625 -6.125 C 1.40625 -6.125 1.273438 -6.179688 1.171875 -6.296875 C 1.046875 -6.398438 0.984375 -6.53125 0.984375 -6.6875 Z M 0.984375 -7.78125 "/></g></g></g><g fill="#000000" fill-opacity="1"><g transform="translate(151.333978, 24.054276)"><g><path d="M 2.640625 -14.46875 C 2.796875 -14.46875 2.9375 -14.414062 3.0625 -14.3125 C 3.164062 -14.1875 3.21875 -14.046875 3.21875 -13.890625 L 3.21875 -0.578125 C 3.21875 -0.410156 3.164062 -0.273438 3.0625 -0.171875 C 2.9375 -0.0546875 2.796875 0 2.640625 0 L 1.5625 0 C 1.40625 0 1.273438 -0.0546875 1.171875 -0.171875 C 1.046875 -0.273438 0.984375 -0.410156 0.984375 -0.578125 L 0.984375 -13.890625 C 0.984375 -14.046875 1.046875 -14.1875 1.171875 -14.3125 C 1.273438 -14.414062 1.40625 -14.46875 1.5625 -14.46875 Z M 2.640625 -14.46875 "/></g></g></g><g fill="#000000" fill-opacity="1"><g transform="translate(155.536271, 24.054276)"><g><path d="M 9.140625 -12.8125 C 9.140625 -12.65625 9.085938 -12.519531 8.984375 -12.40625 C 8.859375 -12.289062 8.710938 -12.234375 8.546875 -12.234375 L 6.75 -12.234375 C 6.59375 -12.234375 6.460938 -12.179688 6.359375 -12.078125 C 6.234375 -11.960938 6.171875 -11.820312 6.171875 -11.65625 L 6.171875 -0.578125 C 6.171875 -0.410156 6.117188 -0.273438 6.015625 -0.171875 C 5.898438 -0.0546875 5.753906 0 5.578125 0 L 4.515625 0 C 4.359375 0 4.226562 -0.0546875 4.125 -0.171875 C 4.007812 -0.273438 3.953125 -0.410156 3.953125 -0.578125 L 3.953125 -11.65625 C 3.953125 -11.820312 3.894531 -11.960938 3.78125 -12.078125 C 3.664062 -12.179688 3.53125 -12.234375 3.375 -12.234375 L 1.5625 -12.234375 C 1.40625 -12.234375 1.273438 -12.289062 1.171875 -12.40625 C 1.046875 -12.519531 0.984375 -12.65625 0.984375 -12.8125 L 0.984375 -13.890625 C 0.984375 -14.046875 1.046875 -14.1875 1.171875 -14.3125 C 1.273438 -14.414062 1.40625 -14.46875 1.5625 -14.46875 L 8.546875 -14.46875 C 8.710938 -14.46875 8.859375 -14.414062 8.984375 -14.3125 C 9.085938 -14.1875 9.140625 -14.046875 9.140625 -13.890625 Z M 9.140625 -12.8125 "/></g></g></g><g fill="#000000" fill-opacity="1"><g transform="translate(165.657279, 24.054276)"><g><path d="M 9.015625 0 C 8.742188 0 8.5625 -0.144531 8.46875 -0.4375 C 8.425781 -0.582031 8.375 -0.789062 8.3125 -1.0625 C 8.226562 -1.320312 8.128906 -1.6875 8.015625 -2.15625 C 7.921875 -2.4375 7.726562 -2.578125 7.4375 -2.578125 L 4.28125 -2.578125 C 3.988281 -2.578125 3.796875 -2.4375 3.703125 -2.15625 C 3.617188 -1.800781 3.539062 -1.476562 3.46875 -1.1875 C 3.394531 -0.894531 3.320312 -0.644531 3.25 -0.4375 C 3.164062 -0.144531 2.984375 0 2.703125 0 L 1.578125 0 C 1.390625 0 1.238281 -0.078125 1.125 -0.234375 C 1.007812 -0.378906 0.976562 -0.546875 1.03125 -0.734375 C 1.15625 -1.210938 1.316406 -1.828125 1.515625 -2.578125 C 1.710938 -3.316406 1.929688 -4.125 2.171875 -5 C 2.410156 -5.851562 2.65625 -6.738281 2.90625 -7.65625 C 3.132812 -8.5625 3.363281 -9.429688 3.59375 -10.265625 C 3.800781 -11.078125 4 -11.816406 4.1875 -12.484375 C 4.351562 -13.148438 4.488281 -13.664062 4.59375 -14.03125 C 4.625 -14.164062 4.691406 -14.269531 4.796875 -14.34375 C 4.898438 -14.425781 5.019531 -14.46875 5.15625 -14.46875 L 6.578125 -14.46875 C 6.703125 -14.46875 6.816406 -14.425781 6.921875 -14.34375 C 7.023438 -14.269531 7.09375 -14.164062 7.125 -14.03125 C 7.582031 -12.289062 7.984375 -10.804688 8.328125 -9.578125 C 8.660156 -8.335938 8.9375 -7.296875 9.15625 -6.453125 C 9.382812 -5.609375 9.566406 -4.929688 9.703125 -4.421875 C 9.835938 -3.910156 9.953125 -3.503906 10.046875 -3.203125 C 10.117188 -2.878906 10.179688 -2.640625 10.234375 -2.484375 C 10.273438 -2.316406 10.316406 -2.160156 10.359375 -2.015625 C 10.398438 -1.867188 10.445312 -1.703125 10.5 -1.515625 C 10.539062 -1.335938 10.609375 -1.078125 10.703125 -0.734375 C 10.753906 -0.546875 10.71875 -0.378906 10.59375 -0.234375 C 10.476562 -0.078125 10.328125 0 10.140625 0 Z M 4.625 -5.546875 C 4.5625 -5.359375 4.59375 -5.191406 4.71875 -5.046875 C 4.832031 -4.890625 4.984375 -4.8125 5.171875 -4.8125 L 6.546875 -4.8125 C 6.734375 -4.8125 6.882812 -4.890625 7 -5.046875 C 7.125 -5.191406 7.160156 -5.359375 7.109375 -5.546875 C 7.003906 -5.910156 6.894531 -6.304688 6.78125 -6.734375 C 6.664062 -7.148438 6.539062 -7.597656 6.40625 -8.078125 C 6.375 -8.210938 6.304688 -8.320312 6.203125 -8.40625 C 6.085938 -8.46875 5.972656 -8.5 5.859375 -8.5 C 5.742188 -8.5 5.632812 -8.46875 5.53125 -8.40625 C 5.425781 -8.320312 5.351562 -8.210938 5.3125 -8.078125 C 5.1875 -7.648438 5.070312 -7.226562 4.96875 -6.8125 C 4.851562 -6.382812 4.738281 -5.960938 4.625 -5.546875 Z M 4.625 -5.546875 "/></g></g></g><g fill="#000000" fill-opacity="1"><g transform="translate(177.376341, 24.054276)"><g><path d="M 7 -2.234375 C 7.164062 -2.234375 7.304688 -2.179688 7.421875 -2.078125 C 7.523438 -1.953125 7.578125 -1.8125 7.578125 -1.65625 L 7.578125 -0.578125 C 7.578125 -0.410156 7.523438 -0.273438 7.421875 -0.171875 C 7.304688 -0.0546875 7.164062 0 7 0 L 1.5625 0 C 1.40625 0 1.273438 -0.0546875 1.171875 -0.171875 C 1.046875 -0.273438 0.984375 -0.410156 0.984375 -0.578125 L 0.984375 -13.890625 C 0.984375 -14.046875 1.046875 -14.1875 1.171875 -14.3125 C 1.273438 -14.414062 1.40625 -14.46875 1.5625 -14.46875 L 2.640625 -14.46875 C 2.796875 -14.46875 2.9375 -14.414062 3.0625 -14.3125 C 3.164062 -14.1875 3.21875 -14.046875 3.21875 -13.890625 L 3.21875 -2.796875 C 3.21875 -2.640625 3.273438 -2.507812 3.390625 -2.40625 C 3.492188 -2.289062 3.625 -2.234375 3.78125 -2.234375 Z M 7 -2.234375 "/></g></g></g><g fill="#000000" fill-opacity="1"><g transform="translate(185.938753, 24.054276)"><g><path d="M 2.640625 -14.46875 C 2.796875 -14.46875 2.9375 -14.414062 3.0625 -14.3125 C 3.164062 -14.1875 3.21875 -14.046875 3.21875 -13.890625 L 3.21875 -0.578125 C 3.21875 -0.410156 3.164062 -0.273438 3.0625 -0.171875 C 2.9375 -0.0546875 2.796875 0 2.640625 0 L 1.5625 0 C 1.40625 0 1.273438 -0.0546875 1.171875 -0.171875 C 1.046875 -0.273438 0.984375 -0.410156 0.984375 -0.578125 L 0.984375 -13.890625 C 0.984375 -14.046875 1.046875 -14.1875 1.171875 -14.3125 C 1.273438 -14.414062 1.40625 -14.46875 1.5625 -14.46875 Z M 2.640625 -14.46875 "/></g></g></g><g fill="#000000" fill-opacity="1"><g transform="translate(190.141046, 24.054276)"><g><path d="M 9.015625 0 C 8.742188 0 8.5625 -0.144531 8.46875 -0.4375 C 8.425781 -0.582031 8.375 -0.789062 8.3125 -1.0625 C 8.226562 -1.320312 8.128906 -1.6875 8.015625 -2.15625 C 7.921875 -2.4375 7.726562 -2.578125 7.4375 -2.578125 L 4.28125 -2.578125 C 3.988281 -2.578125 3.796875 -2.4375 3.703125 -2.15625 C 3.617188 -1.800781 3.539062 -1.476562 3.46875 -1.1875 C 3.394531 -0.894531 3.320312 -0.644531 3.25 -0.4375 C 3.164062 -0.144531 2.984375 0 2.703125 0 L 1.578125 0 C 1.390625 0 1.238281 -0.078125 1.125 -0.234375 C 1.007812 -0.378906 0.976562 -0.546875 1.03125 -0.734375 C 1.15625 -1.210938 1.316406 -1.828125 1.515625 -2.578125 C 1.710938 -3.316406 1.929688 -4.125 2.171875 -5 C 2.410156 -5.851562 2.65625 -6.738281 2.90625 -7.65625 C 3.132812 -8.5625 3.363281 -9.429688 3.59375 -10.265625 C 3.800781 -11.078125 4 -11.816406 4.1875 -12.484375 C 4.351562 -13.148438 4.488281 -13.664062 4.59375 -14.03125 C 4.625 -14.164062 4.691406 -14.269531 4.796875 -14.34375 C 4.898438 -14.425781 5.019531 -14.46875 5.15625 -14.46875 L 6.578125 -14.46875 C 6.703125 -14.46875 6.816406 -14.425781 6.921875 -14.34375 C 7.023438 -14.269531 7.09375 -14.164062 7.125 -14.03125 C 7.582031 -12.289062 7.984375 -10.804688 8.328125 -9.578125 C 8.660156 -8.335938 8.9375 -7.296875 9.15625 -6.453125 C 9.382812 -5.609375 9.566406 -4.929688 9.703125 -4.421875 C 9.835938 -3.910156 9.953125 -3.503906 10.046875 -3.203125 C 10.117188 -2.878906 10.179688 -2.640625 10.234375 -2.484375 C 10.273438 -2.316406 10.316406 -2.160156 10.359375 -2.015625 C 10.398438 -1.867188 10.445312 -1.703125 10.5 -1.515625 C 10.539062 -1.335938 10.609375 -1.078125 10.703125 -0.734375 C 10.753906 -0.546875 10.71875 -0.378906 10.59375 -0.234375 C 10.476562 -0.078125 10.328125 0 10.140625 0 Z M 4.625 -5.546875 C 4.5625 -5.359375 4.59375 -5.191406 4.71875 -5.046875 C 4.832031 -4.890625 4.984375 -4.8125 5.171875 -4.8125 L 6.546875 -4.8125 C 6.734375 -4.8125 6.882812 -4.890625 7 -5.046875 C 7.125 -5.191406 7.160156 -5.359375 7.109375 -5.546875 C 7.003906 -5.910156 6.894531 -6.304688 6.78125 -6.734375 C 6.664062 -7.148438 6.539062 -7.597656 6.40625 -8.078125 C 6.375 -8.210938 6.304688 -8.320312 6.203125 -8.40625 C 6.085938 -8.46875 5.972656 -8.5 5.859375 -8.5 C 5.742188 -8.5 5.632812 -8.46875 5.53125 -8.40625 C 5.425781 -8.320312 5.351562 -8.210938 5.3125 -8.078125 C 5.1875 -7.648438 5.070312 -7.226562 4.96875 -6.8125 C 4.851562 -6.382812 4.738281 -5.960938 4.625 -5.546875 Z M 4.625 -5.546875 "/></g></g></g></svg>