<svg xmlns="http://www.w3.org/2000/svg" xmlns:xlink="http://www.w3.org/1999/xlink" width="410" zoomAndPan="magnify" viewBox="0 0 307.5 37.5" height="50" preserveAspectRatio="xMidYMid meet" version="1.0"><defs><g/><clipPath id="8571fd52ff"><path d="M 1.777344 0 L 305.230469 0 L 305.230469 37.007812 L 1.777344 37.007812 Z M 1.777344 0 " clip-rule="nonzero"/></clipPath><clipPath id="bf896f8fd1"><path d="M 2.242188 0 L 305.230469 0 L 305.230469 37.007812 L 2.242188 37.007812 Z M 2.242188 0 " clip-rule="nonzero"/></clipPath><clipPath id="d8169d0f2c"><path d="M 2.242188 0 L 304.953125 0 L 304.953125 37.007812 L 2.242188 37.007812 Z M 2.242188 0 " clip-rule="nonzero"/></clipPath></defs><g clip-path="url(#8571fd52ff)"><path fill="#ffffff" d="M 1.777344 0 L 305.230469 0 L 305.230469 37.007812 L 1.777344 37.007812 Z M 1.777344 0 " fill-opacity="1" fill-rule="nonzero"/><path fill="#ffffff" d="M 1.777344 0 L 305.230469 0 L 305.230469 37.007812 L 1.777344 37.007812 Z M 1.777344 0 " fill-opacity="1" fill-rule="nonzero"/></g><g clip-path="url(#bf896f8fd1)"><path fill="#ffffff" d="M 2.242188 0 L 305.230469 0 L 305.230469 37.007812 L 2.242188 37.007812 Z M 2.242188 0 " fill-opacity="1" fill-rule="nonzero"/></g><g clip-path="url(#d8169d0f2c)"><path stroke-linecap="butt" transform="matrix(0.740132, 0, 0, 0.740132, 2.240774, 0.000592358)" fill="none" stroke-linejoin="miter" d="M 0.00190969 -0.000800341 L 409.356927 -0.000800341 L 409.356927 50.000868 L 0.00190969 50.000868 Z M 0.00190969 -0.000800341 " stroke="#000000" stroke-width="4" stroke-opacity="1" stroke-miterlimit="4"/></g><g fill="#000000" fill-opacity="0.4"><g transform="translate(24.445518, 25.304304)"><g><path d="M 4.703125 -14.125 C 5.585938 -14.125 6.332031 -13.878906 6.9375 -13.390625 C 7.53125 -12.898438 7.972656 -12.289062 8.265625 -11.5625 C 8.554688 -10.8125 8.703125 -10.015625 8.703125 -9.171875 C 8.703125 -8.304688 8.554688 -7.507812 8.265625 -6.78125 C 7.972656 -6.039062 7.53125 -5.425781 6.9375 -4.9375 C 6.332031 -4.445312 5.585938 -4.203125 4.703125 -4.203125 L 3.703125 -4.203125 C 3.546875 -4.203125 3.414062 -4.148438 3.3125 -4.046875 C 3.195312 -3.929688 3.140625 -3.796875 3.140625 -3.640625 L 3.140625 -0.5625 C 3.140625 -0.40625 3.085938 -0.273438 2.984375 -0.171875 C 2.867188 -0.0546875 2.734375 0 2.578125 0 L 1.515625 0 C 1.367188 0 1.242188 -0.0546875 1.140625 -0.171875 C 1.023438 -0.273438 0.96875 -0.40625 0.96875 -0.5625 L 0.96875 -13.5625 C 0.96875 -13.71875 1.023438 -13.851562 1.140625 -13.96875 C 1.242188 -14.070312 1.367188 -14.125 1.515625 -14.125 Z M 4.734375 -6.375 C 5.140625 -6.375 5.472656 -6.515625 5.734375 -6.796875 C 6.003906 -7.066406 6.210938 -7.410156 6.359375 -7.828125 C 6.492188 -8.234375 6.5625 -8.679688 6.5625 -9.171875 C 6.5625 -9.648438 6.5 -10.09375 6.375 -10.5 C 6.238281 -10.90625 6.035156 -11.253906 5.765625 -11.546875 C 5.492188 -11.804688 5.148438 -11.9375 4.734375 -11.9375 L 3.703125 -11.9375 C 3.546875 -11.9375 3.414062 -11.890625 3.3125 -11.796875 C 3.195312 -11.679688 3.140625 -11.546875 3.140625 -11.390625 L 3.140625 -6.9375 C 3.140625 -6.78125 3.195312 -6.648438 3.3125 -6.546875 C 3.414062 -6.429688 3.546875 -6.375 3.703125 -6.375 Z M 4.734375 -6.375 "/></g></g></g><g fill="#000000" fill-opacity="0.4"><g transform="translate(34.13296, 25.304304)"><g><path d="M 7.90625 -12.5 C 7.90625 -12.34375 7.851562 -12.21875 7.75 -12.125 C 7.632812 -12 7.5 -11.9375 7.34375 -11.9375 L 3.703125 -11.9375 C 3.546875 -11.9375 3.414062 -11.890625 3.3125 -11.796875 C 3.195312 -11.679688 3.140625 -11.546875 3.140625 -11.390625 L 3.140625 -10.234375 C 3.140625 -10.078125 3.195312 -9.945312 3.3125 -9.84375 C 3.414062 -9.726562 3.546875 -9.671875 3.703125 -9.671875 L 6.109375 -9.671875 C 6.273438 -9.671875 6.414062 -9.617188 6.53125 -9.515625 C 6.632812 -9.398438 6.6875 -9.265625 6.6875 -9.109375 L 6.6875 -8.078125 C 6.6875 -7.921875 6.632812 -7.785156 6.53125 -7.671875 C 6.414062 -7.554688 6.273438 -7.5 6.109375 -7.5 L 3.703125 -7.5 C 3.546875 -7.5 3.414062 -7.445312 3.3125 -7.34375 C 3.195312 -7.226562 3.140625 -7.09375 3.140625 -6.9375 L 3.140625 -2.734375 C 3.140625 -2.578125 3.195312 -2.445312 3.3125 -2.34375 C 3.414062 -2.226562 3.546875 -2.171875 3.703125 -2.171875 L 7.34375 -2.171875 C 7.5 -2.171875 7.632812 -2.117188 7.75 -2.015625 C 7.851562 -1.898438 7.90625 -1.769531 7.90625 -1.625 L 7.90625 -0.5625 C 7.90625 -0.40625 7.851562 -0.273438 7.75 -0.171875 C 7.632812 -0.0546875 7.5 0 7.34375 0 L 1.515625 0 C 1.367188 0 1.242188 -0.0546875 1.140625 -0.171875 C 1.023438 -0.273438 0.96875 -0.40625 0.96875 -0.5625 L 0.96875 -13.5625 C 0.96875 -13.71875 1.023438 -13.851562 1.140625 -13.96875 C 1.242188 -14.070312 1.367188 -14.125 1.515625 -14.125 L 7.34375 -14.125 C 7.5 -14.125 7.632812 -14.070312 7.75 -13.96875 C 7.851562 -13.851562 7.90625 -13.71875 7.90625 -13.5625 Z M 7.90625 -12.5 "/></g></g></g><g fill="#000000" fill-opacity="0.4"><g transform="translate(42.992243, 25.304304)"><g><path d="M 9.375 -14.125 C 9.53125 -14.125 9.664062 -14.070312 9.78125 -13.96875 C 9.882812 -13.851562 9.9375 -13.71875 9.9375 -13.5625 L 9.9375 -0.5625 C 9.9375 -0.40625 9.882812 -0.273438 9.78125 -0.171875 C 9.664062 -0.0546875 9.53125 0 9.375 0 L 7.90625 0 C 7.664062 0 7.492188 -0.109375 7.390625 -0.328125 L 3.546875 -8.578125 C 3.503906 -8.679688 3.425781 -8.71875 3.3125 -8.6875 C 3.195312 -8.664062 3.140625 -8.597656 3.140625 -8.484375 L 3.140625 -0.5625 C 3.140625 -0.40625 3.085938 -0.273438 2.984375 -0.171875 C 2.867188 -0.0546875 2.726562 0 2.5625 0 L 1.515625 0 C 1.367188 0 1.242188 -0.0546875 1.140625 -0.171875 C 1.023438 -0.273438 0.96875 -0.40625 0.96875 -0.5625 L 0.96875 -13.5625 C 0.96875 -13.71875 1.023438 -13.851562 1.140625 -13.96875 C 1.242188 -14.070312 1.367188 -14.125 1.515625 -14.125 L 3 -14.125 C 3.25 -14.125 3.414062 -14.015625 3.5 -13.796875 L 7.359375 -5.546875 C 7.398438 -5.441406 7.484375 -5.40625 7.609375 -5.4375 C 7.710938 -5.457031 7.765625 -5.523438 7.765625 -5.640625 L 7.765625 -13.5625 C 7.765625 -13.71875 7.820312 -13.851562 7.9375 -13.96875 C 8.050781 -14.070312 8.1875 -14.125 8.34375 -14.125 Z M 9.375 -14.125 "/></g></g></g><g fill="#000000" fill-opacity="0.4"><g transform="translate(53.893021, 25.304304)"><g><path d="M 8.796875 0 C 8.535156 0 8.359375 -0.140625 8.265625 -0.421875 C 8.222656 -0.566406 8.171875 -0.773438 8.109375 -1.046875 C 8.035156 -1.296875 7.941406 -1.644531 7.828125 -2.09375 C 7.734375 -2.382812 7.546875 -2.53125 7.265625 -2.53125 L 4.1875 -2.53125 C 3.894531 -2.53125 3.707031 -2.382812 3.625 -2.09375 C 3.53125 -1.75 3.453125 -1.4375 3.390625 -1.15625 C 3.316406 -0.875 3.242188 -0.628906 3.171875 -0.421875 C 3.085938 -0.140625 2.910156 0 2.640625 0 L 1.546875 0 C 1.359375 0 1.207031 -0.078125 1.09375 -0.234375 C 0.976562 -0.367188 0.945312 -0.53125 1 -0.71875 C 1.125 -1.1875 1.285156 -1.789062 1.484375 -2.53125 C 1.671875 -3.25 1.882812 -4.03125 2.125 -4.875 C 2.351562 -5.707031 2.585938 -6.570312 2.828125 -7.46875 C 3.054688 -8.351562 3.28125 -9.203125 3.5 -10.015625 C 3.707031 -10.816406 3.898438 -11.539062 4.078125 -12.1875 C 4.242188 -12.832031 4.378906 -13.335938 4.484375 -13.703125 C 4.515625 -13.828125 4.582031 -13.925781 4.6875 -14 C 4.78125 -14.082031 4.894531 -14.125 5.03125 -14.125 L 6.421875 -14.125 C 6.546875 -14.125 6.660156 -14.082031 6.765625 -14 C 6.867188 -13.925781 6.929688 -13.828125 6.953125 -13.703125 C 7.398438 -12.003906 7.789062 -10.550781 8.125 -9.34375 C 8.445312 -8.132812 8.71875 -7.117188 8.9375 -6.296875 C 9.15625 -5.472656 9.335938 -4.8125 9.484375 -4.3125 C 9.609375 -3.8125 9.71875 -3.414062 9.8125 -3.125 C 9.882812 -2.8125 9.945312 -2.578125 10 -2.421875 C 10.039062 -2.253906 10.078125 -2.101562 10.109375 -1.96875 C 10.148438 -1.820312 10.195312 -1.660156 10.25 -1.484375 C 10.289062 -1.304688 10.351562 -1.050781 10.4375 -0.71875 C 10.488281 -0.53125 10.457031 -0.367188 10.34375 -0.234375 C 10.226562 -0.078125 10.082031 0 9.90625 0 Z M 4.515625 -5.40625 C 4.460938 -5.226562 4.492188 -5.070312 4.609375 -4.9375 C 4.722656 -4.78125 4.867188 -4.703125 5.046875 -4.703125 L 6.390625 -4.703125 C 6.578125 -4.703125 6.726562 -4.78125 6.84375 -4.9375 C 6.957031 -5.070312 6.988281 -5.226562 6.9375 -5.40625 C 6.832031 -5.769531 6.726562 -6.15625 6.625 -6.5625 C 6.507812 -6.976562 6.390625 -7.414062 6.265625 -7.875 C 6.222656 -8.019531 6.148438 -8.128906 6.046875 -8.203125 C 5.941406 -8.265625 5.832031 -8.296875 5.71875 -8.296875 C 5.601562 -8.296875 5.492188 -8.265625 5.390625 -8.203125 C 5.285156 -8.128906 5.21875 -8.019531 5.1875 -7.875 C 5.070312 -7.46875 4.960938 -7.054688 4.859375 -6.640625 C 4.742188 -6.234375 4.628906 -5.820312 4.515625 -5.40625 Z M 4.515625 -5.40625 "/></g></g></g><g fill="#000000" fill-opacity="0.4"><g transform="translate(65.333056, 25.304304)"><g><path d="M 9.375 -14.125 C 9.53125 -14.125 9.664062 -14.070312 9.78125 -13.96875 C 9.882812 -13.851562 9.9375 -13.71875 9.9375 -13.5625 L 9.9375 -0.5625 C 9.9375 -0.40625 9.882812 -0.273438 9.78125 -0.171875 C 9.664062 -0.0546875 9.53125 0 9.375 0 L 7.90625 0 C 7.664062 0 7.492188 -0.109375 7.390625 -0.328125 L 3.546875 -8.578125 C 3.503906 -8.679688 3.425781 -8.71875 3.3125 -8.6875 C 3.195312 -8.664062 3.140625 -8.597656 3.140625 -8.484375 L 3.140625 -0.5625 C 3.140625 -0.40625 3.085938 -0.273438 2.984375 -0.171875 C 2.867188 -0.0546875 2.726562 0 2.5625 0 L 1.515625 0 C 1.367188 0 1.242188 -0.0546875 1.140625 -0.171875 C 1.023438 -0.273438 0.96875 -0.40625 0.96875 -0.5625 L 0.96875 -13.5625 C 0.96875 -13.71875 1.023438 -13.851562 1.140625 -13.96875 C 1.242188 -14.070312 1.367188 -14.125 1.515625 -14.125 L 3 -14.125 C 3.25 -14.125 3.414062 -14.015625 3.5 -13.796875 L 7.359375 -5.546875 C 7.398438 -5.441406 7.484375 -5.40625 7.609375 -5.4375 C 7.710938 -5.457031 7.765625 -5.523438 7.765625 -5.640625 L 7.765625 -13.5625 C 7.765625 -13.71875 7.820312 -13.851562 7.9375 -13.96875 C 8.050781 -14.070312 8.1875 -14.125 8.34375 -14.125 Z M 9.375 -14.125 "/></g></g></g><g fill="#000000" fill-opacity="0.4"><g transform="translate(76.233834, 25.304304)"><g><path d="M 12.640625 -7.359375 C 12.722656 -7.359375 12.800781 -7.332031 12.875 -7.28125 C 12.925781 -7.21875 12.953125 -7.148438 12.953125 -7.078125 C 12.953125 -6.203125 12.847656 -5.335938 12.640625 -4.484375 C 12.421875 -3.640625 12.054688 -2.867188 11.546875 -2.171875 C 11.003906 -1.453125 10.347656 -0.914062 9.578125 -0.5625 C 8.796875 -0.1875 7.921875 0 6.953125 0 C 5.003906 0 3.476562 -0.722656 2.375 -2.171875 C 1.4375 -3.441406 0.96875 -5.066406 0.96875 -7.046875 C 0.96875 -8.035156 1.085938 -8.941406 1.328125 -9.765625 C 1.554688 -10.585938 1.90625 -11.304688 2.375 -11.921875 C 2.90625 -12.660156 3.566406 -13.210938 4.359375 -13.578125 C 5.128906 -13.941406 5.992188 -14.125 6.953125 -14.125 C 7.921875 -14.125 8.796875 -13.941406 9.578125 -13.578125 C 10.347656 -13.210938 11.003906 -12.660156 11.546875 -11.921875 C 11.597656 -11.859375 11.613281 -11.789062 11.59375 -11.71875 C 11.570312 -11.625 11.519531 -11.550781 11.4375 -11.5 L 10.0625 -10.71875 C 9.925781 -10.632812 9.800781 -10.648438 9.6875 -10.765625 C 9.46875 -11.023438 9.238281 -11.234375 9 -11.390625 C 8.738281 -11.546875 8.488281 -11.664062 8.25 -11.75 C 8 -11.832031 7.765625 -11.882812 7.546875 -11.90625 C 7.316406 -11.925781 7.117188 -11.9375 6.953125 -11.9375 C 6.660156 -11.9375 6.300781 -11.894531 5.875 -11.8125 C 5.4375 -11.707031 5.019531 -11.488281 4.625 -11.15625 C 4.207031 -10.820312 3.859375 -10.332031 3.578125 -9.6875 C 3.285156 -9.03125 3.140625 -8.148438 3.140625 -7.046875 C 3.140625 -5.941406 3.285156 -5.070312 3.578125 -4.4375 C 3.859375 -3.789062 4.207031 -3.300781 4.625 -2.96875 C 5.019531 -2.632812 5.4375 -2.421875 5.875 -2.328125 C 6.300781 -2.222656 6.660156 -2.171875 6.953125 -2.171875 C 7.179688 -2.171875 7.457031 -2.195312 7.78125 -2.25 C 8.101562 -2.300781 8.4375 -2.425781 8.78125 -2.625 C 9.113281 -2.800781 9.4375 -3.0625 9.75 -3.40625 C 10.039062 -3.757812 10.28125 -4.222656 10.46875 -4.796875 C 10.488281 -4.898438 10.472656 -4.988281 10.421875 -5.0625 C 10.367188 -5.144531 10.289062 -5.1875 10.1875 -5.1875 L 7.84375 -5.1875 C 7.6875 -5.1875 7.554688 -5.242188 7.453125 -5.359375 C 7.335938 -5.460938 7.28125 -5.597656 7.28125 -5.765625 L 7.28125 -6.796875 C 7.28125 -6.953125 7.335938 -7.085938 7.453125 -7.203125 C 7.554688 -7.304688 7.6875 -7.359375 7.84375 -7.359375 Z M 12.640625 -7.359375 "/></g></g></g><g fill="#000000" fill-opacity="0.4"><g transform="translate(90.139063, 25.304304)"><g><path d="M 8.796875 0 C 8.535156 0 8.359375 -0.140625 8.265625 -0.421875 C 8.222656 -0.566406 8.171875 -0.773438 8.109375 -1.046875 C 8.035156 -1.296875 7.941406 -1.644531 7.828125 -2.09375 C 7.734375 -2.382812 7.546875 -2.53125 7.265625 -2.53125 L 4.1875 -2.53125 C 3.894531 -2.53125 3.707031 -2.382812 3.625 -2.09375 C 3.53125 -1.75 3.453125 -1.4375 3.390625 -1.15625 C 3.316406 -0.875 3.242188 -0.628906 3.171875 -0.421875 C 3.085938 -0.140625 2.910156 0 2.640625 0 L 1.546875 0 C 1.359375 0 1.207031 -0.078125 1.09375 -0.234375 C 0.976562 -0.367188 0.945312 -0.53125 1 -0.71875 C 1.125 -1.1875 1.285156 -1.789062 1.484375 -2.53125 C 1.671875 -3.25 1.882812 -4.03125 2.125 -4.875 C 2.351562 -5.707031 2.585938 -6.570312 2.828125 -7.46875 C 3.054688 -8.351562 3.28125 -9.203125 3.5 -10.015625 C 3.707031 -10.816406 3.898438 -11.539062 4.078125 -12.1875 C 4.242188 -12.832031 4.378906 -13.335938 4.484375 -13.703125 C 4.515625 -13.828125 4.582031 -13.925781 4.6875 -14 C 4.78125 -14.082031 4.894531 -14.125 5.03125 -14.125 L 6.421875 -14.125 C 6.546875 -14.125 6.660156 -14.082031 6.765625 -14 C 6.867188 -13.925781 6.929688 -13.828125 6.953125 -13.703125 C 7.398438 -12.003906 7.789062 -10.550781 8.125 -9.34375 C 8.445312 -8.132812 8.71875 -7.117188 8.9375 -6.296875 C 9.15625 -5.472656 9.335938 -4.8125 9.484375 -4.3125 C 9.609375 -3.8125 9.71875 -3.414062 9.8125 -3.125 C 9.882812 -2.8125 9.945312 -2.578125 10 -2.421875 C 10.039062 -2.253906 10.078125 -2.101562 10.109375 -1.96875 C 10.148438 -1.820312 10.195312 -1.660156 10.25 -1.484375 C 10.289062 -1.304688 10.351562 -1.050781 10.4375 -0.71875 C 10.488281 -0.53125 10.457031 -0.367188 10.34375 -0.234375 C 10.226562 -0.078125 10.082031 0 9.90625 0 Z M 4.515625 -5.40625 C 4.460938 -5.226562 4.492188 -5.070312 4.609375 -4.9375 C 4.722656 -4.78125 4.867188 -4.703125 5.046875 -4.703125 L 6.390625 -4.703125 C 6.578125 -4.703125 6.726562 -4.78125 6.84375 -4.9375 C 6.957031 -5.070312 6.988281 -5.226562 6.9375 -5.40625 C 6.832031 -5.769531 6.726562 -6.15625 6.625 -6.5625 C 6.507812 -6.976562 6.390625 -7.414062 6.265625 -7.875 C 6.222656 -8.019531 6.148438 -8.128906 6.046875 -8.203125 C 5.941406 -8.265625 5.832031 -8.296875 5.71875 -8.296875 C 5.601562 -8.296875 5.492188 -8.265625 5.390625 -8.203125 C 5.285156 -8.128906 5.21875 -8.019531 5.1875 -7.875 C 5.070312 -7.46875 4.960938 -7.054688 4.859375 -6.640625 C 4.742188 -6.234375 4.628906 -5.820312 4.515625 -5.40625 Z M 4.515625 -5.40625 "/></g></g></g><g fill="#000000" fill-opacity="0.4"><g transform="translate(101.579098, 25.304304)"><g><path d="M 9.375 -14.125 C 9.53125 -14.125 9.664062 -14.070312 9.78125 -13.96875 C 9.882812 -13.851562 9.9375 -13.71875 9.9375 -13.5625 L 9.9375 -0.5625 C 9.9375 -0.40625 9.882812 -0.273438 9.78125 -0.171875 C 9.664062 -0.0546875 9.53125 0 9.375 0 L 7.90625 0 C 7.664062 0 7.492188 -0.109375 7.390625 -0.328125 L 3.546875 -8.578125 C 3.503906 -8.679688 3.425781 -8.71875 3.3125 -8.6875 C 3.195312 -8.664062 3.140625 -8.597656 3.140625 -8.484375 L 3.140625 -0.5625 C 3.140625 -0.40625 3.085938 -0.273438 2.984375 -0.171875 C 2.867188 -0.0546875 2.726562 0 2.5625 0 L 1.515625 0 C 1.367188 0 1.242188 -0.0546875 1.140625 -0.171875 C 1.023438 -0.273438 0.96875 -0.40625 0.96875 -0.5625 L 0.96875 -13.5625 C 0.96875 -13.71875 1.023438 -13.851562 1.140625 -13.96875 C 1.242188 -14.070312 1.367188 -14.125 1.515625 -14.125 L 3 -14.125 C 3.25 -14.125 3.414062 -14.015625 3.5 -13.796875 L 7.359375 -5.546875 C 7.398438 -5.441406 7.484375 -5.40625 7.609375 -5.4375 C 7.710938 -5.457031 7.765625 -5.523438 7.765625 -5.640625 L 7.765625 -13.5625 C 7.765625 -13.71875 7.820312 -13.851562 7.9375 -13.96875 C 8.050781 -14.070312 8.1875 -14.125 8.34375 -14.125 Z M 9.375 -14.125 "/></g></g></g><g fill="#000000" fill-opacity="0.4"><g transform="translate(112.479876, 25.304304)"><g><path d="M 8.796875 0 C 8.535156 0 8.359375 -0.140625 8.265625 -0.421875 C 8.222656 -0.566406 8.171875 -0.773438 8.109375 -1.046875 C 8.035156 -1.296875 7.941406 -1.644531 7.828125 -2.09375 C 7.734375 -2.382812 7.546875 -2.53125 7.265625 -2.53125 L 4.1875 -2.53125 C 3.894531 -2.53125 3.707031 -2.382812 3.625 -2.09375 C 3.53125 -1.75 3.453125 -1.4375 3.390625 -1.15625 C 3.316406 -0.875 3.242188 -0.628906 3.171875 -0.421875 C 3.085938 -0.140625 2.910156 0 2.640625 0 L 1.546875 0 C 1.359375 0 1.207031 -0.078125 1.09375 -0.234375 C 0.976562 -0.367188 0.945312 -0.53125 1 -0.71875 C 1.125 -1.1875 1.285156 -1.789062 1.484375 -2.53125 C 1.671875 -3.25 1.882812 -4.03125 2.125 -4.875 C 2.351562 -5.707031 2.585938 -6.570312 2.828125 -7.46875 C 3.054688 -8.351562 3.28125 -9.203125 3.5 -10.015625 C 3.707031 -10.816406 3.898438 -11.539062 4.078125 -12.1875 C 4.242188 -12.832031 4.378906 -13.335938 4.484375 -13.703125 C 4.515625 -13.828125 4.582031 -13.925781 4.6875 -14 C 4.78125 -14.082031 4.894531 -14.125 5.03125 -14.125 L 6.421875 -14.125 C 6.546875 -14.125 6.660156 -14.082031 6.765625 -14 C 6.867188 -13.925781 6.929688 -13.828125 6.953125 -13.703125 C 7.398438 -12.003906 7.789062 -10.550781 8.125 -9.34375 C 8.445312 -8.132812 8.71875 -7.117188 8.9375 -6.296875 C 9.15625 -5.472656 9.335938 -4.8125 9.484375 -4.3125 C 9.609375 -3.8125 9.71875 -3.414062 9.8125 -3.125 C 9.882812 -2.8125 9.945312 -2.578125 10 -2.421875 C 10.039062 -2.253906 10.078125 -2.101562 10.109375 -1.96875 C 10.148438 -1.820312 10.195312 -1.660156 10.25 -1.484375 C 10.289062 -1.304688 10.351562 -1.050781 10.4375 -0.71875 C 10.488281 -0.53125 10.457031 -0.367188 10.34375 -0.234375 C 10.226562 -0.078125 10.082031 0 9.90625 0 Z M 4.515625 -5.40625 C 4.460938 -5.226562 4.492188 -5.070312 4.609375 -4.9375 C 4.722656 -4.78125 4.867188 -4.703125 5.046875 -4.703125 L 6.390625 -4.703125 C 6.578125 -4.703125 6.726562 -4.78125 6.84375 -4.9375 C 6.957031 -5.070312 6.988281 -5.226562 6.9375 -5.40625 C 6.832031 -5.769531 6.726562 -6.15625 6.625 -6.5625 C 6.507812 -6.976562 6.390625 -7.414062 6.265625 -7.875 C 6.222656 -8.019531 6.148438 -8.128906 6.046875 -8.203125 C 5.941406 -8.265625 5.832031 -8.296875 5.71875 -8.296875 C 5.601562 -8.296875 5.492188 -8.265625 5.390625 -8.203125 C 5.285156 -8.128906 5.21875 -8.019531 5.1875 -7.875 C 5.070312 -7.46875 4.960938 -7.054688 4.859375 -6.640625 C 4.742188 -6.234375 4.628906 -5.820312 4.515625 -5.40625 Z M 4.515625 -5.40625 "/></g></g></g><g fill="#000000" fill-opacity="0.4"><g transform="translate(123.919912, 25.304304)"><g><path d="M 9.375 -14.125 C 9.53125 -14.125 9.664062 -14.070312 9.78125 -13.96875 C 9.882812 -13.851562 9.9375 -13.71875 9.9375 -13.5625 L 9.9375 -0.5625 C 9.9375 -0.40625 9.882812 -0.273438 9.78125 -0.171875 C 9.664062 -0.0546875 9.53125 0 9.375 0 L 7.90625 0 C 7.664062 0 7.492188 -0.109375 7.390625 -0.328125 L 3.546875 -8.578125 C 3.503906 -8.679688 3.425781 -8.71875 3.3125 -8.6875 C 3.195312 -8.664062 3.140625 -8.597656 3.140625 -8.484375 L 3.140625 -0.5625 C 3.140625 -0.40625 3.085938 -0.273438 2.984375 -0.171875 C 2.867188 -0.0546875 2.726562 0 2.5625 0 L 1.515625 0 C 1.367188 0 1.242188 -0.0546875 1.140625 -0.171875 C 1.023438 -0.273438 0.96875 -0.40625 0.96875 -0.5625 L 0.96875 -13.5625 C 0.96875 -13.71875 1.023438 -13.851562 1.140625 -13.96875 C 1.242188 -14.070312 1.367188 -14.125 1.515625 -14.125 L 3 -14.125 C 3.25 -14.125 3.414062 -14.015625 3.5 -13.796875 L 7.359375 -5.546875 C 7.398438 -5.441406 7.484375 -5.40625 7.609375 -5.4375 C 7.710938 -5.457031 7.765625 -5.523438 7.765625 -5.640625 L 7.765625 -13.5625 C 7.765625 -13.71875 7.820312 -13.851562 7.9375 -13.96875 C 8.050781 -14.070312 8.1875 -14.125 8.34375 -14.125 Z M 9.375 -14.125 "/></g></g></g><g fill="#000000" fill-opacity="0.4"><g transform="translate(134.82069, 25.304304)"><g/></g></g><g fill="#000000" fill-opacity="0.4"><g transform="translate(140.598482, 25.304304)"><g><path d="M 4.703125 -14.125 C 5.585938 -14.125 6.332031 -13.878906 6.9375 -13.390625 C 7.53125 -12.898438 7.972656 -12.289062 8.265625 -11.5625 C 8.554688 -10.8125 8.703125 -10.015625 8.703125 -9.171875 C 8.703125 -8.304688 8.554688 -7.507812 8.265625 -6.78125 C 7.972656 -6.039062 7.53125 -5.425781 6.9375 -4.9375 C 6.332031 -4.445312 5.585938 -4.203125 4.703125 -4.203125 L 3.703125 -4.203125 C 3.546875 -4.203125 3.414062 -4.148438 3.3125 -4.046875 C 3.195312 -3.929688 3.140625 -3.796875 3.140625 -3.640625 L 3.140625 -0.5625 C 3.140625 -0.40625 3.085938 -0.273438 2.984375 -0.171875 C 2.867188 -0.0546875 2.734375 0 2.578125 0 L 1.515625 0 C 1.367188 0 1.242188 -0.0546875 1.140625 -0.171875 C 1.023438 -0.273438 0.96875 -0.40625 0.96875 -0.5625 L 0.96875 -13.5625 C 0.96875 -13.71875 1.023438 -13.851562 1.140625 -13.96875 C 1.242188 -14.070312 1.367188 -14.125 1.515625 -14.125 Z M 4.734375 -6.375 C 5.140625 -6.375 5.472656 -6.515625 5.734375 -6.796875 C 6.003906 -7.066406 6.210938 -7.410156 6.359375 -7.828125 C 6.492188 -8.234375 6.5625 -8.679688 6.5625 -9.171875 C 6.5625 -9.648438 6.5 -10.09375 6.375 -10.5 C 6.238281 -10.90625 6.035156 -11.253906 5.765625 -11.546875 C 5.492188 -11.804688 5.148438 -11.9375 4.734375 -11.9375 L 3.703125 -11.9375 C 3.546875 -11.9375 3.414062 -11.890625 3.3125 -11.796875 C 3.195312 -11.679688 3.140625 -11.546875 3.140625 -11.390625 L 3.140625 -6.9375 C 3.140625 -6.78125 3.195312 -6.648438 3.3125 -6.546875 C 3.414062 -6.429688 3.546875 -6.375 3.703125 -6.375 Z M 4.734375 -6.375 "/></g></g></g><g fill="#000000" fill-opacity="0.4"><g transform="translate(150.285923, 25.304304)"><g><path d="M 7.90625 -12.5 C 7.90625 -12.34375 7.851562 -12.21875 7.75 -12.125 C 7.632812 -12 7.5 -11.9375 7.34375 -11.9375 L 3.703125 -11.9375 C 3.546875 -11.9375 3.414062 -11.890625 3.3125 -11.796875 C 3.195312 -11.679688 3.140625 -11.546875 3.140625 -11.390625 L 3.140625 -10.234375 C 3.140625 -10.078125 3.195312 -9.945312 3.3125 -9.84375 C 3.414062 -9.726562 3.546875 -9.671875 3.703125 -9.671875 L 6.109375 -9.671875 C 6.273438 -9.671875 6.414062 -9.617188 6.53125 -9.515625 C 6.632812 -9.398438 6.6875 -9.265625 6.6875 -9.109375 L 6.6875 -8.078125 C 6.6875 -7.921875 6.632812 -7.785156 6.53125 -7.671875 C 6.414062 -7.554688 6.273438 -7.5 6.109375 -7.5 L 3.703125 -7.5 C 3.546875 -7.5 3.414062 -7.445312 3.3125 -7.34375 C 3.195312 -7.226562 3.140625 -7.09375 3.140625 -6.9375 L 3.140625 -2.734375 C 3.140625 -2.578125 3.195312 -2.445312 3.3125 -2.34375 C 3.414062 -2.226562 3.546875 -2.171875 3.703125 -2.171875 L 7.34375 -2.171875 C 7.5 -2.171875 7.632812 -2.117188 7.75 -2.015625 C 7.851562 -1.898438 7.90625 -1.769531 7.90625 -1.625 L 7.90625 -0.5625 C 7.90625 -0.40625 7.851562 -0.273438 7.75 -0.171875 C 7.632812 -0.0546875 7.5 0 7.34375 0 L 1.515625 0 C 1.367188 0 1.242188 -0.0546875 1.140625 -0.171875 C 1.023438 -0.273438 0.96875 -0.40625 0.96875 -0.5625 L 0.96875 -13.5625 C 0.96875 -13.71875 1.023438 -13.851562 1.140625 -13.96875 C 1.242188 -14.070312 1.367188 -14.125 1.515625 -14.125 L 7.34375 -14.125 C 7.5 -14.125 7.632812 -14.070312 7.75 -13.96875 C 7.851562 -13.851562 7.90625 -13.71875 7.90625 -13.5625 Z M 7.90625 -12.5 "/></g></g></g><g fill="#000000" fill-opacity="0.4"><g transform="translate(159.145207, 25.304304)"><g><path d="M 4.703125 -14.125 C 5.421875 -14.125 6.039062 -13.960938 6.5625 -13.640625 C 7.09375 -13.304688 7.523438 -12.875 7.859375 -12.34375 C 8.191406 -11.820312 8.429688 -11.234375 8.578125 -10.578125 C 8.710938 -9.921875 8.753906 -9.257812 8.703125 -8.59375 C 8.640625 -7.925781 8.488281 -7.289062 8.25 -6.6875 C 7.988281 -6.082031 7.640625 -5.570312 7.203125 -5.15625 C 7.015625 -4.988281 6.960938 -4.789062 7.046875 -4.5625 L 8.4375 -0.75 C 8.5 -0.570312 8.476562 -0.40625 8.375 -0.25 C 8.257812 -0.0820312 8.101562 0 7.90625 0 L 6.796875 0 C 6.523438 0 6.347656 -0.117188 6.265625 -0.359375 L 5.015625 -3.828125 C 4.921875 -4.078125 4.738281 -4.203125 4.46875 -4.203125 L 3.703125 -4.203125 C 3.546875 -4.203125 3.414062 -4.148438 3.3125 -4.046875 C 3.195312 -3.929688 3.140625 -3.796875 3.140625 -3.640625 L 3.140625 -0.5625 C 3.140625 -0.40625 3.085938 -0.273438 2.984375 -0.171875 C 2.867188 -0.0546875 2.734375 0 2.578125 0 L 1.515625 0 C 1.367188 0 1.242188 -0.0546875 1.140625 -0.171875 C 1.023438 -0.273438 0.96875 -0.40625 0.96875 -0.5625 L 0.96875 -13.5625 C 0.96875 -13.71875 1.023438 -13.851562 1.140625 -13.96875 C 1.242188 -14.070312 1.367188 -14.125 1.515625 -14.125 Z M 3.140625 -6.9375 C 3.140625 -6.78125 3.195312 -6.648438 3.3125 -6.546875 C 3.414062 -6.429688 3.546875 -6.375 3.703125 -6.375 L 4.734375 -6.375 C 5.140625 -6.375 5.472656 -6.515625 5.734375 -6.796875 C 6.003906 -7.066406 6.210938 -7.410156 6.359375 -7.828125 C 6.492188 -8.234375 6.5625 -8.679688 6.5625 -9.171875 C 6.5625 -9.648438 6.5 -10.09375 6.375 -10.5 C 6.238281 -10.90625 6.035156 -11.253906 5.765625 -11.546875 C 5.492188 -11.804688 5.148438 -11.9375 4.734375 -11.9375 L 3.703125 -11.9375 C 3.546875 -11.9375 3.414062 -11.890625 3.3125 -11.796875 C 3.195312 -11.679688 3.140625 -11.546875 3.140625 -11.390625 Z M 3.140625 -6.9375 "/></g></g></g><g fill="#000000" fill-opacity="0.4"><g transform="translate(168.832648, 25.304304)"><g><path d="M 8.609375 -14.125 C 8.765625 -14.125 8.898438 -14.070312 9.015625 -13.96875 C 9.117188 -13.851562 9.171875 -13.71875 9.171875 -13.5625 L 9.171875 -4.109375 C 9.171875 -3.535156 9.066406 -3 8.859375 -2.5 C 8.640625 -2 8.34375 -1.5625 7.96875 -1.1875 C 7.601562 -0.820312 7.171875 -0.535156 6.671875 -0.328125 C 6.171875 -0.109375 5.632812 0 5.0625 0 C 4.5 0 3.972656 -0.109375 3.484375 -0.328125 C 2.984375 -0.546875 2.546875 -0.84375 2.171875 -1.21875 C 1.804688 -1.582031 1.515625 -2.019531 1.296875 -2.53125 C 1.078125 -3.007812 0.96875 -3.535156 0.96875 -4.109375 L 0.96875 -13.5625 C 0.96875 -13.71875 1.023438 -13.851562 1.140625 -13.96875 C 1.242188 -14.070312 1.367188 -14.125 1.515625 -14.125 L 2.5625 -14.125 C 2.726562 -14.125 2.867188 -14.070312 2.984375 -13.96875 C 3.085938 -13.851562 3.140625 -13.71875 3.140625 -13.5625 L 3.140625 -4.15625 C 3.140625 -3.882812 3.191406 -3.628906 3.296875 -3.390625 C 3.398438 -3.148438 3.539062 -2.9375 3.71875 -2.75 C 3.894531 -2.570312 4.109375 -2.429688 4.359375 -2.328125 C 4.597656 -2.222656 4.851562 -2.171875 5.125 -2.171875 C 5.65625 -2.171875 6.097656 -2.351562 6.453125 -2.71875 C 6.816406 -3.070312 7 -3.515625 7 -4.046875 L 7 -13.5625 C 7 -13.71875 7.054688 -13.851562 7.171875 -13.96875 C 7.285156 -14.070312 7.421875 -14.125 7.578125 -14.125 Z M 8.609375 -14.125 "/></g></g></g><g fill="#000000" fill-opacity="0.4"><g transform="translate(178.963047, 25.304304)"><g><path d="M 8.359375 -7.296875 C 8.785156 -6.953125 9.117188 -6.53125 9.359375 -6.03125 C 9.585938 -5.53125 9.726562 -5.007812 9.78125 -4.46875 C 9.832031 -3.925781 9.789062 -3.394531 9.65625 -2.875 C 9.507812 -2.332031 9.269531 -1.847656 8.9375 -1.421875 C 8.601562 -1.003906 8.175781 -0.664062 7.65625 -0.40625 C 7.125 -0.132812 6.503906 0 5.796875 0 L 1.515625 0 C 1.367188 0 1.242188 -0.0546875 1.140625 -0.171875 C 1.023438 -0.273438 0.96875 -0.40625 0.96875 -0.5625 L 0.96875 -13.5625 C 0.96875 -13.71875 1.023438 -13.851562 1.140625 -13.96875 C 1.242188 -14.070312 1.367188 -14.125 1.515625 -14.125 L 4.703125 -14.125 C 5.597656 -14.125 6.347656 -13.914062 6.953125 -13.5 C 7.546875 -13.09375 7.988281 -12.582031 8.28125 -11.96875 C 8.582031 -11.351562 8.734375 -10.679688 8.734375 -9.953125 C 8.710938 -9.234375 8.539062 -8.570312 8.21875 -7.96875 C 8.15625 -7.851562 8.140625 -7.734375 8.171875 -7.609375 C 8.191406 -7.484375 8.253906 -7.378906 8.359375 -7.296875 Z M 3.703125 -11.9375 C 3.546875 -11.9375 3.414062 -11.890625 3.3125 -11.796875 C 3.195312 -11.679688 3.140625 -11.546875 3.140625 -11.390625 L 3.140625 -8.703125 C 3.140625 -8.554688 3.195312 -8.429688 3.3125 -8.328125 C 3.414062 -8.210938 3.546875 -8.15625 3.703125 -8.15625 L 4.734375 -8.15625 C 5.140625 -8.15625 5.472656 -8.25 5.734375 -8.4375 C 6.003906 -8.613281 6.210938 -8.84375 6.359375 -9.125 C 6.492188 -9.414062 6.5625 -9.726562 6.5625 -10.0625 C 6.5625 -10.375 6.5 -10.675781 6.375 -10.96875 C 6.238281 -11.25 6.035156 -11.484375 5.765625 -11.671875 C 5.492188 -11.847656 5.148438 -11.9375 4.734375 -11.9375 Z M 5.84375 -2.171875 C 6.238281 -2.171875 6.570312 -2.269531 6.84375 -2.46875 C 7.113281 -2.644531 7.316406 -2.875 7.453125 -3.15625 C 7.585938 -3.4375 7.660156 -3.742188 7.671875 -4.078125 C 7.671875 -4.398438 7.601562 -4.703125 7.46875 -4.984375 C 7.332031 -5.265625 7.128906 -5.503906 6.859375 -5.703125 C 6.585938 -5.878906 6.25 -5.96875 5.84375 -5.96875 L 3.703125 -5.96875 C 3.546875 -5.96875 3.414062 -5.914062 3.3125 -5.8125 C 3.195312 -5.695312 3.140625 -5.5625 3.140625 -5.40625 L 3.140625 -2.734375 C 3.140625 -2.578125 3.195312 -2.445312 3.3125 -2.34375 C 3.414062 -2.226562 3.546875 -2.171875 3.703125 -2.171875 Z M 5.84375 -2.171875 "/></g></g></g><g fill="#000000" fill-opacity="0.4"><g transform="translate(189.729005, 25.304304)"><g><path d="M 8.796875 0 C 8.535156 0 8.359375 -0.140625 8.265625 -0.421875 C 8.222656 -0.566406 8.171875 -0.773438 8.109375 -1.046875 C 8.035156 -1.296875 7.941406 -1.644531 7.828125 -2.09375 C 7.734375 -2.382812 7.546875 -2.53125 7.265625 -2.53125 L 4.1875 -2.53125 C 3.894531 -2.53125 3.707031 -2.382812 3.625 -2.09375 C 3.53125 -1.75 3.453125 -1.4375 3.390625 -1.15625 C 3.316406 -0.875 3.242188 -0.628906 3.171875 -0.421875 C 3.085938 -0.140625 2.910156 0 2.640625 0 L 1.546875 0 C 1.359375 0 1.207031 -0.078125 1.09375 -0.234375 C 0.976562 -0.367188 0.945312 -0.53125 1 -0.71875 C 1.125 -1.1875 1.285156 -1.789062 1.484375 -2.53125 C 1.671875 -3.25 1.882812 -4.03125 2.125 -4.875 C 2.351562 -5.707031 2.585938 -6.570312 2.828125 -7.46875 C 3.054688 -8.351562 3.28125 -9.203125 3.5 -10.015625 C 3.707031 -10.816406 3.898438 -11.539062 4.078125 -12.1875 C 4.242188 -12.832031 4.378906 -13.335938 4.484375 -13.703125 C 4.515625 -13.828125 4.582031 -13.925781 4.6875 -14 C 4.78125 -14.082031 4.894531 -14.125 5.03125 -14.125 L 6.421875 -14.125 C 6.546875 -14.125 6.660156 -14.082031 6.765625 -14 C 6.867188 -13.925781 6.929688 -13.828125 6.953125 -13.703125 C 7.398438 -12.003906 7.789062 -10.550781 8.125 -9.34375 C 8.445312 -8.132812 8.71875 -7.117188 8.9375 -6.296875 C 9.15625 -5.472656 9.335938 -4.8125 9.484375 -4.3125 C 9.609375 -3.8125 9.71875 -3.414062 9.8125 -3.125 C 9.882812 -2.8125 9.945312 -2.578125 10 -2.421875 C 10.039062 -2.253906 10.078125 -2.101562 10.109375 -1.96875 C 10.148438 -1.820312 10.195312 -1.660156 10.25 -1.484375 C 10.289062 -1.304688 10.351562 -1.050781 10.4375 -0.71875 C 10.488281 -0.53125 10.457031 -0.367188 10.34375 -0.234375 C 10.226562 -0.078125 10.082031 0 9.90625 0 Z M 4.515625 -5.40625 C 4.460938 -5.226562 4.492188 -5.070312 4.609375 -4.9375 C 4.722656 -4.78125 4.867188 -4.703125 5.046875 -4.703125 L 6.390625 -4.703125 C 6.578125 -4.703125 6.726562 -4.78125 6.84375 -4.9375 C 6.957031 -5.070312 6.988281 -5.226562 6.9375 -5.40625 C 6.832031 -5.769531 6.726562 -6.15625 6.625 -6.5625 C 6.507812 -6.976562 6.390625 -7.414062 6.265625 -7.875 C 6.222656 -8.019531 6.148438 -8.128906 6.046875 -8.203125 C 5.941406 -8.265625 5.832031 -8.296875 5.71875 -8.296875 C 5.601562 -8.296875 5.492188 -8.265625 5.390625 -8.203125 C 5.285156 -8.128906 5.21875 -8.019531 5.1875 -7.875 C 5.070312 -7.46875 4.960938 -7.054688 4.859375 -6.640625 C 4.742188 -6.234375 4.628906 -5.820312 4.515625 -5.40625 Z M 4.515625 -5.40625 "/></g></g></g><g fill="#000000" fill-opacity="0.4"><g transform="translate(201.169041, 25.304304)"><g><path d="M 7 -13.5625 C 7 -13.71875 7.054688 -13.851562 7.171875 -13.96875 C 7.273438 -14.070312 7.410156 -14.125 7.578125 -14.125 L 8.609375 -14.125 C 8.765625 -14.125 8.898438 -14.070312 9.015625 -13.96875 C 9.117188 -13.851562 9.171875 -13.71875 9.171875 -13.5625 L 9.171875 -0.5625 C 9.171875 -0.40625 9.117188 -0.273438 9.015625 -0.171875 C 8.898438 -0.0546875 8.765625 0 8.609375 0 L 7.578125 0 C 7.410156 0 7.273438 -0.0546875 7.171875 -0.171875 C 7.054688 -0.273438 7 -0.40625 7 -0.5625 L 7 -5.40625 C 7 -5.5625 6.945312 -5.695312 6.84375 -5.8125 C 6.726562 -5.914062 6.59375 -5.96875 6.4375 -5.96875 L 3.703125 -5.96875 C 3.546875 -5.96875 3.414062 -5.914062 3.3125 -5.8125 C 3.195312 -5.695312 3.140625 -5.5625 3.140625 -5.40625 L 3.140625 -0.5625 C 3.140625 -0.40625 3.085938 -0.273438 2.984375 -0.171875 C 2.867188 -0.0546875 2.734375 0 2.578125 0 L 1.515625 0 C 1.367188 0 1.242188 -0.0546875 1.140625 -0.171875 C 1.023438 -0.273438 0.96875 -0.40625 0.96875 -0.5625 L 0.96875 -13.5625 C 0.96875 -13.71875 1.023438 -13.851562 1.140625 -13.96875 C 1.242188 -14.070312 1.367188 -14.125 1.515625 -14.125 L 2.578125 -14.125 C 2.734375 -14.125 2.867188 -14.070312 2.984375 -13.96875 C 3.085938 -13.851562 3.140625 -13.71875 3.140625 -13.5625 L 3.140625 -8.703125 C 3.140625 -8.554688 3.195312 -8.429688 3.3125 -8.328125 C 3.414062 -8.210938 3.546875 -8.15625 3.703125 -8.15625 L 6.4375 -8.15625 C 6.59375 -8.15625 6.726562 -8.210938 6.84375 -8.328125 C 6.945312 -8.429688 7 -8.554688 7 -8.703125 Z M 7 -13.5625 "/></g></g></g><g fill="#000000" fill-opacity="0.4"><g transform="translate(211.29944, 25.304304)"><g><path d="M 8.796875 0 C 8.535156 0 8.359375 -0.140625 8.265625 -0.421875 C 8.222656 -0.566406 8.171875 -0.773438 8.109375 -1.046875 C 8.035156 -1.296875 7.941406 -1.644531 7.828125 -2.09375 C 7.734375 -2.382812 7.546875 -2.53125 7.265625 -2.53125 L 4.1875 -2.53125 C 3.894531 -2.53125 3.707031 -2.382812 3.625 -2.09375 C 3.53125 -1.75 3.453125 -1.4375 3.390625 -1.15625 C 3.316406 -0.875 3.242188 -0.628906 3.171875 -0.421875 C 3.085938 -0.140625 2.910156 0 2.640625 0 L 1.546875 0 C 1.359375 0 1.207031 -0.078125 1.09375 -0.234375 C 0.976562 -0.367188 0.945312 -0.53125 1 -0.71875 C 1.125 -1.1875 1.285156 -1.789062 1.484375 -2.53125 C 1.671875 -3.25 1.882812 -4.03125 2.125 -4.875 C 2.351562 -5.707031 2.585938 -6.570312 2.828125 -7.46875 C 3.054688 -8.351562 3.28125 -9.203125 3.5 -10.015625 C 3.707031 -10.816406 3.898438 -11.539062 4.078125 -12.1875 C 4.242188 -12.832031 4.378906 -13.335938 4.484375 -13.703125 C 4.515625 -13.828125 4.582031 -13.925781 4.6875 -14 C 4.78125 -14.082031 4.894531 -14.125 5.03125 -14.125 L 6.421875 -14.125 C 6.546875 -14.125 6.660156 -14.082031 6.765625 -14 C 6.867188 -13.925781 6.929688 -13.828125 6.953125 -13.703125 C 7.398438 -12.003906 7.789062 -10.550781 8.125 -9.34375 C 8.445312 -8.132812 8.71875 -7.117188 8.9375 -6.296875 C 9.15625 -5.472656 9.335938 -4.8125 9.484375 -4.3125 C 9.609375 -3.8125 9.71875 -3.414062 9.8125 -3.125 C 9.882812 -2.8125 9.945312 -2.578125 10 -2.421875 C 10.039062 -2.253906 10.078125 -2.101562 10.109375 -1.96875 C 10.148438 -1.820312 10.195312 -1.660156 10.25 -1.484375 C 10.289062 -1.304688 10.351562 -1.050781 10.4375 -0.71875 C 10.488281 -0.53125 10.457031 -0.367188 10.34375 -0.234375 C 10.226562 -0.078125 10.082031 0 9.90625 0 Z M 4.515625 -5.40625 C 4.460938 -5.226562 4.492188 -5.070312 4.609375 -4.9375 C 4.722656 -4.78125 4.867188 -4.703125 5.046875 -4.703125 L 6.390625 -4.703125 C 6.578125 -4.703125 6.726562 -4.78125 6.84375 -4.9375 C 6.957031 -5.070312 6.988281 -5.226562 6.9375 -5.40625 C 6.832031 -5.769531 6.726562 -6.15625 6.625 -6.5625 C 6.507812 -6.976562 6.390625 -7.414062 6.265625 -7.875 C 6.222656 -8.019531 6.148438 -8.128906 6.046875 -8.203125 C 5.941406 -8.265625 5.832031 -8.296875 5.71875 -8.296875 C 5.601562 -8.296875 5.492188 -8.265625 5.390625 -8.203125 C 5.285156 -8.128906 5.21875 -8.019531 5.1875 -7.875 C 5.070312 -7.46875 4.960938 -7.054688 4.859375 -6.640625 C 4.742188 -6.234375 4.628906 -5.820312 4.515625 -5.40625 Z M 4.515625 -5.40625 "/></g></g></g><g fill="#000000" fill-opacity="0.4"><g transform="translate(222.739487, 25.304304)"><g><path d="M 9.375 -14.125 C 9.53125 -14.125 9.664062 -14.070312 9.78125 -13.96875 C 9.882812 -13.851562 9.9375 -13.71875 9.9375 -13.5625 L 9.9375 -0.5625 C 9.9375 -0.40625 9.882812 -0.273438 9.78125 -0.171875 C 9.664062 -0.0546875 9.53125 0 9.375 0 L 7.90625 0 C 7.664062 0 7.492188 -0.109375 7.390625 -0.328125 L 3.546875 -8.578125 C 3.503906 -8.679688 3.425781 -8.71875 3.3125 -8.6875 C 3.195312 -8.664062 3.140625 -8.597656 3.140625 -8.484375 L 3.140625 -0.5625 C 3.140625 -0.40625 3.085938 -0.273438 2.984375 -0.171875 C 2.867188 -0.0546875 2.726562 0 2.5625 0 L 1.515625 0 C 1.367188 0 1.242188 -0.0546875 1.140625 -0.171875 C 1.023438 -0.273438 0.96875 -0.40625 0.96875 -0.5625 L 0.96875 -13.5625 C 0.96875 -13.71875 1.023438 -13.851562 1.140625 -13.96875 C 1.242188 -14.070312 1.367188 -14.125 1.515625 -14.125 L 3 -14.125 C 3.25 -14.125 3.414062 -14.015625 3.5 -13.796875 L 7.359375 -5.546875 C 7.398438 -5.441406 7.484375 -5.40625 7.609375 -5.4375 C 7.710938 -5.457031 7.765625 -5.523438 7.765625 -5.640625 L 7.765625 -13.5625 C 7.765625 -13.71875 7.820312 -13.851562 7.9375 -13.96875 C 8.050781 -14.070312 8.1875 -14.125 8.34375 -14.125 Z M 9.375 -14.125 "/></g></g></g><g fill="#000000" fill-opacity="0.4"><g transform="translate(233.640276, 25.304304)"><g/></g></g><g fill="#000000" fill-opacity="0.4"><g transform="translate(239.418057, 25.304304)"><g><path d="M 2.578125 -14.125 C 2.734375 -14.125 2.867188 -14.070312 2.984375 -13.96875 C 3.085938 -13.851562 3.140625 -13.71875 3.140625 -13.5625 L 3.140625 -0.5625 C 3.140625 -0.40625 3.085938 -0.273438 2.984375 -0.171875 C 2.867188 -0.0546875 2.734375 0 2.578125 0 L 1.515625 0 C 1.367188 0 1.242188 -0.0546875 1.140625 -0.171875 C 1.023438 -0.273438 0.96875 -0.40625 0.96875 -0.5625 L 0.96875 -13.5625 C 0.96875 -13.71875 1.023438 -13.851562 1.140625 -13.96875 C 1.242188 -14.070312 1.367188 -14.125 1.515625 -14.125 Z M 2.578125 -14.125 "/></g></g></g><g fill="#000000" fill-opacity="0.4"><g transform="translate(243.520295, 25.304304)"><g><path d="M 5.203125 -7.390625 C 5.140625 -7.296875 5.109375 -7.191406 5.109375 -7.078125 C 5.109375 -6.941406 5.140625 -6.820312 5.203125 -6.71875 L 9.484375 -0.90625 C 9.617188 -0.726562 9.632812 -0.53125 9.53125 -0.3125 C 9.425781 -0.101562 9.257812 0 9.03125 0 L 7.75 0 C 7.550781 0 7.394531 -0.078125 7.28125 -0.234375 L 3.734375 -5.046875 C 3.679688 -5.097656 3.640625 -5.125 3.609375 -5.125 C 3.554688 -5.125 3.515625 -5.097656 3.484375 -5.046875 L 3.15625 -4.625 C 3.144531 -4.613281 3.140625 -4.582031 3.140625 -4.53125 L 3.140625 -0.578125 C 3.140625 -0.410156 3.085938 -0.273438 2.984375 -0.171875 C 2.867188 -0.0546875 2.726562 0 2.5625 0 L 1.546875 0 C 1.378906 0 1.242188 -0.0546875 1.140625 -0.171875 C 1.023438 -0.273438 0.96875 -0.410156 0.96875 -0.578125 L 0.96875 -13.546875 C 0.96875 -13.710938 1.023438 -13.851562 1.140625 -13.96875 C 1.242188 -14.070312 1.378906 -14.125 1.546875 -14.125 L 2.5625 -14.125 C 2.726562 -14.125 2.867188 -14.070312 2.984375 -13.96875 C 3.085938 -13.851562 3.140625 -13.710938 3.140625 -13.546875 L 3.140625 -8.75 C 3.140625 -8.65625 3.175781 -8.601562 3.25 -8.59375 C 3.332031 -8.5625 3.390625 -8.582031 3.421875 -8.65625 L 7.28125 -13.890625 C 7.40625 -14.046875 7.5625 -14.125 7.75 -14.125 L 9.03125 -14.125 C 9.257812 -14.125 9.425781 -14.019531 9.53125 -13.8125 C 9.632812 -13.59375 9.617188 -13.394531 9.484375 -13.21875 Z M 5.203125 -7.390625 "/></g></g></g><g fill="#000000" fill-opacity="0.4"><g transform="translate(254.093675, 25.304304)"><g><path d="M 6.84375 -2.171875 C 7 -2.171875 7.132812 -2.117188 7.25 -2.015625 C 7.34375 -1.898438 7.390625 -1.769531 7.390625 -1.625 L 7.390625 -0.5625 C 7.390625 -0.40625 7.34375 -0.273438 7.25 -0.171875 C 7.132812 -0.0546875 7 0 6.84375 0 L 1.515625 0 C 1.367188 0 1.242188 -0.0546875 1.140625 -0.171875 C 1.023438 -0.273438 0.96875 -0.40625 0.96875 -0.5625 L 0.96875 -13.5625 C 0.96875 -13.71875 1.023438 -13.851562 1.140625 -13.96875 C 1.242188 -14.070312 1.367188 -14.125 1.515625 -14.125 L 2.578125 -14.125 C 2.734375 -14.125 2.867188 -14.070312 2.984375 -13.96875 C 3.085938 -13.851562 3.140625 -13.71875 3.140625 -13.5625 L 3.140625 -2.734375 C 3.140625 -2.578125 3.195312 -2.445312 3.3125 -2.34375 C 3.414062 -2.226562 3.546875 -2.171875 3.703125 -2.171875 Z M 6.84375 -2.171875 "/></g></g></g><g fill="#000000" fill-opacity="0.4"><g transform="translate(262.452231, 25.304304)"><g><path d="M 2.578125 -14.125 C 2.734375 -14.125 2.867188 -14.070312 2.984375 -13.96875 C 3.085938 -13.851562 3.140625 -13.71875 3.140625 -13.5625 L 3.140625 -0.5625 C 3.140625 -0.40625 3.085938 -0.273438 2.984375 -0.171875 C 2.867188 -0.0546875 2.734375 0 2.578125 0 L 1.515625 0 C 1.367188 0 1.242188 -0.0546875 1.140625 -0.171875 C 1.023438 -0.273438 0.96875 -0.40625 0.96875 -0.5625 L 0.96875 -13.5625 C 0.96875 -13.71875 1.023438 -13.851562 1.140625 -13.96875 C 1.242188 -14.070312 1.367188 -14.125 1.515625 -14.125 Z M 2.578125 -14.125 "/></g></g></g><g fill="#000000" fill-opacity="0.4"><g transform="translate(266.554469, 25.304304)"><g><path d="M 12.984375 -14.125 C 13.140625 -14.125 13.273438 -14.070312 13.390625 -13.96875 C 13.503906 -13.851562 13.5625 -13.710938 13.5625 -13.546875 L 13.5625 -0.578125 C 13.5625 -0.410156 13.503906 -0.273438 13.390625 -0.171875 C 13.273438 -0.0546875 13.140625 0 12.984375 0 L 11.9375 0 C 11.789062 0 11.664062 -0.0546875 11.5625 -0.171875 C 11.445312 -0.273438 11.390625 -0.410156 11.390625 -0.578125 L 11.390625 -6.796875 C 11.390625 -6.929688 11.320312 -7.007812 11.1875 -7.03125 C 11.050781 -7.0625 10.960938 -7.007812 10.921875 -6.875 L 8.546875 -0.390625 C 8.515625 -0.273438 8.445312 -0.179688 8.34375 -0.109375 C 8.238281 -0.0351562 8.128906 0 8.015625 0 L 6.515625 0 C 6.242188 0 6.0625 -0.128906 5.96875 -0.390625 L 3.609375 -6.875 C 3.566406 -7.007812 3.472656 -7.0625 3.328125 -7.03125 C 3.203125 -7.007812 3.140625 -6.929688 3.140625 -6.796875 L 3.140625 -0.578125 C 3.140625 -0.410156 3.082031 -0.273438 2.96875 -0.171875 C 2.851562 -0.0546875 2.71875 0 2.5625 0 L 1.546875 0 C 1.378906 0 1.242188 -0.0546875 1.140625 -0.171875 C 1.023438 -0.273438 0.96875 -0.410156 0.96875 -0.578125 L 0.96875 -13.546875 C 0.96875 -13.710938 1.023438 -13.851562 1.140625 -13.96875 C 1.242188 -14.070312 1.378906 -14.125 1.546875 -14.125 L 2.875 -14.125 C 3.144531 -14.125 3.320312 -13.992188 3.40625 -13.734375 L 7.03125 -3.796875 C 7.070312 -3.691406 7.148438 -3.640625 7.265625 -3.640625 C 7.378906 -3.640625 7.445312 -3.691406 7.46875 -3.796875 L 11.09375 -13.734375 C 11.195312 -13.992188 11.378906 -14.125 11.640625 -14.125 Z M 12.984375 -14.125 "/></g></g></g><g fill="#000000" fill-opacity="1"><g transform="translate(25.180445, 23.922108)"><g><path d="M 4.703125 -14.125 C 5.585938 -14.125 6.332031 -13.878906 6.9375 -13.390625 C 7.53125 -12.898438 7.972656 -12.289062 8.265625 -11.5625 C 8.554688 -10.8125 8.703125 -10.015625 8.703125 -9.171875 C 8.703125 -8.304688 8.554688 -7.507812 8.265625 -6.78125 C 7.972656 -6.039062 7.53125 -5.425781 6.9375 -4.9375 C 6.332031 -4.445312 5.585938 -4.203125 4.703125 -4.203125 L 3.703125 -4.203125 C 3.546875 -4.203125 3.414062 -4.148438 3.3125 -4.046875 C 3.195312 -3.929688 3.140625 -3.796875 3.140625 -3.640625 L 3.140625 -0.5625 C 3.140625 -0.40625 3.085938 -0.273438 2.984375 -0.171875 C 2.867188 -0.0546875 2.734375 0 2.578125 0 L 1.515625 0 C 1.367188 0 1.242188 -0.0546875 1.140625 -0.171875 C 1.023438 -0.273438 0.96875 -0.40625 0.96875 -0.5625 L 0.96875 -13.5625 C 0.96875 -13.71875 1.023438 -13.851562 1.140625 -13.96875 C 1.242188 -14.070312 1.367188 -14.125 1.515625 -14.125 Z M 4.734375 -6.375 C 5.140625 -6.375 5.472656 -6.515625 5.734375 -6.796875 C 6.003906 -7.066406 6.210938 -7.410156 6.359375 -7.828125 C 6.492188 -8.234375 6.5625 -8.679688 6.5625 -9.171875 C 6.5625 -9.648438 6.5 -10.09375 6.375 -10.5 C 6.238281 -10.90625 6.035156 -11.253906 5.765625 -11.546875 C 5.492188 -11.804688 5.148438 -11.9375 4.734375 -11.9375 L 3.703125 -11.9375 C 3.546875 -11.9375 3.414062 -11.890625 3.3125 -11.796875 C 3.195312 -11.679688 3.140625 -11.546875 3.140625 -11.390625 L 3.140625 -6.9375 C 3.140625 -6.78125 3.195312 -6.648438 3.3125 -6.546875 C 3.414062 -6.429688 3.546875 -6.375 3.703125 -6.375 Z M 4.734375 -6.375 "/></g></g></g><g fill="#000000" fill-opacity="1"><g transform="translate(34.867886, 23.922108)"><g><path d="M 7.90625 -12.5 C 7.90625 -12.34375 7.851562 -12.21875 7.75 -12.125 C 7.632812 -12 7.5 -11.9375 7.34375 -11.9375 L 3.703125 -11.9375 C 3.546875 -11.9375 3.414062 -11.890625 3.3125 -11.796875 C 3.195312 -11.679688 3.140625 -11.546875 3.140625 -11.390625 L 3.140625 -10.234375 C 3.140625 -10.078125 3.195312 -9.945312 3.3125 -9.84375 C 3.414062 -9.726562 3.546875 -9.671875 3.703125 -9.671875 L 6.109375 -9.671875 C 6.273438 -9.671875 6.414062 -9.617188 6.53125 -9.515625 C 6.632812 -9.398438 6.6875 -9.265625 6.6875 -9.109375 L 6.6875 -8.078125 C 6.6875 -7.921875 6.632812 -7.785156 6.53125 -7.671875 C 6.414062 -7.554688 6.273438 -7.5 6.109375 -7.5 L 3.703125 -7.5 C 3.546875 -7.5 3.414062 -7.445312 3.3125 -7.34375 C 3.195312 -7.226562 3.140625 -7.09375 3.140625 -6.9375 L 3.140625 -2.734375 C 3.140625 -2.578125 3.195312 -2.445312 3.3125 -2.34375 C 3.414062 -2.226562 3.546875 -2.171875 3.703125 -2.171875 L 7.34375 -2.171875 C 7.5 -2.171875 7.632812 -2.117188 7.75 -2.015625 C 7.851562 -1.898438 7.90625 -1.769531 7.90625 -1.625 L 7.90625 -0.5625 C 7.90625 -0.40625 7.851562 -0.273438 7.75 -0.171875 C 7.632812 -0.0546875 7.5 0 7.34375 0 L 1.515625 0 C 1.367188 0 1.242188 -0.0546875 1.140625 -0.171875 C 1.023438 -0.273438 0.96875 -0.40625 0.96875 -0.5625 L 0.96875 -13.5625 C 0.96875 -13.71875 1.023438 -13.851562 1.140625 -13.96875 C 1.242188 -14.070312 1.367188 -14.125 1.515625 -14.125 L 7.34375 -14.125 C 7.5 -14.125 7.632812 -14.070312 7.75 -13.96875 C 7.851562 -13.851562 7.90625 -13.71875 7.90625 -13.5625 Z M 7.90625 -12.5 "/></g></g></g><g fill="#000000" fill-opacity="1"><g transform="translate(43.727169, 23.922108)"><g><path d="M 9.375 -14.125 C 9.53125 -14.125 9.664062 -14.070312 9.78125 -13.96875 C 9.882812 -13.851562 9.9375 -13.71875 9.9375 -13.5625 L 9.9375 -0.5625 C 9.9375 -0.40625 9.882812 -0.273438 9.78125 -0.171875 C 9.664062 -0.0546875 9.53125 0 9.375 0 L 7.90625 0 C 7.664062 0 7.492188 -0.109375 7.390625 -0.328125 L 3.546875 -8.578125 C 3.503906 -8.679688 3.425781 -8.71875 3.3125 -8.6875 C 3.195312 -8.664062 3.140625 -8.597656 3.140625 -8.484375 L 3.140625 -0.5625 C 3.140625 -0.40625 3.085938 -0.273438 2.984375 -0.171875 C 2.867188 -0.0546875 2.726562 0 2.5625 0 L 1.515625 0 C 1.367188 0 1.242188 -0.0546875 1.140625 -0.171875 C 1.023438 -0.273438 0.96875 -0.40625 0.96875 -0.5625 L 0.96875 -13.5625 C 0.96875 -13.71875 1.023438 -13.851562 1.140625 -13.96875 C 1.242188 -14.070312 1.367188 -14.125 1.515625 -14.125 L 3 -14.125 C 3.25 -14.125 3.414062 -14.015625 3.5 -13.796875 L 7.359375 -5.546875 C 7.398438 -5.441406 7.484375 -5.40625 7.609375 -5.4375 C 7.710938 -5.457031 7.765625 -5.523438 7.765625 -5.640625 L 7.765625 -13.5625 C 7.765625 -13.71875 7.820312 -13.851562 7.9375 -13.96875 C 8.050781 -14.070312 8.1875 -14.125 8.34375 -14.125 Z M 9.375 -14.125 "/></g></g></g><g fill="#000000" fill-opacity="1"><g transform="translate(54.627947, 23.922108)"><g><path d="M 8.796875 0 C 8.535156 0 8.359375 -0.140625 8.265625 -0.421875 C 8.222656 -0.566406 8.171875 -0.773438 8.109375 -1.046875 C 8.035156 -1.296875 7.941406 -1.644531 7.828125 -2.09375 C 7.734375 -2.382812 7.546875 -2.53125 7.265625 -2.53125 L 4.1875 -2.53125 C 3.894531 -2.53125 3.707031 -2.382812 3.625 -2.09375 C 3.53125 -1.75 3.453125 -1.4375 3.390625 -1.15625 C 3.316406 -0.875 3.242188 -0.628906 3.171875 -0.421875 C 3.085938 -0.140625 2.910156 0 2.640625 0 L 1.546875 0 C 1.359375 0 1.207031 -0.078125 1.09375 -0.234375 C 0.976562 -0.367188 0.945312 -0.53125 1 -0.71875 C 1.125 -1.1875 1.285156 -1.789062 1.484375 -2.53125 C 1.671875 -3.25 1.882812 -4.03125 2.125 -4.875 C 2.351562 -5.707031 2.585938 -6.570312 2.828125 -7.46875 C 3.054688 -8.351562 3.28125 -9.203125 3.5 -10.015625 C 3.707031 -10.816406 3.898438 -11.539062 4.078125 -12.1875 C 4.242188 -12.832031 4.378906 -13.335938 4.484375 -13.703125 C 4.515625 -13.828125 4.582031 -13.925781 4.6875 -14 C 4.78125 -14.082031 4.894531 -14.125 5.03125 -14.125 L 6.421875 -14.125 C 6.546875 -14.125 6.660156 -14.082031 6.765625 -14 C 6.867188 -13.925781 6.929688 -13.828125 6.953125 -13.703125 C 7.398438 -12.003906 7.789062 -10.550781 8.125 -9.34375 C 8.445312 -8.132812 8.71875 -7.117188 8.9375 -6.296875 C 9.15625 -5.472656 9.335938 -4.8125 9.484375 -4.3125 C 9.609375 -3.8125 9.71875 -3.414062 9.8125 -3.125 C 9.882812 -2.8125 9.945312 -2.578125 10 -2.421875 C 10.039062 -2.253906 10.078125 -2.101562 10.109375 -1.96875 C 10.148438 -1.820312 10.195312 -1.660156 10.25 -1.484375 C 10.289062 -1.304688 10.351562 -1.050781 10.4375 -0.71875 C 10.488281 -0.53125 10.457031 -0.367188 10.34375 -0.234375 C 10.226562 -0.078125 10.082031 0 9.90625 0 Z M 4.515625 -5.40625 C 4.460938 -5.226562 4.492188 -5.070312 4.609375 -4.9375 C 4.722656 -4.78125 4.867188 -4.703125 5.046875 -4.703125 L 6.390625 -4.703125 C 6.578125 -4.703125 6.726562 -4.78125 6.84375 -4.9375 C 6.957031 -5.070312 6.988281 -5.226562 6.9375 -5.40625 C 6.832031 -5.769531 6.726562 -6.15625 6.625 -6.5625 C 6.507812 -6.976562 6.390625 -7.414062 6.265625 -7.875 C 6.222656 -8.019531 6.148438 -8.128906 6.046875 -8.203125 C 5.941406 -8.265625 5.832031 -8.296875 5.71875 -8.296875 C 5.601562 -8.296875 5.492188 -8.265625 5.390625 -8.203125 C 5.285156 -8.128906 5.21875 -8.019531 5.1875 -7.875 C 5.070312 -7.46875 4.960938 -7.054688 4.859375 -6.640625 C 4.742188 -6.234375 4.628906 -5.820312 4.515625 -5.40625 Z M 4.515625 -5.40625 "/></g></g></g><g fill="#000000" fill-opacity="1"><g transform="translate(66.067983, 23.922108)"><g><path d="M 9.375 -14.125 C 9.53125 -14.125 9.664062 -14.070312 9.78125 -13.96875 C 9.882812 -13.851562 9.9375 -13.71875 9.9375 -13.5625 L 9.9375 -0.5625 C 9.9375 -0.40625 9.882812 -0.273438 9.78125 -0.171875 C 9.664062 -0.0546875 9.53125 0 9.375 0 L 7.90625 0 C 7.664062 0 7.492188 -0.109375 7.390625 -0.328125 L 3.546875 -8.578125 C 3.503906 -8.679688 3.425781 -8.71875 3.3125 -8.6875 C 3.195312 -8.664062 3.140625 -8.597656 3.140625 -8.484375 L 3.140625 -0.5625 C 3.140625 -0.40625 3.085938 -0.273438 2.984375 -0.171875 C 2.867188 -0.0546875 2.726562 0 2.5625 0 L 1.515625 0 C 1.367188 0 1.242188 -0.0546875 1.140625 -0.171875 C 1.023438 -0.273438 0.96875 -0.40625 0.96875 -0.5625 L 0.96875 -13.5625 C 0.96875 -13.71875 1.023438 -13.851562 1.140625 -13.96875 C 1.242188 -14.070312 1.367188 -14.125 1.515625 -14.125 L 3 -14.125 C 3.25 -14.125 3.414062 -14.015625 3.5 -13.796875 L 7.359375 -5.546875 C 7.398438 -5.441406 7.484375 -5.40625 7.609375 -5.4375 C 7.710938 -5.457031 7.765625 -5.523438 7.765625 -5.640625 L 7.765625 -13.5625 C 7.765625 -13.71875 7.820312 -13.851562 7.9375 -13.96875 C 8.050781 -14.070312 8.1875 -14.125 8.34375 -14.125 Z M 9.375 -14.125 "/></g></g></g><g fill="#000000" fill-opacity="1"><g transform="translate(76.96876, 23.922108)"><g><path d="M 12.640625 -7.359375 C 12.722656 -7.359375 12.800781 -7.332031 12.875 -7.28125 C 12.925781 -7.21875 12.953125 -7.148438 12.953125 -7.078125 C 12.953125 -6.203125 12.847656 -5.335938 12.640625 -4.484375 C 12.421875 -3.640625 12.054688 -2.867188 11.546875 -2.171875 C 11.003906 -1.453125 10.347656 -0.914062 9.578125 -0.5625 C 8.796875 -0.1875 7.921875 0 6.953125 0 C 5.003906 0 3.476562 -0.722656 2.375 -2.171875 C 1.4375 -3.441406 0.96875 -5.066406 0.96875 -7.046875 C 0.96875 -8.035156 1.085938 -8.941406 1.328125 -9.765625 C 1.554688 -10.585938 1.90625 -11.304688 2.375 -11.921875 C 2.90625 -12.660156 3.566406 -13.210938 4.359375 -13.578125 C 5.128906 -13.941406 5.992188 -14.125 6.953125 -14.125 C 7.921875 -14.125 8.796875 -13.941406 9.578125 -13.578125 C 10.347656 -13.210938 11.003906 -12.660156 11.546875 -11.921875 C 11.597656 -11.859375 11.613281 -11.789062 11.59375 -11.71875 C 11.570312 -11.625 11.519531 -11.550781 11.4375 -11.5 L 10.0625 -10.71875 C 9.925781 -10.632812 9.800781 -10.648438 9.6875 -10.765625 C 9.46875 -11.023438 9.238281 -11.234375 9 -11.390625 C 8.738281 -11.546875 8.488281 -11.664062 8.25 -11.75 C 8 -11.832031 7.765625 -11.882812 7.546875 -11.90625 C 7.316406 -11.925781 7.117188 -11.9375 6.953125 -11.9375 C 6.660156 -11.9375 6.300781 -11.894531 5.875 -11.8125 C 5.4375 -11.707031 5.019531 -11.488281 4.625 -11.15625 C 4.207031 -10.820312 3.859375 -10.332031 3.578125 -9.6875 C 3.285156 -9.03125 3.140625 -8.148438 3.140625 -7.046875 C 3.140625 -5.941406 3.285156 -5.070312 3.578125 -4.4375 C 3.859375 -3.789062 4.207031 -3.300781 4.625 -2.96875 C 5.019531 -2.632812 5.4375 -2.421875 5.875 -2.328125 C 6.300781 -2.222656 6.660156 -2.171875 6.953125 -2.171875 C 7.179688 -2.171875 7.457031 -2.195312 7.78125 -2.25 C 8.101562 -2.300781 8.4375 -2.425781 8.78125 -2.625 C 9.113281 -2.800781 9.4375 -3.0625 9.75 -3.40625 C 10.039062 -3.757812 10.28125 -4.222656 10.46875 -4.796875 C 10.488281 -4.898438 10.472656 -4.988281 10.421875 -5.0625 C 10.367188 -5.144531 10.289062 -5.1875 10.1875 -5.1875 L 7.84375 -5.1875 C 7.6875 -5.1875 7.554688 -5.242188 7.453125 -5.359375 C 7.335938 -5.460938 7.28125 -5.597656 7.28125 -5.765625 L 7.28125 -6.796875 C 7.28125 -6.953125 7.335938 -7.085938 7.453125 -7.203125 C 7.554688 -7.304688 7.6875 -7.359375 7.84375 -7.359375 Z M 12.640625 -7.359375 "/></g></g></g><g fill="#000000" fill-opacity="1"><g transform="translate(90.873989, 23.922108)"><g><path d="M 8.796875 0 C 8.535156 0 8.359375 -0.140625 8.265625 -0.421875 C 8.222656 -0.566406 8.171875 -0.773438 8.109375 -1.046875 C 8.035156 -1.296875 7.941406 -1.644531 7.828125 -2.09375 C 7.734375 -2.382812 7.546875 -2.53125 7.265625 -2.53125 L 4.1875 -2.53125 C 3.894531 -2.53125 3.707031 -2.382812 3.625 -2.09375 C 3.53125 -1.75 3.453125 -1.4375 3.390625 -1.15625 C 3.316406 -0.875 3.242188 -0.628906 3.171875 -0.421875 C 3.085938 -0.140625 2.910156 0 2.640625 0 L 1.546875 0 C 1.359375 0 1.207031 -0.078125 1.09375 -0.234375 C 0.976562 -0.367188 0.945312 -0.53125 1 -0.71875 C 1.125 -1.1875 1.285156 -1.789062 1.484375 -2.53125 C 1.671875 -3.25 1.882812 -4.03125 2.125 -4.875 C 2.351562 -5.707031 2.585938 -6.570312 2.828125 -7.46875 C 3.054688 -8.351562 3.28125 -9.203125 3.5 -10.015625 C 3.707031 -10.816406 3.898438 -11.539062 4.078125 -12.1875 C 4.242188 -12.832031 4.378906 -13.335938 4.484375 -13.703125 C 4.515625 -13.828125 4.582031 -13.925781 4.6875 -14 C 4.78125 -14.082031 4.894531 -14.125 5.03125 -14.125 L 6.421875 -14.125 C 6.546875 -14.125 6.660156 -14.082031 6.765625 -14 C 6.867188 -13.925781 6.929688 -13.828125 6.953125 -13.703125 C 7.398438 -12.003906 7.789062 -10.550781 8.125 -9.34375 C 8.445312 -8.132812 8.71875 -7.117188 8.9375 -6.296875 C 9.15625 -5.472656 9.335938 -4.8125 9.484375 -4.3125 C 9.609375 -3.8125 9.71875 -3.414062 9.8125 -3.125 C 9.882812 -2.8125 9.945312 -2.578125 10 -2.421875 C 10.039062 -2.253906 10.078125 -2.101562 10.109375 -1.96875 C 10.148438 -1.820312 10.195312 -1.660156 10.25 -1.484375 C 10.289062 -1.304688 10.351562 -1.050781 10.4375 -0.71875 C 10.488281 -0.53125 10.457031 -0.367188 10.34375 -0.234375 C 10.226562 -0.078125 10.082031 0 9.90625 0 Z M 4.515625 -5.40625 C 4.460938 -5.226562 4.492188 -5.070312 4.609375 -4.9375 C 4.722656 -4.78125 4.867188 -4.703125 5.046875 -4.703125 L 6.390625 -4.703125 C 6.578125 -4.703125 6.726562 -4.78125 6.84375 -4.9375 C 6.957031 -5.070312 6.988281 -5.226562 6.9375 -5.40625 C 6.832031 -5.769531 6.726562 -6.15625 6.625 -6.5625 C 6.507812 -6.976562 6.390625 -7.414062 6.265625 -7.875 C 6.222656 -8.019531 6.148438 -8.128906 6.046875 -8.203125 C 5.941406 -8.265625 5.832031 -8.296875 5.71875 -8.296875 C 5.601562 -8.296875 5.492188 -8.265625 5.390625 -8.203125 C 5.285156 -8.128906 5.21875 -8.019531 5.1875 -7.875 C 5.070312 -7.46875 4.960938 -7.054688 4.859375 -6.640625 C 4.742188 -6.234375 4.628906 -5.820312 4.515625 -5.40625 Z M 4.515625 -5.40625 "/></g></g></g><g fill="#000000" fill-opacity="1"><g transform="translate(102.314025, 23.922108)"><g><path d="M 9.375 -14.125 C 9.53125 -14.125 9.664062 -14.070312 9.78125 -13.96875 C 9.882812 -13.851562 9.9375 -13.71875 9.9375 -13.5625 L 9.9375 -0.5625 C 9.9375 -0.40625 9.882812 -0.273438 9.78125 -0.171875 C 9.664062 -0.0546875 9.53125 0 9.375 0 L 7.90625 0 C 7.664062 0 7.492188 -0.109375 7.390625 -0.328125 L 3.546875 -8.578125 C 3.503906 -8.679688 3.425781 -8.71875 3.3125 -8.6875 C 3.195312 -8.664062 3.140625 -8.597656 3.140625 -8.484375 L 3.140625 -0.5625 C 3.140625 -0.40625 3.085938 -0.273438 2.984375 -0.171875 C 2.867188 -0.0546875 2.726562 0 2.5625 0 L 1.515625 0 C 1.367188 0 1.242188 -0.0546875 1.140625 -0.171875 C 1.023438 -0.273438 0.96875 -0.40625 0.96875 -0.5625 L 0.96875 -13.5625 C 0.96875 -13.71875 1.023438 -13.851562 1.140625 -13.96875 C 1.242188 -14.070312 1.367188 -14.125 1.515625 -14.125 L 3 -14.125 C 3.25 -14.125 3.414062 -14.015625 3.5 -13.796875 L 7.359375 -5.546875 C 7.398438 -5.441406 7.484375 -5.40625 7.609375 -5.4375 C 7.710938 -5.457031 7.765625 -5.523438 7.765625 -5.640625 L 7.765625 -13.5625 C 7.765625 -13.71875 7.820312 -13.851562 7.9375 -13.96875 C 8.050781 -14.070312 8.1875 -14.125 8.34375 -14.125 Z M 9.375 -14.125 "/></g></g></g><g fill="#000000" fill-opacity="1"><g transform="translate(113.214802, 23.922108)"><g><path d="M 8.796875 0 C 8.535156 0 8.359375 -0.140625 8.265625 -0.421875 C 8.222656 -0.566406 8.171875 -0.773438 8.109375 -1.046875 C 8.035156 -1.296875 7.941406 -1.644531 7.828125 -2.09375 C 7.734375 -2.382812 7.546875 -2.53125 7.265625 -2.53125 L 4.1875 -2.53125 C 3.894531 -2.53125 3.707031 -2.382812 3.625 -2.09375 C 3.53125 -1.75 3.453125 -1.4375 3.390625 -1.15625 C 3.316406 -0.875 3.242188 -0.628906 3.171875 -0.421875 C 3.085938 -0.140625 2.910156 0 2.640625 0 L 1.546875 0 C 1.359375 0 1.207031 -0.078125 1.09375 -0.234375 C 0.976562 -0.367188 0.945312 -0.53125 1 -0.71875 C 1.125 -1.1875 1.285156 -1.789062 1.484375 -2.53125 C 1.671875 -3.25 1.882812 -4.03125 2.125 -4.875 C 2.351562 -5.707031 2.585938 -6.570312 2.828125 -7.46875 C 3.054688 -8.351562 3.28125 -9.203125 3.5 -10.015625 C 3.707031 -10.816406 3.898438 -11.539062 4.078125 -12.1875 C 4.242188 -12.832031 4.378906 -13.335938 4.484375 -13.703125 C 4.515625 -13.828125 4.582031 -13.925781 4.6875 -14 C 4.78125 -14.082031 4.894531 -14.125 5.03125 -14.125 L 6.421875 -14.125 C 6.546875 -14.125 6.660156 -14.082031 6.765625 -14 C 6.867188 -13.925781 6.929688 -13.828125 6.953125 -13.703125 C 7.398438 -12.003906 7.789062 -10.550781 8.125 -9.34375 C 8.445312 -8.132812 8.71875 -7.117188 8.9375 -6.296875 C 9.15625 -5.472656 9.335938 -4.8125 9.484375 -4.3125 C 9.609375 -3.8125 9.71875 -3.414062 9.8125 -3.125 C 9.882812 -2.8125 9.945312 -2.578125 10 -2.421875 C 10.039062 -2.253906 10.078125 -2.101562 10.109375 -1.96875 C 10.148438 -1.820312 10.195312 -1.660156 10.25 -1.484375 C 10.289062 -1.304688 10.351562 -1.050781 10.4375 -0.71875 C 10.488281 -0.53125 10.457031 -0.367188 10.34375 -0.234375 C 10.226562 -0.078125 10.082031 0 9.90625 0 Z M 4.515625 -5.40625 C 4.460938 -5.226562 4.492188 -5.070312 4.609375 -4.9375 C 4.722656 -4.78125 4.867188 -4.703125 5.046875 -4.703125 L 6.390625 -4.703125 C 6.578125 -4.703125 6.726562 -4.78125 6.84375 -4.9375 C 6.957031 -5.070312 6.988281 -5.226562 6.9375 -5.40625 C 6.832031 -5.769531 6.726562 -6.15625 6.625 -6.5625 C 6.507812 -6.976562 6.390625 -7.414062 6.265625 -7.875 C 6.222656 -8.019531 6.148438 -8.128906 6.046875 -8.203125 C 5.941406 -8.265625 5.832031 -8.296875 5.71875 -8.296875 C 5.601562 -8.296875 5.492188 -8.265625 5.390625 -8.203125 C 5.285156 -8.128906 5.21875 -8.019531 5.1875 -7.875 C 5.070312 -7.46875 4.960938 -7.054688 4.859375 -6.640625 C 4.742188 -6.234375 4.628906 -5.820312 4.515625 -5.40625 Z M 4.515625 -5.40625 "/></g></g></g><g fill="#000000" fill-opacity="1"><g transform="translate(124.654838, 23.922108)"><g><path d="M 9.375 -14.125 C 9.53125 -14.125 9.664062 -14.070312 9.78125 -13.96875 C 9.882812 -13.851562 9.9375 -13.71875 9.9375 -13.5625 L 9.9375 -0.5625 C 9.9375 -0.40625 9.882812 -0.273438 9.78125 -0.171875 C 9.664062 -0.0546875 9.53125 0 9.375 0 L 7.90625 0 C 7.664062 0 7.492188 -0.109375 7.390625 -0.328125 L 3.546875 -8.578125 C 3.503906 -8.679688 3.425781 -8.71875 3.3125 -8.6875 C 3.195312 -8.664062 3.140625 -8.597656 3.140625 -8.484375 L 3.140625 -0.5625 C 3.140625 -0.40625 3.085938 -0.273438 2.984375 -0.171875 C 2.867188 -0.0546875 2.726562 0 2.5625 0 L 1.515625 0 C 1.367188 0 1.242188 -0.0546875 1.140625 -0.171875 C 1.023438 -0.273438 0.96875 -0.40625 0.96875 -0.5625 L 0.96875 -13.5625 C 0.96875 -13.71875 1.023438 -13.851562 1.140625 -13.96875 C 1.242188 -14.070312 1.367188 -14.125 1.515625 -14.125 L 3 -14.125 C 3.25 -14.125 3.414062 -14.015625 3.5 -13.796875 L 7.359375 -5.546875 C 7.398438 -5.441406 7.484375 -5.40625 7.609375 -5.4375 C 7.710938 -5.457031 7.765625 -5.523438 7.765625 -5.640625 L 7.765625 -13.5625 C 7.765625 -13.71875 7.820312 -13.851562 7.9375 -13.96875 C 8.050781 -14.070312 8.1875 -14.125 8.34375 -14.125 Z M 9.375 -14.125 "/></g></g></g><g fill="#000000" fill-opacity="1"><g transform="translate(135.555616, 23.922108)"><g/></g></g><g fill="#000000" fill-opacity="1"><g transform="translate(141.333408, 23.922108)"><g><path d="M 4.703125 -14.125 C 5.585938 -14.125 6.332031 -13.878906 6.9375 -13.390625 C 7.53125 -12.898438 7.972656 -12.289062 8.265625 -11.5625 C 8.554688 -10.8125 8.703125 -10.015625 8.703125 -9.171875 C 8.703125 -8.304688 8.554688 -7.507812 8.265625 -6.78125 C 7.972656 -6.039062 7.53125 -5.425781 6.9375 -4.9375 C 6.332031 -4.445312 5.585938 -4.203125 4.703125 -4.203125 L 3.703125 -4.203125 C 3.546875 -4.203125 3.414062 -4.148438 3.3125 -4.046875 C 3.195312 -3.929688 3.140625 -3.796875 3.140625 -3.640625 L 3.140625 -0.5625 C 3.140625 -0.40625 3.085938 -0.273438 2.984375 -0.171875 C 2.867188 -0.0546875 2.734375 0 2.578125 0 L 1.515625 0 C 1.367188 0 1.242188 -0.0546875 1.140625 -0.171875 C 1.023438 -0.273438 0.96875 -0.40625 0.96875 -0.5625 L 0.96875 -13.5625 C 0.96875 -13.71875 1.023438 -13.851562 1.140625 -13.96875 C 1.242188 -14.070312 1.367188 -14.125 1.515625 -14.125 Z M 4.734375 -6.375 C 5.140625 -6.375 5.472656 -6.515625 5.734375 -6.796875 C 6.003906 -7.066406 6.210938 -7.410156 6.359375 -7.828125 C 6.492188 -8.234375 6.5625 -8.679688 6.5625 -9.171875 C 6.5625 -9.648438 6.5 -10.09375 6.375 -10.5 C 6.238281 -10.90625 6.035156 -11.253906 5.765625 -11.546875 C 5.492188 -11.804688 5.148438 -11.9375 4.734375 -11.9375 L 3.703125 -11.9375 C 3.546875 -11.9375 3.414062 -11.890625 3.3125 -11.796875 C 3.195312 -11.679688 3.140625 -11.546875 3.140625 -11.390625 L 3.140625 -6.9375 C 3.140625 -6.78125 3.195312 -6.648438 3.3125 -6.546875 C 3.414062 -6.429688 3.546875 -6.375 3.703125 -6.375 Z M 4.734375 -6.375 "/></g></g></g><g fill="#000000" fill-opacity="1"><g transform="translate(151.02085, 23.922108)"><g><path d="M 7.90625 -12.5 C 7.90625 -12.34375 7.851562 -12.21875 7.75 -12.125 C 7.632812 -12 7.5 -11.9375 7.34375 -11.9375 L 3.703125 -11.9375 C 3.546875 -11.9375 3.414062 -11.890625 3.3125 -11.796875 C 3.195312 -11.679688 3.140625 -11.546875 3.140625 -11.390625 L 3.140625 -10.234375 C 3.140625 -10.078125 3.195312 -9.945312 3.3125 -9.84375 C 3.414062 -9.726562 3.546875 -9.671875 3.703125 -9.671875 L 6.109375 -9.671875 C 6.273438 -9.671875 6.414062 -9.617188 6.53125 -9.515625 C 6.632812 -9.398438 6.6875 -9.265625 6.6875 -9.109375 L 6.6875 -8.078125 C 6.6875 -7.921875 6.632812 -7.785156 6.53125 -7.671875 C 6.414062 -7.554688 6.273438 -7.5 6.109375 -7.5 L 3.703125 -7.5 C 3.546875 -7.5 3.414062 -7.445312 3.3125 -7.34375 C 3.195312 -7.226562 3.140625 -7.09375 3.140625 -6.9375 L 3.140625 -2.734375 C 3.140625 -2.578125 3.195312 -2.445312 3.3125 -2.34375 C 3.414062 -2.226562 3.546875 -2.171875 3.703125 -2.171875 L 7.34375 -2.171875 C 7.5 -2.171875 7.632812 -2.117188 7.75 -2.015625 C 7.851562 -1.898438 7.90625 -1.769531 7.90625 -1.625 L 7.90625 -0.5625 C 7.90625 -0.40625 7.851562 -0.273438 7.75 -0.171875 C 7.632812 -0.0546875 7.5 0 7.34375 0 L 1.515625 0 C 1.367188 0 1.242188 -0.0546875 1.140625 -0.171875 C 1.023438 -0.273438 0.96875 -0.40625 0.96875 -0.5625 L 0.96875 -13.5625 C 0.96875 -13.71875 1.023438 -13.851562 1.140625 -13.96875 C 1.242188 -14.070312 1.367188 -14.125 1.515625 -14.125 L 7.34375 -14.125 C 7.5 -14.125 7.632812 -14.070312 7.75 -13.96875 C 7.851562 -13.851562 7.90625 -13.71875 7.90625 -13.5625 Z M 7.90625 -12.5 "/></g></g></g><g fill="#000000" fill-opacity="1"><g transform="translate(159.880133, 23.922108)"><g><path d="M 4.703125 -14.125 C 5.421875 -14.125 6.039062 -13.960938 6.5625 -13.640625 C 7.09375 -13.304688 7.523438 -12.875 7.859375 -12.34375 C 8.191406 -11.820312 8.429688 -11.234375 8.578125 -10.578125 C 8.710938 -9.921875 8.753906 -9.257812 8.703125 -8.59375 C 8.640625 -7.925781 8.488281 -7.289062 8.25 -6.6875 C 7.988281 -6.082031 7.640625 -5.570312 7.203125 -5.15625 C 7.015625 -4.988281 6.960938 -4.789062 7.046875 -4.5625 L 8.4375 -0.75 C 8.5 -0.570312 8.476562 -0.40625 8.375 -0.25 C 8.257812 -0.0820312 8.101562 0 7.90625 0 L 6.796875 0 C 6.523438 0 6.347656 -0.117188 6.265625 -0.359375 L 5.015625 -3.828125 C 4.921875 -4.078125 4.738281 -4.203125 4.46875 -4.203125 L 3.703125 -4.203125 C 3.546875 -4.203125 3.414062 -4.148438 3.3125 -4.046875 C 3.195312 -3.929688 3.140625 -3.796875 3.140625 -3.640625 L 3.140625 -0.5625 C 3.140625 -0.40625 3.085938 -0.273438 2.984375 -0.171875 C 2.867188 -0.0546875 2.734375 0 2.578125 0 L 1.515625 0 C 1.367188 0 1.242188 -0.0546875 1.140625 -0.171875 C 1.023438 -0.273438 0.96875 -0.40625 0.96875 -0.5625 L 0.96875 -13.5625 C 0.96875 -13.71875 1.023438 -13.851562 1.140625 -13.96875 C 1.242188 -14.070312 1.367188 -14.125 1.515625 -14.125 Z M 3.140625 -6.9375 C 3.140625 -6.78125 3.195312 -6.648438 3.3125 -6.546875 C 3.414062 -6.429688 3.546875 -6.375 3.703125 -6.375 L 4.734375 -6.375 C 5.140625 -6.375 5.472656 -6.515625 5.734375 -6.796875 C 6.003906 -7.066406 6.210938 -7.410156 6.359375 -7.828125 C 6.492188 -8.234375 6.5625 -8.679688 6.5625 -9.171875 C 6.5625 -9.648438 6.5 -10.09375 6.375 -10.5 C 6.238281 -10.90625 6.035156 -11.253906 5.765625 -11.546875 C 5.492188 -11.804688 5.148438 -11.9375 4.734375 -11.9375 L 3.703125 -11.9375 C 3.546875 -11.9375 3.414062 -11.890625 3.3125 -11.796875 C 3.195312 -11.679688 3.140625 -11.546875 3.140625 -11.390625 Z M 3.140625 -6.9375 "/></g></g></g><g fill="#000000" fill-opacity="1"><g transform="translate(169.567574, 23.922108)"><g><path d="M 8.609375 -14.125 C 8.765625 -14.125 8.898438 -14.070312 9.015625 -13.96875 C 9.117188 -13.851562 9.171875 -13.71875 9.171875 -13.5625 L 9.171875 -4.109375 C 9.171875 -3.535156 9.066406 -3 8.859375 -2.5 C 8.640625 -2 8.34375 -1.5625 7.96875 -1.1875 C 7.601562 -0.820312 7.171875 -0.535156 6.671875 -0.328125 C 6.171875 -0.109375 5.632812 0 5.0625 0 C 4.5 0 3.972656 -0.109375 3.484375 -0.328125 C 2.984375 -0.546875 2.546875 -0.84375 2.171875 -1.21875 C 1.804688 -1.582031 1.515625 -2.019531 1.296875 -2.53125 C 1.078125 -3.007812 0.96875 -3.535156 0.96875 -4.109375 L 0.96875 -13.5625 C 0.96875 -13.71875 1.023438 -13.851562 1.140625 -13.96875 C 1.242188 -14.070312 1.367188 -14.125 1.515625 -14.125 L 2.5625 -14.125 C 2.726562 -14.125 2.867188 -14.070312 2.984375 -13.96875 C 3.085938 -13.851562 3.140625 -13.71875 3.140625 -13.5625 L 3.140625 -4.15625 C 3.140625 -3.882812 3.191406 -3.628906 3.296875 -3.390625 C 3.398438 -3.148438 3.539062 -2.9375 3.71875 -2.75 C 3.894531 -2.570312 4.109375 -2.429688 4.359375 -2.328125 C 4.597656 -2.222656 4.851562 -2.171875 5.125 -2.171875 C 5.65625 -2.171875 6.097656 -2.351562 6.453125 -2.71875 C 6.816406 -3.070312 7 -3.515625 7 -4.046875 L 7 -13.5625 C 7 -13.71875 7.054688 -13.851562 7.171875 -13.96875 C 7.285156 -14.070312 7.421875 -14.125 7.578125 -14.125 Z M 8.609375 -14.125 "/></g></g></g><g fill="#000000" fill-opacity="1"><g transform="translate(179.697974, 23.922108)"><g><path d="M 8.359375 -7.296875 C 8.785156 -6.953125 9.117188 -6.53125 9.359375 -6.03125 C 9.585938 -5.53125 9.726562 -5.007812 9.78125 -4.46875 C 9.832031 -3.925781 9.789062 -3.394531 9.65625 -2.875 C 9.507812 -2.332031 9.269531 -1.847656 8.9375 -1.421875 C 8.601562 -1.003906 8.175781 -0.664062 7.65625 -0.40625 C 7.125 -0.132812 6.503906 0 5.796875 0 L 1.515625 0 C 1.367188 0 1.242188 -0.0546875 1.140625 -0.171875 C 1.023438 -0.273438 0.96875 -0.40625 0.96875 -0.5625 L 0.96875 -13.5625 C 0.96875 -13.71875 1.023438 -13.851562 1.140625 -13.96875 C 1.242188 -14.070312 1.367188 -14.125 1.515625 -14.125 L 4.703125 -14.125 C 5.597656 -14.125 6.347656 -13.914062 6.953125 -13.5 C 7.546875 -13.09375 7.988281 -12.582031 8.28125 -11.96875 C 8.582031 -11.351562 8.734375 -10.679688 8.734375 -9.953125 C 8.710938 -9.234375 8.539062 -8.570312 8.21875 -7.96875 C 8.15625 -7.851562 8.140625 -7.734375 8.171875 -7.609375 C 8.191406 -7.484375 8.253906 -7.378906 8.359375 -7.296875 Z M 3.703125 -11.9375 C 3.546875 -11.9375 3.414062 -11.890625 3.3125 -11.796875 C 3.195312 -11.679688 3.140625 -11.546875 3.140625 -11.390625 L 3.140625 -8.703125 C 3.140625 -8.554688 3.195312 -8.429688 3.3125 -8.328125 C 3.414062 -8.210938 3.546875 -8.15625 3.703125 -8.15625 L 4.734375 -8.15625 C 5.140625 -8.15625 5.472656 -8.25 5.734375 -8.4375 C 6.003906 -8.613281 6.210938 -8.84375 6.359375 -9.125 C 6.492188 -9.414062 6.5625 -9.726562 6.5625 -10.0625 C 6.5625 -10.375 6.5 -10.675781 6.375 -10.96875 C 6.238281 -11.25 6.035156 -11.484375 5.765625 -11.671875 C 5.492188 -11.847656 5.148438 -11.9375 4.734375 -11.9375 Z M 5.84375 -2.171875 C 6.238281 -2.171875 6.570312 -2.269531 6.84375 -2.46875 C 7.113281 -2.644531 7.316406 -2.875 7.453125 -3.15625 C 7.585938 -3.4375 7.660156 -3.742188 7.671875 -4.078125 C 7.671875 -4.398438 7.601562 -4.703125 7.46875 -4.984375 C 7.332031 -5.265625 7.128906 -5.503906 6.859375 -5.703125 C 6.585938 -5.878906 6.25 -5.96875 5.84375 -5.96875 L 3.703125 -5.96875 C 3.546875 -5.96875 3.414062 -5.914062 3.3125 -5.8125 C 3.195312 -5.695312 3.140625 -5.5625 3.140625 -5.40625 L 3.140625 -2.734375 C 3.140625 -2.578125 3.195312 -2.445312 3.3125 -2.34375 C 3.414062 -2.226562 3.546875 -2.171875 3.703125 -2.171875 Z M 5.84375 -2.171875 "/></g></g></g><g fill="#000000" fill-opacity="1"><g transform="translate(190.463931, 23.922108)"><g><path d="M 8.796875 0 C 8.535156 0 8.359375 -0.140625 8.265625 -0.421875 C 8.222656 -0.566406 8.171875 -0.773438 8.109375 -1.046875 C 8.035156 -1.296875 7.941406 -1.644531 7.828125 -2.09375 C 7.734375 -2.382812 7.546875 -2.53125 7.265625 -2.53125 L 4.1875 -2.53125 C 3.894531 -2.53125 3.707031 -2.382812 3.625 -2.09375 C 3.53125 -1.75 3.453125 -1.4375 3.390625 -1.15625 C 3.316406 -0.875 3.242188 -0.628906 3.171875 -0.421875 C 3.085938 -0.140625 2.910156 0 2.640625 0 L 1.546875 0 C 1.359375 0 1.207031 -0.078125 1.09375 -0.234375 C 0.976562 -0.367188 0.945312 -0.53125 1 -0.71875 C 1.125 -1.1875 1.285156 -1.789062 1.484375 -2.53125 C 1.671875 -3.25 1.882812 -4.03125 2.125 -4.875 C 2.351562 -5.707031 2.585938 -6.570312 2.828125 -7.46875 C 3.054688 -8.351562 3.28125 -9.203125 3.5 -10.015625 C 3.707031 -10.816406 3.898438 -11.539062 4.078125 -12.1875 C 4.242188 -12.832031 4.378906 -13.335938 4.484375 -13.703125 C 4.515625 -13.828125 4.582031 -13.925781 4.6875 -14 C 4.78125 -14.082031 4.894531 -14.125 5.03125 -14.125 L 6.421875 -14.125 C 6.546875 -14.125 6.660156 -14.082031 6.765625 -14 C 6.867188 -13.925781 6.929688 -13.828125 6.953125 -13.703125 C 7.398438 -12.003906 7.789062 -10.550781 8.125 -9.34375 C 8.445312 -8.132812 8.71875 -7.117188 8.9375 -6.296875 C 9.15625 -5.472656 9.335938 -4.8125 9.484375 -4.3125 C 9.609375 -3.8125 9.71875 -3.414062 9.8125 -3.125 C 9.882812 -2.8125 9.945312 -2.578125 10 -2.421875 C 10.039062 -2.253906 10.078125 -2.101562 10.109375 -1.96875 C 10.148438 -1.820312 10.195312 -1.660156 10.25 -1.484375 C 10.289062 -1.304688 10.351562 -1.050781 10.4375 -0.71875 C 10.488281 -0.53125 10.457031 -0.367188 10.34375 -0.234375 C 10.226562 -0.078125 10.082031 0 9.90625 0 Z M 4.515625 -5.40625 C 4.460938 -5.226562 4.492188 -5.070312 4.609375 -4.9375 C 4.722656 -4.78125 4.867188 -4.703125 5.046875 -4.703125 L 6.390625 -4.703125 C 6.578125 -4.703125 6.726562 -4.78125 6.84375 -4.9375 C 6.957031 -5.070312 6.988281 -5.226562 6.9375 -5.40625 C 6.832031 -5.769531 6.726562 -6.15625 6.625 -6.5625 C 6.507812 -6.976562 6.390625 -7.414062 6.265625 -7.875 C 6.222656 -8.019531 6.148438 -8.128906 6.046875 -8.203125 C 5.941406 -8.265625 5.832031 -8.296875 5.71875 -8.296875 C 5.601562 -8.296875 5.492188 -8.265625 5.390625 -8.203125 C 5.285156 -8.128906 5.21875 -8.019531 5.1875 -7.875 C 5.070312 -7.46875 4.960938 -7.054688 4.859375 -6.640625 C 4.742188 -6.234375 4.628906 -5.820312 4.515625 -5.40625 Z M 4.515625 -5.40625 "/></g></g></g><g fill="#000000" fill-opacity="1"><g transform="translate(201.903967, 23.922108)"><g><path d="M 7 -13.5625 C 7 -13.71875 7.054688 -13.851562 7.171875 -13.96875 C 7.273438 -14.070312 7.410156 -14.125 7.578125 -14.125 L 8.609375 -14.125 C 8.765625 -14.125 8.898438 -14.070312 9.015625 -13.96875 C 9.117188 -13.851562 9.171875 -13.71875 9.171875 -13.5625 L 9.171875 -0.5625 C 9.171875 -0.40625 9.117188 -0.273438 9.015625 -0.171875 C 8.898438 -0.0546875 8.765625 0 8.609375 0 L 7.578125 0 C 7.410156 0 7.273438 -0.0546875 7.171875 -0.171875 C 7.054688 -0.273438 7 -0.40625 7 -0.5625 L 7 -5.40625 C 7 -5.5625 6.945312 -5.695312 6.84375 -5.8125 C 6.726562 -5.914062 6.59375 -5.96875 6.4375 -5.96875 L 3.703125 -5.96875 C 3.546875 -5.96875 3.414062 -5.914062 3.3125 -5.8125 C 3.195312 -5.695312 3.140625 -5.5625 3.140625 -5.40625 L 3.140625 -0.5625 C 3.140625 -0.40625 3.085938 -0.273438 2.984375 -0.171875 C 2.867188 -0.0546875 2.734375 0 2.578125 0 L 1.515625 0 C 1.367188 0 1.242188 -0.0546875 1.140625 -0.171875 C 1.023438 -0.273438 0.96875 -0.40625 0.96875 -0.5625 L 0.96875 -13.5625 C 0.96875 -13.71875 1.023438 -13.851562 1.140625 -13.96875 C 1.242188 -14.070312 1.367188 -14.125 1.515625 -14.125 L 2.578125 -14.125 C 2.734375 -14.125 2.867188 -14.070312 2.984375 -13.96875 C 3.085938 -13.851562 3.140625 -13.71875 3.140625 -13.5625 L 3.140625 -8.703125 C 3.140625 -8.554688 3.195312 -8.429688 3.3125 -8.328125 C 3.414062 -8.210938 3.546875 -8.15625 3.703125 -8.15625 L 6.4375 -8.15625 C 6.59375 -8.15625 6.726562 -8.210938 6.84375 -8.328125 C 6.945312 -8.429688 7 -8.554688 7 -8.703125 Z M 7 -13.5625 "/></g></g></g><g fill="#000000" fill-opacity="1"><g transform="translate(212.034366, 23.922108)"><g><path d="M 8.796875 0 C 8.535156 0 8.359375 -0.140625 8.265625 -0.421875 C 8.222656 -0.566406 8.171875 -0.773438 8.109375 -1.046875 C 8.035156 -1.296875 7.941406 -1.644531 7.828125 -2.09375 C 7.734375 -2.382812 7.546875 -2.53125 7.265625 -2.53125 L 4.1875 -2.53125 C 3.894531 -2.53125 3.707031 -2.382812 3.625 -2.09375 C 3.53125 -1.75 3.453125 -1.4375 3.390625 -1.15625 C 3.316406 -0.875 3.242188 -0.628906 3.171875 -0.421875 C 3.085938 -0.140625 2.910156 0 2.640625 0 L 1.546875 0 C 1.359375 0 1.207031 -0.078125 1.09375 -0.234375 C 0.976562 -0.367188 0.945312 -0.53125 1 -0.71875 C 1.125 -1.1875 1.285156 -1.789062 1.484375 -2.53125 C 1.671875 -3.25 1.882812 -4.03125 2.125 -4.875 C 2.351562 -5.707031 2.585938 -6.570312 2.828125 -7.46875 C 3.054688 -8.351562 3.28125 -9.203125 3.5 -10.015625 C 3.707031 -10.816406 3.898438 -11.539062 4.078125 -12.1875 C 4.242188 -12.832031 4.378906 -13.335938 4.484375 -13.703125 C 4.515625 -13.828125 4.582031 -13.925781 4.6875 -14 C 4.78125 -14.082031 4.894531 -14.125 5.03125 -14.125 L 6.421875 -14.125 C 6.546875 -14.125 6.660156 -14.082031 6.765625 -14 C 6.867188 -13.925781 6.929688 -13.828125 6.953125 -13.703125 C 7.398438 -12.003906 7.789062 -10.550781 8.125 -9.34375 C 8.445312 -8.132812 8.71875 -7.117188 8.9375 -6.296875 C 9.15625 -5.472656 9.335938 -4.8125 9.484375 -4.3125 C 9.609375 -3.8125 9.71875 -3.414062 9.8125 -3.125 C 9.882812 -2.8125 9.945312 -2.578125 10 -2.421875 C 10.039062 -2.253906 10.078125 -2.101562 10.109375 -1.96875 C 10.148438 -1.820312 10.195312 -1.660156 10.25 -1.484375 C 10.289062 -1.304688 10.351562 -1.050781 10.4375 -0.71875 C 10.488281 -0.53125 10.457031 -0.367188 10.34375 -0.234375 C 10.226562 -0.078125 10.082031 0 9.90625 0 Z M 4.515625 -5.40625 C 4.460938 -5.226562 4.492188 -5.070312 4.609375 -4.9375 C 4.722656 -4.78125 4.867188 -4.703125 5.046875 -4.703125 L 6.390625 -4.703125 C 6.578125 -4.703125 6.726562 -4.78125 6.84375 -4.9375 C 6.957031 -5.070312 6.988281 -5.226562 6.9375 -5.40625 C 6.832031 -5.769531 6.726562 -6.15625 6.625 -6.5625 C 6.507812 -6.976562 6.390625 -7.414062 6.265625 -7.875 C 6.222656 -8.019531 6.148438 -8.128906 6.046875 -8.203125 C 5.941406 -8.265625 5.832031 -8.296875 5.71875 -8.296875 C 5.601562 -8.296875 5.492188 -8.265625 5.390625 -8.203125 C 5.285156 -8.128906 5.21875 -8.019531 5.1875 -7.875 C 5.070312 -7.46875 4.960938 -7.054688 4.859375 -6.640625 C 4.742188 -6.234375 4.628906 -5.820312 4.515625 -5.40625 Z M 4.515625 -5.40625 "/></g></g></g><g fill="#000000" fill-opacity="1"><g transform="translate(223.474413, 23.922108)"><g><path d="M 9.375 -14.125 C 9.53125 -14.125 9.664062 -14.070312 9.78125 -13.96875 C 9.882812 -13.851562 9.9375 -13.71875 9.9375 -13.5625 L 9.9375 -0.5625 C 9.9375 -0.40625 9.882812 -0.273438 9.78125 -0.171875 C 9.664062 -0.0546875 9.53125 0 9.375 0 L 7.90625 0 C 7.664062 0 7.492188 -0.109375 7.390625 -0.328125 L 3.546875 -8.578125 C 3.503906 -8.679688 3.425781 -8.71875 3.3125 -8.6875 C 3.195312 -8.664062 3.140625 -8.597656 3.140625 -8.484375 L 3.140625 -0.5625 C 3.140625 -0.40625 3.085938 -0.273438 2.984375 -0.171875 C 2.867188 -0.0546875 2.726562 0 2.5625 0 L 1.515625 0 C 1.367188 0 1.242188 -0.0546875 1.140625 -0.171875 C 1.023438 -0.273438 0.96875 -0.40625 0.96875 -0.5625 L 0.96875 -13.5625 C 0.96875 -13.71875 1.023438 -13.851562 1.140625 -13.96875 C 1.242188 -14.070312 1.367188 -14.125 1.515625 -14.125 L 3 -14.125 C 3.25 -14.125 3.414062 -14.015625 3.5 -13.796875 L 7.359375 -5.546875 C 7.398438 -5.441406 7.484375 -5.40625 7.609375 -5.4375 C 7.710938 -5.457031 7.765625 -5.523438 7.765625 -5.640625 L 7.765625 -13.5625 C 7.765625 -13.71875 7.820312 -13.851562 7.9375 -13.96875 C 8.050781 -14.070312 8.1875 -14.125 8.34375 -14.125 Z M 9.375 -14.125 "/></g></g></g><g fill="#000000" fill-opacity="1"><g transform="translate(234.375202, 23.922108)"><g/></g></g><g fill="#000000" fill-opacity="1"><g transform="translate(240.152983, 23.922108)"><g><path d="M 2.578125 -14.125 C 2.734375 -14.125 2.867188 -14.070312 2.984375 -13.96875 C 3.085938 -13.851562 3.140625 -13.71875 3.140625 -13.5625 L 3.140625 -0.5625 C 3.140625 -0.40625 3.085938 -0.273438 2.984375 -0.171875 C 2.867188 -0.0546875 2.734375 0 2.578125 0 L 1.515625 0 C 1.367188 0 1.242188 -0.0546875 1.140625 -0.171875 C 1.023438 -0.273438 0.96875 -0.40625 0.96875 -0.5625 L 0.96875 -13.5625 C 0.96875 -13.71875 1.023438 -13.851562 1.140625 -13.96875 C 1.242188 -14.070312 1.367188 -14.125 1.515625 -14.125 Z M 2.578125 -14.125 "/></g></g></g><g fill="#000000" fill-opacity="1"><g transform="translate(244.255221, 23.922108)"><g><path d="M 5.203125 -7.390625 C 5.140625 -7.296875 5.109375 -7.191406 5.109375 -7.078125 C 5.109375 -6.941406 5.140625 -6.820312 5.203125 -6.71875 L 9.484375 -0.90625 C 9.617188 -0.726562 9.632812 -0.53125 9.53125 -0.3125 C 9.425781 -0.101562 9.257812 0 9.03125 0 L 7.75 0 C 7.550781 0 7.394531 -0.078125 7.28125 -0.234375 L 3.734375 -5.046875 C 3.679688 -5.097656 3.640625 -5.125 3.609375 -5.125 C 3.554688 -5.125 3.515625 -5.097656 3.484375 -5.046875 L 3.15625 -4.625 C 3.144531 -4.613281 3.140625 -4.582031 3.140625 -4.53125 L 3.140625 -0.578125 C 3.140625 -0.410156 3.085938 -0.273438 2.984375 -0.171875 C 2.867188 -0.0546875 2.726562 0 2.5625 0 L 1.546875 0 C 1.378906 0 1.242188 -0.0546875 1.140625 -0.171875 C 1.023438 -0.273438 0.96875 -0.410156 0.96875 -0.578125 L 0.96875 -13.546875 C 0.96875 -13.710938 1.023438 -13.851562 1.140625 -13.96875 C 1.242188 -14.070312 1.378906 -14.125 1.546875 -14.125 L 2.5625 -14.125 C 2.726562 -14.125 2.867188 -14.070312 2.984375 -13.96875 C 3.085938 -13.851562 3.140625 -13.710938 3.140625 -13.546875 L 3.140625 -8.75 C 3.140625 -8.65625 3.175781 -8.601562 3.25 -8.59375 C 3.332031 -8.5625 3.390625 -8.582031 3.421875 -8.65625 L 7.28125 -13.890625 C 7.40625 -14.046875 7.5625 -14.125 7.75 -14.125 L 9.03125 -14.125 C 9.257812 -14.125 9.425781 -14.019531 9.53125 -13.8125 C 9.632812 -13.59375 9.617188 -13.394531 9.484375 -13.21875 Z M 5.203125 -7.390625 "/></g></g></g><g fill="#000000" fill-opacity="1"><g transform="translate(254.828601, 23.922108)"><g><path d="M 6.84375 -2.171875 C 7 -2.171875 7.132812 -2.117188 7.25 -2.015625 C 7.34375 -1.898438 7.390625 -1.769531 7.390625 -1.625 L 7.390625 -0.5625 C 7.390625 -0.40625 7.34375 -0.273438 7.25 -0.171875 C 7.132812 -0.0546875 7 0 6.84375 0 L 1.515625 0 C 1.367188 0 1.242188 -0.0546875 1.140625 -0.171875 C 1.023438 -0.273438 0.96875 -0.40625 0.96875 -0.5625 L 0.96875 -13.5625 C 0.96875 -13.71875 1.023438 -13.851562 1.140625 -13.96875 C 1.242188 -14.070312 1.367188 -14.125 1.515625 -14.125 L 2.578125 -14.125 C 2.734375 -14.125 2.867188 -14.070312 2.984375 -13.96875 C 3.085938 -13.851562 3.140625 -13.71875 3.140625 -13.5625 L 3.140625 -2.734375 C 3.140625 -2.578125 3.195312 -2.445312 3.3125 -2.34375 C 3.414062 -2.226562 3.546875 -2.171875 3.703125 -2.171875 Z M 6.84375 -2.171875 "/></g></g></g><g fill="#000000" fill-opacity="1"><g transform="translate(263.187157, 23.922108)"><g><path d="M 2.578125 -14.125 C 2.734375 -14.125 2.867188 -14.070312 2.984375 -13.96875 C 3.085938 -13.851562 3.140625 -13.71875 3.140625 -13.5625 L 3.140625 -0.5625 C 3.140625 -0.40625 3.085938 -0.273438 2.984375 -0.171875 C 2.867188 -0.0546875 2.734375 0 2.578125 0 L 1.515625 0 C 1.367188 0 1.242188 -0.0546875 1.140625 -0.171875 C 1.023438 -0.273438 0.96875 -0.40625 0.96875 -0.5625 L 0.96875 -13.5625 C 0.96875 -13.71875 1.023438 -13.851562 1.140625 -13.96875 C 1.242188 -14.070312 1.367188 -14.125 1.515625 -14.125 Z M 2.578125 -14.125 "/></g></g></g><g fill="#000000" fill-opacity="1"><g transform="translate(267.289395, 23.922108)"><g><path d="M 12.984375 -14.125 C 13.140625 -14.125 13.273438 -14.070312 13.390625 -13.96875 C 13.503906 -13.851562 13.5625 -13.710938 13.5625 -13.546875 L 13.5625 -0.578125 C 13.5625 -0.410156 13.503906 -0.273438 13.390625 -0.171875 C 13.273438 -0.0546875 13.140625 0 12.984375 0 L 11.9375 0 C 11.789062 0 11.664062 -0.0546875 11.5625 -0.171875 C 11.445312 -0.273438 11.390625 -0.410156 11.390625 -0.578125 L 11.390625 -6.796875 C 11.390625 -6.929688 11.320312 -7.007812 11.1875 -7.03125 C 11.050781 -7.0625 10.960938 -7.007812 10.921875 -6.875 L 8.546875 -0.390625 C 8.515625 -0.273438 8.445312 -0.179688 8.34375 -0.109375 C 8.238281 -0.0351562 8.128906 0 8.015625 0 L 6.515625 0 C 6.242188 0 6.0625 -0.128906 5.96875 -0.390625 L 3.609375 -6.875 C 3.566406 -7.007812 3.472656 -7.0625 3.328125 -7.03125 C 3.203125 -7.007812 3.140625 -6.929688 3.140625 -6.796875 L 3.140625 -0.578125 C 3.140625 -0.410156 3.082031 -0.273438 2.96875 -0.171875 C 2.851562 -0.0546875 2.71875 0 2.5625 0 L 1.546875 0 C 1.378906 0 1.242188 -0.0546875 1.140625 -0.171875 C 1.023438 -0.273438 0.96875 -0.410156 0.96875 -0.578125 L 0.96875 -13.546875 C 0.96875 -13.710938 1.023438 -13.851562 1.140625 -13.96875 C 1.242188 -14.070312 1.378906 -14.125 1.546875 -14.125 L 2.875 -14.125 C 3.144531 -14.125 3.320312 -13.992188 3.40625 -13.734375 L 7.03125 -3.796875 C 7.070312 -3.691406 7.148438 -3.640625 7.265625 -3.640625 C 7.378906 -3.640625 7.445312 -3.691406 7.46875 -3.796875 L 11.09375 -13.734375 C 11.195312 -13.992188 11.378906 -14.125 11.640625 -14.125 Z M 12.984375 -14.125 "/></g></g></g></svg>