<svg xmlns="http://www.w3.org/2000/svg" xmlns:xlink="http://www.w3.org/1999/xlink" width="330" zoomAndPan="magnify" viewBox="0 0 247.5 30.000001" height="40" preserveAspectRatio="xMidYMid meet" version="1.0"><defs><g/><clipPath id="10e45881c3"><path d="M 3.75 0 L 243.265625 0 L 243.265625 29.03125 L 3.75 29.03125 Z M 3.75 0 " clip-rule="nonzero"/></clipPath></defs><g clip-path="url(#10e45881c3)"><path fill="#ffffff" d="M 3.75 0 L 243.265625 0 L 243.265625 29.03125 L 3.75 29.03125 Z M 3.75 0 " fill-opacity="1" fill-rule="nonzero"/><path fill="#ffffff" d="M 3.75 0 L 243.265625 0 L 243.265625 29.03125 L 3.75 29.03125 Z M 3.75 0 " fill-opacity="1" fill-rule="nonzero"/><path stroke-linecap="butt" transform="matrix(0.725806, 0, 0, 0.725806, 3.749999, 0.00000193548)" fill-opacity="1" fill="#ffffff" fill-rule="nonzero" stroke-linejoin="miter" d="M 0.00000191887 -0.00000266667 L 329.999331 -0.00000266667 L 329.999331 39.998611 L 0.00000191887 39.998611 Z M 0.00000191887 -0.00000266667 " stroke="#000000" stroke-width="4" stroke-opacity="1" stroke-miterlimit="4"/></g><g fill="#000000" fill-opacity="0.4"><g transform="translate(62.776886, 20.483529)"><g><path d="M 4.25 -12.765625 C 5.050781 -12.765625 5.722656 -12.546875 6.265625 -12.109375 C 6.804688 -11.671875 7.207031 -11.117188 7.46875 -10.453125 C 7.738281 -9.773438 7.875 -9.054688 7.875 -8.296875 C 7.875 -7.515625 7.738281 -6.789062 7.46875 -6.125 C 7.207031 -5.457031 6.804688 -4.898438 6.265625 -4.453125 C 5.722656 -4.015625 5.050781 -3.796875 4.25 -3.796875 L 3.34375 -3.796875 C 3.207031 -3.796875 3.09375 -3.75 3 -3.65625 C 2.894531 -3.550781 2.84375 -3.429688 2.84375 -3.296875 L 2.84375 -0.5 C 2.84375 -0.363281 2.796875 -0.25 2.703125 -0.15625 C 2.597656 -0.0507812 2.472656 0 2.328125 0 L 1.375 0 C 1.238281 0 1.125 -0.0507812 1.03125 -0.15625 C 0.925781 -0.25 0.875 -0.363281 0.875 -0.5 L 0.875 -12.265625 C 0.875 -12.398438 0.925781 -12.519531 1.03125 -12.625 C 1.125 -12.71875 1.238281 -12.765625 1.375 -12.765625 Z M 4.28125 -5.765625 C 4.644531 -5.765625 4.945312 -5.894531 5.1875 -6.15625 C 5.4375 -6.394531 5.625 -6.703125 5.75 -7.078125 C 5.875 -7.441406 5.9375 -7.847656 5.9375 -8.296875 C 5.9375 -8.722656 5.878906 -9.125 5.765625 -9.5 C 5.640625 -9.863281 5.453125 -10.175781 5.203125 -10.4375 C 4.960938 -10.675781 4.65625 -10.796875 4.28125 -10.796875 L 3.34375 -10.796875 C 3.207031 -10.796875 3.09375 -10.75 3 -10.65625 C 2.894531 -10.550781 2.84375 -10.429688 2.84375 -10.296875 L 2.84375 -6.265625 C 2.84375 -6.128906 2.894531 -6.015625 3 -5.921875 C 3.09375 -5.816406 3.207031 -5.765625 3.34375 -5.765625 Z M 4.28125 -5.765625 "/></g></g></g><g fill="#000000" fill-opacity="0.4"><g transform="translate(71.538792, 20.483529)"><g><path d="M 7.140625 -11.3125 C 7.140625 -11.164062 7.09375 -11.046875 7 -10.953125 C 6.894531 -10.847656 6.773438 -10.796875 6.640625 -10.796875 L 3.34375 -10.796875 C 3.207031 -10.796875 3.09375 -10.75 3 -10.65625 C 2.894531 -10.550781 2.84375 -10.429688 2.84375 -10.296875 L 2.84375 -9.25 C 2.84375 -9.113281 2.894531 -9 3 -8.90625 C 3.09375 -8.800781 3.207031 -8.75 3.34375 -8.75 L 5.515625 -8.75 C 5.671875 -8.75 5.800781 -8.703125 5.90625 -8.609375 C 6 -8.503906 6.046875 -8.378906 6.046875 -8.234375 L 6.046875 -7.296875 C 6.046875 -7.160156 6 -7.039062 5.90625 -6.9375 C 5.800781 -6.832031 5.671875 -6.78125 5.515625 -6.78125 L 3.34375 -6.78125 C 3.207031 -6.78125 3.09375 -6.734375 3 -6.640625 C 2.894531 -6.535156 2.84375 -6.410156 2.84375 -6.265625 L 2.84375 -2.46875 C 2.84375 -2.332031 2.894531 -2.21875 3 -2.125 C 3.09375 -2.019531 3.207031 -1.96875 3.34375 -1.96875 L 6.640625 -1.96875 C 6.773438 -1.96875 6.894531 -1.921875 7 -1.828125 C 7.09375 -1.722656 7.140625 -1.601562 7.140625 -1.46875 L 7.140625 -0.5 C 7.140625 -0.363281 7.09375 -0.25 7 -0.15625 C 6.894531 -0.0507812 6.773438 0 6.640625 0 L 1.375 0 C 1.238281 0 1.125 -0.0507812 1.03125 -0.15625 C 0.925781 -0.25 0.875 -0.363281 0.875 -0.5 L 0.875 -12.265625 C 0.875 -12.398438 0.925781 -12.519531 1.03125 -12.625 C 1.125 -12.71875 1.238281 -12.765625 1.375 -12.765625 L 6.640625 -12.765625 C 6.773438 -12.765625 6.894531 -12.71875 7 -12.625 C 7.09375 -12.519531 7.140625 -12.398438 7.140625 -12.265625 Z M 7.140625 -11.3125 "/></g></g></g><g fill="#000000" fill-opacity="0.4"><g transform="translate(79.551669, 20.483529)"><g><path d="M 8.484375 -12.765625 C 8.617188 -12.765625 8.738281 -12.71875 8.84375 -12.625 C 8.9375 -12.519531 8.984375 -12.398438 8.984375 -12.265625 L 8.984375 -0.5 C 8.984375 -0.363281 8.9375 -0.25 8.84375 -0.15625 C 8.738281 -0.0507812 8.617188 0 8.484375 0 L 7.140625 0 C 6.929688 0 6.78125 -0.0976562 6.6875 -0.296875 L 3.203125 -7.75 C 3.171875 -7.84375 3.101562 -7.878906 3 -7.859375 C 2.894531 -7.835938 2.84375 -7.773438 2.84375 -7.671875 L 2.84375 -0.5 C 2.84375 -0.363281 2.796875 -0.25 2.703125 -0.15625 C 2.597656 -0.0507812 2.46875 0 2.3125 0 L 1.375 0 C 1.238281 0 1.125 -0.0507812 1.03125 -0.15625 C 0.925781 -0.25 0.875 -0.363281 0.875 -0.5 L 0.875 -12.265625 C 0.875 -12.398438 0.925781 -12.519531 1.03125 -12.625 C 1.125 -12.71875 1.238281 -12.765625 1.375 -12.765625 L 2.71875 -12.765625 C 2.9375 -12.765625 3.085938 -12.664062 3.171875 -12.46875 L 6.65625 -5.015625 C 6.6875 -4.921875 6.757812 -4.882812 6.875 -4.90625 C 6.96875 -4.9375 7.015625 -5.003906 7.015625 -5.109375 L 7.015625 -12.265625 C 7.015625 -12.398438 7.066406 -12.519531 7.171875 -12.625 C 7.273438 -12.71875 7.398438 -12.765625 7.546875 -12.765625 Z M 8.484375 -12.765625 "/></g></g></g><g fill="#000000" fill-opacity="0.4"><g transform="translate(89.41099, 20.483529)"><g><path d="M 11.421875 -6.65625 C 11.503906 -6.65625 11.578125 -6.628906 11.640625 -6.578125 C 11.679688 -6.523438 11.703125 -6.460938 11.703125 -6.390625 C 11.703125 -5.597656 11.609375 -4.820312 11.421875 -4.0625 C 11.222656 -3.289062 10.894531 -2.59375 10.4375 -1.96875 C 9.945312 -1.320312 9.351562 -0.832031 8.65625 -0.5 C 7.945312 -0.164062 7.160156 0 6.296875 0 C 4.523438 0 3.140625 -0.65625 2.140625 -1.96875 C 1.296875 -3.113281 0.875 -4.582031 0.875 -6.375 C 0.875 -7.269531 0.984375 -8.085938 1.203125 -8.828125 C 1.410156 -9.578125 1.722656 -10.226562 2.140625 -10.78125 C 2.628906 -11.445312 3.226562 -11.945312 3.9375 -12.28125 C 4.632812 -12.601562 5.421875 -12.765625 6.296875 -12.765625 C 7.160156 -12.765625 7.945312 -12.601562 8.65625 -12.28125 C 9.351562 -11.945312 9.945312 -11.445312 10.4375 -10.78125 C 10.476562 -10.726562 10.492188 -10.664062 10.484375 -10.59375 C 10.460938 -10.507812 10.414062 -10.445312 10.34375 -10.40625 L 9.09375 -9.6875 C 8.976562 -9.613281 8.867188 -9.628906 8.765625 -9.734375 C 8.566406 -9.972656 8.359375 -10.160156 8.140625 -10.296875 C 7.898438 -10.429688 7.671875 -10.539062 7.453125 -10.625 C 7.234375 -10.695312 7.023438 -10.742188 6.828125 -10.765625 C 6.617188 -10.785156 6.441406 -10.796875 6.296875 -10.796875 C 6.023438 -10.796875 5.695312 -10.753906 5.3125 -10.671875 C 4.914062 -10.585938 4.539062 -10.394531 4.1875 -10.09375 C 3.8125 -9.789062 3.492188 -9.347656 3.234375 -8.765625 C 2.972656 -8.171875 2.84375 -7.375 2.84375 -6.375 C 2.84375 -5.375 2.972656 -4.582031 3.234375 -4 C 3.492188 -3.425781 3.8125 -2.988281 4.1875 -2.6875 C 4.539062 -2.382812 4.914062 -2.191406 5.3125 -2.109375 C 5.695312 -2.015625 6.023438 -1.96875 6.296875 -1.96875 C 6.503906 -1.96875 6.75 -1.988281 7.03125 -2.03125 C 7.320312 -2.082031 7.625 -2.195312 7.9375 -2.375 C 8.238281 -2.53125 8.53125 -2.765625 8.8125 -3.078125 C 9.082031 -3.390625 9.296875 -3.8125 9.453125 -4.34375 C 9.484375 -4.4375 9.472656 -4.515625 9.421875 -4.578125 C 9.378906 -4.648438 9.3125 -4.6875 9.21875 -4.6875 L 7.09375 -4.6875 C 6.945312 -4.6875 6.832031 -4.738281 6.75 -4.84375 C 6.632812 -4.9375 6.578125 -5.054688 6.578125 -5.203125 L 6.578125 -6.15625 C 6.578125 -6.289062 6.632812 -6.410156 6.75 -6.515625 C 6.832031 -6.609375 6.945312 -6.65625 7.09375 -6.65625 Z M 11.421875 -6.65625 "/></g></g></g><g fill="#000000" fill-opacity="0.4"><g transform="translate(101.987722, 20.483529)"><g><path d="M 7.96875 0 C 7.71875 0 7.550781 -0.128906 7.46875 -0.390625 C 7.4375 -0.515625 7.390625 -0.695312 7.328125 -0.9375 C 7.265625 -1.175781 7.179688 -1.5 7.078125 -1.90625 C 6.992188 -2.15625 6.820312 -2.28125 6.5625 -2.28125 L 3.78125 -2.28125 C 3.519531 -2.28125 3.351562 -2.15625 3.28125 -1.90625 C 3.195312 -1.582031 3.125 -1.296875 3.0625 -1.046875 C 3 -0.785156 2.9375 -0.566406 2.875 -0.390625 C 2.789062 -0.128906 2.628906 0 2.390625 0 L 1.390625 0 C 1.234375 0 1.101562 -0.0664062 1 -0.203125 C 0.894531 -0.335938 0.863281 -0.484375 0.90625 -0.640625 C 1.019531 -1.078125 1.164062 -1.625 1.34375 -2.28125 C 1.519531 -2.9375 1.710938 -3.644531 1.921875 -4.40625 C 2.128906 -5.164062 2.34375 -5.953125 2.5625 -6.765625 C 2.769531 -7.566406 2.972656 -8.332031 3.171875 -9.0625 C 3.359375 -9.78125 3.53125 -10.4375 3.6875 -11.03125 C 3.84375 -11.613281 3.96875 -12.066406 4.0625 -12.390625 C 4.082031 -12.503906 4.140625 -12.597656 4.234375 -12.671875 C 4.328125 -12.734375 4.429688 -12.765625 4.546875 -12.765625 L 5.796875 -12.765625 C 5.910156 -12.765625 6.015625 -12.734375 6.109375 -12.671875 C 6.203125 -12.597656 6.265625 -12.503906 6.296875 -12.390625 C 6.703125 -10.859375 7.054688 -9.546875 7.359375 -8.453125 C 7.640625 -7.359375 7.878906 -6.441406 8.078125 -5.703125 C 8.273438 -4.953125 8.441406 -4.351562 8.578125 -3.90625 C 8.691406 -3.445312 8.789062 -3.085938 8.875 -2.828125 C 8.9375 -2.546875 8.992188 -2.332031 9.046875 -2.1875 C 9.078125 -2.039062 9.109375 -1.90625 9.140625 -1.78125 C 9.179688 -1.644531 9.222656 -1.5 9.265625 -1.34375 C 9.304688 -1.175781 9.363281 -0.941406 9.4375 -0.640625 C 9.488281 -0.484375 9.460938 -0.335938 9.359375 -0.203125 C 9.253906 -0.0664062 9.117188 0 8.953125 0 Z M 4.078125 -4.890625 C 4.023438 -4.734375 4.050781 -4.585938 4.15625 -4.453125 C 4.269531 -4.316406 4.40625 -4.25 4.5625 -4.25 L 5.78125 -4.25 C 5.945312 -4.25 6.082031 -4.316406 6.1875 -4.453125 C 6.289062 -4.585938 6.316406 -4.734375 6.265625 -4.890625 C 6.171875 -5.222656 6.082031 -5.570312 6 -5.9375 C 5.894531 -6.3125 5.78125 -6.707031 5.65625 -7.125 C 5.625 -7.25 5.5625 -7.347656 5.46875 -7.421875 C 5.375 -7.484375 5.273438 -7.515625 5.171875 -7.515625 C 5.066406 -7.515625 4.96875 -7.484375 4.875 -7.421875 C 4.78125 -7.347656 4.71875 -7.25 4.6875 -7.125 C 4.582031 -6.75 4.484375 -6.378906 4.390625 -6.015625 C 4.285156 -5.640625 4.179688 -5.265625 4.078125 -4.890625 Z M 4.078125 -4.890625 "/></g></g></g><g fill="#000000" fill-opacity="0.4"><g transform="translate(112.334783, 20.483529)"><g><path d="M 4.25 -12.765625 C 4.90625 -12.765625 5.46875 -12.617188 5.9375 -12.328125 C 6.414062 -12.023438 6.804688 -11.640625 7.109375 -11.171875 C 7.410156 -10.691406 7.625 -10.15625 7.75 -9.5625 C 7.875 -8.96875 7.914062 -8.367188 7.875 -7.765625 C 7.8125 -7.160156 7.671875 -6.585938 7.453125 -6.046875 C 7.222656 -5.503906 6.910156 -5.046875 6.515625 -4.671875 C 6.335938 -4.515625 6.289062 -4.332031 6.375 -4.125 L 7.625 -0.671875 C 7.6875 -0.515625 7.671875 -0.363281 7.578125 -0.21875 C 7.472656 -0.0703125 7.328125 0 7.140625 0 L 6.15625 0 C 5.90625 0 5.738281 -0.109375 5.65625 -0.328125 L 4.53125 -3.46875 C 4.445312 -3.6875 4.285156 -3.796875 4.046875 -3.796875 L 3.34375 -3.796875 C 3.207031 -3.796875 3.09375 -3.75 3 -3.65625 C 2.894531 -3.550781 2.84375 -3.429688 2.84375 -3.296875 L 2.84375 -0.5 C 2.84375 -0.363281 2.796875 -0.25 2.703125 -0.15625 C 2.597656 -0.0507812 2.472656 0 2.328125 0 L 1.375 0 C 1.238281 0 1.125 -0.0507812 1.03125 -0.15625 C 0.925781 -0.25 0.875 -0.363281 0.875 -0.5 L 0.875 -12.265625 C 0.875 -12.398438 0.925781 -12.519531 1.03125 -12.625 C 1.125 -12.71875 1.238281 -12.765625 1.375 -12.765625 Z M 2.84375 -6.265625 C 2.84375 -6.128906 2.894531 -6.015625 3 -5.921875 C 3.09375 -5.816406 3.207031 -5.765625 3.34375 -5.765625 L 4.28125 -5.765625 C 4.644531 -5.765625 4.945312 -5.894531 5.1875 -6.15625 C 5.4375 -6.394531 5.625 -6.703125 5.75 -7.078125 C 5.875 -7.441406 5.9375 -7.847656 5.9375 -8.296875 C 5.9375 -8.722656 5.878906 -9.125 5.765625 -9.5 C 5.640625 -9.863281 5.453125 -10.175781 5.203125 -10.4375 C 4.960938 -10.675781 4.65625 -10.796875 4.28125 -10.796875 L 3.34375 -10.796875 C 3.207031 -10.796875 3.09375 -10.75 3 -10.65625 C 2.894531 -10.550781 2.84375 -10.429688 2.84375 -10.296875 Z M 2.84375 -6.265625 "/></g></g></g><g fill="#000000" fill-opacity="0.4"><g transform="translate(121.09669, 20.483529)"><g><path d="M 7.78125 -12.765625 C 7.925781 -12.765625 8.050781 -12.71875 8.15625 -12.625 C 8.25 -12.519531 8.296875 -12.398438 8.296875 -12.265625 L 8.296875 -3.703125 C 8.296875 -3.191406 8.203125 -2.710938 8.015625 -2.265625 C 7.816406 -1.804688 7.550781 -1.410156 7.21875 -1.078125 C 6.875 -0.742188 6.476562 -0.484375 6.03125 -0.296875 C 5.570312 -0.0976562 5.085938 0 4.578125 0 C 4.066406 0 3.59375 -0.0976562 3.15625 -0.296875 C 2.695312 -0.492188 2.300781 -0.757812 1.96875 -1.09375 C 1.632812 -1.4375 1.367188 -1.832031 1.171875 -2.28125 C 0.972656 -2.71875 0.875 -3.191406 0.875 -3.703125 L 0.875 -12.265625 C 0.875 -12.398438 0.925781 -12.519531 1.03125 -12.625 C 1.125 -12.71875 1.238281 -12.765625 1.375 -12.765625 L 2.3125 -12.765625 C 2.46875 -12.765625 2.597656 -12.71875 2.703125 -12.625 C 2.796875 -12.519531 2.84375 -12.398438 2.84375 -12.265625 L 2.84375 -3.765625 C 2.84375 -3.515625 2.890625 -3.28125 2.984375 -3.0625 C 3.078125 -2.84375 3.203125 -2.648438 3.359375 -2.484375 C 3.523438 -2.328125 3.71875 -2.203125 3.9375 -2.109375 C 4.15625 -2.015625 4.390625 -1.96875 4.640625 -1.96875 C 5.109375 -1.96875 5.507812 -2.128906 5.84375 -2.453125 C 6.164062 -2.773438 6.328125 -3.175781 6.328125 -3.65625 L 6.328125 -12.265625 C 6.328125 -12.398438 6.378906 -12.519531 6.484375 -12.625 C 6.585938 -12.71875 6.707031 -12.765625 6.84375 -12.765625 Z M 7.78125 -12.765625 "/></g></g></g><g fill="#000000" fill-opacity="0.4"><g transform="translate(130.259243, 20.483529)"><g><path d="M 6.328125 -12.265625 C 6.328125 -12.398438 6.378906 -12.519531 6.484375 -12.625 C 6.578125 -12.71875 6.695312 -12.765625 6.84375 -12.765625 L 7.78125 -12.765625 C 7.925781 -12.765625 8.050781 -12.71875 8.15625 -12.625 C 8.25 -12.519531 8.296875 -12.398438 8.296875 -12.265625 L 8.296875 -0.5 C 8.296875 -0.363281 8.25 -0.25 8.15625 -0.15625 C 8.050781 -0.0507812 7.925781 0 7.78125 0 L 6.84375 0 C 6.695312 0 6.578125 -0.0507812 6.484375 -0.15625 C 6.378906 -0.25 6.328125 -0.363281 6.328125 -0.5 L 6.328125 -4.890625 C 6.328125 -5.035156 6.28125 -5.160156 6.1875 -5.265625 C 6.082031 -5.359375 5.957031 -5.40625 5.8125 -5.40625 L 3.34375 -5.40625 C 3.207031 -5.40625 3.09375 -5.359375 3 -5.265625 C 2.894531 -5.160156 2.84375 -5.035156 2.84375 -4.890625 L 2.84375 -0.5 C 2.84375 -0.363281 2.796875 -0.25 2.703125 -0.15625 C 2.597656 -0.0507812 2.472656 0 2.328125 0 L 1.375 0 C 1.238281 0 1.125 -0.0507812 1.03125 -0.15625 C 0.925781 -0.25 0.875 -0.363281 0.875 -0.5 L 0.875 -12.265625 C 0.875 -12.398438 0.925781 -12.519531 1.03125 -12.625 C 1.125 -12.71875 1.238281 -12.765625 1.375 -12.765625 L 2.328125 -12.765625 C 2.472656 -12.765625 2.597656 -12.71875 2.703125 -12.625 C 2.796875 -12.519531 2.84375 -12.398438 2.84375 -12.265625 L 2.84375 -7.875 C 2.84375 -7.738281 2.894531 -7.625 3 -7.53125 C 3.09375 -7.425781 3.207031 -7.375 3.34375 -7.375 L 5.8125 -7.375 C 5.957031 -7.375 6.082031 -7.425781 6.1875 -7.53125 C 6.28125 -7.625 6.328125 -7.738281 6.328125 -7.875 Z M 6.328125 -12.265625 "/></g></g></g><g fill="#000000" fill-opacity="0.4"><g transform="translate(139.421796, 20.483529)"><g/></g></g><g fill="#000000" fill-opacity="0.4"><g transform="translate(144.647589, 20.483529)"><g><path d="M 3.984375 -12.765625 C 4.992188 -12.765625 5.753906 -12.492188 6.265625 -11.953125 C 6.773438 -11.398438 7.03125 -10.628906 7.03125 -9.640625 C 7.03125 -9.515625 7 -9.421875 6.9375 -9.359375 C 6.851562 -9.273438 6.753906 -9.234375 6.640625 -9.234375 L 5.46875 -9.234375 C 5.351562 -9.234375 5.257812 -9.273438 5.1875 -9.359375 C 5.101562 -9.421875 5.0625 -9.515625 5.0625 -9.640625 L 5.0625 -9.75 C 5.0625 -10.195312 4.976562 -10.519531 4.8125 -10.71875 C 4.632812 -10.90625 4.378906 -11 4.046875 -11 C 3.703125 -11 3.445312 -10.90625 3.28125 -10.71875 C 3.09375 -10.519531 3 -10.195312 3 -9.75 C 3 -9.519531 3.023438 -9.304688 3.078125 -9.109375 C 3.140625 -8.898438 3.238281 -8.691406 3.375 -8.484375 C 3.519531 -8.273438 3.707031 -8.054688 3.9375 -7.828125 C 4.15625 -7.578125 4.4375 -7.3125 4.78125 -7.03125 C 5.207031 -6.675781 5.570312 -6.34375 5.875 -6.03125 C 6.164062 -5.707031 6.394531 -5.394531 6.5625 -5.09375 C 6.738281 -4.769531 6.867188 -4.453125 6.953125 -4.140625 C 7.023438 -3.828125 7.0625 -3.492188 7.0625 -3.140625 C 7.0625 -2.128906 6.804688 -1.351562 6.296875 -0.8125 C 5.765625 -0.269531 4.988281 0 3.96875 0 C 2.945312 0 2.175781 -0.269531 1.65625 -0.8125 C 1.132812 -1.351562 0.875 -2.128906 0.875 -3.140625 L 0.875 -3.515625 C 0.875 -3.617188 0.914062 -3.710938 1 -3.796875 C 1.0625 -3.867188 1.144531 -3.90625 1.25 -3.90625 L 2.4375 -3.90625 C 2.539062 -3.90625 2.632812 -3.867188 2.71875 -3.796875 C 2.800781 -3.710938 2.84375 -3.617188 2.84375 -3.515625 L 2.84375 -3.015625 C 2.84375 -2.578125 2.9375 -2.265625 3.125 -2.078125 C 3.300781 -1.890625 3.5625 -1.796875 3.90625 -1.796875 C 4.238281 -1.796875 4.503906 -1.890625 4.703125 -2.078125 C 4.890625 -2.265625 4.984375 -2.578125 4.984375 -3.015625 C 4.984375 -3.234375 4.953125 -3.445312 4.890625 -3.65625 C 4.835938 -3.863281 4.738281 -4.070312 4.59375 -4.28125 C 4.457031 -4.488281 4.28125 -4.71875 4.0625 -4.96875 C 3.820312 -5.195312 3.535156 -5.453125 3.203125 -5.734375 C 2.773438 -6.085938 2.414062 -6.425781 2.125 -6.75 C 1.832031 -7.0625 1.597656 -7.375 1.421875 -7.6875 C 1.242188 -8 1.117188 -8.3125 1.046875 -8.625 C 0.960938 -8.9375 0.921875 -9.273438 0.921875 -9.640625 C 0.921875 -10.628906 1.175781 -11.398438 1.6875 -11.953125 C 2.195312 -12.492188 2.960938 -12.765625 3.984375 -12.765625 Z M 3.984375 -12.765625 "/></g></g></g><g fill="#000000" fill-opacity="0.4"><g transform="translate(152.573372, 20.483529)"><g><path d="M 2.84375 -12.765625 C 3.78125 -12.765625 4.628906 -12.597656 5.390625 -12.265625 C 6.140625 -11.929688 6.78125 -11.476562 7.3125 -10.90625 C 7.832031 -10.320312 8.238281 -9.648438 8.53125 -8.890625 C 8.8125 -8.109375 8.953125 -7.273438 8.953125 -6.390625 C 8.953125 -5.503906 8.8125 -4.679688 8.53125 -3.921875 C 8.238281 -3.140625 7.832031 -2.457031 7.3125 -1.875 C 6.78125 -1.300781 6.140625 -0.84375 5.390625 -0.5 C 4.628906 -0.164062 3.78125 0 2.84375 0 L 1.375 0 C 1.238281 0 1.125 -0.0507812 1.03125 -0.15625 C 0.925781 -0.25 0.875 -0.363281 0.875 -0.5 L 0.875 -12.265625 C 0.875 -12.398438 0.925781 -12.519531 1.03125 -12.625 C 1.125 -12.71875 1.238281 -12.765625 1.375 -12.765625 Z M 2.84375 -2.515625 C 2.84375 -2.347656 2.898438 -2.21875 3.015625 -2.125 C 3.117188 -2.019531 3.253906 -1.976562 3.421875 -2 C 3.972656 -2.070312 4.460938 -2.234375 4.890625 -2.484375 C 5.328125 -2.742188 5.6875 -3.070312 5.96875 -3.46875 C 6.257812 -3.851562 6.484375 -4.300781 6.640625 -4.8125 C 6.773438 -5.3125 6.84375 -5.835938 6.84375 -6.390625 C 6.84375 -6.953125 6.773438 -7.488281 6.640625 -8 C 6.484375 -8.5 6.257812 -8.945312 5.96875 -9.34375 C 5.6875 -9.71875 5.328125 -10.035156 4.890625 -10.296875 C 4.460938 -10.546875 3.972656 -10.707031 3.421875 -10.78125 C 3.253906 -10.800781 3.117188 -10.757812 3.015625 -10.65625 C 2.898438 -10.550781 2.84375 -10.425781 2.84375 -10.28125 Z M 2.84375 -2.515625 "/></g></g></g><g fill="#000000" fill-opacity="0.4"><g transform="translate(162.397863, 20.483529)"><g><path d="M 11.421875 -6.65625 C 11.503906 -6.65625 11.578125 -6.628906 11.640625 -6.578125 C 11.679688 -6.523438 11.703125 -6.460938 11.703125 -6.390625 C 11.703125 -5.597656 11.609375 -4.820312 11.421875 -4.0625 C 11.222656 -3.289062 10.894531 -2.59375 10.4375 -1.96875 C 9.945312 -1.320312 9.351562 -0.832031 8.65625 -0.5 C 7.945312 -0.164062 7.160156 0 6.296875 0 C 4.523438 0 3.140625 -0.65625 2.140625 -1.96875 C 1.296875 -3.113281 0.875 -4.582031 0.875 -6.375 C 0.875 -7.269531 0.984375 -8.085938 1.203125 -8.828125 C 1.410156 -9.578125 1.722656 -10.226562 2.140625 -10.78125 C 2.628906 -11.445312 3.226562 -11.945312 3.9375 -12.28125 C 4.632812 -12.601562 5.421875 -12.765625 6.296875 -12.765625 C 7.160156 -12.765625 7.945312 -12.601562 8.65625 -12.28125 C 9.351562 -11.945312 9.945312 -11.445312 10.4375 -10.78125 C 10.476562 -10.726562 10.492188 -10.664062 10.484375 -10.59375 C 10.460938 -10.507812 10.414062 -10.445312 10.34375 -10.40625 L 9.09375 -9.6875 C 8.976562 -9.613281 8.867188 -9.628906 8.765625 -9.734375 C 8.566406 -9.972656 8.359375 -10.160156 8.140625 -10.296875 C 7.898438 -10.429688 7.671875 -10.539062 7.453125 -10.625 C 7.234375 -10.695312 7.023438 -10.742188 6.828125 -10.765625 C 6.617188 -10.785156 6.441406 -10.796875 6.296875 -10.796875 C 6.023438 -10.796875 5.695312 -10.753906 5.3125 -10.671875 C 4.914062 -10.585938 4.539062 -10.394531 4.1875 -10.09375 C 3.8125 -9.789062 3.492188 -9.347656 3.234375 -8.765625 C 2.972656 -8.171875 2.84375 -7.375 2.84375 -6.375 C 2.84375 -5.375 2.972656 -4.582031 3.234375 -4 C 3.492188 -3.425781 3.8125 -2.988281 4.1875 -2.6875 C 4.539062 -2.382812 4.914062 -2.191406 5.3125 -2.109375 C 5.695312 -2.015625 6.023438 -1.96875 6.296875 -1.96875 C 6.503906 -1.96875 6.75 -1.988281 7.03125 -2.03125 C 7.320312 -2.082031 7.625 -2.195312 7.9375 -2.375 C 8.238281 -2.53125 8.53125 -2.765625 8.8125 -3.078125 C 9.082031 -3.390625 9.296875 -3.8125 9.453125 -4.34375 C 9.484375 -4.4375 9.472656 -4.515625 9.421875 -4.578125 C 9.378906 -4.648438 9.3125 -4.6875 9.21875 -4.6875 L 7.09375 -4.6875 C 6.945312 -4.6875 6.832031 -4.738281 6.75 -4.84375 C 6.632812 -4.9375 6.578125 -5.054688 6.578125 -5.203125 L 6.578125 -6.15625 C 6.578125 -6.289062 6.632812 -6.410156 6.75 -6.515625 C 6.832031 -6.609375 6.945312 -6.65625 7.09375 -6.65625 Z M 11.421875 -6.65625 "/></g></g></g><g fill="#000000" fill-opacity="0.4"><g transform="translate(174.974595, 20.483529)"><g><path d="M 3.984375 -12.765625 C 4.992188 -12.765625 5.753906 -12.492188 6.265625 -11.953125 C 6.773438 -11.398438 7.03125 -10.628906 7.03125 -9.640625 C 7.03125 -9.515625 7 -9.421875 6.9375 -9.359375 C 6.851562 -9.273438 6.753906 -9.234375 6.640625 -9.234375 L 5.46875 -9.234375 C 5.351562 -9.234375 5.257812 -9.273438 5.1875 -9.359375 C 5.101562 -9.421875 5.0625 -9.515625 5.0625 -9.640625 L 5.0625 -9.75 C 5.0625 -10.195312 4.976562 -10.519531 4.8125 -10.71875 C 4.632812 -10.90625 4.378906 -11 4.046875 -11 C 3.703125 -11 3.445312 -10.90625 3.28125 -10.71875 C 3.09375 -10.519531 3 -10.195312 3 -9.75 C 3 -9.519531 3.023438 -9.304688 3.078125 -9.109375 C 3.140625 -8.898438 3.238281 -8.691406 3.375 -8.484375 C 3.519531 -8.273438 3.707031 -8.054688 3.9375 -7.828125 C 4.15625 -7.578125 4.4375 -7.3125 4.78125 -7.03125 C 5.207031 -6.675781 5.570312 -6.34375 5.875 -6.03125 C 6.164062 -5.707031 6.394531 -5.394531 6.5625 -5.09375 C 6.738281 -4.769531 6.867188 -4.453125 6.953125 -4.140625 C 7.023438 -3.828125 7.0625 -3.492188 7.0625 -3.140625 C 7.0625 -2.128906 6.804688 -1.351562 6.296875 -0.8125 C 5.765625 -0.269531 4.988281 0 3.96875 0 C 2.945312 0 2.175781 -0.269531 1.65625 -0.8125 C 1.132812 -1.351562 0.875 -2.128906 0.875 -3.140625 L 0.875 -3.515625 C 0.875 -3.617188 0.914062 -3.710938 1 -3.796875 C 1.0625 -3.867188 1.144531 -3.90625 1.25 -3.90625 L 2.4375 -3.90625 C 2.539062 -3.90625 2.632812 -3.867188 2.71875 -3.796875 C 2.800781 -3.710938 2.84375 -3.617188 2.84375 -3.515625 L 2.84375 -3.015625 C 2.84375 -2.578125 2.9375 -2.265625 3.125 -2.078125 C 3.300781 -1.890625 3.5625 -1.796875 3.90625 -1.796875 C 4.238281 -1.796875 4.503906 -1.890625 4.703125 -2.078125 C 4.890625 -2.265625 4.984375 -2.578125 4.984375 -3.015625 C 4.984375 -3.234375 4.953125 -3.445312 4.890625 -3.65625 C 4.835938 -3.863281 4.738281 -4.070312 4.59375 -4.28125 C 4.457031 -4.488281 4.28125 -4.71875 4.0625 -4.96875 C 3.820312 -5.195312 3.535156 -5.453125 3.203125 -5.734375 C 2.773438 -6.085938 2.414062 -6.425781 2.125 -6.75 C 1.832031 -7.0625 1.597656 -7.375 1.421875 -7.6875 C 1.242188 -8 1.117188 -8.3125 1.046875 -8.625 C 0.960938 -8.9375 0.921875 -9.273438 0.921875 -9.640625 C 0.921875 -10.628906 1.175781 -11.398438 1.6875 -11.953125 C 2.195312 -12.492188 2.960938 -12.765625 3.984375 -12.765625 Z M 3.984375 -12.765625 "/></g></g></g><g fill="#000000" fill-opacity="1"><g transform="translate(63.441339, 19.233873)"><g><path d="M 4.25 -12.765625 C 5.050781 -12.765625 5.722656 -12.546875 6.265625 -12.109375 C 6.804688 -11.671875 7.207031 -11.117188 7.46875 -10.453125 C 7.738281 -9.773438 7.875 -9.054688 7.875 -8.296875 C 7.875 -7.515625 7.738281 -6.789062 7.46875 -6.125 C 7.207031 -5.457031 6.804688 -4.898438 6.265625 -4.453125 C 5.722656 -4.015625 5.050781 -3.796875 4.25 -3.796875 L 3.34375 -3.796875 C 3.207031 -3.796875 3.09375 -3.75 3 -3.65625 C 2.894531 -3.550781 2.84375 -3.429688 2.84375 -3.296875 L 2.84375 -0.5 C 2.84375 -0.363281 2.796875 -0.25 2.703125 -0.15625 C 2.597656 -0.0507812 2.472656 0 2.328125 0 L 1.375 0 C 1.238281 0 1.125 -0.0507812 1.03125 -0.15625 C 0.925781 -0.25 0.875 -0.363281 0.875 -0.5 L 0.875 -12.265625 C 0.875 -12.398438 0.925781 -12.519531 1.03125 -12.625 C 1.125 -12.71875 1.238281 -12.765625 1.375 -12.765625 Z M 4.28125 -5.765625 C 4.644531 -5.765625 4.945312 -5.894531 5.1875 -6.15625 C 5.4375 -6.394531 5.625 -6.703125 5.75 -7.078125 C 5.875 -7.441406 5.9375 -7.847656 5.9375 -8.296875 C 5.9375 -8.722656 5.878906 -9.125 5.765625 -9.5 C 5.640625 -9.863281 5.453125 -10.175781 5.203125 -10.4375 C 4.960938 -10.675781 4.65625 -10.796875 4.28125 -10.796875 L 3.34375 -10.796875 C 3.207031 -10.796875 3.09375 -10.75 3 -10.65625 C 2.894531 -10.550781 2.84375 -10.429688 2.84375 -10.296875 L 2.84375 -6.265625 C 2.84375 -6.128906 2.894531 -6.015625 3 -5.921875 C 3.09375 -5.816406 3.207031 -5.765625 3.34375 -5.765625 Z M 4.28125 -5.765625 "/></g></g></g><g fill="#000000" fill-opacity="1"><g transform="translate(72.203245, 19.233873)"><g><path d="M 7.140625 -11.3125 C 7.140625 -11.164062 7.09375 -11.046875 7 -10.953125 C 6.894531 -10.847656 6.773438 -10.796875 6.640625 -10.796875 L 3.34375 -10.796875 C 3.207031 -10.796875 3.09375 -10.75 3 -10.65625 C 2.894531 -10.550781 2.84375 -10.429688 2.84375 -10.296875 L 2.84375 -9.25 C 2.84375 -9.113281 2.894531 -9 3 -8.90625 C 3.09375 -8.800781 3.207031 -8.75 3.34375 -8.75 L 5.515625 -8.75 C 5.671875 -8.75 5.800781 -8.703125 5.90625 -8.609375 C 6 -8.503906 6.046875 -8.378906 6.046875 -8.234375 L 6.046875 -7.296875 C 6.046875 -7.160156 6 -7.039062 5.90625 -6.9375 C 5.800781 -6.832031 5.671875 -6.78125 5.515625 -6.78125 L 3.34375 -6.78125 C 3.207031 -6.78125 3.09375 -6.734375 3 -6.640625 C 2.894531 -6.535156 2.84375 -6.410156 2.84375 -6.265625 L 2.84375 -2.46875 C 2.84375 -2.332031 2.894531 -2.21875 3 -2.125 C 3.09375 -2.019531 3.207031 -1.96875 3.34375 -1.96875 L 6.640625 -1.96875 C 6.773438 -1.96875 6.894531 -1.921875 7 -1.828125 C 7.09375 -1.722656 7.140625 -1.601562 7.140625 -1.46875 L 7.140625 -0.5 C 7.140625 -0.363281 7.09375 -0.25 7 -0.15625 C 6.894531 -0.0507812 6.773438 0 6.640625 0 L 1.375 0 C 1.238281 0 1.125 -0.0507812 1.03125 -0.15625 C 0.925781 -0.25 0.875 -0.363281 0.875 -0.5 L 0.875 -12.265625 C 0.875 -12.398438 0.925781 -12.519531 1.03125 -12.625 C 1.125 -12.71875 1.238281 -12.765625 1.375 -12.765625 L 6.640625 -12.765625 C 6.773438 -12.765625 6.894531 -12.71875 7 -12.625 C 7.09375 -12.519531 7.140625 -12.398438 7.140625 -12.265625 Z M 7.140625 -11.3125 "/></g></g></g><g fill="#000000" fill-opacity="1"><g transform="translate(80.216121, 19.233873)"><g><path d="M 8.484375 -12.765625 C 8.617188 -12.765625 8.738281 -12.71875 8.84375 -12.625 C 8.9375 -12.519531 8.984375 -12.398438 8.984375 -12.265625 L 8.984375 -0.5 C 8.984375 -0.363281 8.9375 -0.25 8.84375 -0.15625 C 8.738281 -0.0507812 8.617188 0 8.484375 0 L 7.140625 0 C 6.929688 0 6.78125 -0.0976562 6.6875 -0.296875 L 3.203125 -7.75 C 3.171875 -7.84375 3.101562 -7.878906 3 -7.859375 C 2.894531 -7.835938 2.84375 -7.773438 2.84375 -7.671875 L 2.84375 -0.5 C 2.84375 -0.363281 2.796875 -0.25 2.703125 -0.15625 C 2.597656 -0.0507812 2.46875 0 2.3125 0 L 1.375 0 C 1.238281 0 1.125 -0.0507812 1.03125 -0.15625 C 0.925781 -0.25 0.875 -0.363281 0.875 -0.5 L 0.875 -12.265625 C 0.875 -12.398438 0.925781 -12.519531 1.03125 -12.625 C 1.125 -12.71875 1.238281 -12.765625 1.375 -12.765625 L 2.71875 -12.765625 C 2.9375 -12.765625 3.085938 -12.664062 3.171875 -12.46875 L 6.65625 -5.015625 C 6.6875 -4.921875 6.757812 -4.882812 6.875 -4.90625 C 6.96875 -4.9375 7.015625 -5.003906 7.015625 -5.109375 L 7.015625 -12.265625 C 7.015625 -12.398438 7.066406 -12.519531 7.171875 -12.625 C 7.273438 -12.71875 7.398438 -12.765625 7.546875 -12.765625 Z M 8.484375 -12.765625 "/></g></g></g><g fill="#000000" fill-opacity="1"><g transform="translate(90.075443, 19.233873)"><g><path d="M 11.421875 -6.65625 C 11.503906 -6.65625 11.578125 -6.628906 11.640625 -6.578125 C 11.679688 -6.523438 11.703125 -6.460938 11.703125 -6.390625 C 11.703125 -5.597656 11.609375 -4.820312 11.421875 -4.0625 C 11.222656 -3.289062 10.894531 -2.59375 10.4375 -1.96875 C 9.945312 -1.320312 9.351562 -0.832031 8.65625 -0.5 C 7.945312 -0.164062 7.160156 0 6.296875 0 C 4.523438 0 3.140625 -0.65625 2.140625 -1.96875 C 1.296875 -3.113281 0.875 -4.582031 0.875 -6.375 C 0.875 -7.269531 0.984375 -8.085938 1.203125 -8.828125 C 1.410156 -9.578125 1.722656 -10.226562 2.140625 -10.78125 C 2.628906 -11.445312 3.226562 -11.945312 3.9375 -12.28125 C 4.632812 -12.601562 5.421875 -12.765625 6.296875 -12.765625 C 7.160156 -12.765625 7.945312 -12.601562 8.65625 -12.28125 C 9.351562 -11.945312 9.945312 -11.445312 10.4375 -10.78125 C 10.476562 -10.726562 10.492188 -10.664062 10.484375 -10.59375 C 10.460938 -10.507812 10.414062 -10.445312 10.34375 -10.40625 L 9.09375 -9.6875 C 8.976562 -9.613281 8.867188 -9.628906 8.765625 -9.734375 C 8.566406 -9.972656 8.359375 -10.160156 8.140625 -10.296875 C 7.898438 -10.429688 7.671875 -10.539062 7.453125 -10.625 C 7.234375 -10.695312 7.023438 -10.742188 6.828125 -10.765625 C 6.617188 -10.785156 6.441406 -10.796875 6.296875 -10.796875 C 6.023438 -10.796875 5.695312 -10.753906 5.3125 -10.671875 C 4.914062 -10.585938 4.539062 -10.394531 4.1875 -10.09375 C 3.8125 -9.789062 3.492188 -9.347656 3.234375 -8.765625 C 2.972656 -8.171875 2.84375 -7.375 2.84375 -6.375 C 2.84375 -5.375 2.972656 -4.582031 3.234375 -4 C 3.492188 -3.425781 3.8125 -2.988281 4.1875 -2.6875 C 4.539062 -2.382812 4.914062 -2.191406 5.3125 -2.109375 C 5.695312 -2.015625 6.023438 -1.96875 6.296875 -1.96875 C 6.503906 -1.96875 6.75 -1.988281 7.03125 -2.03125 C 7.320312 -2.082031 7.625 -2.195312 7.9375 -2.375 C 8.238281 -2.53125 8.53125 -2.765625 8.8125 -3.078125 C 9.082031 -3.390625 9.296875 -3.8125 9.453125 -4.34375 C 9.484375 -4.4375 9.472656 -4.515625 9.421875 -4.578125 C 9.378906 -4.648438 9.3125 -4.6875 9.21875 -4.6875 L 7.09375 -4.6875 C 6.945312 -4.6875 6.832031 -4.738281 6.75 -4.84375 C 6.632812 -4.9375 6.578125 -5.054688 6.578125 -5.203125 L 6.578125 -6.15625 C 6.578125 -6.289062 6.632812 -6.410156 6.75 -6.515625 C 6.832031 -6.609375 6.945312 -6.65625 7.09375 -6.65625 Z M 11.421875 -6.65625 "/></g></g></g><g fill="#000000" fill-opacity="1"><g transform="translate(102.652175, 19.233873)"><g><path d="M 7.96875 0 C 7.71875 0 7.550781 -0.128906 7.46875 -0.390625 C 7.4375 -0.515625 7.390625 -0.695312 7.328125 -0.9375 C 7.265625 -1.175781 7.179688 -1.5 7.078125 -1.90625 C 6.992188 -2.15625 6.820312 -2.28125 6.5625 -2.28125 L 3.78125 -2.28125 C 3.519531 -2.28125 3.351562 -2.15625 3.28125 -1.90625 C 3.195312 -1.582031 3.125 -1.296875 3.0625 -1.046875 C 3 -0.785156 2.9375 -0.566406 2.875 -0.390625 C 2.789062 -0.128906 2.628906 0 2.390625 0 L 1.390625 0 C 1.234375 0 1.101562 -0.0664062 1 -0.203125 C 0.894531 -0.335938 0.863281 -0.484375 0.90625 -0.640625 C 1.019531 -1.078125 1.164062 -1.625 1.34375 -2.28125 C 1.519531 -2.9375 1.710938 -3.644531 1.921875 -4.40625 C 2.128906 -5.164062 2.34375 -5.953125 2.5625 -6.765625 C 2.769531 -7.566406 2.972656 -8.332031 3.171875 -9.0625 C 3.359375 -9.78125 3.53125 -10.4375 3.6875 -11.03125 C 3.84375 -11.613281 3.96875 -12.066406 4.0625 -12.390625 C 4.082031 -12.503906 4.140625 -12.597656 4.234375 -12.671875 C 4.328125 -12.734375 4.429688 -12.765625 4.546875 -12.765625 L 5.796875 -12.765625 C 5.910156 -12.765625 6.015625 -12.734375 6.109375 -12.671875 C 6.203125 -12.597656 6.265625 -12.503906 6.296875 -12.390625 C 6.703125 -10.859375 7.054688 -9.546875 7.359375 -8.453125 C 7.640625 -7.359375 7.878906 -6.441406 8.078125 -5.703125 C 8.273438 -4.953125 8.441406 -4.351562 8.578125 -3.90625 C 8.691406 -3.445312 8.789062 -3.085938 8.875 -2.828125 C 8.9375 -2.546875 8.992188 -2.332031 9.046875 -2.1875 C 9.078125 -2.039062 9.109375 -1.90625 9.140625 -1.78125 C 9.179688 -1.644531 9.222656 -1.5 9.265625 -1.34375 C 9.304688 -1.175781 9.363281 -0.941406 9.4375 -0.640625 C 9.488281 -0.484375 9.460938 -0.335938 9.359375 -0.203125 C 9.253906 -0.0664062 9.117188 0 8.953125 0 Z M 4.078125 -4.890625 C 4.023438 -4.734375 4.050781 -4.585938 4.15625 -4.453125 C 4.269531 -4.316406 4.40625 -4.25 4.5625 -4.25 L 5.78125 -4.25 C 5.945312 -4.25 6.082031 -4.316406 6.1875 -4.453125 C 6.289062 -4.585938 6.316406 -4.734375 6.265625 -4.890625 C 6.171875 -5.222656 6.082031 -5.570312 6 -5.9375 C 5.894531 -6.3125 5.78125 -6.707031 5.65625 -7.125 C 5.625 -7.25 5.5625 -7.347656 5.46875 -7.421875 C 5.375 -7.484375 5.273438 -7.515625 5.171875 -7.515625 C 5.066406 -7.515625 4.96875 -7.484375 4.875 -7.421875 C 4.78125 -7.347656 4.71875 -7.25 4.6875 -7.125 C 4.582031 -6.75 4.484375 -6.378906 4.390625 -6.015625 C 4.285156 -5.640625 4.179688 -5.265625 4.078125 -4.890625 Z M 4.078125 -4.890625 "/></g></g></g><g fill="#000000" fill-opacity="1"><g transform="translate(112.999236, 19.233873)"><g><path d="M 4.25 -12.765625 C 4.90625 -12.765625 5.46875 -12.617188 5.9375 -12.328125 C 6.414062 -12.023438 6.804688 -11.640625 7.109375 -11.171875 C 7.410156 -10.691406 7.625 -10.15625 7.75 -9.5625 C 7.875 -8.96875 7.914062 -8.367188 7.875 -7.765625 C 7.8125 -7.160156 7.671875 -6.585938 7.453125 -6.046875 C 7.222656 -5.503906 6.910156 -5.046875 6.515625 -4.671875 C 6.335938 -4.515625 6.289062 -4.332031 6.375 -4.125 L 7.625 -0.671875 C 7.6875 -0.515625 7.671875 -0.363281 7.578125 -0.21875 C 7.472656 -0.0703125 7.328125 0 7.140625 0 L 6.15625 0 C 5.90625 0 5.738281 -0.109375 5.65625 -0.328125 L 4.53125 -3.46875 C 4.445312 -3.6875 4.285156 -3.796875 4.046875 -3.796875 L 3.34375 -3.796875 C 3.207031 -3.796875 3.09375 -3.75 3 -3.65625 C 2.894531 -3.550781 2.84375 -3.429688 2.84375 -3.296875 L 2.84375 -0.5 C 2.84375 -0.363281 2.796875 -0.25 2.703125 -0.15625 C 2.597656 -0.0507812 2.472656 0 2.328125 0 L 1.375 0 C 1.238281 0 1.125 -0.0507812 1.03125 -0.15625 C 0.925781 -0.25 0.875 -0.363281 0.875 -0.5 L 0.875 -12.265625 C 0.875 -12.398438 0.925781 -12.519531 1.03125 -12.625 C 1.125 -12.71875 1.238281 -12.765625 1.375 -12.765625 Z M 2.84375 -6.265625 C 2.84375 -6.128906 2.894531 -6.015625 3 -5.921875 C 3.09375 -5.816406 3.207031 -5.765625 3.34375 -5.765625 L 4.28125 -5.765625 C 4.644531 -5.765625 4.945312 -5.894531 5.1875 -6.15625 C 5.4375 -6.394531 5.625 -6.703125 5.75 -7.078125 C 5.875 -7.441406 5.9375 -7.847656 5.9375 -8.296875 C 5.9375 -8.722656 5.878906 -9.125 5.765625 -9.5 C 5.640625 -9.863281 5.453125 -10.175781 5.203125 -10.4375 C 4.960938 -10.675781 4.65625 -10.796875 4.28125 -10.796875 L 3.34375 -10.796875 C 3.207031 -10.796875 3.09375 -10.75 3 -10.65625 C 2.894531 -10.550781 2.84375 -10.429688 2.84375 -10.296875 Z M 2.84375 -6.265625 "/></g></g></g><g fill="#000000" fill-opacity="1"><g transform="translate(121.761142, 19.233873)"><g><path d="M 7.78125 -12.765625 C 7.925781 -12.765625 8.050781 -12.71875 8.15625 -12.625 C 8.25 -12.519531 8.296875 -12.398438 8.296875 -12.265625 L 8.296875 -3.703125 C 8.296875 -3.191406 8.203125 -2.710938 8.015625 -2.265625 C 7.816406 -1.804688 7.550781 -1.410156 7.21875 -1.078125 C 6.875 -0.742188 6.476562 -0.484375 6.03125 -0.296875 C 5.570312 -0.0976562 5.085938 0 4.578125 0 C 4.066406 0 3.59375 -0.0976562 3.15625 -0.296875 C 2.695312 -0.492188 2.300781 -0.757812 1.96875 -1.09375 C 1.632812 -1.4375 1.367188 -1.832031 1.171875 -2.28125 C 0.972656 -2.71875 0.875 -3.191406 0.875 -3.703125 L 0.875 -12.265625 C 0.875 -12.398438 0.925781 -12.519531 1.03125 -12.625 C 1.125 -12.71875 1.238281 -12.765625 1.375 -12.765625 L 2.3125 -12.765625 C 2.46875 -12.765625 2.597656 -12.71875 2.703125 -12.625 C 2.796875 -12.519531 2.84375 -12.398438 2.84375 -12.265625 L 2.84375 -3.765625 C 2.84375 -3.515625 2.890625 -3.28125 2.984375 -3.0625 C 3.078125 -2.84375 3.203125 -2.648438 3.359375 -2.484375 C 3.523438 -2.328125 3.71875 -2.203125 3.9375 -2.109375 C 4.15625 -2.015625 4.390625 -1.96875 4.640625 -1.96875 C 5.109375 -1.96875 5.507812 -2.128906 5.84375 -2.453125 C 6.164062 -2.773438 6.328125 -3.175781 6.328125 -3.65625 L 6.328125 -12.265625 C 6.328125 -12.398438 6.378906 -12.519531 6.484375 -12.625 C 6.585938 -12.71875 6.707031 -12.765625 6.84375 -12.765625 Z M 7.78125 -12.765625 "/></g></g></g><g fill="#000000" fill-opacity="1"><g transform="translate(130.923696, 19.233873)"><g><path d="M 6.328125 -12.265625 C 6.328125 -12.398438 6.378906 -12.519531 6.484375 -12.625 C 6.578125 -12.71875 6.695312 -12.765625 6.84375 -12.765625 L 7.78125 -12.765625 C 7.925781 -12.765625 8.050781 -12.71875 8.15625 -12.625 C 8.25 -12.519531 8.296875 -12.398438 8.296875 -12.265625 L 8.296875 -0.5 C 8.296875 -0.363281 8.25 -0.25 8.15625 -0.15625 C 8.050781 -0.0507812 7.925781 0 7.78125 0 L 6.84375 0 C 6.695312 0 6.578125 -0.0507812 6.484375 -0.15625 C 6.378906 -0.25 6.328125 -0.363281 6.328125 -0.5 L 6.328125 -4.890625 C 6.328125 -5.035156 6.28125 -5.160156 6.1875 -5.265625 C 6.082031 -5.359375 5.957031 -5.40625 5.8125 -5.40625 L 3.34375 -5.40625 C 3.207031 -5.40625 3.09375 -5.359375 3 -5.265625 C 2.894531 -5.160156 2.84375 -5.035156 2.84375 -4.890625 L 2.84375 -0.5 C 2.84375 -0.363281 2.796875 -0.25 2.703125 -0.15625 C 2.597656 -0.0507812 2.472656 0 2.328125 0 L 1.375 0 C 1.238281 0 1.125 -0.0507812 1.03125 -0.15625 C 0.925781 -0.25 0.875 -0.363281 0.875 -0.5 L 0.875 -12.265625 C 0.875 -12.398438 0.925781 -12.519531 1.03125 -12.625 C 1.125 -12.71875 1.238281 -12.765625 1.375 -12.765625 L 2.328125 -12.765625 C 2.472656 -12.765625 2.597656 -12.71875 2.703125 -12.625 C 2.796875 -12.519531 2.84375 -12.398438 2.84375 -12.265625 L 2.84375 -7.875 C 2.84375 -7.738281 2.894531 -7.625 3 -7.53125 C 3.09375 -7.425781 3.207031 -7.375 3.34375 -7.375 L 5.8125 -7.375 C 5.957031 -7.375 6.082031 -7.425781 6.1875 -7.53125 C 6.28125 -7.625 6.328125 -7.738281 6.328125 -7.875 Z M 6.328125 -12.265625 "/></g></g></g><g fill="#000000" fill-opacity="1"><g transform="translate(140.086249, 19.233873)"><g/></g></g><g fill="#000000" fill-opacity="1"><g transform="translate(145.312042, 19.233873)"><g><path d="M 3.984375 -12.765625 C 4.992188 -12.765625 5.753906 -12.492188 6.265625 -11.953125 C 6.773438 -11.398438 7.03125 -10.628906 7.03125 -9.640625 C 7.03125 -9.515625 7 -9.421875 6.9375 -9.359375 C 6.851562 -9.273438 6.753906 -9.234375 6.640625 -9.234375 L 5.46875 -9.234375 C 5.351562 -9.234375 5.257812 -9.273438 5.1875 -9.359375 C 5.101562 -9.421875 5.0625 -9.515625 5.0625 -9.640625 L 5.0625 -9.75 C 5.0625 -10.195312 4.976562 -10.519531 4.8125 -10.71875 C 4.632812 -10.90625 4.378906 -11 4.046875 -11 C 3.703125 -11 3.445312 -10.90625 3.28125 -10.71875 C 3.09375 -10.519531 3 -10.195312 3 -9.75 C 3 -9.519531 3.023438 -9.304688 3.078125 -9.109375 C 3.140625 -8.898438 3.238281 -8.691406 3.375 -8.484375 C 3.519531 -8.273438 3.707031 -8.054688 3.9375 -7.828125 C 4.15625 -7.578125 4.4375 -7.3125 4.78125 -7.03125 C 5.207031 -6.675781 5.570312 -6.34375 5.875 -6.03125 C 6.164062 -5.707031 6.394531 -5.394531 6.5625 -5.09375 C 6.738281 -4.769531 6.867188 -4.453125 6.953125 -4.140625 C 7.023438 -3.828125 7.0625 -3.492188 7.0625 -3.140625 C 7.0625 -2.128906 6.804688 -1.351562 6.296875 -0.8125 C 5.765625 -0.269531 4.988281 0 3.96875 0 C 2.945312 0 2.175781 -0.269531 1.65625 -0.8125 C 1.132812 -1.351562 0.875 -2.128906 0.875 -3.140625 L 0.875 -3.515625 C 0.875 -3.617188 0.914062 -3.710938 1 -3.796875 C 1.0625 -3.867188 1.144531 -3.90625 1.25 -3.90625 L 2.4375 -3.90625 C 2.539062 -3.90625 2.632812 -3.867188 2.71875 -3.796875 C 2.800781 -3.710938 2.84375 -3.617188 2.84375 -3.515625 L 2.84375 -3.015625 C 2.84375 -2.578125 2.9375 -2.265625 3.125 -2.078125 C 3.300781 -1.890625 3.5625 -1.796875 3.90625 -1.796875 C 4.238281 -1.796875 4.503906 -1.890625 4.703125 -2.078125 C 4.890625 -2.265625 4.984375 -2.578125 4.984375 -3.015625 C 4.984375 -3.234375 4.953125 -3.445312 4.890625 -3.65625 C 4.835938 -3.863281 4.738281 -4.070312 4.59375 -4.28125 C 4.457031 -4.488281 4.28125 -4.71875 4.0625 -4.96875 C 3.820312 -5.195312 3.535156 -5.453125 3.203125 -5.734375 C 2.773438 -6.085938 2.414062 -6.425781 2.125 -6.75 C 1.832031 -7.0625 1.597656 -7.375 1.421875 -7.6875 C 1.242188 -8 1.117188 -8.3125 1.046875 -8.625 C 0.960938 -8.9375 0.921875 -9.273438 0.921875 -9.640625 C 0.921875 -10.628906 1.175781 -11.398438 1.6875 -11.953125 C 2.195312 -12.492188 2.960938 -12.765625 3.984375 -12.765625 Z M 3.984375 -12.765625 "/></g></g></g><g fill="#000000" fill-opacity="1"><g transform="translate(153.237825, 19.233873)"><g><path d="M 2.84375 -12.765625 C 3.78125 -12.765625 4.628906 -12.597656 5.390625 -12.265625 C 6.140625 -11.929688 6.78125 -11.476562 7.3125 -10.90625 C 7.832031 -10.320312 8.238281 -9.648438 8.53125 -8.890625 C 8.8125 -8.109375 8.953125 -7.273438 8.953125 -6.390625 C 8.953125 -5.503906 8.8125 -4.679688 8.53125 -3.921875 C 8.238281 -3.140625 7.832031 -2.457031 7.3125 -1.875 C 6.78125 -1.300781 6.140625 -0.84375 5.390625 -0.5 C 4.628906 -0.164062 3.78125 0 2.84375 0 L 1.375 0 C 1.238281 0 1.125 -0.0507812 1.03125 -0.15625 C 0.925781 -0.25 0.875 -0.363281 0.875 -0.5 L 0.875 -12.265625 C 0.875 -12.398438 0.925781 -12.519531 1.03125 -12.625 C 1.125 -12.71875 1.238281 -12.765625 1.375 -12.765625 Z M 2.84375 -2.515625 C 2.84375 -2.347656 2.898438 -2.21875 3.015625 -2.125 C 3.117188 -2.019531 3.253906 -1.976562 3.421875 -2 C 3.972656 -2.070312 4.460938 -2.234375 4.890625 -2.484375 C 5.328125 -2.742188 5.6875 -3.070312 5.96875 -3.46875 C 6.257812 -3.851562 6.484375 -4.300781 6.640625 -4.8125 C 6.773438 -5.3125 6.84375 -5.835938 6.84375 -6.390625 C 6.84375 -6.953125 6.773438 -7.488281 6.640625 -8 C 6.484375 -8.5 6.257812 -8.945312 5.96875 -9.34375 C 5.6875 -9.71875 5.328125 -10.035156 4.890625 -10.296875 C 4.460938 -10.546875 3.972656 -10.707031 3.421875 -10.78125 C 3.253906 -10.800781 3.117188 -10.757812 3.015625 -10.65625 C 2.898438 -10.550781 2.84375 -10.425781 2.84375 -10.28125 Z M 2.84375 -2.515625 "/></g></g></g><g fill="#000000" fill-opacity="1"><g transform="translate(163.062316, 19.233873)"><g><path d="M 11.421875 -6.65625 C 11.503906 -6.65625 11.578125 -6.628906 11.640625 -6.578125 C 11.679688 -6.523438 11.703125 -6.460938 11.703125 -6.390625 C 11.703125 -5.597656 11.609375 -4.820312 11.421875 -4.0625 C 11.222656 -3.289062 10.894531 -2.59375 10.4375 -1.96875 C 9.945312 -1.320312 9.351562 -0.832031 8.65625 -0.5 C 7.945312 -0.164062 7.160156 0 6.296875 0 C 4.523438 0 3.140625 -0.65625 2.140625 -1.96875 C 1.296875 -3.113281 0.875 -4.582031 0.875 -6.375 C 0.875 -7.269531 0.984375 -8.085938 1.203125 -8.828125 C 1.410156 -9.578125 1.722656 -10.226562 2.140625 -10.78125 C 2.628906 -11.445312 3.226562 -11.945312 3.9375 -12.28125 C 4.632812 -12.601562 5.421875 -12.765625 6.296875 -12.765625 C 7.160156 -12.765625 7.945312 -12.601562 8.65625 -12.28125 C 9.351562 -11.945312 9.945312 -11.445312 10.4375 -10.78125 C 10.476562 -10.726562 10.492188 -10.664062 10.484375 -10.59375 C 10.460938 -10.507812 10.414062 -10.445312 10.34375 -10.40625 L 9.09375 -9.6875 C 8.976562 -9.613281 8.867188 -9.628906 8.765625 -9.734375 C 8.566406 -9.972656 8.359375 -10.160156 8.140625 -10.296875 C 7.898438 -10.429688 7.671875 -10.539062 7.453125 -10.625 C 7.234375 -10.695312 7.023438 -10.742188 6.828125 -10.765625 C 6.617188 -10.785156 6.441406 -10.796875 6.296875 -10.796875 C 6.023438 -10.796875 5.695312 -10.753906 5.3125 -10.671875 C 4.914062 -10.585938 4.539062 -10.394531 4.1875 -10.09375 C 3.8125 -9.789062 3.492188 -9.347656 3.234375 -8.765625 C 2.972656 -8.171875 2.84375 -7.375 2.84375 -6.375 C 2.84375 -5.375 2.972656 -4.582031 3.234375 -4 C 3.492188 -3.425781 3.8125 -2.988281 4.1875 -2.6875 C 4.539062 -2.382812 4.914062 -2.191406 5.3125 -2.109375 C 5.695312 -2.015625 6.023438 -1.96875 6.296875 -1.96875 C 6.503906 -1.96875 6.75 -1.988281 7.03125 -2.03125 C 7.320312 -2.082031 7.625 -2.195312 7.9375 -2.375 C 8.238281 -2.53125 8.53125 -2.765625 8.8125 -3.078125 C 9.082031 -3.390625 9.296875 -3.8125 9.453125 -4.34375 C 9.484375 -4.4375 9.472656 -4.515625 9.421875 -4.578125 C 9.378906 -4.648438 9.3125 -4.6875 9.21875 -4.6875 L 7.09375 -4.6875 C 6.945312 -4.6875 6.832031 -4.738281 6.75 -4.84375 C 6.632812 -4.9375 6.578125 -5.054688 6.578125 -5.203125 L 6.578125 -6.15625 C 6.578125 -6.289062 6.632812 -6.410156 6.75 -6.515625 C 6.832031 -6.609375 6.945312 -6.65625 7.09375 -6.65625 Z M 11.421875 -6.65625 "/></g></g></g><g fill="#000000" fill-opacity="1"><g transform="translate(175.639048, 19.233873)"><g><path d="M 3.984375 -12.765625 C 4.992188 -12.765625 5.753906 -12.492188 6.265625 -11.953125 C 6.773438 -11.398438 7.03125 -10.628906 7.03125 -9.640625 C 7.03125 -9.515625 7 -9.421875 6.9375 -9.359375 C 6.851562 -9.273438 6.753906 -9.234375 6.640625 -9.234375 L 5.46875 -9.234375 C 5.351562 -9.234375 5.257812 -9.273438 5.1875 -9.359375 C 5.101562 -9.421875 5.0625 -9.515625 5.0625 -9.640625 L 5.0625 -9.75 C 5.0625 -10.195312 4.976562 -10.519531 4.8125 -10.71875 C 4.632812 -10.90625 4.378906 -11 4.046875 -11 C 3.703125 -11 3.445312 -10.90625 3.28125 -10.71875 C 3.09375 -10.519531 3 -10.195312 3 -9.75 C 3 -9.519531 3.023438 -9.304688 3.078125 -9.109375 C 3.140625 -8.898438 3.238281 -8.691406 3.375 -8.484375 C 3.519531 -8.273438 3.707031 -8.054688 3.9375 -7.828125 C 4.15625 -7.578125 4.4375 -7.3125 4.78125 -7.03125 C 5.207031 -6.675781 5.570312 -6.34375 5.875 -6.03125 C 6.164062 -5.707031 6.394531 -5.394531 6.5625 -5.09375 C 6.738281 -4.769531 6.867188 -4.453125 6.953125 -4.140625 C 7.023438 -3.828125 7.0625 -3.492188 7.0625 -3.140625 C 7.0625 -2.128906 6.804688 -1.351562 6.296875 -0.8125 C 5.765625 -0.269531 4.988281 0 3.96875 0 C 2.945312 0 2.175781 -0.269531 1.65625 -0.8125 C 1.132812 -1.351562 0.875 -2.128906 0.875 -3.140625 L 0.875 -3.515625 C 0.875 -3.617188 0.914062 -3.710938 1 -3.796875 C 1.0625 -3.867188 1.144531 -3.90625 1.25 -3.90625 L 2.4375 -3.90625 C 2.539062 -3.90625 2.632812 -3.867188 2.71875 -3.796875 C 2.800781 -3.710938 2.84375 -3.617188 2.84375 -3.515625 L 2.84375 -3.015625 C 2.84375 -2.578125 2.9375 -2.265625 3.125 -2.078125 C 3.300781 -1.890625 3.5625 -1.796875 3.90625 -1.796875 C 4.238281 -1.796875 4.503906 -1.890625 4.703125 -2.078125 C 4.890625 -2.265625 4.984375 -2.578125 4.984375 -3.015625 C 4.984375 -3.234375 4.953125 -3.445312 4.890625 -3.65625 C 4.835938 -3.863281 4.738281 -4.070312 4.59375 -4.28125 C 4.457031 -4.488281 4.28125 -4.71875 4.0625 -4.96875 C 3.820312 -5.195312 3.535156 -5.453125 3.203125 -5.734375 C 2.773438 -6.085938 2.414062 -6.425781 2.125 -6.75 C 1.832031 -7.0625 1.597656 -7.375 1.421875 -7.6875 C 1.242188 -8 1.117188 -8.3125 1.046875 -8.625 C 0.960938 -8.9375 0.921875 -9.273438 0.921875 -9.640625 C 0.921875 -10.628906 1.175781 -11.398438 1.6875 -11.953125 C 2.195312 -12.492188 2.960938 -12.765625 3.984375 -12.765625 Z M 3.984375 -12.765625 "/></g></g></g></svg>