<svg xmlns="http://www.w3.org/2000/svg" xmlns:xlink="http://www.w3.org/1999/xlink" width="300" zoomAndPan="magnify" viewBox="0 0 224.87999 30.000001" height="40" preserveAspectRatio="xMidYMid meet" version="1.0"><defs><g/><clipPath id="6913c97769"><path d="M 3.570312 0 L 221.195312 0 L 221.195312 29.03125 L 3.570312 29.03125 Z M 3.570312 0 " clip-rule="nonzero"/></clipPath></defs><g clip-path="url(#6913c97769)"><path fill="#ffffff" d="M 3.570312 0 L 221.3125 0 L 221.3125 29.03125 L 3.570312 29.03125 Z M 3.570312 0 " fill-opacity="1" fill-rule="nonzero"/><path fill="#ffffff" d="M 3.570312 0 L 221.3125 0 L 221.3125 29.03125 L 3.570312 29.03125 Z M 3.570312 0 " fill-opacity="1" fill-rule="nonzero"/><path stroke-linecap="butt" transform="matrix(0.725806, 0, 0, 0.725806, 3.569026, 0.00000193548)" fill-opacity="1" fill="#ffffff" fill-rule="nonzero" stroke-linejoin="miter" d="M 0.00177251 -0.00000266667 L 300.002141 -0.00000266667 L 300.002141 39.998611 L 0.00177251 39.998611 Z M 0.00177251 -0.00000266667 " stroke="#000000" stroke-width="4" stroke-opacity="1" stroke-miterlimit="4"/></g><g fill="#000000" fill-opacity="0.4"><g transform="translate(35.755669, 20.344681)"><g><path d="M 3.78125 -11.34375 C 4.488281 -11.34375 5.085938 -11.148438 5.578125 -10.765625 C 6.046875 -10.367188 6.398438 -9.878906 6.640625 -9.296875 C 6.878906 -8.691406 7 -8.050781 7 -7.375 C 7 -6.675781 6.878906 -6.035156 6.640625 -5.453125 C 6.398438 -4.847656 6.046875 -4.351562 5.578125 -3.96875 C 5.085938 -3.570312 4.488281 -3.375 3.78125 -3.375 L 2.96875 -3.375 C 2.84375 -3.375 2.738281 -3.332031 2.65625 -3.25 C 2.570312 -3.15625 2.53125 -3.046875 2.53125 -2.921875 L 2.53125 -0.453125 C 2.53125 -0.328125 2.488281 -0.222656 2.40625 -0.140625 C 2.3125 -0.046875 2.203125 0 2.078125 0 L 1.21875 0 C 1.09375 0 0.988281 -0.046875 0.90625 -0.140625 C 0.820312 -0.222656 0.78125 -0.328125 0.78125 -0.453125 L 0.78125 -10.90625 C 0.78125 -11.03125 0.820312 -11.132812 0.90625 -11.21875 C 0.988281 -11.300781 1.09375 -11.34375 1.21875 -11.34375 Z M 3.8125 -5.125 C 4.132812 -5.125 4.398438 -5.238281 4.609375 -5.46875 C 4.828125 -5.6875 4.992188 -5.957031 5.109375 -6.28125 C 5.222656 -6.613281 5.28125 -6.976562 5.28125 -7.375 C 5.28125 -7.75 5.226562 -8.101562 5.125 -8.4375 C 5.007812 -8.769531 4.84375 -9.050781 4.625 -9.28125 C 4.40625 -9.488281 4.132812 -9.59375 3.8125 -9.59375 L 2.96875 -9.59375 C 2.84375 -9.59375 2.738281 -9.550781 2.65625 -9.46875 C 2.570312 -9.382812 2.53125 -9.28125 2.53125 -9.15625 L 2.53125 -5.578125 C 2.53125 -5.453125 2.570312 -5.347656 2.65625 -5.265625 C 2.738281 -5.171875 2.84375 -5.125 2.96875 -5.125 Z M 3.8125 -5.125 "/></g></g></g><g fill="#000000" fill-opacity="0.4"><g transform="translate(43.542184, 20.344681)"><g><path d="M 6.34375 -10.046875 C 6.34375 -9.921875 6.300781 -9.816406 6.21875 -9.734375 C 6.125 -9.640625 6.019531 -9.59375 5.90625 -9.59375 L 2.96875 -9.59375 C 2.84375 -9.59375 2.738281 -9.550781 2.65625 -9.46875 C 2.570312 -9.382812 2.53125 -9.28125 2.53125 -9.15625 L 2.53125 -8.21875 C 2.53125 -8.09375 2.570312 -7.988281 2.65625 -7.90625 C 2.738281 -7.8125 2.84375 -7.765625 2.96875 -7.765625 L 4.90625 -7.765625 C 5.039062 -7.765625 5.15625 -7.726562 5.25 -7.65625 C 5.332031 -7.5625 5.375 -7.453125 5.375 -7.328125 L 5.375 -6.484375 C 5.375 -6.359375 5.332031 -6.25 5.25 -6.15625 C 5.15625 -6.0625 5.039062 -6.015625 4.90625 -6.015625 L 2.96875 -6.015625 C 2.84375 -6.015625 2.738281 -5.976562 2.65625 -5.90625 C 2.570312 -5.8125 2.53125 -5.703125 2.53125 -5.578125 L 2.53125 -2.203125 C 2.53125 -2.078125 2.570312 -1.972656 2.65625 -1.890625 C 2.738281 -1.796875 2.84375 -1.75 2.96875 -1.75 L 5.90625 -1.75 C 6.019531 -1.75 6.125 -1.707031 6.21875 -1.625 C 6.300781 -1.53125 6.34375 -1.421875 6.34375 -1.296875 L 6.34375 -0.453125 C 6.34375 -0.328125 6.300781 -0.222656 6.21875 -0.140625 C 6.125 -0.046875 6.019531 0 5.90625 0 L 1.21875 0 C 1.09375 0 0.988281 -0.046875 0.90625 -0.140625 C 0.820312 -0.222656 0.78125 -0.328125 0.78125 -0.453125 L 0.78125 -10.90625 C 0.78125 -11.03125 0.820312 -11.132812 0.90625 -11.21875 C 0.988281 -11.300781 1.09375 -11.34375 1.21875 -11.34375 L 5.90625 -11.34375 C 6.019531 -11.34375 6.125 -11.300781 6.21875 -11.21875 C 6.300781 -11.132812 6.34375 -11.03125 6.34375 -10.90625 Z M 6.34375 -10.046875 "/></g></g></g><g fill="#000000" fill-opacity="0.4"><g transform="translate(50.663053, 20.344681)"><g><path d="M 3.78125 -11.34375 C 4.351562 -11.34375 4.851562 -11.21875 5.28125 -10.96875 C 5.707031 -10.695312 6.050781 -10.347656 6.3125 -9.921875 C 6.582031 -9.503906 6.773438 -9.03125 6.890625 -8.5 C 7.003906 -7.976562 7.039062 -7.445312 7 -6.90625 C 6.945312 -6.363281 6.820312 -5.851562 6.625 -5.375 C 6.414062 -4.882812 6.140625 -4.476562 5.796875 -4.15625 C 5.640625 -4.019531 5.597656 -3.859375 5.671875 -3.671875 L 6.78125 -0.609375 C 6.832031 -0.460938 6.816406 -0.328125 6.734375 -0.203125 C 6.640625 -0.0664062 6.507812 0 6.34375 0 L 5.46875 0 C 5.25 0 5.101562 -0.0976562 5.03125 -0.296875 L 4.03125 -3.078125 C 3.957031 -3.273438 3.8125 -3.375 3.59375 -3.375 L 2.96875 -3.375 C 2.84375 -3.375 2.738281 -3.332031 2.65625 -3.25 C 2.570312 -3.15625 2.53125 -3.046875 2.53125 -2.921875 L 2.53125 -0.453125 C 2.53125 -0.328125 2.488281 -0.222656 2.40625 -0.140625 C 2.3125 -0.046875 2.203125 0 2.078125 0 L 1.21875 0 C 1.09375 0 0.988281 -0.046875 0.90625 -0.140625 C 0.820312 -0.222656 0.78125 -0.328125 0.78125 -0.453125 L 0.78125 -10.90625 C 0.78125 -11.03125 0.820312 -11.132812 0.90625 -11.21875 C 0.988281 -11.300781 1.09375 -11.34375 1.21875 -11.34375 Z M 2.53125 -5.578125 C 2.53125 -5.453125 2.570312 -5.347656 2.65625 -5.265625 C 2.738281 -5.171875 2.84375 -5.125 2.96875 -5.125 L 3.8125 -5.125 C 4.132812 -5.125 4.398438 -5.238281 4.609375 -5.46875 C 4.828125 -5.6875 4.992188 -5.957031 5.109375 -6.28125 C 5.222656 -6.613281 5.28125 -6.976562 5.28125 -7.375 C 5.28125 -7.75 5.226562 -8.101562 5.125 -8.4375 C 5.007812 -8.769531 4.84375 -9.050781 4.625 -9.28125 C 4.40625 -9.488281 4.132812 -9.59375 3.8125 -9.59375 L 2.96875 -9.59375 C 2.84375 -9.59375 2.738281 -9.550781 2.65625 -9.46875 C 2.570312 -9.382812 2.53125 -9.28125 2.53125 -9.15625 Z M 2.53125 -5.578125 "/></g></g></g><g fill="#000000" fill-opacity="0.4"><g transform="translate(58.449568, 20.344681)"><g><path d="M 7.078125 0 C 6.859375 0 6.710938 -0.113281 6.640625 -0.34375 C 6.609375 -0.457031 6.566406 -0.625 6.515625 -0.84375 C 6.453125 -1.039062 6.375 -1.320312 6.28125 -1.6875 C 6.207031 -1.914062 6.0625 -2.03125 5.84375 -2.03125 L 3.359375 -2.03125 C 3.128906 -2.03125 2.976562 -1.914062 2.90625 -1.6875 C 2.832031 -1.40625 2.769531 -1.148438 2.71875 -0.921875 C 2.65625 -0.703125 2.601562 -0.507812 2.5625 -0.34375 C 2.488281 -0.113281 2.34375 0 2.125 0 L 1.234375 0 C 1.085938 0 0.96875 -0.0625 0.875 -0.1875 C 0.789062 -0.300781 0.769531 -0.429688 0.8125 -0.578125 C 0.90625 -0.953125 1.03125 -1.4375 1.1875 -2.03125 C 1.34375 -2.601562 1.515625 -3.234375 1.703125 -3.921875 C 1.890625 -4.585938 2.082031 -5.285156 2.28125 -6.015625 C 2.46875 -6.722656 2.644531 -7.398438 2.8125 -8.046875 C 2.976562 -8.691406 3.132812 -9.273438 3.28125 -9.796875 C 3.414062 -10.316406 3.523438 -10.722656 3.609375 -11.015625 C 3.628906 -11.117188 3.679688 -11.195312 3.765625 -11.25 C 3.847656 -11.3125 3.941406 -11.34375 4.046875 -11.34375 L 5.15625 -11.34375 C 5.257812 -11.34375 5.351562 -11.3125 5.4375 -11.25 C 5.519531 -11.195312 5.570312 -11.117188 5.59375 -11.015625 C 5.945312 -9.648438 6.257812 -8.484375 6.53125 -7.515625 C 6.789062 -6.535156 7.007812 -5.71875 7.1875 -5.0625 C 7.363281 -4.40625 7.507812 -3.875 7.625 -3.46875 C 7.71875 -3.0625 7.800781 -2.742188 7.875 -2.515625 C 7.9375 -2.265625 7.988281 -2.078125 8.03125 -1.953125 C 8.0625 -1.816406 8.09375 -1.691406 8.125 -1.578125 C 8.15625 -1.460938 8.191406 -1.332031 8.234375 -1.1875 C 8.265625 -1.039062 8.316406 -0.835938 8.390625 -0.578125 C 8.429688 -0.429688 8.40625 -0.300781 8.3125 -0.1875 C 8.21875 -0.0625 8.097656 0 7.953125 0 Z M 3.625 -4.34375 C 3.582031 -4.207031 3.609375 -4.082031 3.703125 -3.96875 C 3.796875 -3.84375 3.914062 -3.78125 4.0625 -3.78125 L 5.140625 -3.78125 C 5.285156 -3.78125 5.40625 -3.84375 5.5 -3.96875 C 5.59375 -4.082031 5.617188 -4.207031 5.578125 -4.34375 C 5.492188 -4.632812 5.410156 -4.945312 5.328125 -5.28125 C 5.234375 -5.613281 5.132812 -5.960938 5.03125 -6.328125 C 5 -6.441406 4.941406 -6.53125 4.859375 -6.59375 C 4.773438 -6.644531 4.6875 -6.671875 4.59375 -6.671875 C 4.5 -6.671875 4.410156 -6.644531 4.328125 -6.59375 C 4.253906 -6.53125 4.203125 -6.441406 4.171875 -6.328125 C 4.078125 -6.003906 3.988281 -5.675781 3.90625 -5.34375 C 3.8125 -5.007812 3.71875 -4.675781 3.625 -4.34375 Z M 3.625 -4.34375 "/></g></g></g><g fill="#000000" fill-opacity="0.4"><g transform="translate(67.644782, 20.344681)"><g><path d="M 7.546875 -11.34375 C 7.671875 -11.34375 7.773438 -11.300781 7.859375 -11.21875 C 7.941406 -11.132812 7.984375 -11.03125 7.984375 -10.90625 L 7.984375 -0.453125 C 7.984375 -0.328125 7.941406 -0.222656 7.859375 -0.140625 C 7.773438 -0.046875 7.671875 0 7.546875 0 L 6.34375 0 C 6.15625 0 6.023438 -0.0859375 5.953125 -0.265625 L 2.84375 -6.890625 C 2.8125 -6.972656 2.75 -7.003906 2.65625 -6.984375 C 2.570312 -6.960938 2.53125 -6.90625 2.53125 -6.8125 L 2.53125 -0.453125 C 2.53125 -0.328125 2.488281 -0.222656 2.40625 -0.140625 C 2.3125 -0.046875 2.195312 0 2.0625 0 L 1.21875 0 C 1.09375 0 0.988281 -0.046875 0.90625 -0.140625 C 0.820312 -0.222656 0.78125 -0.328125 0.78125 -0.453125 L 0.78125 -10.90625 C 0.78125 -11.03125 0.820312 -11.132812 0.90625 -11.21875 C 0.988281 -11.300781 1.09375 -11.34375 1.21875 -11.34375 L 2.421875 -11.34375 C 2.609375 -11.34375 2.738281 -11.257812 2.8125 -11.09375 L 5.921875 -4.453125 C 5.953125 -4.367188 6.015625 -4.335938 6.109375 -4.359375 C 6.191406 -4.378906 6.234375 -4.4375 6.234375 -4.53125 L 6.234375 -10.90625 C 6.234375 -11.03125 6.28125 -11.132812 6.375 -11.21875 C 6.46875 -11.300781 6.578125 -11.34375 6.703125 -11.34375 Z M 7.546875 -11.34375 "/></g></g></g><g fill="#000000" fill-opacity="0.4"><g transform="translate(76.406544, 20.344681)"><g/></g></g><g fill="#000000" fill-opacity="0.4"><g transform="translate(81.050594, 20.344681)"><g><path d="M 5.40625 -4.9375 C 5.40625 -5.007812 5.429688 -5.066406 5.484375 -5.109375 C 5.523438 -5.148438 5.578125 -5.171875 5.640625 -5.171875 L 7.515625 -5.171875 C 7.660156 -5.171875 7.734375 -5.09375 7.734375 -4.9375 L 7.734375 -3.421875 C 7.734375 -3.117188 7.703125 -2.835938 7.640625 -2.578125 C 7.484375 -2.003906 7.195312 -1.5 6.78125 -1.0625 C 6.363281 -0.632812 5.867188 -0.332031 5.296875 -0.15625 C 5.191406 -0.125 5.140625 -0.0507812 5.140625 0.0625 L 5.140625 0.796875 C 5.140625 0.847656 5.117188 0.894531 5.078125 0.9375 C 5.023438 0.988281 4.96875 1.015625 4.90625 1.015625 L 3.625 1.015625 C 3.550781 1.015625 3.492188 0.988281 3.453125 0.9375 C 3.410156 0.894531 3.390625 0.847656 3.390625 0.796875 L 3.390625 0.0625 C 3.390625 -0.0390625 3.332031 -0.113281 3.21875 -0.15625 C 2.851562 -0.269531 2.523438 -0.4375 2.234375 -0.65625 C 1.929688 -0.851562 1.671875 -1.101562 1.453125 -1.40625 C 1.234375 -1.695312 1.066406 -2.019531 0.953125 -2.375 C 0.835938 -2.71875 0.78125 -3.085938 0.78125 -3.484375 C 0.78125 -3.984375 0.875 -4.445312 1.0625 -4.875 C 1.257812 -5.3125 1.53125 -5.691406 1.875 -6.015625 C 1.96875 -6.117188 1.972656 -6.222656 1.890625 -6.328125 C 1.671875 -6.597656 1.5 -6.898438 1.375 -7.234375 C 1.25 -7.566406 1.1875 -7.914062 1.1875 -8.28125 C 1.1875 -8.957031 1.378906 -9.554688 1.765625 -10.078125 C 2.148438 -10.597656 2.640625 -10.96875 3.234375 -11.1875 C 3.335938 -11.207031 3.390625 -11.273438 3.390625 -11.390625 L 3.390625 -12.140625 C 3.390625 -12.203125 3.410156 -12.257812 3.453125 -12.3125 C 3.492188 -12.351562 3.550781 -12.375 3.625 -12.375 L 4.90625 -12.375 C 4.96875 -12.375 5.023438 -12.351562 5.078125 -12.3125 C 5.117188 -12.257812 5.140625 -12.203125 5.140625 -12.140625 L 5.140625 -11.390625 C 5.140625 -11.273438 5.191406 -11.207031 5.296875 -11.1875 C 5.816406 -11 6.265625 -10.6875 6.640625 -10.25 C 7.003906 -9.800781 7.226562 -9.289062 7.3125 -8.71875 C 7.332031 -8.582031 7.28125 -8.5 7.15625 -8.46875 L 5.90625 -8.046875 C 5.820312 -8.023438 5.75 -8.039062 5.6875 -8.09375 C 5.625 -8.132812 5.59375 -8.195312 5.59375 -8.28125 C 5.59375 -8.46875 5.5625 -8.644531 5.5 -8.8125 C 5.425781 -8.96875 5.332031 -9.109375 5.21875 -9.234375 C 5.09375 -9.347656 4.953125 -9.4375 4.796875 -9.5 C 4.628906 -9.570312 4.457031 -9.609375 4.28125 -9.609375 C 4.09375 -9.609375 3.921875 -9.570312 3.765625 -9.5 C 3.597656 -9.4375 3.453125 -9.347656 3.328125 -9.234375 C 3.203125 -9.109375 3.109375 -8.96875 3.046875 -8.8125 C 2.972656 -8.644531 2.9375 -8.46875 2.9375 -8.28125 C 2.9375 -7.9375 3.0625 -7.632812 3.3125 -7.375 C 3.550781 -7.101562 3.867188 -6.96875 4.265625 -6.96875 L 4.296875 -6.96875 C 4.359375 -6.96875 4.414062 -6.945312 4.46875 -6.90625 C 4.507812 -6.851562 4.53125 -6.796875 4.53125 -6.734375 L 4.53125 -5.4375 C 4.53125 -5.375 4.507812 -5.320312 4.46875 -5.28125 C 4.414062 -5.226562 4.359375 -5.203125 4.296875 -5.203125 L 4.265625 -5.203125 C 4.003906 -5.203125 3.769531 -5.15625 3.5625 -5.0625 C 3.34375 -4.96875 3.15625 -4.84375 3 -4.6875 C 2.84375 -4.519531 2.722656 -4.335938 2.640625 -4.140625 C 2.566406 -3.929688 2.53125 -3.710938 2.53125 -3.484375 C 2.53125 -3.242188 2.570312 -3.019531 2.65625 -2.8125 C 2.75 -2.601562 2.875 -2.421875 3.03125 -2.265625 C 3.1875 -2.109375 3.375 -1.984375 3.59375 -1.890625 C 3.800781 -1.796875 4.023438 -1.75 4.265625 -1.75 C 4.691406 -1.75 5.0625 -1.890625 5.375 -2.171875 C 5.6875 -2.441406 5.882812 -2.769531 5.96875 -3.15625 C 5.988281 -3.226562 5.976562 -3.289062 5.9375 -3.34375 C 5.882812 -3.394531 5.816406 -3.421875 5.734375 -3.421875 L 5.640625 -3.421875 C 5.578125 -3.421875 5.523438 -3.445312 5.484375 -3.5 C 5.429688 -3.539062 5.40625 -3.597656 5.40625 -3.671875 Z M 5.40625 -4.9375 "/></g></g></g><g fill="#000000" fill-opacity="0.4"><g transform="translate(89.564677, 20.344681)"><g/></g></g><g fill="#000000" fill-opacity="0.4"><g transform="translate(94.208726, 20.344681)"><g><path d="M 2.53125 -11.34375 C 3.363281 -11.34375 4.113281 -11.195312 4.78125 -10.90625 C 5.457031 -10.601562 6.03125 -10.195312 6.5 -9.6875 C 6.96875 -9.175781 7.332031 -8.578125 7.59375 -7.890625 C 7.832031 -7.203125 7.953125 -6.46875 7.953125 -5.6875 C 7.953125 -4.894531 7.832031 -4.160156 7.59375 -3.484375 C 7.332031 -2.796875 6.96875 -2.191406 6.5 -1.671875 C 6.03125 -1.148438 5.457031 -0.742188 4.78125 -0.453125 C 4.113281 -0.148438 3.363281 0 2.53125 0 L 1.21875 0 C 1.09375 0 0.988281 -0.046875 0.90625 -0.140625 C 0.820312 -0.222656 0.78125 -0.328125 0.78125 -0.453125 L 0.78125 -10.90625 C 0.78125 -11.03125 0.820312 -11.132812 0.90625 -11.21875 C 0.988281 -11.300781 1.09375 -11.34375 1.21875 -11.34375 Z M 2.53125 -2.234375 C 2.53125 -2.085938 2.578125 -1.972656 2.671875 -1.890625 C 2.765625 -1.796875 2.882812 -1.757812 3.03125 -1.78125 C 3.53125 -1.84375 3.96875 -1.988281 4.34375 -2.21875 C 4.726562 -2.445312 5.050781 -2.734375 5.3125 -3.078125 C 5.570312 -3.421875 5.769531 -3.820312 5.90625 -4.28125 C 6.019531 -4.71875 6.078125 -5.1875 6.078125 -5.6875 C 6.078125 -6.175781 6.019531 -6.648438 5.90625 -7.109375 C 5.769531 -7.546875 5.570312 -7.941406 5.3125 -8.296875 C 5.050781 -8.640625 4.726562 -8.925781 4.34375 -9.15625 C 3.96875 -9.375 3.53125 -9.515625 3.03125 -9.578125 C 2.882812 -9.597656 2.765625 -9.5625 2.671875 -9.46875 C 2.578125 -9.382812 2.53125 -9.273438 2.53125 -9.140625 Z M 2.53125 -2.234375 "/></g></g></g><g fill="#000000" fill-opacity="0.4"><g transform="translate(102.939534, 20.344681)"><g><path d="M 7.078125 0 C 6.859375 0 6.710938 -0.113281 6.640625 -0.34375 C 6.609375 -0.457031 6.566406 -0.625 6.515625 -0.84375 C 6.453125 -1.039062 6.375 -1.320312 6.28125 -1.6875 C 6.207031 -1.914062 6.0625 -2.03125 5.84375 -2.03125 L 3.359375 -2.03125 C 3.128906 -2.03125 2.976562 -1.914062 2.90625 -1.6875 C 2.832031 -1.40625 2.769531 -1.148438 2.71875 -0.921875 C 2.65625 -0.703125 2.601562 -0.507812 2.5625 -0.34375 C 2.488281 -0.113281 2.34375 0 2.125 0 L 1.234375 0 C 1.085938 0 0.96875 -0.0625 0.875 -0.1875 C 0.789062 -0.300781 0.769531 -0.429688 0.8125 -0.578125 C 0.90625 -0.953125 1.03125 -1.4375 1.1875 -2.03125 C 1.34375 -2.601562 1.515625 -3.234375 1.703125 -3.921875 C 1.890625 -4.585938 2.082031 -5.285156 2.28125 -6.015625 C 2.46875 -6.722656 2.644531 -7.398438 2.8125 -8.046875 C 2.976562 -8.691406 3.132812 -9.273438 3.28125 -9.796875 C 3.414062 -10.316406 3.523438 -10.722656 3.609375 -11.015625 C 3.628906 -11.117188 3.679688 -11.195312 3.765625 -11.25 C 3.847656 -11.3125 3.941406 -11.34375 4.046875 -11.34375 L 5.15625 -11.34375 C 5.257812 -11.34375 5.351562 -11.3125 5.4375 -11.25 C 5.519531 -11.195312 5.570312 -11.117188 5.59375 -11.015625 C 5.945312 -9.648438 6.257812 -8.484375 6.53125 -7.515625 C 6.789062 -6.535156 7.007812 -5.71875 7.1875 -5.0625 C 7.363281 -4.40625 7.507812 -3.875 7.625 -3.46875 C 7.71875 -3.0625 7.800781 -2.742188 7.875 -2.515625 C 7.9375 -2.265625 7.988281 -2.078125 8.03125 -1.953125 C 8.0625 -1.816406 8.09375 -1.691406 8.125 -1.578125 C 8.15625 -1.460938 8.191406 -1.332031 8.234375 -1.1875 C 8.265625 -1.039062 8.316406 -0.835938 8.390625 -0.578125 C 8.429688 -0.429688 8.40625 -0.300781 8.3125 -0.1875 C 8.21875 -0.0625 8.097656 0 7.953125 0 Z M 3.625 -4.34375 C 3.582031 -4.207031 3.609375 -4.082031 3.703125 -3.96875 C 3.796875 -3.84375 3.914062 -3.78125 4.0625 -3.78125 L 5.140625 -3.78125 C 5.285156 -3.78125 5.40625 -3.84375 5.5 -3.96875 C 5.59375 -4.082031 5.617188 -4.207031 5.578125 -4.34375 C 5.492188 -4.632812 5.410156 -4.945312 5.328125 -5.28125 C 5.234375 -5.613281 5.132812 -5.960938 5.03125 -6.328125 C 5 -6.441406 4.941406 -6.53125 4.859375 -6.59375 C 4.773438 -6.644531 4.6875 -6.671875 4.59375 -6.671875 C 4.5 -6.671875 4.410156 -6.644531 4.328125 -6.59375 C 4.253906 -6.53125 4.203125 -6.441406 4.171875 -6.328125 C 4.078125 -6.003906 3.988281 -5.675781 3.90625 -5.34375 C 3.8125 -5.007812 3.71875 -4.675781 3.625 -4.34375 Z M 3.625 -4.34375 "/></g></g></g><g fill="#000000" fill-opacity="0.4"><g transform="translate(112.134748, 20.344681)"><g><path d="M 10.4375 -11.34375 C 10.5625 -11.34375 10.671875 -11.300781 10.765625 -11.21875 C 10.859375 -11.132812 10.90625 -11.023438 10.90625 -10.890625 L 10.90625 -0.46875 C 10.90625 -0.332031 10.859375 -0.222656 10.765625 -0.140625 C 10.671875 -0.046875 10.5625 0 10.4375 0 L 9.59375 0 C 9.476562 0 9.378906 -0.046875 9.296875 -0.140625 C 9.203125 -0.222656 9.15625 -0.332031 9.15625 -0.46875 L 9.15625 -5.46875 C 9.15625 -5.570312 9.101562 -5.632812 9 -5.65625 C 8.882812 -5.675781 8.8125 -5.632812 8.78125 -5.53125 L 6.875 -0.3125 C 6.84375 -0.21875 6.785156 -0.144531 6.703125 -0.09375 C 6.617188 -0.03125 6.53125 0 6.4375 0 L 5.234375 0 C 5.015625 0 4.867188 -0.101562 4.796875 -0.3125 L 2.890625 -5.53125 C 2.859375 -5.632812 2.785156 -5.675781 2.671875 -5.65625 C 2.578125 -5.632812 2.53125 -5.570312 2.53125 -5.46875 L 2.53125 -0.46875 C 2.53125 -0.332031 2.484375 -0.222656 2.390625 -0.140625 C 2.296875 -0.046875 2.1875 0 2.0625 0 L 1.234375 0 C 1.097656 0 0.988281 -0.046875 0.90625 -0.140625 C 0.820312 -0.222656 0.78125 -0.332031 0.78125 -0.46875 L 0.78125 -10.890625 C 0.78125 -11.023438 0.820312 -11.132812 0.90625 -11.21875 C 0.988281 -11.300781 1.097656 -11.34375 1.234375 -11.34375 L 2.3125 -11.34375 C 2.519531 -11.34375 2.660156 -11.242188 2.734375 -11.046875 L 5.65625 -3.046875 C 5.6875 -2.960938 5.75 -2.921875 5.84375 -2.921875 C 5.9375 -2.921875 5.992188 -2.960938 6.015625 -3.046875 L 8.921875 -11.046875 C 9.003906 -11.242188 9.148438 -11.34375 9.359375 -11.34375 Z M 10.4375 -11.34375 "/></g></g></g><g fill="#000000" fill-opacity="0.4"><g transform="translate(123.80678, 20.344681)"><g><path d="M 3.78125 -11.34375 C 4.488281 -11.34375 5.085938 -11.148438 5.578125 -10.765625 C 6.046875 -10.367188 6.398438 -9.878906 6.640625 -9.296875 C 6.878906 -8.691406 7 -8.050781 7 -7.375 C 7 -6.675781 6.878906 -6.035156 6.640625 -5.453125 C 6.398438 -4.847656 6.046875 -4.351562 5.578125 -3.96875 C 5.085938 -3.570312 4.488281 -3.375 3.78125 -3.375 L 2.96875 -3.375 C 2.84375 -3.375 2.738281 -3.332031 2.65625 -3.25 C 2.570312 -3.15625 2.53125 -3.046875 2.53125 -2.921875 L 2.53125 -0.453125 C 2.53125 -0.328125 2.488281 -0.222656 2.40625 -0.140625 C 2.3125 -0.046875 2.203125 0 2.078125 0 L 1.21875 0 C 1.09375 0 0.988281 -0.046875 0.90625 -0.140625 C 0.820312 -0.222656 0.78125 -0.328125 0.78125 -0.453125 L 0.78125 -10.90625 C 0.78125 -11.03125 0.820312 -11.132812 0.90625 -11.21875 C 0.988281 -11.300781 1.09375 -11.34375 1.21875 -11.34375 Z M 3.8125 -5.125 C 4.132812 -5.125 4.398438 -5.238281 4.609375 -5.46875 C 4.828125 -5.6875 4.992188 -5.957031 5.109375 -6.28125 C 5.222656 -6.613281 5.28125 -6.976562 5.28125 -7.375 C 5.28125 -7.75 5.226562 -8.101562 5.125 -8.4375 C 5.007812 -8.769531 4.84375 -9.050781 4.625 -9.28125 C 4.40625 -9.488281 4.132812 -9.59375 3.8125 -9.59375 L 2.96875 -9.59375 C 2.84375 -9.59375 2.738281 -9.550781 2.65625 -9.46875 C 2.570312 -9.382812 2.53125 -9.28125 2.53125 -9.15625 L 2.53125 -5.578125 C 2.53125 -5.453125 2.570312 -5.347656 2.65625 -5.265625 C 2.738281 -5.171875 2.84375 -5.125 2.96875 -5.125 Z M 3.8125 -5.125 "/></g></g></g><g fill="#000000" fill-opacity="0.4"><g transform="translate(131.593296, 20.344681)"><g><path d="M 7.078125 0 C 6.859375 0 6.710938 -0.113281 6.640625 -0.34375 C 6.609375 -0.457031 6.566406 -0.625 6.515625 -0.84375 C 6.453125 -1.039062 6.375 -1.320312 6.28125 -1.6875 C 6.207031 -1.914062 6.0625 -2.03125 5.84375 -2.03125 L 3.359375 -2.03125 C 3.128906 -2.03125 2.976562 -1.914062 2.90625 -1.6875 C 2.832031 -1.40625 2.769531 -1.148438 2.71875 -0.921875 C 2.65625 -0.703125 2.601562 -0.507812 2.5625 -0.34375 C 2.488281 -0.113281 2.34375 0 2.125 0 L 1.234375 0 C 1.085938 0 0.96875 -0.0625 0.875 -0.1875 C 0.789062 -0.300781 0.769531 -0.429688 0.8125 -0.578125 C 0.90625 -0.953125 1.03125 -1.4375 1.1875 -2.03125 C 1.34375 -2.601562 1.515625 -3.234375 1.703125 -3.921875 C 1.890625 -4.585938 2.082031 -5.285156 2.28125 -6.015625 C 2.46875 -6.722656 2.644531 -7.398438 2.8125 -8.046875 C 2.976562 -8.691406 3.132812 -9.273438 3.28125 -9.796875 C 3.414062 -10.316406 3.523438 -10.722656 3.609375 -11.015625 C 3.628906 -11.117188 3.679688 -11.195312 3.765625 -11.25 C 3.847656 -11.3125 3.941406 -11.34375 4.046875 -11.34375 L 5.15625 -11.34375 C 5.257812 -11.34375 5.351562 -11.3125 5.4375 -11.25 C 5.519531 -11.195312 5.570312 -11.117188 5.59375 -11.015625 C 5.945312 -9.648438 6.257812 -8.484375 6.53125 -7.515625 C 6.789062 -6.535156 7.007812 -5.71875 7.1875 -5.0625 C 7.363281 -4.40625 7.507812 -3.875 7.625 -3.46875 C 7.71875 -3.0625 7.800781 -2.742188 7.875 -2.515625 C 7.9375 -2.265625 7.988281 -2.078125 8.03125 -1.953125 C 8.0625 -1.816406 8.09375 -1.691406 8.125 -1.578125 C 8.15625 -1.460938 8.191406 -1.332031 8.234375 -1.1875 C 8.265625 -1.039062 8.316406 -0.835938 8.390625 -0.578125 C 8.429688 -0.429688 8.40625 -0.300781 8.3125 -0.1875 C 8.21875 -0.0625 8.097656 0 7.953125 0 Z M 3.625 -4.34375 C 3.582031 -4.207031 3.609375 -4.082031 3.703125 -3.96875 C 3.796875 -3.84375 3.914062 -3.78125 4.0625 -3.78125 L 5.140625 -3.78125 C 5.285156 -3.78125 5.40625 -3.84375 5.5 -3.96875 C 5.59375 -4.082031 5.617188 -4.207031 5.578125 -4.34375 C 5.492188 -4.632812 5.410156 -4.945312 5.328125 -5.28125 C 5.234375 -5.613281 5.132812 -5.960938 5.03125 -6.328125 C 5 -6.441406 4.941406 -6.53125 4.859375 -6.59375 C 4.773438 -6.644531 4.6875 -6.671875 4.59375 -6.671875 C 4.5 -6.671875 4.410156 -6.644531 4.328125 -6.59375 C 4.253906 -6.53125 4.203125 -6.441406 4.171875 -6.328125 C 4.078125 -6.003906 3.988281 -5.675781 3.90625 -5.34375 C 3.8125 -5.007812 3.71875 -4.675781 3.625 -4.34375 Z M 3.625 -4.34375 "/></g></g></g><g fill="#000000" fill-opacity="0.4"><g transform="translate(140.788509, 20.344681)"><g><path d="M 4.1875 -5.953125 C 4.132812 -5.867188 4.109375 -5.78125 4.109375 -5.6875 C 4.109375 -5.582031 4.132812 -5.488281 4.1875 -5.40625 L 7.625 -0.734375 C 7.726562 -0.585938 7.742188 -0.425781 7.671875 -0.25 C 7.585938 -0.0820312 7.453125 0 7.265625 0 L 6.21875 0 C 6.070312 0 5.953125 -0.0625 5.859375 -0.1875 L 3 -4.0625 C 2.957031 -4.101562 2.921875 -4.125 2.890625 -4.125 C 2.847656 -4.125 2.816406 -4.101562 2.796875 -4.0625 L 2.546875 -3.71875 C 2.535156 -3.707031 2.53125 -3.679688 2.53125 -3.640625 L 2.53125 -0.46875 C 2.53125 -0.332031 2.488281 -0.222656 2.40625 -0.140625 C 2.3125 -0.046875 2.195312 0 2.0625 0 L 1.234375 0 C 1.097656 0 0.988281 -0.046875 0.90625 -0.140625 C 0.820312 -0.222656 0.78125 -0.332031 0.78125 -0.46875 L 0.78125 -10.890625 C 0.78125 -11.023438 0.820312 -11.132812 0.90625 -11.21875 C 0.988281 -11.300781 1.097656 -11.34375 1.234375 -11.34375 L 2.0625 -11.34375 C 2.195312 -11.34375 2.3125 -11.300781 2.40625 -11.21875 C 2.488281 -11.132812 2.53125 -11.023438 2.53125 -10.890625 L 2.53125 -7.03125 C 2.53125 -6.957031 2.554688 -6.914062 2.609375 -6.90625 C 2.671875 -6.882812 2.71875 -6.898438 2.75 -6.953125 L 5.859375 -11.171875 C 5.960938 -11.285156 6.082031 -11.34375 6.21875 -11.34375 L 7.265625 -11.34375 C 7.453125 -11.34375 7.585938 -11.265625 7.671875 -11.109375 C 7.742188 -10.929688 7.726562 -10.769531 7.625 -10.625 Z M 4.1875 -5.953125 "/></g></g></g><g fill="#000000" fill-opacity="0.4"><g transform="translate(149.287109, 20.344681)"><g/></g></g><g fill="#000000" fill-opacity="0.4"><g transform="translate(153.931158, 20.344681)"><g><path d="M 3.546875 -11.34375 C 4.441406 -11.34375 5.117188 -11.101562 5.578125 -10.625 C 6.023438 -10.132812 6.25 -9.445312 6.25 -8.5625 C 6.25 -8.457031 6.21875 -8.375 6.15625 -8.3125 C 6.082031 -8.238281 6 -8.203125 5.90625 -8.203125 L 4.859375 -8.203125 C 4.753906 -8.203125 4.671875 -8.238281 4.609375 -8.3125 C 4.535156 -8.375 4.5 -8.457031 4.5 -8.5625 L 4.5 -8.671875 C 4.5 -9.066406 4.425781 -9.347656 4.28125 -9.515625 C 4.125 -9.679688 3.894531 -9.765625 3.59375 -9.765625 C 3.289062 -9.765625 3.0625 -9.679688 2.90625 -9.515625 C 2.738281 -9.347656 2.65625 -9.066406 2.65625 -8.671875 C 2.65625 -8.460938 2.679688 -8.269531 2.734375 -8.09375 C 2.785156 -7.90625 2.875 -7.722656 3 -7.546875 C 3.125 -7.359375 3.289062 -7.160156 3.5 -6.953125 C 3.695312 -6.734375 3.945312 -6.5 4.25 -6.25 C 4.625 -5.9375 4.945312 -5.640625 5.21875 -5.359375 C 5.476562 -5.066406 5.6875 -4.785156 5.84375 -4.515625 C 5.988281 -4.242188 6.097656 -3.96875 6.171875 -3.6875 C 6.234375 -3.40625 6.265625 -3.101562 6.265625 -2.78125 C 6.265625 -1.882812 6.039062 -1.203125 5.59375 -0.734375 C 5.125 -0.242188 4.4375 0 3.53125 0 C 2.625 0 1.9375 -0.242188 1.46875 -0.734375 C 1.007812 -1.203125 0.78125 -1.882812 0.78125 -2.78125 L 0.78125 -3.125 C 0.78125 -3.21875 0.8125 -3.300781 0.875 -3.375 C 0.9375 -3.4375 1.015625 -3.46875 1.109375 -3.46875 L 2.171875 -3.46875 C 2.265625 -3.46875 2.347656 -3.4375 2.421875 -3.375 C 2.492188 -3.300781 2.53125 -3.21875 2.53125 -3.125 L 2.53125 -2.671875 C 2.53125 -2.285156 2.609375 -2.007812 2.765625 -1.84375 C 2.929688 -1.675781 3.164062 -1.59375 3.46875 -1.59375 C 3.769531 -1.59375 4.007812 -1.675781 4.1875 -1.84375 C 4.34375 -2.007812 4.421875 -2.285156 4.421875 -2.671875 C 4.421875 -2.867188 4.394531 -3.0625 4.34375 -3.25 C 4.300781 -3.4375 4.21875 -3.625 4.09375 -3.8125 C 3.96875 -4 3.804688 -4.195312 3.609375 -4.40625 C 3.398438 -4.613281 3.144531 -4.84375 2.84375 -5.09375 C 2.46875 -5.414062 2.148438 -5.71875 1.890625 -6 C 1.628906 -6.269531 1.421875 -6.546875 1.265625 -6.828125 C 1.097656 -7.109375 0.984375 -7.390625 0.921875 -7.671875 C 0.859375 -7.941406 0.828125 -8.238281 0.828125 -8.5625 C 0.828125 -9.445312 1.050781 -10.132812 1.5 -10.625 C 1.957031 -11.101562 2.640625 -11.34375 3.546875 -11.34375 Z M 3.546875 -11.34375 "/></g></g></g><g fill="#000000" fill-opacity="0.4"><g transform="translate(160.974624, 20.344681)"><g><path d="M 2.53125 -11.34375 C 3.363281 -11.34375 4.113281 -11.195312 4.78125 -10.90625 C 5.457031 -10.601562 6.03125 -10.195312 6.5 -9.6875 C 6.96875 -9.175781 7.332031 -8.578125 7.59375 -7.890625 C 7.832031 -7.203125 7.953125 -6.46875 7.953125 -5.6875 C 7.953125 -4.894531 7.832031 -4.160156 7.59375 -3.484375 C 7.332031 -2.796875 6.96875 -2.191406 6.5 -1.671875 C 6.03125 -1.148438 5.457031 -0.742188 4.78125 -0.453125 C 4.113281 -0.148438 3.363281 0 2.53125 0 L 1.21875 0 C 1.09375 0 0.988281 -0.046875 0.90625 -0.140625 C 0.820312 -0.222656 0.78125 -0.328125 0.78125 -0.453125 L 0.78125 -10.90625 C 0.78125 -11.03125 0.820312 -11.132812 0.90625 -11.21875 C 0.988281 -11.300781 1.09375 -11.34375 1.21875 -11.34375 Z M 2.53125 -2.234375 C 2.53125 -2.085938 2.578125 -1.972656 2.671875 -1.890625 C 2.765625 -1.796875 2.882812 -1.757812 3.03125 -1.78125 C 3.53125 -1.84375 3.96875 -1.988281 4.34375 -2.21875 C 4.726562 -2.445312 5.050781 -2.734375 5.3125 -3.078125 C 5.570312 -3.421875 5.769531 -3.820312 5.90625 -4.28125 C 6.019531 -4.71875 6.078125 -5.1875 6.078125 -5.6875 C 6.078125 -6.175781 6.019531 -6.648438 5.90625 -7.109375 C 5.769531 -7.546875 5.570312 -7.941406 5.3125 -8.296875 C 5.050781 -8.640625 4.726562 -8.925781 4.34375 -9.15625 C 3.96875 -9.375 3.53125 -9.515625 3.03125 -9.578125 C 2.882812 -9.597656 2.765625 -9.5625 2.671875 -9.46875 C 2.578125 -9.382812 2.53125 -9.273438 2.53125 -9.140625 Z M 2.53125 -2.234375 "/></g></g></g><g fill="#000000" fill-opacity="0.4"><g transform="translate(169.705432, 20.344681)"><g><path d="M 10.15625 -5.921875 C 10.226562 -5.921875 10.289062 -5.898438 10.34375 -5.859375 C 10.382812 -5.804688 10.40625 -5.75 10.40625 -5.6875 C 10.40625 -4.976562 10.320312 -4.285156 10.15625 -3.609375 C 9.976562 -2.921875 9.6875 -2.300781 9.28125 -1.75 C 8.84375 -1.164062 8.316406 -0.734375 7.703125 -0.453125 C 7.066406 -0.148438 6.363281 0 5.59375 0 C 4.019531 0 2.789062 -0.582031 1.90625 -1.75 C 1.15625 -2.769531 0.78125 -4.078125 0.78125 -5.671875 C 0.78125 -6.460938 0.875 -7.1875 1.0625 -7.84375 C 1.25 -8.507812 1.53125 -9.085938 1.90625 -9.578125 C 2.34375 -10.171875 2.875 -10.617188 3.5 -10.921875 C 4.113281 -11.203125 4.8125 -11.34375 5.59375 -11.34375 C 6.363281 -11.34375 7.066406 -11.203125 7.703125 -10.921875 C 8.316406 -10.617188 8.84375 -10.171875 9.28125 -9.578125 C 9.320312 -9.523438 9.335938 -9.472656 9.328125 -9.421875 C 9.304688 -9.347656 9.265625 -9.289062 9.203125 -9.25 L 8.078125 -8.609375 C 7.972656 -8.546875 7.875 -8.5625 7.78125 -8.65625 C 7.613281 -8.863281 7.429688 -9.03125 7.234375 -9.15625 C 7.023438 -9.28125 6.820312 -9.378906 6.625 -9.453125 C 6.425781 -9.503906 6.238281 -9.539062 6.0625 -9.5625 C 5.882812 -9.582031 5.726562 -9.59375 5.59375 -9.59375 C 5.351562 -9.59375 5.0625 -9.554688 4.71875 -9.484375 C 4.375 -9.410156 4.039062 -9.238281 3.71875 -8.96875 C 3.382812 -8.695312 3.101562 -8.300781 2.875 -7.78125 C 2.644531 -7.257812 2.53125 -6.554688 2.53125 -5.671875 C 2.53125 -4.773438 2.644531 -4.070312 2.875 -3.5625 C 3.101562 -3.039062 3.382812 -2.648438 3.71875 -2.390625 C 4.039062 -2.117188 4.375 -1.945312 4.71875 -1.875 C 5.0625 -1.789062 5.351562 -1.75 5.59375 -1.75 C 5.78125 -1.75 6 -1.769531 6.25 -1.8125 C 6.507812 -1.851562 6.78125 -1.953125 7.0625 -2.109375 C 7.332031 -2.253906 7.585938 -2.460938 7.828125 -2.734375 C 8.066406 -3.015625 8.257812 -3.390625 8.40625 -3.859375 C 8.425781 -3.941406 8.414062 -4.015625 8.375 -4.078125 C 8.332031 -4.140625 8.269531 -4.171875 8.1875 -4.171875 L 6.296875 -4.171875 C 6.171875 -4.171875 6.070312 -4.210938 6 -4.296875 C 5.90625 -4.378906 5.859375 -4.488281 5.859375 -4.625 L 5.859375 -5.46875 C 5.859375 -5.59375 5.90625 -5.703125 6 -5.796875 C 6.070312 -5.878906 6.171875 -5.921875 6.296875 -5.921875 Z M 10.15625 -5.921875 "/></g></g></g><g fill="#000000" fill-opacity="0.4"><g transform="translate(180.882105, 20.344681)"><g><path d="M 3.546875 -11.34375 C 4.441406 -11.34375 5.117188 -11.101562 5.578125 -10.625 C 6.023438 -10.132812 6.25 -9.445312 6.25 -8.5625 C 6.25 -8.457031 6.21875 -8.375 6.15625 -8.3125 C 6.082031 -8.238281 6 -8.203125 5.90625 -8.203125 L 4.859375 -8.203125 C 4.753906 -8.203125 4.671875 -8.238281 4.609375 -8.3125 C 4.535156 -8.375 4.5 -8.457031 4.5 -8.5625 L 4.5 -8.671875 C 4.5 -9.066406 4.425781 -9.347656 4.28125 -9.515625 C 4.125 -9.679688 3.894531 -9.765625 3.59375 -9.765625 C 3.289062 -9.765625 3.0625 -9.679688 2.90625 -9.515625 C 2.738281 -9.347656 2.65625 -9.066406 2.65625 -8.671875 C 2.65625 -8.460938 2.679688 -8.269531 2.734375 -8.09375 C 2.785156 -7.90625 2.875 -7.722656 3 -7.546875 C 3.125 -7.359375 3.289062 -7.160156 3.5 -6.953125 C 3.695312 -6.734375 3.945312 -6.5 4.25 -6.25 C 4.625 -5.9375 4.945312 -5.640625 5.21875 -5.359375 C 5.476562 -5.066406 5.6875 -4.785156 5.84375 -4.515625 C 5.988281 -4.242188 6.097656 -3.96875 6.171875 -3.6875 C 6.234375 -3.40625 6.265625 -3.101562 6.265625 -2.78125 C 6.265625 -1.882812 6.039062 -1.203125 5.59375 -0.734375 C 5.125 -0.242188 4.4375 0 3.53125 0 C 2.625 0 1.9375 -0.242188 1.46875 -0.734375 C 1.007812 -1.203125 0.78125 -1.882812 0.78125 -2.78125 L 0.78125 -3.125 C 0.78125 -3.21875 0.8125 -3.300781 0.875 -3.375 C 0.9375 -3.4375 1.015625 -3.46875 1.109375 -3.46875 L 2.171875 -3.46875 C 2.265625 -3.46875 2.347656 -3.4375 2.421875 -3.375 C 2.492188 -3.300781 2.53125 -3.21875 2.53125 -3.125 L 2.53125 -2.671875 C 2.53125 -2.285156 2.609375 -2.007812 2.765625 -1.84375 C 2.929688 -1.675781 3.164062 -1.59375 3.46875 -1.59375 C 3.769531 -1.59375 4.007812 -1.675781 4.1875 -1.84375 C 4.34375 -2.007812 4.421875 -2.285156 4.421875 -2.671875 C 4.421875 -2.867188 4.394531 -3.0625 4.34375 -3.25 C 4.300781 -3.4375 4.21875 -3.625 4.09375 -3.8125 C 3.96875 -4 3.804688 -4.195312 3.609375 -4.40625 C 3.398438 -4.613281 3.144531 -4.84375 2.84375 -5.09375 C 2.46875 -5.414062 2.148438 -5.71875 1.890625 -6 C 1.628906 -6.269531 1.421875 -6.546875 1.265625 -6.828125 C 1.097656 -7.109375 0.984375 -7.390625 0.921875 -7.671875 C 0.859375 -7.941406 0.828125 -8.238281 0.828125 -8.5625 C 0.828125 -9.445312 1.050781 -10.132812 1.5 -10.625 C 1.957031 -11.101562 2.640625 -11.34375 3.546875 -11.34375 Z M 3.546875 -11.34375 "/></g></g></g><g fill="#000000" fill-opacity="1"><g transform="translate(36.346296, 19.233873)"><g><path d="M 3.78125 -11.34375 C 4.488281 -11.34375 5.085938 -11.148438 5.578125 -10.765625 C 6.046875 -10.367188 6.398438 -9.878906 6.640625 -9.296875 C 6.878906 -8.691406 7 -8.050781 7 -7.375 C 7 -6.675781 6.878906 -6.035156 6.640625 -5.453125 C 6.398438 -4.847656 6.046875 -4.351562 5.578125 -3.96875 C 5.085938 -3.570312 4.488281 -3.375 3.78125 -3.375 L 2.96875 -3.375 C 2.84375 -3.375 2.738281 -3.332031 2.65625 -3.25 C 2.570312 -3.15625 2.53125 -3.046875 2.53125 -2.921875 L 2.53125 -0.453125 C 2.53125 -0.328125 2.488281 -0.222656 2.40625 -0.140625 C 2.3125 -0.046875 2.203125 0 2.078125 0 L 1.21875 0 C 1.09375 0 0.988281 -0.046875 0.90625 -0.140625 C 0.820312 -0.222656 0.78125 -0.328125 0.78125 -0.453125 L 0.78125 -10.90625 C 0.78125 -11.03125 0.820312 -11.132812 0.90625 -11.21875 C 0.988281 -11.300781 1.09375 -11.34375 1.21875 -11.34375 Z M 3.8125 -5.125 C 4.132812 -5.125 4.398438 -5.238281 4.609375 -5.46875 C 4.828125 -5.6875 4.992188 -5.957031 5.109375 -6.28125 C 5.222656 -6.613281 5.28125 -6.976562 5.28125 -7.375 C 5.28125 -7.75 5.226562 -8.101562 5.125 -8.4375 C 5.007812 -8.769531 4.84375 -9.050781 4.625 -9.28125 C 4.40625 -9.488281 4.132812 -9.59375 3.8125 -9.59375 L 2.96875 -9.59375 C 2.84375 -9.59375 2.738281 -9.550781 2.65625 -9.46875 C 2.570312 -9.382812 2.53125 -9.28125 2.53125 -9.15625 L 2.53125 -5.578125 C 2.53125 -5.453125 2.570312 -5.347656 2.65625 -5.265625 C 2.738281 -5.171875 2.84375 -5.125 2.96875 -5.125 Z M 3.8125 -5.125 "/></g></g></g><g fill="#000000" fill-opacity="1"><g transform="translate(44.132811, 19.233873)"><g><path d="M 6.34375 -10.046875 C 6.34375 -9.921875 6.300781 -9.816406 6.21875 -9.734375 C 6.125 -9.640625 6.019531 -9.59375 5.90625 -9.59375 L 2.96875 -9.59375 C 2.84375 -9.59375 2.738281 -9.550781 2.65625 -9.46875 C 2.570312 -9.382812 2.53125 -9.28125 2.53125 -9.15625 L 2.53125 -8.21875 C 2.53125 -8.09375 2.570312 -7.988281 2.65625 -7.90625 C 2.738281 -7.8125 2.84375 -7.765625 2.96875 -7.765625 L 4.90625 -7.765625 C 5.039062 -7.765625 5.15625 -7.726562 5.25 -7.65625 C 5.332031 -7.5625 5.375 -7.453125 5.375 -7.328125 L 5.375 -6.484375 C 5.375 -6.359375 5.332031 -6.25 5.25 -6.15625 C 5.15625 -6.0625 5.039062 -6.015625 4.90625 -6.015625 L 2.96875 -6.015625 C 2.84375 -6.015625 2.738281 -5.976562 2.65625 -5.90625 C 2.570312 -5.8125 2.53125 -5.703125 2.53125 -5.578125 L 2.53125 -2.203125 C 2.53125 -2.078125 2.570312 -1.972656 2.65625 -1.890625 C 2.738281 -1.796875 2.84375 -1.75 2.96875 -1.75 L 5.90625 -1.75 C 6.019531 -1.75 6.125 -1.707031 6.21875 -1.625 C 6.300781 -1.53125 6.34375 -1.421875 6.34375 -1.296875 L 6.34375 -0.453125 C 6.34375 -0.328125 6.300781 -0.222656 6.21875 -0.140625 C 6.125 -0.046875 6.019531 0 5.90625 0 L 1.21875 0 C 1.09375 0 0.988281 -0.046875 0.90625 -0.140625 C 0.820312 -0.222656 0.78125 -0.328125 0.78125 -0.453125 L 0.78125 -10.90625 C 0.78125 -11.03125 0.820312 -11.132812 0.90625 -11.21875 C 0.988281 -11.300781 1.09375 -11.34375 1.21875 -11.34375 L 5.90625 -11.34375 C 6.019531 -11.34375 6.125 -11.300781 6.21875 -11.21875 C 6.300781 -11.132812 6.34375 -11.03125 6.34375 -10.90625 Z M 6.34375 -10.046875 "/></g></g></g><g fill="#000000" fill-opacity="1"><g transform="translate(51.25368, 19.233873)"><g><path d="M 3.78125 -11.34375 C 4.351562 -11.34375 4.851562 -11.21875 5.28125 -10.96875 C 5.707031 -10.695312 6.050781 -10.347656 6.3125 -9.921875 C 6.582031 -9.503906 6.773438 -9.03125 6.890625 -8.5 C 7.003906 -7.976562 7.039062 -7.445312 7 -6.90625 C 6.945312 -6.363281 6.820312 -5.851562 6.625 -5.375 C 6.414062 -4.882812 6.140625 -4.476562 5.796875 -4.15625 C 5.640625 -4.019531 5.597656 -3.859375 5.671875 -3.671875 L 6.78125 -0.609375 C 6.832031 -0.460938 6.816406 -0.328125 6.734375 -0.203125 C 6.640625 -0.0664062 6.507812 0 6.34375 0 L 5.46875 0 C 5.25 0 5.101562 -0.0976562 5.03125 -0.296875 L 4.03125 -3.078125 C 3.957031 -3.273438 3.8125 -3.375 3.59375 -3.375 L 2.96875 -3.375 C 2.84375 -3.375 2.738281 -3.332031 2.65625 -3.25 C 2.570312 -3.15625 2.53125 -3.046875 2.53125 -2.921875 L 2.53125 -0.453125 C 2.53125 -0.328125 2.488281 -0.222656 2.40625 -0.140625 C 2.3125 -0.046875 2.203125 0 2.078125 0 L 1.21875 0 C 1.09375 0 0.988281 -0.046875 0.90625 -0.140625 C 0.820312 -0.222656 0.78125 -0.328125 0.78125 -0.453125 L 0.78125 -10.90625 C 0.78125 -11.03125 0.820312 -11.132812 0.90625 -11.21875 C 0.988281 -11.300781 1.09375 -11.34375 1.21875 -11.34375 Z M 2.53125 -5.578125 C 2.53125 -5.453125 2.570312 -5.347656 2.65625 -5.265625 C 2.738281 -5.171875 2.84375 -5.125 2.96875 -5.125 L 3.8125 -5.125 C 4.132812 -5.125 4.398438 -5.238281 4.609375 -5.46875 C 4.828125 -5.6875 4.992188 -5.957031 5.109375 -6.28125 C 5.222656 -6.613281 5.28125 -6.976562 5.28125 -7.375 C 5.28125 -7.75 5.226562 -8.101562 5.125 -8.4375 C 5.007812 -8.769531 4.84375 -9.050781 4.625 -9.28125 C 4.40625 -9.488281 4.132812 -9.59375 3.8125 -9.59375 L 2.96875 -9.59375 C 2.84375 -9.59375 2.738281 -9.550781 2.65625 -9.46875 C 2.570312 -9.382812 2.53125 -9.28125 2.53125 -9.15625 Z M 2.53125 -5.578125 "/></g></g></g><g fill="#000000" fill-opacity="1"><g transform="translate(59.040195, 19.233873)"><g><path d="M 7.078125 0 C 6.859375 0 6.710938 -0.113281 6.640625 -0.34375 C 6.609375 -0.457031 6.566406 -0.625 6.515625 -0.84375 C 6.453125 -1.039062 6.375 -1.320312 6.28125 -1.6875 C 6.207031 -1.914062 6.0625 -2.03125 5.84375 -2.03125 L 3.359375 -2.03125 C 3.128906 -2.03125 2.976562 -1.914062 2.90625 -1.6875 C 2.832031 -1.40625 2.769531 -1.148438 2.71875 -0.921875 C 2.65625 -0.703125 2.601562 -0.507812 2.5625 -0.34375 C 2.488281 -0.113281 2.34375 0 2.125 0 L 1.234375 0 C 1.085938 0 0.96875 -0.0625 0.875 -0.1875 C 0.789062 -0.300781 0.769531 -0.429688 0.8125 -0.578125 C 0.90625 -0.953125 1.03125 -1.4375 1.1875 -2.03125 C 1.34375 -2.601562 1.515625 -3.234375 1.703125 -3.921875 C 1.890625 -4.585938 2.082031 -5.285156 2.28125 -6.015625 C 2.46875 -6.722656 2.644531 -7.398438 2.8125 -8.046875 C 2.976562 -8.691406 3.132812 -9.273438 3.28125 -9.796875 C 3.414062 -10.316406 3.523438 -10.722656 3.609375 -11.015625 C 3.628906 -11.117188 3.679688 -11.195312 3.765625 -11.25 C 3.847656 -11.3125 3.941406 -11.34375 4.046875 -11.34375 L 5.15625 -11.34375 C 5.257812 -11.34375 5.351562 -11.3125 5.4375 -11.25 C 5.519531 -11.195312 5.570312 -11.117188 5.59375 -11.015625 C 5.945312 -9.648438 6.257812 -8.484375 6.53125 -7.515625 C 6.789062 -6.535156 7.007812 -5.71875 7.1875 -5.0625 C 7.363281 -4.40625 7.507812 -3.875 7.625 -3.46875 C 7.71875 -3.0625 7.800781 -2.742188 7.875 -2.515625 C 7.9375 -2.265625 7.988281 -2.078125 8.03125 -1.953125 C 8.0625 -1.816406 8.09375 -1.691406 8.125 -1.578125 C 8.15625 -1.460938 8.191406 -1.332031 8.234375 -1.1875 C 8.265625 -1.039062 8.316406 -0.835938 8.390625 -0.578125 C 8.429688 -0.429688 8.40625 -0.300781 8.3125 -0.1875 C 8.21875 -0.0625 8.097656 0 7.953125 0 Z M 3.625 -4.34375 C 3.582031 -4.207031 3.609375 -4.082031 3.703125 -3.96875 C 3.796875 -3.84375 3.914062 -3.78125 4.0625 -3.78125 L 5.140625 -3.78125 C 5.285156 -3.78125 5.40625 -3.84375 5.5 -3.96875 C 5.59375 -4.082031 5.617188 -4.207031 5.578125 -4.34375 C 5.492188 -4.632812 5.410156 -4.945312 5.328125 -5.28125 C 5.234375 -5.613281 5.132812 -5.960938 5.03125 -6.328125 C 5 -6.441406 4.941406 -6.53125 4.859375 -6.59375 C 4.773438 -6.644531 4.6875 -6.671875 4.59375 -6.671875 C 4.5 -6.671875 4.410156 -6.644531 4.328125 -6.59375 C 4.253906 -6.53125 4.203125 -6.441406 4.171875 -6.328125 C 4.078125 -6.003906 3.988281 -5.675781 3.90625 -5.34375 C 3.8125 -5.007812 3.71875 -4.675781 3.625 -4.34375 Z M 3.625 -4.34375 "/></g></g></g><g fill="#000000" fill-opacity="1"><g transform="translate(68.235409, 19.233873)"><g><path d="M 7.546875 -11.34375 C 7.671875 -11.34375 7.773438 -11.300781 7.859375 -11.21875 C 7.941406 -11.132812 7.984375 -11.03125 7.984375 -10.90625 L 7.984375 -0.453125 C 7.984375 -0.328125 7.941406 -0.222656 7.859375 -0.140625 C 7.773438 -0.046875 7.671875 0 7.546875 0 L 6.34375 0 C 6.15625 0 6.023438 -0.0859375 5.953125 -0.265625 L 2.84375 -6.890625 C 2.8125 -6.972656 2.75 -7.003906 2.65625 -6.984375 C 2.570312 -6.960938 2.53125 -6.90625 2.53125 -6.8125 L 2.53125 -0.453125 C 2.53125 -0.328125 2.488281 -0.222656 2.40625 -0.140625 C 2.3125 -0.046875 2.195312 0 2.0625 0 L 1.21875 0 C 1.09375 0 0.988281 -0.046875 0.90625 -0.140625 C 0.820312 -0.222656 0.78125 -0.328125 0.78125 -0.453125 L 0.78125 -10.90625 C 0.78125 -11.03125 0.820312 -11.132812 0.90625 -11.21875 C 0.988281 -11.300781 1.09375 -11.34375 1.21875 -11.34375 L 2.421875 -11.34375 C 2.609375 -11.34375 2.738281 -11.257812 2.8125 -11.09375 L 5.921875 -4.453125 C 5.953125 -4.367188 6.015625 -4.335938 6.109375 -4.359375 C 6.191406 -4.378906 6.234375 -4.4375 6.234375 -4.53125 L 6.234375 -10.90625 C 6.234375 -11.03125 6.28125 -11.132812 6.375 -11.21875 C 6.46875 -11.300781 6.578125 -11.34375 6.703125 -11.34375 Z M 7.546875 -11.34375 "/></g></g></g><g fill="#000000" fill-opacity="1"><g transform="translate(76.997171, 19.233873)"><g/></g></g><g fill="#000000" fill-opacity="1"><g transform="translate(81.641221, 19.233873)"><g><path d="M 5.40625 -4.9375 C 5.40625 -5.007812 5.429688 -5.066406 5.484375 -5.109375 C 5.523438 -5.148438 5.578125 -5.171875 5.640625 -5.171875 L 7.515625 -5.171875 C 7.660156 -5.171875 7.734375 -5.09375 7.734375 -4.9375 L 7.734375 -3.421875 C 7.734375 -3.117188 7.703125 -2.835938 7.640625 -2.578125 C 7.484375 -2.003906 7.195312 -1.5 6.78125 -1.0625 C 6.363281 -0.632812 5.867188 -0.332031 5.296875 -0.15625 C 5.191406 -0.125 5.140625 -0.0507812 5.140625 0.0625 L 5.140625 0.796875 C 5.140625 0.847656 5.117188 0.894531 5.078125 0.9375 C 5.023438 0.988281 4.96875 1.015625 4.90625 1.015625 L 3.625 1.015625 C 3.550781 1.015625 3.492188 0.988281 3.453125 0.9375 C 3.410156 0.894531 3.390625 0.847656 3.390625 0.796875 L 3.390625 0.0625 C 3.390625 -0.0390625 3.332031 -0.113281 3.21875 -0.15625 C 2.851562 -0.269531 2.523438 -0.4375 2.234375 -0.65625 C 1.929688 -0.851562 1.671875 -1.101562 1.453125 -1.40625 C 1.234375 -1.695312 1.066406 -2.019531 0.953125 -2.375 C 0.835938 -2.71875 0.78125 -3.085938 0.78125 -3.484375 C 0.78125 -3.984375 0.875 -4.445312 1.0625 -4.875 C 1.257812 -5.3125 1.53125 -5.691406 1.875 -6.015625 C 1.96875 -6.117188 1.972656 -6.222656 1.890625 -6.328125 C 1.671875 -6.597656 1.5 -6.898438 1.375 -7.234375 C 1.25 -7.566406 1.1875 -7.914062 1.1875 -8.28125 C 1.1875 -8.957031 1.378906 -9.554688 1.765625 -10.078125 C 2.148438 -10.597656 2.640625 -10.96875 3.234375 -11.1875 C 3.335938 -11.207031 3.390625 -11.273438 3.390625 -11.390625 L 3.390625 -12.140625 C 3.390625 -12.203125 3.410156 -12.257812 3.453125 -12.3125 C 3.492188 -12.351562 3.550781 -12.375 3.625 -12.375 L 4.90625 -12.375 C 4.96875 -12.375 5.023438 -12.351562 5.078125 -12.3125 C 5.117188 -12.257812 5.140625 -12.203125 5.140625 -12.140625 L 5.140625 -11.390625 C 5.140625 -11.273438 5.191406 -11.207031 5.296875 -11.1875 C 5.816406 -11 6.265625 -10.6875 6.640625 -10.25 C 7.003906 -9.800781 7.226562 -9.289062 7.3125 -8.71875 C 7.332031 -8.582031 7.28125 -8.5 7.15625 -8.46875 L 5.90625 -8.046875 C 5.820312 -8.023438 5.75 -8.039062 5.6875 -8.09375 C 5.625 -8.132812 5.59375 -8.195312 5.59375 -8.28125 C 5.59375 -8.46875 5.5625 -8.644531 5.5 -8.8125 C 5.425781 -8.96875 5.332031 -9.109375 5.21875 -9.234375 C 5.09375 -9.347656 4.953125 -9.4375 4.796875 -9.5 C 4.628906 -9.570312 4.457031 -9.609375 4.28125 -9.609375 C 4.09375 -9.609375 3.921875 -9.570312 3.765625 -9.5 C 3.597656 -9.4375 3.453125 -9.347656 3.328125 -9.234375 C 3.203125 -9.109375 3.109375 -8.96875 3.046875 -8.8125 C 2.972656 -8.644531 2.9375 -8.46875 2.9375 -8.28125 C 2.9375 -7.9375 3.0625 -7.632812 3.3125 -7.375 C 3.550781 -7.101562 3.867188 -6.96875 4.265625 -6.96875 L 4.296875 -6.96875 C 4.359375 -6.96875 4.414062 -6.945312 4.46875 -6.90625 C 4.507812 -6.851562 4.53125 -6.796875 4.53125 -6.734375 L 4.53125 -5.4375 C 4.53125 -5.375 4.507812 -5.320312 4.46875 -5.28125 C 4.414062 -5.226562 4.359375 -5.203125 4.296875 -5.203125 L 4.265625 -5.203125 C 4.003906 -5.203125 3.769531 -5.15625 3.5625 -5.0625 C 3.34375 -4.96875 3.15625 -4.84375 3 -4.6875 C 2.84375 -4.519531 2.722656 -4.335938 2.640625 -4.140625 C 2.566406 -3.929688 2.53125 -3.710938 2.53125 -3.484375 C 2.53125 -3.242188 2.570312 -3.019531 2.65625 -2.8125 C 2.75 -2.601562 2.875 -2.421875 3.03125 -2.265625 C 3.1875 -2.109375 3.375 -1.984375 3.59375 -1.890625 C 3.800781 -1.796875 4.023438 -1.75 4.265625 -1.75 C 4.691406 -1.75 5.0625 -1.890625 5.375 -2.171875 C 5.6875 -2.441406 5.882812 -2.769531 5.96875 -3.15625 C 5.988281 -3.226562 5.976562 -3.289062 5.9375 -3.34375 C 5.882812 -3.394531 5.816406 -3.421875 5.734375 -3.421875 L 5.640625 -3.421875 C 5.578125 -3.421875 5.523438 -3.445312 5.484375 -3.5 C 5.429688 -3.539062 5.40625 -3.597656 5.40625 -3.671875 Z M 5.40625 -4.9375 "/></g></g></g><g fill="#000000" fill-opacity="1"><g transform="translate(90.155304, 19.233873)"><g/></g></g><g fill="#000000" fill-opacity="1"><g transform="translate(94.799353, 19.233873)"><g><path d="M 2.53125 -11.34375 C 3.363281 -11.34375 4.113281 -11.195312 4.78125 -10.90625 C 5.457031 -10.601562 6.03125 -10.195312 6.5 -9.6875 C 6.96875 -9.175781 7.332031 -8.578125 7.59375 -7.890625 C 7.832031 -7.203125 7.953125 -6.46875 7.953125 -5.6875 C 7.953125 -4.894531 7.832031 -4.160156 7.59375 -3.484375 C 7.332031 -2.796875 6.96875 -2.191406 6.5 -1.671875 C 6.03125 -1.148438 5.457031 -0.742188 4.78125 -0.453125 C 4.113281 -0.148438 3.363281 0 2.53125 0 L 1.21875 0 C 1.09375 0 0.988281 -0.046875 0.90625 -0.140625 C 0.820312 -0.222656 0.78125 -0.328125 0.78125 -0.453125 L 0.78125 -10.90625 C 0.78125 -11.03125 0.820312 -11.132812 0.90625 -11.21875 C 0.988281 -11.300781 1.09375 -11.34375 1.21875 -11.34375 Z M 2.53125 -2.234375 C 2.53125 -2.085938 2.578125 -1.972656 2.671875 -1.890625 C 2.765625 -1.796875 2.882812 -1.757812 3.03125 -1.78125 C 3.53125 -1.84375 3.96875 -1.988281 4.34375 -2.21875 C 4.726562 -2.445312 5.050781 -2.734375 5.3125 -3.078125 C 5.570312 -3.421875 5.769531 -3.820312 5.90625 -4.28125 C 6.019531 -4.71875 6.078125 -5.1875 6.078125 -5.6875 C 6.078125 -6.175781 6.019531 -6.648438 5.90625 -7.109375 C 5.769531 -7.546875 5.570312 -7.941406 5.3125 -8.296875 C 5.050781 -8.640625 4.726562 -8.925781 4.34375 -9.15625 C 3.96875 -9.375 3.53125 -9.515625 3.03125 -9.578125 C 2.882812 -9.597656 2.765625 -9.5625 2.671875 -9.46875 C 2.578125 -9.382812 2.53125 -9.273438 2.53125 -9.140625 Z M 2.53125 -2.234375 "/></g></g></g><g fill="#000000" fill-opacity="1"><g transform="translate(103.530161, 19.233873)"><g><path d="M 7.078125 0 C 6.859375 0 6.710938 -0.113281 6.640625 -0.34375 C 6.609375 -0.457031 6.566406 -0.625 6.515625 -0.84375 C 6.453125 -1.039062 6.375 -1.320312 6.28125 -1.6875 C 6.207031 -1.914062 6.0625 -2.03125 5.84375 -2.03125 L 3.359375 -2.03125 C 3.128906 -2.03125 2.976562 -1.914062 2.90625 -1.6875 C 2.832031 -1.40625 2.769531 -1.148438 2.71875 -0.921875 C 2.65625 -0.703125 2.601562 -0.507812 2.5625 -0.34375 C 2.488281 -0.113281 2.34375 0 2.125 0 L 1.234375 0 C 1.085938 0 0.96875 -0.0625 0.875 -0.1875 C 0.789062 -0.300781 0.769531 -0.429688 0.8125 -0.578125 C 0.90625 -0.953125 1.03125 -1.4375 1.1875 -2.03125 C 1.34375 -2.601562 1.515625 -3.234375 1.703125 -3.921875 C 1.890625 -4.585938 2.082031 -5.285156 2.28125 -6.015625 C 2.46875 -6.722656 2.644531 -7.398438 2.8125 -8.046875 C 2.976562 -8.691406 3.132812 -9.273438 3.28125 -9.796875 C 3.414062 -10.316406 3.523438 -10.722656 3.609375 -11.015625 C 3.628906 -11.117188 3.679688 -11.195312 3.765625 -11.25 C 3.847656 -11.3125 3.941406 -11.34375 4.046875 -11.34375 L 5.15625 -11.34375 C 5.257812 -11.34375 5.351562 -11.3125 5.4375 -11.25 C 5.519531 -11.195312 5.570312 -11.117188 5.59375 -11.015625 C 5.945312 -9.648438 6.257812 -8.484375 6.53125 -7.515625 C 6.789062 -6.535156 7.007812 -5.71875 7.1875 -5.0625 C 7.363281 -4.40625 7.507812 -3.875 7.625 -3.46875 C 7.71875 -3.0625 7.800781 -2.742188 7.875 -2.515625 C 7.9375 -2.265625 7.988281 -2.078125 8.03125 -1.953125 C 8.0625 -1.816406 8.09375 -1.691406 8.125 -1.578125 C 8.15625 -1.460938 8.191406 -1.332031 8.234375 -1.1875 C 8.265625 -1.039062 8.316406 -0.835938 8.390625 -0.578125 C 8.429688 -0.429688 8.40625 -0.300781 8.3125 -0.1875 C 8.21875 -0.0625 8.097656 0 7.953125 0 Z M 3.625 -4.34375 C 3.582031 -4.207031 3.609375 -4.082031 3.703125 -3.96875 C 3.796875 -3.84375 3.914062 -3.78125 4.0625 -3.78125 L 5.140625 -3.78125 C 5.285156 -3.78125 5.40625 -3.84375 5.5 -3.96875 C 5.59375 -4.082031 5.617188 -4.207031 5.578125 -4.34375 C 5.492188 -4.632812 5.410156 -4.945312 5.328125 -5.28125 C 5.234375 -5.613281 5.132812 -5.960938 5.03125 -6.328125 C 5 -6.441406 4.941406 -6.53125 4.859375 -6.59375 C 4.773438 -6.644531 4.6875 -6.671875 4.59375 -6.671875 C 4.5 -6.671875 4.410156 -6.644531 4.328125 -6.59375 C 4.253906 -6.53125 4.203125 -6.441406 4.171875 -6.328125 C 4.078125 -6.003906 3.988281 -5.675781 3.90625 -5.34375 C 3.8125 -5.007812 3.71875 -4.675781 3.625 -4.34375 Z M 3.625 -4.34375 "/></g></g></g><g fill="#000000" fill-opacity="1"><g transform="translate(112.725375, 19.233873)"><g><path d="M 10.4375 -11.34375 C 10.5625 -11.34375 10.671875 -11.300781 10.765625 -11.21875 C 10.859375 -11.132812 10.90625 -11.023438 10.90625 -10.890625 L 10.90625 -0.46875 C 10.90625 -0.332031 10.859375 -0.222656 10.765625 -0.140625 C 10.671875 -0.046875 10.5625 0 10.4375 0 L 9.59375 0 C 9.476562 0 9.378906 -0.046875 9.296875 -0.140625 C 9.203125 -0.222656 9.15625 -0.332031 9.15625 -0.46875 L 9.15625 -5.46875 C 9.15625 -5.570312 9.101562 -5.632812 9 -5.65625 C 8.882812 -5.675781 8.8125 -5.632812 8.78125 -5.53125 L 6.875 -0.3125 C 6.84375 -0.21875 6.785156 -0.144531 6.703125 -0.09375 C 6.617188 -0.03125 6.53125 0 6.4375 0 L 5.234375 0 C 5.015625 0 4.867188 -0.101562 4.796875 -0.3125 L 2.890625 -5.53125 C 2.859375 -5.632812 2.785156 -5.675781 2.671875 -5.65625 C 2.578125 -5.632812 2.53125 -5.570312 2.53125 -5.46875 L 2.53125 -0.46875 C 2.53125 -0.332031 2.484375 -0.222656 2.390625 -0.140625 C 2.296875 -0.046875 2.1875 0 2.0625 0 L 1.234375 0 C 1.097656 0 0.988281 -0.046875 0.90625 -0.140625 C 0.820312 -0.222656 0.78125 -0.332031 0.78125 -0.46875 L 0.78125 -10.890625 C 0.78125 -11.023438 0.820312 -11.132812 0.90625 -11.21875 C 0.988281 -11.300781 1.097656 -11.34375 1.234375 -11.34375 L 2.3125 -11.34375 C 2.519531 -11.34375 2.660156 -11.242188 2.734375 -11.046875 L 5.65625 -3.046875 C 5.6875 -2.960938 5.75 -2.921875 5.84375 -2.921875 C 5.9375 -2.921875 5.992188 -2.960938 6.015625 -3.046875 L 8.921875 -11.046875 C 9.003906 -11.242188 9.148438 -11.34375 9.359375 -11.34375 Z M 10.4375 -11.34375 "/></g></g></g><g fill="#000000" fill-opacity="1"><g transform="translate(124.397407, 19.233873)"><g><path d="M 3.78125 -11.34375 C 4.488281 -11.34375 5.085938 -11.148438 5.578125 -10.765625 C 6.046875 -10.367188 6.398438 -9.878906 6.640625 -9.296875 C 6.878906 -8.691406 7 -8.050781 7 -7.375 C 7 -6.675781 6.878906 -6.035156 6.640625 -5.453125 C 6.398438 -4.847656 6.046875 -4.351562 5.578125 -3.96875 C 5.085938 -3.570312 4.488281 -3.375 3.78125 -3.375 L 2.96875 -3.375 C 2.84375 -3.375 2.738281 -3.332031 2.65625 -3.25 C 2.570312 -3.15625 2.53125 -3.046875 2.53125 -2.921875 L 2.53125 -0.453125 C 2.53125 -0.328125 2.488281 -0.222656 2.40625 -0.140625 C 2.3125 -0.046875 2.203125 0 2.078125 0 L 1.21875 0 C 1.09375 0 0.988281 -0.046875 0.90625 -0.140625 C 0.820312 -0.222656 0.78125 -0.328125 0.78125 -0.453125 L 0.78125 -10.90625 C 0.78125 -11.03125 0.820312 -11.132812 0.90625 -11.21875 C 0.988281 -11.300781 1.09375 -11.34375 1.21875 -11.34375 Z M 3.8125 -5.125 C 4.132812 -5.125 4.398438 -5.238281 4.609375 -5.46875 C 4.828125 -5.6875 4.992188 -5.957031 5.109375 -6.28125 C 5.222656 -6.613281 5.28125 -6.976562 5.28125 -7.375 C 5.28125 -7.75 5.226562 -8.101562 5.125 -8.4375 C 5.007812 -8.769531 4.84375 -9.050781 4.625 -9.28125 C 4.40625 -9.488281 4.132812 -9.59375 3.8125 -9.59375 L 2.96875 -9.59375 C 2.84375 -9.59375 2.738281 -9.550781 2.65625 -9.46875 C 2.570312 -9.382812 2.53125 -9.28125 2.53125 -9.15625 L 2.53125 -5.578125 C 2.53125 -5.453125 2.570312 -5.347656 2.65625 -5.265625 C 2.738281 -5.171875 2.84375 -5.125 2.96875 -5.125 Z M 3.8125 -5.125 "/></g></g></g><g fill="#000000" fill-opacity="1"><g transform="translate(132.183923, 19.233873)"><g><path d="M 7.078125 0 C 6.859375 0 6.710938 -0.113281 6.640625 -0.34375 C 6.609375 -0.457031 6.566406 -0.625 6.515625 -0.84375 C 6.453125 -1.039062 6.375 -1.320312 6.28125 -1.6875 C 6.207031 -1.914062 6.0625 -2.03125 5.84375 -2.03125 L 3.359375 -2.03125 C 3.128906 -2.03125 2.976562 -1.914062 2.90625 -1.6875 C 2.832031 -1.40625 2.769531 -1.148438 2.71875 -0.921875 C 2.65625 -0.703125 2.601562 -0.507812 2.5625 -0.34375 C 2.488281 -0.113281 2.34375 0 2.125 0 L 1.234375 0 C 1.085938 0 0.96875 -0.0625 0.875 -0.1875 C 0.789062 -0.300781 0.769531 -0.429688 0.8125 -0.578125 C 0.90625 -0.953125 1.03125 -1.4375 1.1875 -2.03125 C 1.34375 -2.601562 1.515625 -3.234375 1.703125 -3.921875 C 1.890625 -4.585938 2.082031 -5.285156 2.28125 -6.015625 C 2.46875 -6.722656 2.644531 -7.398438 2.8125 -8.046875 C 2.976562 -8.691406 3.132812 -9.273438 3.28125 -9.796875 C 3.414062 -10.316406 3.523438 -10.722656 3.609375 -11.015625 C 3.628906 -11.117188 3.679688 -11.195312 3.765625 -11.25 C 3.847656 -11.3125 3.941406 -11.34375 4.046875 -11.34375 L 5.15625 -11.34375 C 5.257812 -11.34375 5.351562 -11.3125 5.4375 -11.25 C 5.519531 -11.195312 5.570312 -11.117188 5.59375 -11.015625 C 5.945312 -9.648438 6.257812 -8.484375 6.53125 -7.515625 C 6.789062 -6.535156 7.007812 -5.71875 7.1875 -5.0625 C 7.363281 -4.40625 7.507812 -3.875 7.625 -3.46875 C 7.71875 -3.0625 7.800781 -2.742188 7.875 -2.515625 C 7.9375 -2.265625 7.988281 -2.078125 8.03125 -1.953125 C 8.0625 -1.816406 8.09375 -1.691406 8.125 -1.578125 C 8.15625 -1.460938 8.191406 -1.332031 8.234375 -1.1875 C 8.265625 -1.039062 8.316406 -0.835938 8.390625 -0.578125 C 8.429688 -0.429688 8.40625 -0.300781 8.3125 -0.1875 C 8.21875 -0.0625 8.097656 0 7.953125 0 Z M 3.625 -4.34375 C 3.582031 -4.207031 3.609375 -4.082031 3.703125 -3.96875 C 3.796875 -3.84375 3.914062 -3.78125 4.0625 -3.78125 L 5.140625 -3.78125 C 5.285156 -3.78125 5.40625 -3.84375 5.5 -3.96875 C 5.59375 -4.082031 5.617188 -4.207031 5.578125 -4.34375 C 5.492188 -4.632812 5.410156 -4.945312 5.328125 -5.28125 C 5.234375 -5.613281 5.132812 -5.960938 5.03125 -6.328125 C 5 -6.441406 4.941406 -6.53125 4.859375 -6.59375 C 4.773438 -6.644531 4.6875 -6.671875 4.59375 -6.671875 C 4.5 -6.671875 4.410156 -6.644531 4.328125 -6.59375 C 4.253906 -6.53125 4.203125 -6.441406 4.171875 -6.328125 C 4.078125 -6.003906 3.988281 -5.675781 3.90625 -5.34375 C 3.8125 -5.007812 3.71875 -4.675781 3.625 -4.34375 Z M 3.625 -4.34375 "/></g></g></g><g fill="#000000" fill-opacity="1"><g transform="translate(141.379136, 19.233873)"><g><path d="M 4.1875 -5.953125 C 4.132812 -5.867188 4.109375 -5.78125 4.109375 -5.6875 C 4.109375 -5.582031 4.132812 -5.488281 4.1875 -5.40625 L 7.625 -0.734375 C 7.726562 -0.585938 7.742188 -0.425781 7.671875 -0.25 C 7.585938 -0.0820312 7.453125 0 7.265625 0 L 6.21875 0 C 6.070312 0 5.953125 -0.0625 5.859375 -0.1875 L 3 -4.0625 C 2.957031 -4.101562 2.921875 -4.125 2.890625 -4.125 C 2.847656 -4.125 2.816406 -4.101562 2.796875 -4.0625 L 2.546875 -3.71875 C 2.535156 -3.707031 2.53125 -3.679688 2.53125 -3.640625 L 2.53125 -0.46875 C 2.53125 -0.332031 2.488281 -0.222656 2.40625 -0.140625 C 2.3125 -0.046875 2.195312 0 2.0625 0 L 1.234375 0 C 1.097656 0 0.988281 -0.046875 0.90625 -0.140625 C 0.820312 -0.222656 0.78125 -0.332031 0.78125 -0.46875 L 0.78125 -10.890625 C 0.78125 -11.023438 0.820312 -11.132812 0.90625 -11.21875 C 0.988281 -11.300781 1.097656 -11.34375 1.234375 -11.34375 L 2.0625 -11.34375 C 2.195312 -11.34375 2.3125 -11.300781 2.40625 -11.21875 C 2.488281 -11.132812 2.53125 -11.023438 2.53125 -10.890625 L 2.53125 -7.03125 C 2.53125 -6.957031 2.554688 -6.914062 2.609375 -6.90625 C 2.671875 -6.882812 2.71875 -6.898438 2.75 -6.953125 L 5.859375 -11.171875 C 5.960938 -11.285156 6.082031 -11.34375 6.21875 -11.34375 L 7.265625 -11.34375 C 7.453125 -11.34375 7.585938 -11.265625 7.671875 -11.109375 C 7.742188 -10.929688 7.726562 -10.769531 7.625 -10.625 Z M 4.1875 -5.953125 "/></g></g></g><g fill="#000000" fill-opacity="1"><g transform="translate(149.877736, 19.233873)"><g/></g></g><g fill="#000000" fill-opacity="1"><g transform="translate(154.521785, 19.233873)"><g><path d="M 3.546875 -11.34375 C 4.441406 -11.34375 5.117188 -11.101562 5.578125 -10.625 C 6.023438 -10.132812 6.25 -9.445312 6.25 -8.5625 C 6.25 -8.457031 6.21875 -8.375 6.15625 -8.3125 C 6.082031 -8.238281 6 -8.203125 5.90625 -8.203125 L 4.859375 -8.203125 C 4.753906 -8.203125 4.671875 -8.238281 4.609375 -8.3125 C 4.535156 -8.375 4.5 -8.457031 4.5 -8.5625 L 4.5 -8.671875 C 4.5 -9.066406 4.425781 -9.347656 4.28125 -9.515625 C 4.125 -9.679688 3.894531 -9.765625 3.59375 -9.765625 C 3.289062 -9.765625 3.0625 -9.679688 2.90625 -9.515625 C 2.738281 -9.347656 2.65625 -9.066406 2.65625 -8.671875 C 2.65625 -8.460938 2.679688 -8.269531 2.734375 -8.09375 C 2.785156 -7.90625 2.875 -7.722656 3 -7.546875 C 3.125 -7.359375 3.289062 -7.160156 3.5 -6.953125 C 3.695312 -6.734375 3.945312 -6.5 4.25 -6.25 C 4.625 -5.9375 4.945312 -5.640625 5.21875 -5.359375 C 5.476562 -5.066406 5.6875 -4.785156 5.84375 -4.515625 C 5.988281 -4.242188 6.097656 -3.96875 6.171875 -3.6875 C 6.234375 -3.40625 6.265625 -3.101562 6.265625 -2.78125 C 6.265625 -1.882812 6.039062 -1.203125 5.59375 -0.734375 C 5.125 -0.242188 4.4375 0 3.53125 0 C 2.625 0 1.9375 -0.242188 1.46875 -0.734375 C 1.007812 -1.203125 0.78125 -1.882812 0.78125 -2.78125 L 0.78125 -3.125 C 0.78125 -3.21875 0.8125 -3.300781 0.875 -3.375 C 0.9375 -3.4375 1.015625 -3.46875 1.109375 -3.46875 L 2.171875 -3.46875 C 2.265625 -3.46875 2.347656 -3.4375 2.421875 -3.375 C 2.492188 -3.300781 2.53125 -3.21875 2.53125 -3.125 L 2.53125 -2.671875 C 2.53125 -2.285156 2.609375 -2.007812 2.765625 -1.84375 C 2.929688 -1.675781 3.164062 -1.59375 3.46875 -1.59375 C 3.769531 -1.59375 4.007812 -1.675781 4.1875 -1.84375 C 4.34375 -2.007812 4.421875 -2.285156 4.421875 -2.671875 C 4.421875 -2.867188 4.394531 -3.0625 4.34375 -3.25 C 4.300781 -3.4375 4.21875 -3.625 4.09375 -3.8125 C 3.96875 -4 3.804688 -4.195312 3.609375 -4.40625 C 3.398438 -4.613281 3.144531 -4.84375 2.84375 -5.09375 C 2.46875 -5.414062 2.148438 -5.71875 1.890625 -6 C 1.628906 -6.269531 1.421875 -6.546875 1.265625 -6.828125 C 1.097656 -7.109375 0.984375 -7.390625 0.921875 -7.671875 C 0.859375 -7.941406 0.828125 -8.238281 0.828125 -8.5625 C 0.828125 -9.445312 1.050781 -10.132812 1.5 -10.625 C 1.957031 -11.101562 2.640625 -11.34375 3.546875 -11.34375 Z M 3.546875 -11.34375 "/></g></g></g><g fill="#000000" fill-opacity="1"><g transform="translate(161.565251, 19.233873)"><g><path d="M 2.53125 -11.34375 C 3.363281 -11.34375 4.113281 -11.195312 4.78125 -10.90625 C 5.457031 -10.601562 6.03125 -10.195312 6.5 -9.6875 C 6.96875 -9.175781 7.332031 -8.578125 7.59375 -7.890625 C 7.832031 -7.203125 7.953125 -6.46875 7.953125 -5.6875 C 7.953125 -4.894531 7.832031 -4.160156 7.59375 -3.484375 C 7.332031 -2.796875 6.96875 -2.191406 6.5 -1.671875 C 6.03125 -1.148438 5.457031 -0.742188 4.78125 -0.453125 C 4.113281 -0.148438 3.363281 0 2.53125 0 L 1.21875 0 C 1.09375 0 0.988281 -0.046875 0.90625 -0.140625 C 0.820312 -0.222656 0.78125 -0.328125 0.78125 -0.453125 L 0.78125 -10.90625 C 0.78125 -11.03125 0.820312 -11.132812 0.90625 -11.21875 C 0.988281 -11.300781 1.09375 -11.34375 1.21875 -11.34375 Z M 2.53125 -2.234375 C 2.53125 -2.085938 2.578125 -1.972656 2.671875 -1.890625 C 2.765625 -1.796875 2.882812 -1.757812 3.03125 -1.78125 C 3.53125 -1.84375 3.96875 -1.988281 4.34375 -2.21875 C 4.726562 -2.445312 5.050781 -2.734375 5.3125 -3.078125 C 5.570312 -3.421875 5.769531 -3.820312 5.90625 -4.28125 C 6.019531 -4.71875 6.078125 -5.1875 6.078125 -5.6875 C 6.078125 -6.175781 6.019531 -6.648438 5.90625 -7.109375 C 5.769531 -7.546875 5.570312 -7.941406 5.3125 -8.296875 C 5.050781 -8.640625 4.726562 -8.925781 4.34375 -9.15625 C 3.96875 -9.375 3.53125 -9.515625 3.03125 -9.578125 C 2.882812 -9.597656 2.765625 -9.5625 2.671875 -9.46875 C 2.578125 -9.382812 2.53125 -9.273438 2.53125 -9.140625 Z M 2.53125 -2.234375 "/></g></g></g><g fill="#000000" fill-opacity="1"><g transform="translate(170.296059, 19.233873)"><g><path d="M 10.15625 -5.921875 C 10.226562 -5.921875 10.289062 -5.898438 10.34375 -5.859375 C 10.382812 -5.804688 10.40625 -5.75 10.40625 -5.6875 C 10.40625 -4.976562 10.320312 -4.285156 10.15625 -3.609375 C 9.976562 -2.921875 9.6875 -2.300781 9.28125 -1.75 C 8.84375 -1.164062 8.316406 -0.734375 7.703125 -0.453125 C 7.066406 -0.148438 6.363281 0 5.59375 0 C 4.019531 0 2.789062 -0.582031 1.90625 -1.75 C 1.15625 -2.769531 0.78125 -4.078125 0.78125 -5.671875 C 0.78125 -6.460938 0.875 -7.1875 1.0625 -7.84375 C 1.25 -8.507812 1.53125 -9.085938 1.90625 -9.578125 C 2.34375 -10.171875 2.875 -10.617188 3.5 -10.921875 C 4.113281 -11.203125 4.8125 -11.34375 5.59375 -11.34375 C 6.363281 -11.34375 7.066406 -11.203125 7.703125 -10.921875 C 8.316406 -10.617188 8.84375 -10.171875 9.28125 -9.578125 C 9.320312 -9.523438 9.335938 -9.472656 9.328125 -9.421875 C 9.304688 -9.347656 9.265625 -9.289062 9.203125 -9.25 L 8.078125 -8.609375 C 7.972656 -8.546875 7.875 -8.5625 7.78125 -8.65625 C 7.613281 -8.863281 7.429688 -9.03125 7.234375 -9.15625 C 7.023438 -9.28125 6.820312 -9.378906 6.625 -9.453125 C 6.425781 -9.503906 6.238281 -9.539062 6.0625 -9.5625 C 5.882812 -9.582031 5.726562 -9.59375 5.59375 -9.59375 C 5.351562 -9.59375 5.0625 -9.554688 4.71875 -9.484375 C 4.375 -9.410156 4.039062 -9.238281 3.71875 -8.96875 C 3.382812 -8.695312 3.101562 -8.300781 2.875 -7.78125 C 2.644531 -7.257812 2.53125 -6.554688 2.53125 -5.671875 C 2.53125 -4.773438 2.644531 -4.070312 2.875 -3.5625 C 3.101562 -3.039062 3.382812 -2.648438 3.71875 -2.390625 C 4.039062 -2.117188 4.375 -1.945312 4.71875 -1.875 C 5.0625 -1.789062 5.351562 -1.75 5.59375 -1.75 C 5.78125 -1.75 6 -1.769531 6.25 -1.8125 C 6.507812 -1.851562 6.78125 -1.953125 7.0625 -2.109375 C 7.332031 -2.253906 7.585938 -2.460938 7.828125 -2.734375 C 8.066406 -3.015625 8.257812 -3.390625 8.40625 -3.859375 C 8.425781 -3.941406 8.414062 -4.015625 8.375 -4.078125 C 8.332031 -4.140625 8.269531 -4.171875 8.1875 -4.171875 L 6.296875 -4.171875 C 6.171875 -4.171875 6.070312 -4.210938 6 -4.296875 C 5.90625 -4.378906 5.859375 -4.488281 5.859375 -4.625 L 5.859375 -5.46875 C 5.859375 -5.59375 5.90625 -5.703125 6 -5.796875 C 6.070312 -5.878906 6.171875 -5.921875 6.296875 -5.921875 Z M 10.15625 -5.921875 "/></g></g></g><g fill="#000000" fill-opacity="1"><g transform="translate(181.472732, 19.233873)"><g><path d="M 3.546875 -11.34375 C 4.441406 -11.34375 5.117188 -11.101562 5.578125 -10.625 C 6.023438 -10.132812 6.25 -9.445312 6.25 -8.5625 C 6.25 -8.457031 6.21875 -8.375 6.15625 -8.3125 C 6.082031 -8.238281 6 -8.203125 5.90625 -8.203125 L 4.859375 -8.203125 C 4.753906 -8.203125 4.671875 -8.238281 4.609375 -8.3125 C 4.535156 -8.375 4.5 -8.457031 4.5 -8.5625 L 4.5 -8.671875 C 4.5 -9.066406 4.425781 -9.347656 4.28125 -9.515625 C 4.125 -9.679688 3.894531 -9.765625 3.59375 -9.765625 C 3.289062 -9.765625 3.0625 -9.679688 2.90625 -9.515625 C 2.738281 -9.347656 2.65625 -9.066406 2.65625 -8.671875 C 2.65625 -8.460938 2.679688 -8.269531 2.734375 -8.09375 C 2.785156 -7.90625 2.875 -7.722656 3 -7.546875 C 3.125 -7.359375 3.289062 -7.160156 3.5 -6.953125 C 3.695312 -6.734375 3.945312 -6.5 4.25 -6.25 C 4.625 -5.9375 4.945312 -5.640625 5.21875 -5.359375 C 5.476562 -5.066406 5.6875 -4.785156 5.84375 -4.515625 C 5.988281 -4.242188 6.097656 -3.96875 6.171875 -3.6875 C 6.234375 -3.40625 6.265625 -3.101562 6.265625 -2.78125 C 6.265625 -1.882812 6.039062 -1.203125 5.59375 -0.734375 C 5.125 -0.242188 4.4375 0 3.53125 0 C 2.625 0 1.9375 -0.242188 1.46875 -0.734375 C 1.007812 -1.203125 0.78125 -1.882812 0.78125 -2.78125 L 0.78125 -3.125 C 0.78125 -3.21875 0.8125 -3.300781 0.875 -3.375 C 0.9375 -3.4375 1.015625 -3.46875 1.109375 -3.46875 L 2.171875 -3.46875 C 2.265625 -3.46875 2.347656 -3.4375 2.421875 -3.375 C 2.492188 -3.300781 2.53125 -3.21875 2.53125 -3.125 L 2.53125 -2.671875 C 2.53125 -2.285156 2.609375 -2.007812 2.765625 -1.84375 C 2.929688 -1.675781 3.164062 -1.59375 3.46875 -1.59375 C 3.769531 -1.59375 4.007812 -1.675781 4.1875 -1.84375 C 4.34375 -2.007812 4.421875 -2.285156 4.421875 -2.671875 C 4.421875 -2.867188 4.394531 -3.0625 4.34375 -3.25 C 4.300781 -3.4375 4.21875 -3.625 4.09375 -3.8125 C 3.96875 -4 3.804688 -4.195312 3.609375 -4.40625 C 3.398438 -4.613281 3.144531 -4.84375 2.84375 -5.09375 C 2.46875 -5.414062 2.148438 -5.71875 1.890625 -6 C 1.628906 -6.269531 1.421875 -6.546875 1.265625 -6.828125 C 1.097656 -7.109375 0.984375 -7.390625 0.921875 -7.671875 C 0.859375 -7.941406 0.828125 -8.238281 0.828125 -8.5625 C 0.828125 -9.445312 1.050781 -10.132812 1.5 -10.625 C 1.957031 -11.101562 2.640625 -11.34375 3.546875 -11.34375 Z M 3.546875 -11.34375 "/></g></g></g></svg>