<svg xmlns="http://www.w3.org/2000/svg" xmlns:xlink="http://www.w3.org/1999/xlink" width="420" zoomAndPan="magnify" viewBox="0 0 315 37.5" height="50" preserveAspectRatio="xMidYMid meet" version="1.0"><defs><g/><clipPath id="7dd7bbcd84"><path d="M 2.074219 0 L 312.925781 0 L 312.925781 37.007812 L 2.074219 37.007812 Z M 2.074219 0 " clip-rule="nonzero"/></clipPath></defs><g clip-path="url(#7dd7bbcd84)"><path fill="#ffffff" d="M 2.074219 0 L 312.925781 0 L 312.925781 37.007812 L 2.074219 37.007812 Z M 2.074219 0 " fill-opacity="1" fill-rule="nonzero"/><path fill="#ffffff" d="M 2.074219 0 L 312.925781 0 L 312.925781 37.007812 L 2.074219 37.007812 Z M 2.074219 0 " fill-opacity="1" fill-rule="nonzero"/><path fill="#ffffff" d="M 2.074219 0 L 312.871094 0 L 312.871094 37.007812 L 2.074219 37.007812 Z M 2.074219 0 " fill-opacity="1" fill-rule="nonzero"/><path stroke-linecap="butt" transform="matrix(0.740132, 0, 0, 0.740132, 2.072368, 0.00000208549)" fill="none" stroke-linejoin="miter" d="M 0.0025 -0.00000281773 L 419.997517 -0.00000281773 L 419.997517 50.001666 L 0.0025 50.001666 Z M 0.0025 -0.00000281773 " stroke="#000000" stroke-width="4" stroke-opacity="1" stroke-miterlimit="4"/></g><g fill="#000000" fill-opacity="0.4"><g transform="translate(68.580611, 25.470183)"><g><path d="M 8.5625 -7.484375 C 9 -7.128906 9.34375 -6.691406 9.59375 -6.171875 C 9.832031 -5.660156 9.976562 -5.128906 10.03125 -4.578125 C 10.082031 -4.023438 10.035156 -3.476562 9.890625 -2.9375 C 9.742188 -2.382812 9.5 -1.890625 9.15625 -1.453125 C 8.8125 -1.023438 8.367188 -0.679688 7.828125 -0.421875 C 7.296875 -0.140625 6.664062 0 5.9375 0 L 1.5625 0 C 1.40625 0 1.273438 -0.0546875 1.171875 -0.171875 C 1.046875 -0.273438 0.984375 -0.410156 0.984375 -0.578125 L 0.984375 -13.890625 C 0.984375 -14.046875 1.046875 -14.1875 1.171875 -14.3125 C 1.273438 -14.414062 1.40625 -14.46875 1.5625 -14.46875 L 4.8125 -14.46875 C 5.738281 -14.46875 6.507812 -14.253906 7.125 -13.828125 C 7.726562 -13.410156 8.179688 -12.882812 8.484375 -12.25 C 8.785156 -11.625 8.9375 -10.941406 8.9375 -10.203125 C 8.925781 -9.460938 8.753906 -8.785156 8.421875 -8.171875 C 8.359375 -8.054688 8.34375 -7.929688 8.375 -7.796875 C 8.394531 -7.660156 8.457031 -7.554688 8.5625 -7.484375 Z M 3.78125 -12.234375 C 3.625 -12.234375 3.492188 -12.179688 3.390625 -12.078125 C 3.273438 -11.960938 3.21875 -11.820312 3.21875 -11.65625 L 3.21875 -8.921875 C 3.21875 -8.765625 3.273438 -8.632812 3.390625 -8.53125 C 3.492188 -8.40625 3.625 -8.34375 3.78125 -8.34375 L 4.859375 -8.34375 C 5.265625 -8.34375 5.601562 -8.441406 5.875 -8.640625 C 6.15625 -8.828125 6.367188 -9.066406 6.515625 -9.359375 C 6.660156 -9.640625 6.734375 -9.953125 6.734375 -10.296875 C 6.734375 -10.628906 6.664062 -10.941406 6.53125 -11.234375 C 6.382812 -11.515625 6.175781 -11.753906 5.90625 -11.953125 C 5.625 -12.140625 5.273438 -12.234375 4.859375 -12.234375 Z M 5.984375 -2.234375 C 6.390625 -2.234375 6.726562 -2.332031 7 -2.53125 C 7.28125 -2.707031 7.492188 -2.941406 7.640625 -3.234375 C 7.765625 -3.523438 7.835938 -3.84375 7.859375 -4.1875 C 7.859375 -4.507812 7.789062 -4.816406 7.65625 -5.109375 C 7.507812 -5.398438 7.300781 -5.644531 7.03125 -5.84375 C 6.75 -6.03125 6.398438 -6.125 5.984375 -6.125 L 3.78125 -6.125 C 3.625 -6.125 3.492188 -6.066406 3.390625 -5.953125 C 3.273438 -5.835938 3.21875 -5.703125 3.21875 -5.546875 L 3.21875 -2.796875 C 3.21875 -2.640625 3.273438 -2.507812 3.390625 -2.40625 C 3.492188 -2.289062 3.625 -2.234375 3.78125 -2.234375 Z M 5.984375 -2.234375 "/></g></g></g><g fill="#000000" fill-opacity="0.4"><g transform="translate(79.609154, 25.470183)"><g><path d="M 2.640625 -14.46875 C 2.796875 -14.46875 2.9375 -14.414062 3.0625 -14.3125 C 3.164062 -14.1875 3.21875 -14.046875 3.21875 -13.890625 L 3.21875 -0.578125 C 3.21875 -0.410156 3.164062 -0.273438 3.0625 -0.171875 C 2.9375 -0.0546875 2.796875 0 2.640625 0 L 1.5625 0 C 1.40625 0 1.273438 -0.0546875 1.171875 -0.171875 C 1.046875 -0.273438 0.984375 -0.410156 0.984375 -0.578125 L 0.984375 -13.890625 C 0.984375 -14.046875 1.046875 -14.1875 1.171875 -14.3125 C 1.273438 -14.414062 1.40625 -14.46875 1.5625 -14.46875 Z M 2.640625 -14.46875 "/></g></g></g><g fill="#000000" fill-opacity="0.4"><g transform="translate(83.811447, 25.470183)"><g><path d="M 3.21875 -14.46875 C 4.28125 -14.46875 5.238281 -14.273438 6.09375 -13.890625 C 6.945312 -13.515625 7.675781 -13.003906 8.28125 -12.359375 C 8.875 -11.691406 9.335938 -10.925781 9.671875 -10.0625 C 9.984375 -9.1875 10.140625 -8.25 10.140625 -7.25 C 10.140625 -6.25 9.984375 -5.3125 9.671875 -4.4375 C 9.335938 -3.5625 8.875 -2.789062 8.28125 -2.125 C 7.675781 -1.46875 6.945312 -0.953125 6.09375 -0.578125 C 5.238281 -0.191406 4.28125 0 3.21875 0 L 1.5625 0 C 1.40625 0 1.273438 -0.0546875 1.171875 -0.171875 C 1.046875 -0.273438 0.984375 -0.410156 0.984375 -0.578125 L 0.984375 -13.890625 C 0.984375 -14.046875 1.046875 -14.1875 1.171875 -14.3125 C 1.273438 -14.414062 1.40625 -14.46875 1.5625 -14.46875 Z M 3.21875 -2.84375 C 3.21875 -2.65625 3.28125 -2.507812 3.40625 -2.40625 C 3.53125 -2.289062 3.6875 -2.242188 3.875 -2.265625 C 4.5 -2.347656 5.054688 -2.535156 5.546875 -2.828125 C 6.035156 -3.109375 6.441406 -3.472656 6.765625 -3.921875 C 7.097656 -4.359375 7.347656 -4.867188 7.515625 -5.453125 C 7.671875 -6.015625 7.75 -6.613281 7.75 -7.25 C 7.75 -7.875 7.671875 -8.476562 7.515625 -9.0625 C 7.347656 -9.625 7.097656 -10.128906 6.765625 -10.578125 C 6.441406 -11.015625 6.035156 -11.375 5.546875 -11.65625 C 5.054688 -11.945312 4.5 -12.132812 3.875 -12.21875 C 3.6875 -12.238281 3.53125 -12.191406 3.40625 -12.078125 C 3.28125 -11.960938 3.21875 -11.816406 3.21875 -11.640625 Z M 3.21875 -2.84375 "/></g></g></g><g fill="#000000" fill-opacity="0.4"><g transform="translate(94.938639, 25.470183)"><g><path d="M 9.015625 0 C 8.742188 0 8.5625 -0.144531 8.46875 -0.4375 C 8.425781 -0.582031 8.375 -0.789062 8.3125 -1.0625 C 8.226562 -1.320312 8.128906 -1.6875 8.015625 -2.15625 C 7.921875 -2.4375 7.726562 -2.578125 7.4375 -2.578125 L 4.28125 -2.578125 C 3.988281 -2.578125 3.796875 -2.4375 3.703125 -2.15625 C 3.617188 -1.800781 3.539062 -1.476562 3.46875 -1.1875 C 3.394531 -0.894531 3.320312 -0.644531 3.25 -0.4375 C 3.164062 -0.144531 2.984375 0 2.703125 0 L 1.578125 0 C 1.390625 0 1.238281 -0.078125 1.125 -0.234375 C 1.007812 -0.378906 0.976562 -0.546875 1.03125 -0.734375 C 1.15625 -1.210938 1.316406 -1.828125 1.515625 -2.578125 C 1.710938 -3.316406 1.929688 -4.125 2.171875 -5 C 2.410156 -5.851562 2.65625 -6.738281 2.90625 -7.65625 C 3.132812 -8.5625 3.363281 -9.429688 3.59375 -10.265625 C 3.800781 -11.078125 4 -11.816406 4.1875 -12.484375 C 4.351562 -13.148438 4.488281 -13.664062 4.59375 -14.03125 C 4.625 -14.164062 4.691406 -14.269531 4.796875 -14.34375 C 4.898438 -14.425781 5.019531 -14.46875 5.15625 -14.46875 L 6.578125 -14.46875 C 6.703125 -14.46875 6.816406 -14.425781 6.921875 -14.34375 C 7.023438 -14.269531 7.09375 -14.164062 7.125 -14.03125 C 7.582031 -12.289062 7.984375 -10.804688 8.328125 -9.578125 C 8.660156 -8.335938 8.9375 -7.296875 9.15625 -6.453125 C 9.382812 -5.609375 9.566406 -4.929688 9.703125 -4.421875 C 9.835938 -3.910156 9.953125 -3.503906 10.046875 -3.203125 C 10.117188 -2.878906 10.179688 -2.640625 10.234375 -2.484375 C 10.273438 -2.316406 10.316406 -2.160156 10.359375 -2.015625 C 10.398438 -1.867188 10.445312 -1.703125 10.5 -1.515625 C 10.539062 -1.335938 10.609375 -1.078125 10.703125 -0.734375 C 10.753906 -0.546875 10.71875 -0.378906 10.59375 -0.234375 C 10.476562 -0.078125 10.328125 0 10.140625 0 Z M 4.625 -5.546875 C 4.5625 -5.359375 4.59375 -5.191406 4.71875 -5.046875 C 4.832031 -4.890625 4.984375 -4.8125 5.171875 -4.8125 L 6.546875 -4.8125 C 6.734375 -4.8125 6.882812 -4.890625 7 -5.046875 C 7.125 -5.191406 7.160156 -5.359375 7.109375 -5.546875 C 7.003906 -5.910156 6.894531 -6.304688 6.78125 -6.734375 C 6.664062 -7.148438 6.539062 -7.597656 6.40625 -8.078125 C 6.375 -8.210938 6.304688 -8.320312 6.203125 -8.40625 C 6.085938 -8.46875 5.972656 -8.5 5.859375 -8.5 C 5.742188 -8.5 5.632812 -8.46875 5.53125 -8.40625 C 5.425781 -8.320312 5.351562 -8.210938 5.3125 -8.078125 C 5.1875 -7.648438 5.070312 -7.226562 4.96875 -6.8125 C 4.851562 -6.382812 4.738281 -5.960938 4.625 -5.546875 Z M 4.625 -5.546875 "/></g></g></g><g fill="#000000" fill-opacity="0.4"><g transform="translate(106.657701, 25.470183)"><g><path d="M 9.609375 -14.46875 C 9.765625 -14.46875 9.90625 -14.414062 10.03125 -14.3125 C 10.132812 -14.1875 10.1875 -14.046875 10.1875 -13.890625 L 10.1875 -0.578125 C 10.1875 -0.410156 10.132812 -0.273438 10.03125 -0.171875 C 9.90625 -0.0546875 9.765625 0 9.609375 0 L 8.09375 0 C 7.851562 0 7.679688 -0.109375 7.578125 -0.328125 L 3.625 -8.78125 C 3.59375 -8.882812 3.515625 -8.925781 3.390625 -8.90625 C 3.273438 -8.875 3.21875 -8.800781 3.21875 -8.6875 L 3.21875 -0.578125 C 3.21875 -0.410156 3.164062 -0.273438 3.0625 -0.171875 C 2.9375 -0.0546875 2.789062 0 2.625 0 L 1.5625 0 C 1.40625 0 1.273438 -0.0546875 1.171875 -0.171875 C 1.046875 -0.273438 0.984375 -0.410156 0.984375 -0.578125 L 0.984375 -13.890625 C 0.984375 -14.046875 1.046875 -14.1875 1.171875 -14.3125 C 1.273438 -14.414062 1.40625 -14.46875 1.5625 -14.46875 L 3.078125 -14.46875 C 3.328125 -14.46875 3.5 -14.351562 3.59375 -14.125 L 7.53125 -5.6875 C 7.570312 -5.582031 7.660156 -5.539062 7.796875 -5.5625 C 7.898438 -5.59375 7.953125 -5.664062 7.953125 -5.78125 L 7.953125 -13.890625 C 7.953125 -14.046875 8.007812 -14.1875 8.125 -14.3125 C 8.25 -14.414062 8.390625 -14.46875 8.546875 -14.46875 Z M 9.609375 -14.46875 "/></g></g></g><g fill="#000000" fill-opacity="0.4"><g transform="translate(117.824352, 25.470183)"><g><path d="M 12.953125 -7.53125 C 13.035156 -7.53125 13.113281 -7.503906 13.1875 -7.453125 C 13.238281 -7.390625 13.265625 -7.320312 13.265625 -7.25 C 13.265625 -6.351562 13.160156 -5.46875 12.953125 -4.59375 C 12.722656 -3.726562 12.347656 -2.941406 11.828125 -2.234375 C 11.265625 -1.492188 10.59375 -0.941406 9.8125 -0.578125 C 9.007812 -0.191406 8.113281 0 7.125 0 C 5.125 0 3.554688 -0.742188 2.421875 -2.234375 C 1.460938 -3.535156 0.984375 -5.195312 0.984375 -7.21875 C 0.984375 -8.238281 1.109375 -9.164062 1.359375 -10 C 1.597656 -10.84375 1.953125 -11.582031 2.421875 -12.21875 C 2.972656 -12.96875 3.648438 -13.53125 4.453125 -13.90625 C 5.242188 -14.28125 6.132812 -14.46875 7.125 -14.46875 C 8.113281 -14.46875 9.007812 -14.28125 9.8125 -13.90625 C 10.59375 -13.53125 11.265625 -12.96875 11.828125 -12.21875 C 11.878906 -12.144531 11.894531 -12.070312 11.875 -12 C 11.851562 -11.90625 11.800781 -11.832031 11.71875 -11.78125 L 10.296875 -10.96875 C 10.171875 -10.894531 10.046875 -10.914062 9.921875 -11.03125 C 9.703125 -11.289062 9.46875 -11.5 9.21875 -11.65625 C 8.957031 -11.820312 8.703125 -11.945312 8.453125 -12.03125 C 8.203125 -12.113281 7.960938 -12.171875 7.734375 -12.203125 C 7.492188 -12.222656 7.289062 -12.234375 7.125 -12.234375 C 6.820312 -12.234375 6.453125 -12.1875 6.015625 -12.09375 C 5.566406 -11.988281 5.140625 -11.765625 4.734375 -11.421875 C 4.316406 -11.078125 3.960938 -10.578125 3.671875 -9.921875 C 3.367188 -9.253906 3.21875 -8.351562 3.21875 -7.21875 C 3.21875 -6.09375 3.367188 -5.195312 3.671875 -4.53125 C 3.960938 -3.875 4.316406 -3.378906 4.734375 -3.046875 C 5.140625 -2.703125 5.566406 -2.484375 6.015625 -2.390625 C 6.453125 -2.285156 6.820312 -2.234375 7.125 -2.234375 C 7.363281 -2.234375 7.644531 -2.257812 7.96875 -2.3125 C 8.300781 -2.363281 8.644531 -2.488281 9 -2.6875 C 9.34375 -2.863281 9.671875 -3.132812 9.984375 -3.5 C 10.285156 -3.851562 10.53125 -4.320312 10.71875 -4.90625 C 10.738281 -5.019531 10.722656 -5.113281 10.671875 -5.1875 C 10.617188 -5.269531 10.539062 -5.3125 10.4375 -5.3125 L 8.03125 -5.3125 C 7.875 -5.3125 7.742188 -5.367188 7.640625 -5.484375 C 7.515625 -5.585938 7.453125 -5.726562 7.453125 -5.90625 L 7.453125 -6.96875 C 7.453125 -7.125 7.515625 -7.257812 7.640625 -7.375 C 7.742188 -7.476562 7.875 -7.53125 8.03125 -7.53125 Z M 12.953125 -7.53125 "/></g></g></g><g fill="#000000" fill-opacity="0.4"><g transform="translate(132.068733, 25.470183)"><g/></g></g><g fill="#000000" fill-opacity="0.4"><g transform="translate(137.987448, 25.470183)"><g><path d="M 4.8125 -14.46875 C 5.71875 -14.46875 6.484375 -14.21875 7.109375 -13.71875 C 7.710938 -13.21875 8.164062 -12.59375 8.46875 -11.84375 C 8.769531 -11.082031 8.921875 -10.265625 8.921875 -9.390625 C 8.921875 -8.515625 8.769531 -7.703125 8.46875 -6.953125 C 8.164062 -6.179688 7.710938 -5.546875 7.109375 -5.046875 C 6.484375 -4.546875 5.71875 -4.296875 4.8125 -4.296875 L 3.78125 -4.296875 C 3.625 -4.296875 3.492188 -4.242188 3.390625 -4.140625 C 3.273438 -4.023438 3.21875 -3.890625 3.21875 -3.734375 L 3.21875 -0.578125 C 3.21875 -0.410156 3.164062 -0.273438 3.0625 -0.171875 C 2.9375 -0.0546875 2.796875 0 2.640625 0 L 1.5625 0 C 1.40625 0 1.273438 -0.0546875 1.171875 -0.171875 C 1.046875 -0.273438 0.984375 -0.410156 0.984375 -0.578125 L 0.984375 -13.890625 C 0.984375 -14.046875 1.046875 -14.1875 1.171875 -14.3125 C 1.273438 -14.414062 1.40625 -14.46875 1.5625 -14.46875 Z M 4.859375 -6.53125 C 5.265625 -6.53125 5.601562 -6.675781 5.875 -6.96875 C 6.15625 -7.238281 6.367188 -7.585938 6.515625 -8.015625 C 6.660156 -8.429688 6.734375 -8.890625 6.734375 -9.390625 C 6.734375 -9.878906 6.664062 -10.332031 6.53125 -10.75 C 6.382812 -11.175781 6.175781 -11.535156 5.90625 -11.828125 C 5.625 -12.097656 5.273438 -12.234375 4.859375 -12.234375 L 3.78125 -12.234375 C 3.625 -12.234375 3.492188 -12.179688 3.390625 -12.078125 C 3.273438 -11.960938 3.21875 -11.820312 3.21875 -11.65625 L 3.21875 -7.109375 C 3.21875 -6.953125 3.273438 -6.816406 3.390625 -6.703125 C 3.492188 -6.585938 3.625 -6.53125 3.78125 -6.53125 Z M 4.859375 -6.53125 "/></g></g></g><g fill="#000000" fill-opacity="0.4"><g transform="translate(147.911169, 25.470183)"><g><path d="M 8.09375 -12.8125 C 8.09375 -12.65625 8.039062 -12.519531 7.9375 -12.40625 C 7.8125 -12.289062 7.671875 -12.234375 7.515625 -12.234375 L 3.78125 -12.234375 C 3.625 -12.234375 3.492188 -12.179688 3.390625 -12.078125 C 3.273438 -11.960938 3.21875 -11.820312 3.21875 -11.65625 L 3.21875 -10.484375 C 3.21875 -10.316406 3.273438 -10.179688 3.390625 -10.078125 C 3.492188 -9.960938 3.625 -9.90625 3.78125 -9.90625 L 6.25 -9.90625 C 6.425781 -9.90625 6.570312 -9.851562 6.6875 -9.75 C 6.789062 -9.632812 6.84375 -9.492188 6.84375 -9.328125 L 6.84375 -8.265625 C 6.84375 -8.109375 6.789062 -7.972656 6.6875 -7.859375 C 6.570312 -7.734375 6.425781 -7.671875 6.25 -7.671875 L 3.78125 -7.671875 C 3.625 -7.671875 3.492188 -7.617188 3.390625 -7.515625 C 3.273438 -7.398438 3.21875 -7.265625 3.21875 -7.109375 L 3.21875 -2.796875 C 3.21875 -2.640625 3.273438 -2.507812 3.390625 -2.40625 C 3.492188 -2.289062 3.625 -2.234375 3.78125 -2.234375 L 7.515625 -2.234375 C 7.671875 -2.234375 7.8125 -2.179688 7.9375 -2.078125 C 8.039062 -1.953125 8.09375 -1.8125 8.09375 -1.65625 L 8.09375 -0.578125 C 8.09375 -0.410156 8.039062 -0.273438 7.9375 -0.171875 C 7.8125 -0.0546875 7.671875 0 7.515625 0 L 1.5625 0 C 1.40625 0 1.273438 -0.0546875 1.171875 -0.171875 C 1.046875 -0.273438 0.984375 -0.410156 0.984375 -0.578125 L 0.984375 -13.890625 C 0.984375 -14.046875 1.046875 -14.1875 1.171875 -14.3125 C 1.273438 -14.414062 1.40625 -14.46875 1.5625 -14.46875 L 7.515625 -14.46875 C 7.671875 -14.46875 7.8125 -14.414062 7.9375 -14.3125 C 8.039062 -14.1875 8.09375 -14.046875 8.09375 -13.890625 Z M 8.09375 -12.8125 "/></g></g></g><g fill="#000000" fill-opacity="0.4"><g transform="translate(156.986533, 25.470183)"><g><path d="M 4.8125 -14.46875 C 5.550781 -14.46875 6.191406 -14.300781 6.734375 -13.96875 C 7.265625 -13.625 7.703125 -13.1875 8.046875 -12.65625 C 8.390625 -12.113281 8.632812 -11.503906 8.78125 -10.828125 C 8.925781 -10.160156 8.972656 -9.484375 8.921875 -8.796875 C 8.859375 -8.117188 8.703125 -7.46875 8.453125 -6.84375 C 8.179688 -6.226562 7.820312 -5.707031 7.375 -5.28125 C 7.175781 -5.113281 7.125 -4.910156 7.21875 -4.671875 L 8.640625 -0.765625 C 8.710938 -0.585938 8.691406 -0.414062 8.578125 -0.25 C 8.460938 -0.0820312 8.300781 0 8.09375 0 L 6.96875 0 C 6.6875 0 6.5 -0.125 6.40625 -0.375 L 5.125 -3.921875 C 5.039062 -4.171875 4.859375 -4.296875 4.578125 -4.296875 L 3.78125 -4.296875 C 3.625 -4.296875 3.492188 -4.242188 3.390625 -4.140625 C 3.273438 -4.023438 3.21875 -3.890625 3.21875 -3.734375 L 3.21875 -0.578125 C 3.21875 -0.410156 3.164062 -0.273438 3.0625 -0.171875 C 2.9375 -0.0546875 2.796875 0 2.640625 0 L 1.5625 0 C 1.40625 0 1.273438 -0.0546875 1.171875 -0.171875 C 1.046875 -0.273438 0.984375 -0.410156 0.984375 -0.578125 L 0.984375 -13.890625 C 0.984375 -14.046875 1.046875 -14.1875 1.171875 -14.3125 C 1.273438 -14.414062 1.40625 -14.46875 1.5625 -14.46875 Z M 3.21875 -7.109375 C 3.21875 -6.953125 3.273438 -6.816406 3.390625 -6.703125 C 3.492188 -6.585938 3.625 -6.53125 3.78125 -6.53125 L 4.859375 -6.53125 C 5.265625 -6.53125 5.601562 -6.675781 5.875 -6.96875 C 6.15625 -7.238281 6.367188 -7.585938 6.515625 -8.015625 C 6.660156 -8.429688 6.734375 -8.890625 6.734375 -9.390625 C 6.734375 -9.878906 6.664062 -10.332031 6.53125 -10.75 C 6.382812 -11.175781 6.175781 -11.535156 5.90625 -11.828125 C 5.625 -12.097656 5.273438 -12.234375 4.859375 -12.234375 L 3.78125 -12.234375 C 3.625 -12.234375 3.492188 -12.179688 3.390625 -12.078125 C 3.273438 -11.960938 3.21875 -11.820312 3.21875 -11.65625 Z M 3.21875 -7.109375 "/></g></g></g><g fill="#000000" fill-opacity="0.4"><g transform="translate(166.910254, 25.470183)"><g><path d="M 9.140625 -12.8125 C 9.140625 -12.65625 9.085938 -12.519531 8.984375 -12.40625 C 8.859375 -12.289062 8.710938 -12.234375 8.546875 -12.234375 L 6.75 -12.234375 C 6.59375 -12.234375 6.460938 -12.179688 6.359375 -12.078125 C 6.234375 -11.960938 6.171875 -11.820312 6.171875 -11.65625 L 6.171875 -0.578125 C 6.171875 -0.410156 6.117188 -0.273438 6.015625 -0.171875 C 5.898438 -0.0546875 5.753906 0 5.578125 0 L 4.515625 0 C 4.359375 0 4.226562 -0.0546875 4.125 -0.171875 C 4.007812 -0.273438 3.953125 -0.410156 3.953125 -0.578125 L 3.953125 -11.65625 C 3.953125 -11.820312 3.894531 -11.960938 3.78125 -12.078125 C 3.664062 -12.179688 3.53125 -12.234375 3.375 -12.234375 L 1.5625 -12.234375 C 1.40625 -12.234375 1.273438 -12.289062 1.171875 -12.40625 C 1.046875 -12.519531 0.984375 -12.65625 0.984375 -12.8125 L 0.984375 -13.890625 C 0.984375 -14.046875 1.046875 -14.1875 1.171875 -14.3125 C 1.273438 -14.414062 1.40625 -14.46875 1.5625 -14.46875 L 8.546875 -14.46875 C 8.710938 -14.46875 8.859375 -14.414062 8.984375 -14.3125 C 9.085938 -14.1875 9.140625 -14.046875 9.140625 -13.890625 Z M 9.140625 -12.8125 "/></g></g></g><g fill="#000000" fill-opacity="0.4"><g transform="translate(177.031262, 25.470183)"><g><path d="M 9.015625 0 C 8.742188 0 8.5625 -0.144531 8.46875 -0.4375 C 8.425781 -0.582031 8.375 -0.789062 8.3125 -1.0625 C 8.226562 -1.320312 8.128906 -1.6875 8.015625 -2.15625 C 7.921875 -2.4375 7.726562 -2.578125 7.4375 -2.578125 L 4.28125 -2.578125 C 3.988281 -2.578125 3.796875 -2.4375 3.703125 -2.15625 C 3.617188 -1.800781 3.539062 -1.476562 3.46875 -1.1875 C 3.394531 -0.894531 3.320312 -0.644531 3.25 -0.4375 C 3.164062 -0.144531 2.984375 0 2.703125 0 L 1.578125 0 C 1.390625 0 1.238281 -0.078125 1.125 -0.234375 C 1.007812 -0.378906 0.976562 -0.546875 1.03125 -0.734375 C 1.15625 -1.210938 1.316406 -1.828125 1.515625 -2.578125 C 1.710938 -3.316406 1.929688 -4.125 2.171875 -5 C 2.410156 -5.851562 2.65625 -6.738281 2.90625 -7.65625 C 3.132812 -8.5625 3.363281 -9.429688 3.59375 -10.265625 C 3.800781 -11.078125 4 -11.816406 4.1875 -12.484375 C 4.351562 -13.148438 4.488281 -13.664062 4.59375 -14.03125 C 4.625 -14.164062 4.691406 -14.269531 4.796875 -14.34375 C 4.898438 -14.425781 5.019531 -14.46875 5.15625 -14.46875 L 6.578125 -14.46875 C 6.703125 -14.46875 6.816406 -14.425781 6.921875 -14.34375 C 7.023438 -14.269531 7.09375 -14.164062 7.125 -14.03125 C 7.582031 -12.289062 7.984375 -10.804688 8.328125 -9.578125 C 8.660156 -8.335938 8.9375 -7.296875 9.15625 -6.453125 C 9.382812 -5.609375 9.566406 -4.929688 9.703125 -4.421875 C 9.835938 -3.910156 9.953125 -3.503906 10.046875 -3.203125 C 10.117188 -2.878906 10.179688 -2.640625 10.234375 -2.484375 C 10.273438 -2.316406 10.316406 -2.160156 10.359375 -2.015625 C 10.398438 -1.867188 10.445312 -1.703125 10.5 -1.515625 C 10.539062 -1.335938 10.609375 -1.078125 10.703125 -0.734375 C 10.753906 -0.546875 10.71875 -0.378906 10.59375 -0.234375 C 10.476562 -0.078125 10.328125 0 10.140625 0 Z M 4.625 -5.546875 C 4.5625 -5.359375 4.59375 -5.191406 4.71875 -5.046875 C 4.832031 -4.890625 4.984375 -4.8125 5.171875 -4.8125 L 6.546875 -4.8125 C 6.734375 -4.8125 6.882812 -4.890625 7 -5.046875 C 7.125 -5.191406 7.160156 -5.359375 7.109375 -5.546875 C 7.003906 -5.910156 6.894531 -6.304688 6.78125 -6.734375 C 6.664062 -7.148438 6.539062 -7.597656 6.40625 -8.078125 C 6.375 -8.210938 6.304688 -8.320312 6.203125 -8.40625 C 6.085938 -8.46875 5.972656 -8.5 5.859375 -8.5 C 5.742188 -8.5 5.632812 -8.46875 5.53125 -8.40625 C 5.425781 -8.320312 5.351562 -8.210938 5.3125 -8.078125 C 5.1875 -7.648438 5.070312 -7.226562 4.96875 -6.8125 C 4.851562 -6.382812 4.738281 -5.960938 4.625 -5.546875 Z M 4.625 -5.546875 "/></g></g></g><g fill="#000000" fill-opacity="0.4"><g transform="translate(188.750324, 25.470183)"><g><path d="M 7.15625 -13.890625 C 7.15625 -14.046875 7.21875 -14.1875 7.34375 -14.3125 C 7.445312 -14.414062 7.582031 -14.46875 7.75 -14.46875 L 8.828125 -14.46875 C 8.984375 -14.46875 9.117188 -14.414062 9.234375 -14.3125 C 9.335938 -14.1875 9.390625 -14.046875 9.390625 -13.890625 L 9.390625 -0.578125 C 9.390625 -0.410156 9.335938 -0.273438 9.234375 -0.171875 C 9.117188 -0.0546875 8.984375 0 8.828125 0 L 7.75 0 C 7.582031 0 7.445312 -0.0546875 7.34375 -0.171875 C 7.21875 -0.273438 7.15625 -0.410156 7.15625 -0.578125 L 7.15625 -5.546875 C 7.15625 -5.703125 7.101562 -5.835938 7 -5.953125 C 6.882812 -6.066406 6.75 -6.125 6.59375 -6.125 L 3.78125 -6.125 C 3.625 -6.125 3.492188 -6.066406 3.390625 -5.953125 C 3.273438 -5.835938 3.21875 -5.703125 3.21875 -5.546875 L 3.21875 -0.578125 C 3.21875 -0.410156 3.164062 -0.273438 3.0625 -0.171875 C 2.9375 -0.0546875 2.796875 0 2.640625 0 L 1.5625 0 C 1.40625 0 1.273438 -0.0546875 1.171875 -0.171875 C 1.046875 -0.273438 0.984375 -0.410156 0.984375 -0.578125 L 0.984375 -13.890625 C 0.984375 -14.046875 1.046875 -14.1875 1.171875 -14.3125 C 1.273438 -14.414062 1.40625 -14.46875 1.5625 -14.46875 L 2.640625 -14.46875 C 2.796875 -14.46875 2.9375 -14.414062 3.0625 -14.3125 C 3.164062 -14.1875 3.21875 -14.046875 3.21875 -13.890625 L 3.21875 -8.921875 C 3.21875 -8.765625 3.273438 -8.632812 3.390625 -8.53125 C 3.492188 -8.40625 3.625 -8.34375 3.78125 -8.34375 L 6.59375 -8.34375 C 6.75 -8.34375 6.882812 -8.40625 7 -8.53125 C 7.101562 -8.632812 7.15625 -8.765625 7.15625 -8.921875 Z M 7.15625 -13.890625 "/></g></g></g><g fill="#000000" fill-opacity="0.4"><g transform="translate(199.127807, 25.470183)"><g><path d="M 9.015625 0 C 8.742188 0 8.5625 -0.144531 8.46875 -0.4375 C 8.425781 -0.582031 8.375 -0.789062 8.3125 -1.0625 C 8.226562 -1.320312 8.128906 -1.6875 8.015625 -2.15625 C 7.921875 -2.4375 7.726562 -2.578125 7.4375 -2.578125 L 4.28125 -2.578125 C 3.988281 -2.578125 3.796875 -2.4375 3.703125 -2.15625 C 3.617188 -1.800781 3.539062 -1.476562 3.46875 -1.1875 C 3.394531 -0.894531 3.320312 -0.644531 3.25 -0.4375 C 3.164062 -0.144531 2.984375 0 2.703125 0 L 1.578125 0 C 1.390625 0 1.238281 -0.078125 1.125 -0.234375 C 1.007812 -0.378906 0.976562 -0.546875 1.03125 -0.734375 C 1.15625 -1.210938 1.316406 -1.828125 1.515625 -2.578125 C 1.710938 -3.316406 1.929688 -4.125 2.171875 -5 C 2.410156 -5.851562 2.65625 -6.738281 2.90625 -7.65625 C 3.132812 -8.5625 3.363281 -9.429688 3.59375 -10.265625 C 3.800781 -11.078125 4 -11.816406 4.1875 -12.484375 C 4.351562 -13.148438 4.488281 -13.664062 4.59375 -14.03125 C 4.625 -14.164062 4.691406 -14.269531 4.796875 -14.34375 C 4.898438 -14.425781 5.019531 -14.46875 5.15625 -14.46875 L 6.578125 -14.46875 C 6.703125 -14.46875 6.816406 -14.425781 6.921875 -14.34375 C 7.023438 -14.269531 7.09375 -14.164062 7.125 -14.03125 C 7.582031 -12.289062 7.984375 -10.804688 8.328125 -9.578125 C 8.660156 -8.335938 8.9375 -7.296875 9.15625 -6.453125 C 9.382812 -5.609375 9.566406 -4.929688 9.703125 -4.421875 C 9.835938 -3.910156 9.953125 -3.503906 10.046875 -3.203125 C 10.117188 -2.878906 10.179688 -2.640625 10.234375 -2.484375 C 10.273438 -2.316406 10.316406 -2.160156 10.359375 -2.015625 C 10.398438 -1.867188 10.445312 -1.703125 10.5 -1.515625 C 10.539062 -1.335938 10.609375 -1.078125 10.703125 -0.734375 C 10.753906 -0.546875 10.71875 -0.378906 10.59375 -0.234375 C 10.476562 -0.078125 10.328125 0 10.140625 0 Z M 4.625 -5.546875 C 4.5625 -5.359375 4.59375 -5.191406 4.71875 -5.046875 C 4.832031 -4.890625 4.984375 -4.8125 5.171875 -4.8125 L 6.546875 -4.8125 C 6.734375 -4.8125 6.882812 -4.890625 7 -5.046875 C 7.125 -5.191406 7.160156 -5.359375 7.109375 -5.546875 C 7.003906 -5.910156 6.894531 -6.304688 6.78125 -6.734375 C 6.664062 -7.148438 6.539062 -7.597656 6.40625 -8.078125 C 6.375 -8.210938 6.304688 -8.320312 6.203125 -8.40625 C 6.085938 -8.46875 5.972656 -8.5 5.859375 -8.5 C 5.742188 -8.5 5.632812 -8.46875 5.53125 -8.40625 C 5.425781 -8.320312 5.351562 -8.210938 5.3125 -8.078125 C 5.1875 -7.648438 5.070312 -7.226562 4.96875 -6.8125 C 4.851562 -6.382812 4.738281 -5.960938 4.625 -5.546875 Z M 4.625 -5.546875 "/></g></g></g><g fill="#000000" fill-opacity="0.4"><g transform="translate(210.846869, 25.470183)"><g><path d="M 9.609375 -14.46875 C 9.765625 -14.46875 9.90625 -14.414062 10.03125 -14.3125 C 10.132812 -14.1875 10.1875 -14.046875 10.1875 -13.890625 L 10.1875 -0.578125 C 10.1875 -0.410156 10.132812 -0.273438 10.03125 -0.171875 C 9.90625 -0.0546875 9.765625 0 9.609375 0 L 8.09375 0 C 7.851562 0 7.679688 -0.109375 7.578125 -0.328125 L 3.625 -8.78125 C 3.59375 -8.882812 3.515625 -8.925781 3.390625 -8.90625 C 3.273438 -8.875 3.21875 -8.800781 3.21875 -8.6875 L 3.21875 -0.578125 C 3.21875 -0.410156 3.164062 -0.273438 3.0625 -0.171875 C 2.9375 -0.0546875 2.789062 0 2.625 0 L 1.5625 0 C 1.40625 0 1.273438 -0.0546875 1.171875 -0.171875 C 1.046875 -0.273438 0.984375 -0.410156 0.984375 -0.578125 L 0.984375 -13.890625 C 0.984375 -14.046875 1.046875 -14.1875 1.171875 -14.3125 C 1.273438 -14.414062 1.40625 -14.46875 1.5625 -14.46875 L 3.078125 -14.46875 C 3.328125 -14.46875 3.5 -14.351562 3.59375 -14.125 L 7.53125 -5.6875 C 7.570312 -5.582031 7.660156 -5.539062 7.796875 -5.5625 C 7.898438 -5.59375 7.953125 -5.664062 7.953125 -5.78125 L 7.953125 -13.890625 C 7.953125 -14.046875 8.007812 -14.1875 8.125 -14.3125 C 8.25 -14.414062 8.390625 -14.46875 8.546875 -14.46875 Z M 9.609375 -14.46875 "/></g></g></g><g fill="#000000" fill-opacity="0.4"><g transform="translate(222.01352, 25.470183)"><g><path d="M 9.015625 0 C 8.742188 0 8.5625 -0.144531 8.46875 -0.4375 C 8.425781 -0.582031 8.375 -0.789062 8.3125 -1.0625 C 8.226562 -1.320312 8.128906 -1.6875 8.015625 -2.15625 C 7.921875 -2.4375 7.726562 -2.578125 7.4375 -2.578125 L 4.28125 -2.578125 C 3.988281 -2.578125 3.796875 -2.4375 3.703125 -2.15625 C 3.617188 -1.800781 3.539062 -1.476562 3.46875 -1.1875 C 3.394531 -0.894531 3.320312 -0.644531 3.25 -0.4375 C 3.164062 -0.144531 2.984375 0 2.703125 0 L 1.578125 0 C 1.390625 0 1.238281 -0.078125 1.125 -0.234375 C 1.007812 -0.378906 0.976562 -0.546875 1.03125 -0.734375 C 1.15625 -1.210938 1.316406 -1.828125 1.515625 -2.578125 C 1.710938 -3.316406 1.929688 -4.125 2.171875 -5 C 2.410156 -5.851562 2.65625 -6.738281 2.90625 -7.65625 C 3.132812 -8.5625 3.363281 -9.429688 3.59375 -10.265625 C 3.800781 -11.078125 4 -11.816406 4.1875 -12.484375 C 4.351562 -13.148438 4.488281 -13.664062 4.59375 -14.03125 C 4.625 -14.164062 4.691406 -14.269531 4.796875 -14.34375 C 4.898438 -14.425781 5.019531 -14.46875 5.15625 -14.46875 L 6.578125 -14.46875 C 6.703125 -14.46875 6.816406 -14.425781 6.921875 -14.34375 C 7.023438 -14.269531 7.09375 -14.164062 7.125 -14.03125 C 7.582031 -12.289062 7.984375 -10.804688 8.328125 -9.578125 C 8.660156 -8.335938 8.9375 -7.296875 9.15625 -6.453125 C 9.382812 -5.609375 9.566406 -4.929688 9.703125 -4.421875 C 9.835938 -3.910156 9.953125 -3.503906 10.046875 -3.203125 C 10.117188 -2.878906 10.179688 -2.640625 10.234375 -2.484375 C 10.273438 -2.316406 10.316406 -2.160156 10.359375 -2.015625 C 10.398438 -1.867188 10.445312 -1.703125 10.5 -1.515625 C 10.539062 -1.335938 10.609375 -1.078125 10.703125 -0.734375 C 10.753906 -0.546875 10.71875 -0.378906 10.59375 -0.234375 C 10.476562 -0.078125 10.328125 0 10.140625 0 Z M 4.625 -5.546875 C 4.5625 -5.359375 4.59375 -5.191406 4.71875 -5.046875 C 4.832031 -4.890625 4.984375 -4.8125 5.171875 -4.8125 L 6.546875 -4.8125 C 6.734375 -4.8125 6.882812 -4.890625 7 -5.046875 C 7.125 -5.191406 7.160156 -5.359375 7.109375 -5.546875 C 7.003906 -5.910156 6.894531 -6.304688 6.78125 -6.734375 C 6.664062 -7.148438 6.539062 -7.597656 6.40625 -8.078125 C 6.375 -8.210938 6.304688 -8.320312 6.203125 -8.40625 C 6.085938 -8.46875 5.972656 -8.5 5.859375 -8.5 C 5.742188 -8.5 5.632812 -8.46875 5.53125 -8.40625 C 5.425781 -8.320312 5.351562 -8.210938 5.3125 -8.078125 C 5.1875 -7.648438 5.070312 -7.226562 4.96875 -6.8125 C 4.851562 -6.382812 4.738281 -5.960938 4.625 -5.546875 Z M 4.625 -5.546875 "/></g></g></g><g fill="#000000" fill-opacity="0.4"><g transform="translate(233.732582, 25.470183)"><g><path d="M 9.609375 -14.46875 C 9.765625 -14.46875 9.90625 -14.414062 10.03125 -14.3125 C 10.132812 -14.1875 10.1875 -14.046875 10.1875 -13.890625 L 10.1875 -0.578125 C 10.1875 -0.410156 10.132812 -0.273438 10.03125 -0.171875 C 9.90625 -0.0546875 9.765625 0 9.609375 0 L 8.09375 0 C 7.851562 0 7.679688 -0.109375 7.578125 -0.328125 L 3.625 -8.78125 C 3.59375 -8.882812 3.515625 -8.925781 3.390625 -8.90625 C 3.273438 -8.875 3.21875 -8.800781 3.21875 -8.6875 L 3.21875 -0.578125 C 3.21875 -0.410156 3.164062 -0.273438 3.0625 -0.171875 C 2.9375 -0.0546875 2.789062 0 2.625 0 L 1.5625 0 C 1.40625 0 1.273438 -0.0546875 1.171875 -0.171875 C 1.046875 -0.273438 0.984375 -0.410156 0.984375 -0.578125 L 0.984375 -13.890625 C 0.984375 -14.046875 1.046875 -14.1875 1.171875 -14.3125 C 1.273438 -14.414062 1.40625 -14.46875 1.5625 -14.46875 L 3.078125 -14.46875 C 3.328125 -14.46875 3.5 -14.351562 3.59375 -14.125 L 7.53125 -5.6875 C 7.570312 -5.582031 7.660156 -5.539062 7.796875 -5.5625 C 7.898438 -5.59375 7.953125 -5.664062 7.953125 -5.78125 L 7.953125 -13.890625 C 7.953125 -14.046875 8.007812 -14.1875 8.125 -14.3125 C 8.25 -14.414062 8.390625 -14.46875 8.546875 -14.46875 Z M 9.609375 -14.46875 "/></g></g></g><g fill="#000000" fill-opacity="1"><g transform="translate(69.333463, 24.054276)"><g><path d="M 8.5625 -7.484375 C 9 -7.128906 9.34375 -6.691406 9.59375 -6.171875 C 9.832031 -5.660156 9.976562 -5.128906 10.03125 -4.578125 C 10.082031 -4.023438 10.035156 -3.476562 9.890625 -2.9375 C 9.742188 -2.382812 9.5 -1.890625 9.15625 -1.453125 C 8.8125 -1.023438 8.367188 -0.679688 7.828125 -0.421875 C 7.296875 -0.140625 6.664062 0 5.9375 0 L 1.5625 0 C 1.40625 0 1.273438 -0.0546875 1.171875 -0.171875 C 1.046875 -0.273438 0.984375 -0.410156 0.984375 -0.578125 L 0.984375 -13.890625 C 0.984375 -14.046875 1.046875 -14.1875 1.171875 -14.3125 C 1.273438 -14.414062 1.40625 -14.46875 1.5625 -14.46875 L 4.8125 -14.46875 C 5.738281 -14.46875 6.507812 -14.253906 7.125 -13.828125 C 7.726562 -13.410156 8.179688 -12.882812 8.484375 -12.25 C 8.785156 -11.625 8.9375 -10.941406 8.9375 -10.203125 C 8.925781 -9.460938 8.753906 -8.785156 8.421875 -8.171875 C 8.359375 -8.054688 8.34375 -7.929688 8.375 -7.796875 C 8.394531 -7.660156 8.457031 -7.554688 8.5625 -7.484375 Z M 3.78125 -12.234375 C 3.625 -12.234375 3.492188 -12.179688 3.390625 -12.078125 C 3.273438 -11.960938 3.21875 -11.820312 3.21875 -11.65625 L 3.21875 -8.921875 C 3.21875 -8.765625 3.273438 -8.632812 3.390625 -8.53125 C 3.492188 -8.40625 3.625 -8.34375 3.78125 -8.34375 L 4.859375 -8.34375 C 5.265625 -8.34375 5.601562 -8.441406 5.875 -8.640625 C 6.15625 -8.828125 6.367188 -9.066406 6.515625 -9.359375 C 6.660156 -9.640625 6.734375 -9.953125 6.734375 -10.296875 C 6.734375 -10.628906 6.664062 -10.941406 6.53125 -11.234375 C 6.382812 -11.515625 6.175781 -11.753906 5.90625 -11.953125 C 5.625 -12.140625 5.273438 -12.234375 4.859375 -12.234375 Z M 5.984375 -2.234375 C 6.390625 -2.234375 6.726562 -2.332031 7 -2.53125 C 7.28125 -2.707031 7.492188 -2.941406 7.640625 -3.234375 C 7.765625 -3.523438 7.835938 -3.84375 7.859375 -4.1875 C 7.859375 -4.507812 7.789062 -4.816406 7.65625 -5.109375 C 7.507812 -5.398438 7.300781 -5.644531 7.03125 -5.84375 C 6.75 -6.03125 6.398438 -6.125 5.984375 -6.125 L 3.78125 -6.125 C 3.625 -6.125 3.492188 -6.066406 3.390625 -5.953125 C 3.273438 -5.835938 3.21875 -5.703125 3.21875 -5.546875 L 3.21875 -2.796875 C 3.21875 -2.640625 3.273438 -2.507812 3.390625 -2.40625 C 3.492188 -2.289062 3.625 -2.234375 3.78125 -2.234375 Z M 5.984375 -2.234375 "/></g></g></g><g fill="#000000" fill-opacity="1"><g transform="translate(80.362005, 24.054276)"><g><path d="M 2.640625 -14.46875 C 2.796875 -14.46875 2.9375 -14.414062 3.0625 -14.3125 C 3.164062 -14.1875 3.21875 -14.046875 3.21875 -13.890625 L 3.21875 -0.578125 C 3.21875 -0.410156 3.164062 -0.273438 3.0625 -0.171875 C 2.9375 -0.0546875 2.796875 0 2.640625 0 L 1.5625 0 C 1.40625 0 1.273438 -0.0546875 1.171875 -0.171875 C 1.046875 -0.273438 0.984375 -0.410156 0.984375 -0.578125 L 0.984375 -13.890625 C 0.984375 -14.046875 1.046875 -14.1875 1.171875 -14.3125 C 1.273438 -14.414062 1.40625 -14.46875 1.5625 -14.46875 Z M 2.640625 -14.46875 "/></g></g></g><g fill="#000000" fill-opacity="1"><g transform="translate(84.564298, 24.054276)"><g><path d="M 3.21875 -14.46875 C 4.28125 -14.46875 5.238281 -14.273438 6.09375 -13.890625 C 6.945312 -13.515625 7.675781 -13.003906 8.28125 -12.359375 C 8.875 -11.691406 9.335938 -10.925781 9.671875 -10.0625 C 9.984375 -9.1875 10.140625 -8.25 10.140625 -7.25 C 10.140625 -6.25 9.984375 -5.3125 9.671875 -4.4375 C 9.335938 -3.5625 8.875 -2.789062 8.28125 -2.125 C 7.675781 -1.46875 6.945312 -0.953125 6.09375 -0.578125 C 5.238281 -0.191406 4.28125 0 3.21875 0 L 1.5625 0 C 1.40625 0 1.273438 -0.0546875 1.171875 -0.171875 C 1.046875 -0.273438 0.984375 -0.410156 0.984375 -0.578125 L 0.984375 -13.890625 C 0.984375 -14.046875 1.046875 -14.1875 1.171875 -14.3125 C 1.273438 -14.414062 1.40625 -14.46875 1.5625 -14.46875 Z M 3.21875 -2.84375 C 3.21875 -2.65625 3.28125 -2.507812 3.40625 -2.40625 C 3.53125 -2.289062 3.6875 -2.242188 3.875 -2.265625 C 4.5 -2.347656 5.054688 -2.535156 5.546875 -2.828125 C 6.035156 -3.109375 6.441406 -3.472656 6.765625 -3.921875 C 7.097656 -4.359375 7.347656 -4.867188 7.515625 -5.453125 C 7.671875 -6.015625 7.75 -6.613281 7.75 -7.25 C 7.75 -7.875 7.671875 -8.476562 7.515625 -9.0625 C 7.347656 -9.625 7.097656 -10.128906 6.765625 -10.578125 C 6.441406 -11.015625 6.035156 -11.375 5.546875 -11.65625 C 5.054688 -11.945312 4.5 -12.132812 3.875 -12.21875 C 3.6875 -12.238281 3.53125 -12.191406 3.40625 -12.078125 C 3.28125 -11.960938 3.21875 -11.816406 3.21875 -11.640625 Z M 3.21875 -2.84375 "/></g></g></g><g fill="#000000" fill-opacity="1"><g transform="translate(95.69149, 24.054276)"><g><path d="M 9.015625 0 C 8.742188 0 8.5625 -0.144531 8.46875 -0.4375 C 8.425781 -0.582031 8.375 -0.789062 8.3125 -1.0625 C 8.226562 -1.320312 8.128906 -1.6875 8.015625 -2.15625 C 7.921875 -2.4375 7.726562 -2.578125 7.4375 -2.578125 L 4.28125 -2.578125 C 3.988281 -2.578125 3.796875 -2.4375 3.703125 -2.15625 C 3.617188 -1.800781 3.539062 -1.476562 3.46875 -1.1875 C 3.394531 -0.894531 3.320312 -0.644531 3.25 -0.4375 C 3.164062 -0.144531 2.984375 0 2.703125 0 L 1.578125 0 C 1.390625 0 1.238281 -0.078125 1.125 -0.234375 C 1.007812 -0.378906 0.976562 -0.546875 1.03125 -0.734375 C 1.15625 -1.210938 1.316406 -1.828125 1.515625 -2.578125 C 1.710938 -3.316406 1.929688 -4.125 2.171875 -5 C 2.410156 -5.851562 2.65625 -6.738281 2.90625 -7.65625 C 3.132812 -8.5625 3.363281 -9.429688 3.59375 -10.265625 C 3.800781 -11.078125 4 -11.816406 4.1875 -12.484375 C 4.351562 -13.148438 4.488281 -13.664062 4.59375 -14.03125 C 4.625 -14.164062 4.691406 -14.269531 4.796875 -14.34375 C 4.898438 -14.425781 5.019531 -14.46875 5.15625 -14.46875 L 6.578125 -14.46875 C 6.703125 -14.46875 6.816406 -14.425781 6.921875 -14.34375 C 7.023438 -14.269531 7.09375 -14.164062 7.125 -14.03125 C 7.582031 -12.289062 7.984375 -10.804688 8.328125 -9.578125 C 8.660156 -8.335938 8.9375 -7.296875 9.15625 -6.453125 C 9.382812 -5.609375 9.566406 -4.929688 9.703125 -4.421875 C 9.835938 -3.910156 9.953125 -3.503906 10.046875 -3.203125 C 10.117188 -2.878906 10.179688 -2.640625 10.234375 -2.484375 C 10.273438 -2.316406 10.316406 -2.160156 10.359375 -2.015625 C 10.398438 -1.867188 10.445312 -1.703125 10.5 -1.515625 C 10.539062 -1.335938 10.609375 -1.078125 10.703125 -0.734375 C 10.753906 -0.546875 10.71875 -0.378906 10.59375 -0.234375 C 10.476562 -0.078125 10.328125 0 10.140625 0 Z M 4.625 -5.546875 C 4.5625 -5.359375 4.59375 -5.191406 4.71875 -5.046875 C 4.832031 -4.890625 4.984375 -4.8125 5.171875 -4.8125 L 6.546875 -4.8125 C 6.734375 -4.8125 6.882812 -4.890625 7 -5.046875 C 7.125 -5.191406 7.160156 -5.359375 7.109375 -5.546875 C 7.003906 -5.910156 6.894531 -6.304688 6.78125 -6.734375 C 6.664062 -7.148438 6.539062 -7.597656 6.40625 -8.078125 C 6.375 -8.210938 6.304688 -8.320312 6.203125 -8.40625 C 6.085938 -8.46875 5.972656 -8.5 5.859375 -8.5 C 5.742188 -8.5 5.632812 -8.46875 5.53125 -8.40625 C 5.425781 -8.320312 5.351562 -8.210938 5.3125 -8.078125 C 5.1875 -7.648438 5.070312 -7.226562 4.96875 -6.8125 C 4.851562 -6.382812 4.738281 -5.960938 4.625 -5.546875 Z M 4.625 -5.546875 "/></g></g></g><g fill="#000000" fill-opacity="1"><g transform="translate(107.410552, 24.054276)"><g><path d="M 9.609375 -14.46875 C 9.765625 -14.46875 9.90625 -14.414062 10.03125 -14.3125 C 10.132812 -14.1875 10.1875 -14.046875 10.1875 -13.890625 L 10.1875 -0.578125 C 10.1875 -0.410156 10.132812 -0.273438 10.03125 -0.171875 C 9.90625 -0.0546875 9.765625 0 9.609375 0 L 8.09375 0 C 7.851562 0 7.679688 -0.109375 7.578125 -0.328125 L 3.625 -8.78125 C 3.59375 -8.882812 3.515625 -8.925781 3.390625 -8.90625 C 3.273438 -8.875 3.21875 -8.800781 3.21875 -8.6875 L 3.21875 -0.578125 C 3.21875 -0.410156 3.164062 -0.273438 3.0625 -0.171875 C 2.9375 -0.0546875 2.789062 0 2.625 0 L 1.5625 0 C 1.40625 0 1.273438 -0.0546875 1.171875 -0.171875 C 1.046875 -0.273438 0.984375 -0.410156 0.984375 -0.578125 L 0.984375 -13.890625 C 0.984375 -14.046875 1.046875 -14.1875 1.171875 -14.3125 C 1.273438 -14.414062 1.40625 -14.46875 1.5625 -14.46875 L 3.078125 -14.46875 C 3.328125 -14.46875 3.5 -14.351562 3.59375 -14.125 L 7.53125 -5.6875 C 7.570312 -5.582031 7.660156 -5.539062 7.796875 -5.5625 C 7.898438 -5.59375 7.953125 -5.664062 7.953125 -5.78125 L 7.953125 -13.890625 C 7.953125 -14.046875 8.007812 -14.1875 8.125 -14.3125 C 8.25 -14.414062 8.390625 -14.46875 8.546875 -14.46875 Z M 9.609375 -14.46875 "/></g></g></g><g fill="#000000" fill-opacity="1"><g transform="translate(118.577203, 24.054276)"><g><path d="M 12.953125 -7.53125 C 13.035156 -7.53125 13.113281 -7.503906 13.1875 -7.453125 C 13.238281 -7.390625 13.265625 -7.320312 13.265625 -7.25 C 13.265625 -6.351562 13.160156 -5.46875 12.953125 -4.59375 C 12.722656 -3.726562 12.347656 -2.941406 11.828125 -2.234375 C 11.265625 -1.492188 10.59375 -0.941406 9.8125 -0.578125 C 9.007812 -0.191406 8.113281 0 7.125 0 C 5.125 0 3.554688 -0.742188 2.421875 -2.234375 C 1.460938 -3.535156 0.984375 -5.195312 0.984375 -7.21875 C 0.984375 -8.238281 1.109375 -9.164062 1.359375 -10 C 1.597656 -10.84375 1.953125 -11.582031 2.421875 -12.21875 C 2.972656 -12.96875 3.648438 -13.53125 4.453125 -13.90625 C 5.242188 -14.28125 6.132812 -14.46875 7.125 -14.46875 C 8.113281 -14.46875 9.007812 -14.28125 9.8125 -13.90625 C 10.59375 -13.53125 11.265625 -12.96875 11.828125 -12.21875 C 11.878906 -12.144531 11.894531 -12.070312 11.875 -12 C 11.851562 -11.90625 11.800781 -11.832031 11.71875 -11.78125 L 10.296875 -10.96875 C 10.171875 -10.894531 10.046875 -10.914062 9.921875 -11.03125 C 9.703125 -11.289062 9.46875 -11.5 9.21875 -11.65625 C 8.957031 -11.820312 8.703125 -11.945312 8.453125 -12.03125 C 8.203125 -12.113281 7.960938 -12.171875 7.734375 -12.203125 C 7.492188 -12.222656 7.289062 -12.234375 7.125 -12.234375 C 6.820312 -12.234375 6.453125 -12.1875 6.015625 -12.09375 C 5.566406 -11.988281 5.140625 -11.765625 4.734375 -11.421875 C 4.316406 -11.078125 3.960938 -10.578125 3.671875 -9.921875 C 3.367188 -9.253906 3.21875 -8.351562 3.21875 -7.21875 C 3.21875 -6.09375 3.367188 -5.195312 3.671875 -4.53125 C 3.960938 -3.875 4.316406 -3.378906 4.734375 -3.046875 C 5.140625 -2.703125 5.566406 -2.484375 6.015625 -2.390625 C 6.453125 -2.285156 6.820312 -2.234375 7.125 -2.234375 C 7.363281 -2.234375 7.644531 -2.257812 7.96875 -2.3125 C 8.300781 -2.363281 8.644531 -2.488281 9 -2.6875 C 9.34375 -2.863281 9.671875 -3.132812 9.984375 -3.5 C 10.285156 -3.851562 10.53125 -4.320312 10.71875 -4.90625 C 10.738281 -5.019531 10.722656 -5.113281 10.671875 -5.1875 C 10.617188 -5.269531 10.539062 -5.3125 10.4375 -5.3125 L 8.03125 -5.3125 C 7.875 -5.3125 7.742188 -5.367188 7.640625 -5.484375 C 7.515625 -5.585938 7.453125 -5.726562 7.453125 -5.90625 L 7.453125 -6.96875 C 7.453125 -7.125 7.515625 -7.257812 7.640625 -7.375 C 7.742188 -7.476562 7.875 -7.53125 8.03125 -7.53125 Z M 12.953125 -7.53125 "/></g></g></g><g fill="#000000" fill-opacity="1"><g transform="translate(132.821585, 24.054276)"><g/></g></g><g fill="#000000" fill-opacity="1"><g transform="translate(138.740299, 24.054276)"><g><path d="M 4.8125 -14.46875 C 5.71875 -14.46875 6.484375 -14.21875 7.109375 -13.71875 C 7.710938 -13.21875 8.164062 -12.59375 8.46875 -11.84375 C 8.769531 -11.082031 8.921875 -10.265625 8.921875 -9.390625 C 8.921875 -8.515625 8.769531 -7.703125 8.46875 -6.953125 C 8.164062 -6.179688 7.710938 -5.546875 7.109375 -5.046875 C 6.484375 -4.546875 5.71875 -4.296875 4.8125 -4.296875 L 3.78125 -4.296875 C 3.625 -4.296875 3.492188 -4.242188 3.390625 -4.140625 C 3.273438 -4.023438 3.21875 -3.890625 3.21875 -3.734375 L 3.21875 -0.578125 C 3.21875 -0.410156 3.164062 -0.273438 3.0625 -0.171875 C 2.9375 -0.0546875 2.796875 0 2.640625 0 L 1.5625 0 C 1.40625 0 1.273438 -0.0546875 1.171875 -0.171875 C 1.046875 -0.273438 0.984375 -0.410156 0.984375 -0.578125 L 0.984375 -13.890625 C 0.984375 -14.046875 1.046875 -14.1875 1.171875 -14.3125 C 1.273438 -14.414062 1.40625 -14.46875 1.5625 -14.46875 Z M 4.859375 -6.53125 C 5.265625 -6.53125 5.601562 -6.675781 5.875 -6.96875 C 6.15625 -7.238281 6.367188 -7.585938 6.515625 -8.015625 C 6.660156 -8.429688 6.734375 -8.890625 6.734375 -9.390625 C 6.734375 -9.878906 6.664062 -10.332031 6.53125 -10.75 C 6.382812 -11.175781 6.175781 -11.535156 5.90625 -11.828125 C 5.625 -12.097656 5.273438 -12.234375 4.859375 -12.234375 L 3.78125 -12.234375 C 3.625 -12.234375 3.492188 -12.179688 3.390625 -12.078125 C 3.273438 -11.960938 3.21875 -11.820312 3.21875 -11.65625 L 3.21875 -7.109375 C 3.21875 -6.953125 3.273438 -6.816406 3.390625 -6.703125 C 3.492188 -6.585938 3.625 -6.53125 3.78125 -6.53125 Z M 4.859375 -6.53125 "/></g></g></g><g fill="#000000" fill-opacity="1"><g transform="translate(148.664021, 24.054276)"><g><path d="M 8.09375 -12.8125 C 8.09375 -12.65625 8.039062 -12.519531 7.9375 -12.40625 C 7.8125 -12.289062 7.671875 -12.234375 7.515625 -12.234375 L 3.78125 -12.234375 C 3.625 -12.234375 3.492188 -12.179688 3.390625 -12.078125 C 3.273438 -11.960938 3.21875 -11.820312 3.21875 -11.65625 L 3.21875 -10.484375 C 3.21875 -10.316406 3.273438 -10.179688 3.390625 -10.078125 C 3.492188 -9.960938 3.625 -9.90625 3.78125 -9.90625 L 6.25 -9.90625 C 6.425781 -9.90625 6.570312 -9.851562 6.6875 -9.75 C 6.789062 -9.632812 6.84375 -9.492188 6.84375 -9.328125 L 6.84375 -8.265625 C 6.84375 -8.109375 6.789062 -7.972656 6.6875 -7.859375 C 6.570312 -7.734375 6.425781 -7.671875 6.25 -7.671875 L 3.78125 -7.671875 C 3.625 -7.671875 3.492188 -7.617188 3.390625 -7.515625 C 3.273438 -7.398438 3.21875 -7.265625 3.21875 -7.109375 L 3.21875 -2.796875 C 3.21875 -2.640625 3.273438 -2.507812 3.390625 -2.40625 C 3.492188 -2.289062 3.625 -2.234375 3.78125 -2.234375 L 7.515625 -2.234375 C 7.671875 -2.234375 7.8125 -2.179688 7.9375 -2.078125 C 8.039062 -1.953125 8.09375 -1.8125 8.09375 -1.65625 L 8.09375 -0.578125 C 8.09375 -0.410156 8.039062 -0.273438 7.9375 -0.171875 C 7.8125 -0.0546875 7.671875 0 7.515625 0 L 1.5625 0 C 1.40625 0 1.273438 -0.0546875 1.171875 -0.171875 C 1.046875 -0.273438 0.984375 -0.410156 0.984375 -0.578125 L 0.984375 -13.890625 C 0.984375 -14.046875 1.046875 -14.1875 1.171875 -14.3125 C 1.273438 -14.414062 1.40625 -14.46875 1.5625 -14.46875 L 7.515625 -14.46875 C 7.671875 -14.46875 7.8125 -14.414062 7.9375 -14.3125 C 8.039062 -14.1875 8.09375 -14.046875 8.09375 -13.890625 Z M 8.09375 -12.8125 "/></g></g></g><g fill="#000000" fill-opacity="1"><g transform="translate(157.739384, 24.054276)"><g><path d="M 4.8125 -14.46875 C 5.550781 -14.46875 6.191406 -14.300781 6.734375 -13.96875 C 7.265625 -13.625 7.703125 -13.1875 8.046875 -12.65625 C 8.390625 -12.113281 8.632812 -11.503906 8.78125 -10.828125 C 8.925781 -10.160156 8.972656 -9.484375 8.921875 -8.796875 C 8.859375 -8.117188 8.703125 -7.46875 8.453125 -6.84375 C 8.179688 -6.226562 7.820312 -5.707031 7.375 -5.28125 C 7.175781 -5.113281 7.125 -4.910156 7.21875 -4.671875 L 8.640625 -0.765625 C 8.710938 -0.585938 8.691406 -0.414062 8.578125 -0.25 C 8.460938 -0.0820312 8.300781 0 8.09375 0 L 6.96875 0 C 6.6875 0 6.5 -0.125 6.40625 -0.375 L 5.125 -3.921875 C 5.039062 -4.171875 4.859375 -4.296875 4.578125 -4.296875 L 3.78125 -4.296875 C 3.625 -4.296875 3.492188 -4.242188 3.390625 -4.140625 C 3.273438 -4.023438 3.21875 -3.890625 3.21875 -3.734375 L 3.21875 -0.578125 C 3.21875 -0.410156 3.164062 -0.273438 3.0625 -0.171875 C 2.9375 -0.0546875 2.796875 0 2.640625 0 L 1.5625 0 C 1.40625 0 1.273438 -0.0546875 1.171875 -0.171875 C 1.046875 -0.273438 0.984375 -0.410156 0.984375 -0.578125 L 0.984375 -13.890625 C 0.984375 -14.046875 1.046875 -14.1875 1.171875 -14.3125 C 1.273438 -14.414062 1.40625 -14.46875 1.5625 -14.46875 Z M 3.21875 -7.109375 C 3.21875 -6.953125 3.273438 -6.816406 3.390625 -6.703125 C 3.492188 -6.585938 3.625 -6.53125 3.78125 -6.53125 L 4.859375 -6.53125 C 5.265625 -6.53125 5.601562 -6.675781 5.875 -6.96875 C 6.15625 -7.238281 6.367188 -7.585938 6.515625 -8.015625 C 6.660156 -8.429688 6.734375 -8.890625 6.734375 -9.390625 C 6.734375 -9.878906 6.664062 -10.332031 6.53125 -10.75 C 6.382812 -11.175781 6.175781 -11.535156 5.90625 -11.828125 C 5.625 -12.097656 5.273438 -12.234375 4.859375 -12.234375 L 3.78125 -12.234375 C 3.625 -12.234375 3.492188 -12.179688 3.390625 -12.078125 C 3.273438 -11.960938 3.21875 -11.820312 3.21875 -11.65625 Z M 3.21875 -7.109375 "/></g></g></g><g fill="#000000" fill-opacity="1"><g transform="translate(167.663106, 24.054276)"><g><path d="M 9.140625 -12.8125 C 9.140625 -12.65625 9.085938 -12.519531 8.984375 -12.40625 C 8.859375 -12.289062 8.710938 -12.234375 8.546875 -12.234375 L 6.75 -12.234375 C 6.59375 -12.234375 6.460938 -12.179688 6.359375 -12.078125 C 6.234375 -11.960938 6.171875 -11.820312 6.171875 -11.65625 L 6.171875 -0.578125 C 6.171875 -0.410156 6.117188 -0.273438 6.015625 -0.171875 C 5.898438 -0.0546875 5.753906 0 5.578125 0 L 4.515625 0 C 4.359375 0 4.226562 -0.0546875 4.125 -0.171875 C 4.007812 -0.273438 3.953125 -0.410156 3.953125 -0.578125 L 3.953125 -11.65625 C 3.953125 -11.820312 3.894531 -11.960938 3.78125 -12.078125 C 3.664062 -12.179688 3.53125 -12.234375 3.375 -12.234375 L 1.5625 -12.234375 C 1.40625 -12.234375 1.273438 -12.289062 1.171875 -12.40625 C 1.046875 -12.519531 0.984375 -12.65625 0.984375 -12.8125 L 0.984375 -13.890625 C 0.984375 -14.046875 1.046875 -14.1875 1.171875 -14.3125 C 1.273438 -14.414062 1.40625 -14.46875 1.5625 -14.46875 L 8.546875 -14.46875 C 8.710938 -14.46875 8.859375 -14.414062 8.984375 -14.3125 C 9.085938 -14.1875 9.140625 -14.046875 9.140625 -13.890625 Z M 9.140625 -12.8125 "/></g></g></g><g fill="#000000" fill-opacity="1"><g transform="translate(177.784113, 24.054276)"><g><path d="M 9.015625 0 C 8.742188 0 8.5625 -0.144531 8.46875 -0.4375 C 8.425781 -0.582031 8.375 -0.789062 8.3125 -1.0625 C 8.226562 -1.320312 8.128906 -1.6875 8.015625 -2.15625 C 7.921875 -2.4375 7.726562 -2.578125 7.4375 -2.578125 L 4.28125 -2.578125 C 3.988281 -2.578125 3.796875 -2.4375 3.703125 -2.15625 C 3.617188 -1.800781 3.539062 -1.476562 3.46875 -1.1875 C 3.394531 -0.894531 3.320312 -0.644531 3.25 -0.4375 C 3.164062 -0.144531 2.984375 0 2.703125 0 L 1.578125 0 C 1.390625 0 1.238281 -0.078125 1.125 -0.234375 C 1.007812 -0.378906 0.976562 -0.546875 1.03125 -0.734375 C 1.15625 -1.210938 1.316406 -1.828125 1.515625 -2.578125 C 1.710938 -3.316406 1.929688 -4.125 2.171875 -5 C 2.410156 -5.851562 2.65625 -6.738281 2.90625 -7.65625 C 3.132812 -8.5625 3.363281 -9.429688 3.59375 -10.265625 C 3.800781 -11.078125 4 -11.816406 4.1875 -12.484375 C 4.351562 -13.148438 4.488281 -13.664062 4.59375 -14.03125 C 4.625 -14.164062 4.691406 -14.269531 4.796875 -14.34375 C 4.898438 -14.425781 5.019531 -14.46875 5.15625 -14.46875 L 6.578125 -14.46875 C 6.703125 -14.46875 6.816406 -14.425781 6.921875 -14.34375 C 7.023438 -14.269531 7.09375 -14.164062 7.125 -14.03125 C 7.582031 -12.289062 7.984375 -10.804688 8.328125 -9.578125 C 8.660156 -8.335938 8.9375 -7.296875 9.15625 -6.453125 C 9.382812 -5.609375 9.566406 -4.929688 9.703125 -4.421875 C 9.835938 -3.910156 9.953125 -3.503906 10.046875 -3.203125 C 10.117188 -2.878906 10.179688 -2.640625 10.234375 -2.484375 C 10.273438 -2.316406 10.316406 -2.160156 10.359375 -2.015625 C 10.398438 -1.867188 10.445312 -1.703125 10.5 -1.515625 C 10.539062 -1.335938 10.609375 -1.078125 10.703125 -0.734375 C 10.753906 -0.546875 10.71875 -0.378906 10.59375 -0.234375 C 10.476562 -0.078125 10.328125 0 10.140625 0 Z M 4.625 -5.546875 C 4.5625 -5.359375 4.59375 -5.191406 4.71875 -5.046875 C 4.832031 -4.890625 4.984375 -4.8125 5.171875 -4.8125 L 6.546875 -4.8125 C 6.734375 -4.8125 6.882812 -4.890625 7 -5.046875 C 7.125 -5.191406 7.160156 -5.359375 7.109375 -5.546875 C 7.003906 -5.910156 6.894531 -6.304688 6.78125 -6.734375 C 6.664062 -7.148438 6.539062 -7.597656 6.40625 -8.078125 C 6.375 -8.210938 6.304688 -8.320312 6.203125 -8.40625 C 6.085938 -8.46875 5.972656 -8.5 5.859375 -8.5 C 5.742188 -8.5 5.632812 -8.46875 5.53125 -8.40625 C 5.425781 -8.320312 5.351562 -8.210938 5.3125 -8.078125 C 5.1875 -7.648438 5.070312 -7.226562 4.96875 -6.8125 C 4.851562 -6.382812 4.738281 -5.960938 4.625 -5.546875 Z M 4.625 -5.546875 "/></g></g></g><g fill="#000000" fill-opacity="1"><g transform="translate(189.503175, 24.054276)"><g><path d="M 7.15625 -13.890625 C 7.15625 -14.046875 7.21875 -14.1875 7.34375 -14.3125 C 7.445312 -14.414062 7.582031 -14.46875 7.75 -14.46875 L 8.828125 -14.46875 C 8.984375 -14.46875 9.117188 -14.414062 9.234375 -14.3125 C 9.335938 -14.1875 9.390625 -14.046875 9.390625 -13.890625 L 9.390625 -0.578125 C 9.390625 -0.410156 9.335938 -0.273438 9.234375 -0.171875 C 9.117188 -0.0546875 8.984375 0 8.828125 0 L 7.75 0 C 7.582031 0 7.445312 -0.0546875 7.34375 -0.171875 C 7.21875 -0.273438 7.15625 -0.410156 7.15625 -0.578125 L 7.15625 -5.546875 C 7.15625 -5.703125 7.101562 -5.835938 7 -5.953125 C 6.882812 -6.066406 6.75 -6.125 6.59375 -6.125 L 3.78125 -6.125 C 3.625 -6.125 3.492188 -6.066406 3.390625 -5.953125 C 3.273438 -5.835938 3.21875 -5.703125 3.21875 -5.546875 L 3.21875 -0.578125 C 3.21875 -0.410156 3.164062 -0.273438 3.0625 -0.171875 C 2.9375 -0.0546875 2.796875 0 2.640625 0 L 1.5625 0 C 1.40625 0 1.273438 -0.0546875 1.171875 -0.171875 C 1.046875 -0.273438 0.984375 -0.410156 0.984375 -0.578125 L 0.984375 -13.890625 C 0.984375 -14.046875 1.046875 -14.1875 1.171875 -14.3125 C 1.273438 -14.414062 1.40625 -14.46875 1.5625 -14.46875 L 2.640625 -14.46875 C 2.796875 -14.46875 2.9375 -14.414062 3.0625 -14.3125 C 3.164062 -14.1875 3.21875 -14.046875 3.21875 -13.890625 L 3.21875 -8.921875 C 3.21875 -8.765625 3.273438 -8.632812 3.390625 -8.53125 C 3.492188 -8.40625 3.625 -8.34375 3.78125 -8.34375 L 6.59375 -8.34375 C 6.75 -8.34375 6.882812 -8.40625 7 -8.53125 C 7.101562 -8.632812 7.15625 -8.765625 7.15625 -8.921875 Z M 7.15625 -13.890625 "/></g></g></g><g fill="#000000" fill-opacity="1"><g transform="translate(199.880658, 24.054276)"><g><path d="M 9.015625 0 C 8.742188 0 8.5625 -0.144531 8.46875 -0.4375 C 8.425781 -0.582031 8.375 -0.789062 8.3125 -1.0625 C 8.226562 -1.320312 8.128906 -1.6875 8.015625 -2.15625 C 7.921875 -2.4375 7.726562 -2.578125 7.4375 -2.578125 L 4.28125 -2.578125 C 3.988281 -2.578125 3.796875 -2.4375 3.703125 -2.15625 C 3.617188 -1.800781 3.539062 -1.476562 3.46875 -1.1875 C 3.394531 -0.894531 3.320312 -0.644531 3.25 -0.4375 C 3.164062 -0.144531 2.984375 0 2.703125 0 L 1.578125 0 C 1.390625 0 1.238281 -0.078125 1.125 -0.234375 C 1.007812 -0.378906 0.976562 -0.546875 1.03125 -0.734375 C 1.15625 -1.210938 1.316406 -1.828125 1.515625 -2.578125 C 1.710938 -3.316406 1.929688 -4.125 2.171875 -5 C 2.410156 -5.851562 2.65625 -6.738281 2.90625 -7.65625 C 3.132812 -8.5625 3.363281 -9.429688 3.59375 -10.265625 C 3.800781 -11.078125 4 -11.816406 4.1875 -12.484375 C 4.351562 -13.148438 4.488281 -13.664062 4.59375 -14.03125 C 4.625 -14.164062 4.691406 -14.269531 4.796875 -14.34375 C 4.898438 -14.425781 5.019531 -14.46875 5.15625 -14.46875 L 6.578125 -14.46875 C 6.703125 -14.46875 6.816406 -14.425781 6.921875 -14.34375 C 7.023438 -14.269531 7.09375 -14.164062 7.125 -14.03125 C 7.582031 -12.289062 7.984375 -10.804688 8.328125 -9.578125 C 8.660156 -8.335938 8.9375 -7.296875 9.15625 -6.453125 C 9.382812 -5.609375 9.566406 -4.929688 9.703125 -4.421875 C 9.835938 -3.910156 9.953125 -3.503906 10.046875 -3.203125 C 10.117188 -2.878906 10.179688 -2.640625 10.234375 -2.484375 C 10.273438 -2.316406 10.316406 -2.160156 10.359375 -2.015625 C 10.398438 -1.867188 10.445312 -1.703125 10.5 -1.515625 C 10.539062 -1.335938 10.609375 -1.078125 10.703125 -0.734375 C 10.753906 -0.546875 10.71875 -0.378906 10.59375 -0.234375 C 10.476562 -0.078125 10.328125 0 10.140625 0 Z M 4.625 -5.546875 C 4.5625 -5.359375 4.59375 -5.191406 4.71875 -5.046875 C 4.832031 -4.890625 4.984375 -4.8125 5.171875 -4.8125 L 6.546875 -4.8125 C 6.734375 -4.8125 6.882812 -4.890625 7 -5.046875 C 7.125 -5.191406 7.160156 -5.359375 7.109375 -5.546875 C 7.003906 -5.910156 6.894531 -6.304688 6.78125 -6.734375 C 6.664062 -7.148438 6.539062 -7.597656 6.40625 -8.078125 C 6.375 -8.210938 6.304688 -8.320312 6.203125 -8.40625 C 6.085938 -8.46875 5.972656 -8.5 5.859375 -8.5 C 5.742188 -8.5 5.632812 -8.46875 5.53125 -8.40625 C 5.425781 -8.320312 5.351562 -8.210938 5.3125 -8.078125 C 5.1875 -7.648438 5.070312 -7.226562 4.96875 -6.8125 C 4.851562 -6.382812 4.738281 -5.960938 4.625 -5.546875 Z M 4.625 -5.546875 "/></g></g></g><g fill="#000000" fill-opacity="1"><g transform="translate(211.59972, 24.054276)"><g><path d="M 9.609375 -14.46875 C 9.765625 -14.46875 9.90625 -14.414062 10.03125 -14.3125 C 10.132812 -14.1875 10.1875 -14.046875 10.1875 -13.890625 L 10.1875 -0.578125 C 10.1875 -0.410156 10.132812 -0.273438 10.03125 -0.171875 C 9.90625 -0.0546875 9.765625 0 9.609375 0 L 8.09375 0 C 7.851562 0 7.679688 -0.109375 7.578125 -0.328125 L 3.625 -8.78125 C 3.59375 -8.882812 3.515625 -8.925781 3.390625 -8.90625 C 3.273438 -8.875 3.21875 -8.800781 3.21875 -8.6875 L 3.21875 -0.578125 C 3.21875 -0.410156 3.164062 -0.273438 3.0625 -0.171875 C 2.9375 -0.0546875 2.789062 0 2.625 0 L 1.5625 0 C 1.40625 0 1.273438 -0.0546875 1.171875 -0.171875 C 1.046875 -0.273438 0.984375 -0.410156 0.984375 -0.578125 L 0.984375 -13.890625 C 0.984375 -14.046875 1.046875 -14.1875 1.171875 -14.3125 C 1.273438 -14.414062 1.40625 -14.46875 1.5625 -14.46875 L 3.078125 -14.46875 C 3.328125 -14.46875 3.5 -14.351562 3.59375 -14.125 L 7.53125 -5.6875 C 7.570312 -5.582031 7.660156 -5.539062 7.796875 -5.5625 C 7.898438 -5.59375 7.953125 -5.664062 7.953125 -5.78125 L 7.953125 -13.890625 C 7.953125 -14.046875 8.007812 -14.1875 8.125 -14.3125 C 8.25 -14.414062 8.390625 -14.46875 8.546875 -14.46875 Z M 9.609375 -14.46875 "/></g></g></g><g fill="#000000" fill-opacity="1"><g transform="translate(222.766371, 24.054276)"><g><path d="M 9.015625 0 C 8.742188 0 8.5625 -0.144531 8.46875 -0.4375 C 8.425781 -0.582031 8.375 -0.789062 8.3125 -1.0625 C 8.226562 -1.320312 8.128906 -1.6875 8.015625 -2.15625 C 7.921875 -2.4375 7.726562 -2.578125 7.4375 -2.578125 L 4.28125 -2.578125 C 3.988281 -2.578125 3.796875 -2.4375 3.703125 -2.15625 C 3.617188 -1.800781 3.539062 -1.476562 3.46875 -1.1875 C 3.394531 -0.894531 3.320312 -0.644531 3.25 -0.4375 C 3.164062 -0.144531 2.984375 0 2.703125 0 L 1.578125 0 C 1.390625 0 1.238281 -0.078125 1.125 -0.234375 C 1.007812 -0.378906 0.976562 -0.546875 1.03125 -0.734375 C 1.15625 -1.210938 1.316406 -1.828125 1.515625 -2.578125 C 1.710938 -3.316406 1.929688 -4.125 2.171875 -5 C 2.410156 -5.851562 2.65625 -6.738281 2.90625 -7.65625 C 3.132812 -8.5625 3.363281 -9.429688 3.59375 -10.265625 C 3.800781 -11.078125 4 -11.816406 4.1875 -12.484375 C 4.351562 -13.148438 4.488281 -13.664062 4.59375 -14.03125 C 4.625 -14.164062 4.691406 -14.269531 4.796875 -14.34375 C 4.898438 -14.425781 5.019531 -14.46875 5.15625 -14.46875 L 6.578125 -14.46875 C 6.703125 -14.46875 6.816406 -14.425781 6.921875 -14.34375 C 7.023438 -14.269531 7.09375 -14.164062 7.125 -14.03125 C 7.582031 -12.289062 7.984375 -10.804688 8.328125 -9.578125 C 8.660156 -8.335938 8.9375 -7.296875 9.15625 -6.453125 C 9.382812 -5.609375 9.566406 -4.929688 9.703125 -4.421875 C 9.835938 -3.910156 9.953125 -3.503906 10.046875 -3.203125 C 10.117188 -2.878906 10.179688 -2.640625 10.234375 -2.484375 C 10.273438 -2.316406 10.316406 -2.160156 10.359375 -2.015625 C 10.398438 -1.867188 10.445312 -1.703125 10.5 -1.515625 C 10.539062 -1.335938 10.609375 -1.078125 10.703125 -0.734375 C 10.753906 -0.546875 10.71875 -0.378906 10.59375 -0.234375 C 10.476562 -0.078125 10.328125 0 10.140625 0 Z M 4.625 -5.546875 C 4.5625 -5.359375 4.59375 -5.191406 4.71875 -5.046875 C 4.832031 -4.890625 4.984375 -4.8125 5.171875 -4.8125 L 6.546875 -4.8125 C 6.734375 -4.8125 6.882812 -4.890625 7 -5.046875 C 7.125 -5.191406 7.160156 -5.359375 7.109375 -5.546875 C 7.003906 -5.910156 6.894531 -6.304688 6.78125 -6.734375 C 6.664062 -7.148438 6.539062 -7.597656 6.40625 -8.078125 C 6.375 -8.210938 6.304688 -8.320312 6.203125 -8.40625 C 6.085938 -8.46875 5.972656 -8.5 5.859375 -8.5 C 5.742188 -8.5 5.632812 -8.46875 5.53125 -8.40625 C 5.425781 -8.320312 5.351562 -8.210938 5.3125 -8.078125 C 5.1875 -7.648438 5.070312 -7.226562 4.96875 -6.8125 C 4.851562 -6.382812 4.738281 -5.960938 4.625 -5.546875 Z M 4.625 -5.546875 "/></g></g></g><g fill="#000000" fill-opacity="1"><g transform="translate(234.485433, 24.054276)"><g><path d="M 9.609375 -14.46875 C 9.765625 -14.46875 9.90625 -14.414062 10.03125 -14.3125 C 10.132812 -14.1875 10.1875 -14.046875 10.1875 -13.890625 L 10.1875 -0.578125 C 10.1875 -0.410156 10.132812 -0.273438 10.03125 -0.171875 C 9.90625 -0.0546875 9.765625 0 9.609375 0 L 8.09375 0 C 7.851562 0 7.679688 -0.109375 7.578125 -0.328125 L 3.625 -8.78125 C 3.59375 -8.882812 3.515625 -8.925781 3.390625 -8.90625 C 3.273438 -8.875 3.21875 -8.800781 3.21875 -8.6875 L 3.21875 -0.578125 C 3.21875 -0.410156 3.164062 -0.273438 3.0625 -0.171875 C 2.9375 -0.0546875 2.789062 0 2.625 0 L 1.5625 0 C 1.40625 0 1.273438 -0.0546875 1.171875 -0.171875 C 1.046875 -0.273438 0.984375 -0.410156 0.984375 -0.578125 L 0.984375 -13.890625 C 0.984375 -14.046875 1.046875 -14.1875 1.171875 -14.3125 C 1.273438 -14.414062 1.40625 -14.46875 1.5625 -14.46875 L 3.078125 -14.46875 C 3.328125 -14.46875 3.5 -14.351562 3.59375 -14.125 L 7.53125 -5.6875 C 7.570312 -5.582031 7.660156 -5.539062 7.796875 -5.5625 C 7.898438 -5.59375 7.953125 -5.664062 7.953125 -5.78125 L 7.953125 -13.890625 C 7.953125 -14.046875 8.007812 -14.1875 8.125 -14.3125 C 8.25 -14.414062 8.390625 -14.46875 8.546875 -14.46875 Z M 9.609375 -14.46875 "/></g></g></g></svg>