<svg xmlns="http://www.w3.org/2000/svg" xmlns:xlink="http://www.w3.org/1999/xlink" width="220" zoomAndPan="magnify" viewBox="0 0 165 37.5" height="50" preserveAspectRatio="xMidYMid meet" version="1.0"><defs><g/><clipPath id="ae011cc148"><path d="M 1.085938 0 L 163.914062 0 L 163.914062 37.007812 L 1.085938 37.007812 Z M 1.085938 0 " clip-rule="nonzero"/></clipPath></defs><g clip-path="url(#ae011cc148)"><path fill="#ffffff" d="M 1.085938 0 L 163.914062 0 L 163.914062 37.007812 L 1.085938 37.007812 Z M 1.085938 0 " fill-opacity="1" fill-rule="nonzero"/><path fill="#ffffff" d="M 1.085938 0 L 163.914062 0 L 163.914062 37.007812 L 1.085938 37.007812 Z M 1.085938 0 " fill-opacity="1" fill-rule="nonzero"/><path fill="#ffffff" d="M 1.085938 0 L 163.855469 0 L 163.855469 37.007812 L 1.085938 37.007812 Z M 1.085938 0 " fill-opacity="1" fill-rule="nonzero"/><path stroke-linecap="butt" transform="matrix(0.740132, 0, 0, 0.740132, 1.085528, 0.000000986842)" fill="none" stroke-linejoin="miter" d="M 0.00055393 -0.00000133333 L 219.999452 -0.00000133333 L 219.999452 50.001667 L 0.00055393 50.001667 Z M 0.00055393 -0.00000133333 " stroke="#000000" stroke-width="4" stroke-opacity="1" stroke-miterlimit="4"/></g><g fill="#000000" fill-opacity="0.4"><g transform="translate(41.494778, 26.20587)"><g><path d="M 4.8125 -14.46875 C 5.550781 -14.46875 6.191406 -14.300781 6.734375 -13.96875 C 7.265625 -13.625 7.703125 -13.1875 8.046875 -12.65625 C 8.390625 -12.113281 8.632812 -11.503906 8.78125 -10.828125 C 8.925781 -10.160156 8.972656 -9.484375 8.921875 -8.796875 C 8.859375 -8.117188 8.703125 -7.46875 8.453125 -6.84375 C 8.179688 -6.226562 7.820312 -5.707031 7.375 -5.28125 C 7.175781 -5.113281 7.125 -4.910156 7.21875 -4.671875 L 8.640625 -0.765625 C 8.710938 -0.585938 8.691406 -0.414062 8.578125 -0.25 C 8.460938 -0.0820312 8.300781 0 8.09375 0 L 6.96875 0 C 6.6875 0 6.5 -0.125 6.40625 -0.375 L 5.125 -3.921875 C 5.039062 -4.171875 4.859375 -4.296875 4.578125 -4.296875 L 3.78125 -4.296875 C 3.625 -4.296875 3.492188 -4.242188 3.390625 -4.140625 C 3.273438 -4.023438 3.21875 -3.890625 3.21875 -3.734375 L 3.21875 -0.578125 C 3.21875 -0.410156 3.164062 -0.273438 3.0625 -0.171875 C 2.9375 -0.0546875 2.796875 0 2.640625 0 L 1.5625 0 C 1.40625 0 1.273438 -0.0546875 1.171875 -0.171875 C 1.046875 -0.273438 0.984375 -0.410156 0.984375 -0.578125 L 0.984375 -13.890625 C 0.984375 -14.046875 1.046875 -14.1875 1.171875 -14.3125 C 1.273438 -14.414062 1.40625 -14.46875 1.5625 -14.46875 Z M 3.21875 -7.109375 C 3.21875 -6.953125 3.273438 -6.816406 3.390625 -6.703125 C 3.492188 -6.585938 3.625 -6.53125 3.78125 -6.53125 L 4.859375 -6.53125 C 5.265625 -6.53125 5.601562 -6.675781 5.875 -6.96875 C 6.15625 -7.238281 6.367188 -7.585938 6.515625 -8.015625 C 6.660156 -8.429688 6.734375 -8.890625 6.734375 -9.390625 C 6.734375 -9.878906 6.664062 -10.332031 6.53125 -10.75 C 6.382812 -11.175781 6.175781 -11.535156 5.90625 -11.828125 C 5.625 -12.097656 5.273438 -12.234375 4.859375 -12.234375 L 3.78125 -12.234375 C 3.625 -12.234375 3.492188 -12.179688 3.390625 -12.078125 C 3.273438 -11.960938 3.21875 -11.820312 3.21875 -11.65625 Z M 3.21875 -7.109375 "/></g></g></g><g fill="#000000" fill-opacity="0.4"><g transform="translate(51.418499, 26.20587)"><g><path d="M 8.09375 -12.8125 C 8.09375 -12.65625 8.039062 -12.519531 7.9375 -12.40625 C 7.8125 -12.289062 7.671875 -12.234375 7.515625 -12.234375 L 3.78125 -12.234375 C 3.625 -12.234375 3.492188 -12.179688 3.390625 -12.078125 C 3.273438 -11.960938 3.21875 -11.820312 3.21875 -11.65625 L 3.21875 -10.484375 C 3.21875 -10.316406 3.273438 -10.179688 3.390625 -10.078125 C 3.492188 -9.960938 3.625 -9.90625 3.78125 -9.90625 L 6.25 -9.90625 C 6.425781 -9.90625 6.570312 -9.851562 6.6875 -9.75 C 6.789062 -9.632812 6.84375 -9.492188 6.84375 -9.328125 L 6.84375 -8.265625 C 6.84375 -8.109375 6.789062 -7.972656 6.6875 -7.859375 C 6.570312 -7.734375 6.425781 -7.671875 6.25 -7.671875 L 3.78125 -7.671875 C 3.625 -7.671875 3.492188 -7.617188 3.390625 -7.515625 C 3.273438 -7.398438 3.21875 -7.265625 3.21875 -7.109375 L 3.21875 -2.796875 C 3.21875 -2.640625 3.273438 -2.507812 3.390625 -2.40625 C 3.492188 -2.289062 3.625 -2.234375 3.78125 -2.234375 L 7.515625 -2.234375 C 7.671875 -2.234375 7.8125 -2.179688 7.9375 -2.078125 C 8.039062 -1.953125 8.09375 -1.8125 8.09375 -1.65625 L 8.09375 -0.578125 C 8.09375 -0.410156 8.039062 -0.273438 7.9375 -0.171875 C 7.8125 -0.0546875 7.671875 0 7.515625 0 L 1.5625 0 C 1.40625 0 1.273438 -0.0546875 1.171875 -0.171875 C 1.046875 -0.273438 0.984375 -0.410156 0.984375 -0.578125 L 0.984375 -13.890625 C 0.984375 -14.046875 1.046875 -14.1875 1.171875 -14.3125 C 1.273438 -14.414062 1.40625 -14.46875 1.5625 -14.46875 L 7.515625 -14.46875 C 7.671875 -14.46875 7.8125 -14.414062 7.9375 -14.3125 C 8.039062 -14.1875 8.09375 -14.046875 8.09375 -13.890625 Z M 8.09375 -12.8125 "/></g></g></g><g fill="#000000" fill-opacity="0.4"><g transform="translate(60.493863, 26.20587)"><g><path d="M 8.09375 -12.8125 C 8.09375 -12.65625 8.039062 -12.519531 7.9375 -12.40625 C 7.8125 -12.289062 7.671875 -12.234375 7.515625 -12.234375 L 3.78125 -12.234375 C 3.625 -12.234375 3.492188 -12.179688 3.390625 -12.078125 C 3.273438 -11.960938 3.21875 -11.820312 3.21875 -11.65625 L 3.21875 -10.484375 C 3.21875 -10.316406 3.273438 -10.179688 3.390625 -10.078125 C 3.492188 -9.960938 3.625 -9.90625 3.78125 -9.90625 L 6.25 -9.90625 C 6.425781 -9.90625 6.570312 -9.851562 6.6875 -9.75 C 6.789062 -9.632812 6.84375 -9.492188 6.84375 -9.328125 L 6.84375 -8.265625 C 6.84375 -8.109375 6.789062 -7.972656 6.6875 -7.859375 C 6.570312 -7.734375 6.425781 -7.671875 6.25 -7.671875 L 3.78125 -7.671875 C 3.625 -7.671875 3.492188 -7.617188 3.390625 -7.515625 C 3.273438 -7.398438 3.21875 -7.265625 3.21875 -7.109375 L 3.21875 -0.578125 C 3.21875 -0.410156 3.164062 -0.273438 3.0625 -0.171875 C 2.9375 -0.0546875 2.796875 0 2.640625 0 L 1.5625 0 C 1.40625 0 1.273438 -0.0546875 1.171875 -0.171875 C 1.046875 -0.273438 0.984375 -0.410156 0.984375 -0.578125 L 0.984375 -13.890625 C 0.984375 -14.046875 1.046875 -14.1875 1.171875 -14.3125 C 1.273438 -14.414062 1.40625 -14.46875 1.5625 -14.46875 L 7.515625 -14.46875 C 7.671875 -14.46875 7.8125 -14.414062 7.9375 -14.3125 C 8.039062 -14.1875 8.09375 -14.046875 8.09375 -13.890625 Z M 8.09375 -12.8125 "/></g></g></g><g fill="#000000" fill-opacity="0.4"><g transform="translate(69.569227, 26.20587)"><g><path d="M 8.09375 -12.8125 C 8.09375 -12.65625 8.039062 -12.519531 7.9375 -12.40625 C 7.8125 -12.289062 7.671875 -12.234375 7.515625 -12.234375 L 3.78125 -12.234375 C 3.625 -12.234375 3.492188 -12.179688 3.390625 -12.078125 C 3.273438 -11.960938 3.21875 -11.820312 3.21875 -11.65625 L 3.21875 -10.484375 C 3.21875 -10.316406 3.273438 -10.179688 3.390625 -10.078125 C 3.492188 -9.960938 3.625 -9.90625 3.78125 -9.90625 L 6.25 -9.90625 C 6.425781 -9.90625 6.570312 -9.851562 6.6875 -9.75 C 6.789062 -9.632812 6.84375 -9.492188 6.84375 -9.328125 L 6.84375 -8.265625 C 6.84375 -8.109375 6.789062 -7.972656 6.6875 -7.859375 C 6.570312 -7.734375 6.425781 -7.671875 6.25 -7.671875 L 3.78125 -7.671875 C 3.625 -7.671875 3.492188 -7.617188 3.390625 -7.515625 C 3.273438 -7.398438 3.21875 -7.265625 3.21875 -7.109375 L 3.21875 -2.796875 C 3.21875 -2.640625 3.273438 -2.507812 3.390625 -2.40625 C 3.492188 -2.289062 3.625 -2.234375 3.78125 -2.234375 L 7.515625 -2.234375 C 7.671875 -2.234375 7.8125 -2.179688 7.9375 -2.078125 C 8.039062 -1.953125 8.09375 -1.8125 8.09375 -1.65625 L 8.09375 -0.578125 C 8.09375 -0.410156 8.039062 -0.273438 7.9375 -0.171875 C 7.8125 -0.0546875 7.671875 0 7.515625 0 L 1.5625 0 C 1.40625 0 1.273438 -0.0546875 1.171875 -0.171875 C 1.046875 -0.273438 0.984375 -0.410156 0.984375 -0.578125 L 0.984375 -13.890625 C 0.984375 -14.046875 1.046875 -14.1875 1.171875 -14.3125 C 1.273438 -14.414062 1.40625 -14.46875 1.5625 -14.46875 L 7.515625 -14.46875 C 7.671875 -14.46875 7.8125 -14.414062 7.9375 -14.3125 C 8.039062 -14.1875 8.09375 -14.046875 8.09375 -13.890625 Z M 8.09375 -12.8125 "/></g></g></g><g fill="#000000" fill-opacity="0.4"><g transform="translate(78.644591, 26.20587)"><g><path d="M 4.8125 -14.46875 C 5.550781 -14.46875 6.191406 -14.300781 6.734375 -13.96875 C 7.265625 -13.625 7.703125 -13.1875 8.046875 -12.65625 C 8.390625 -12.113281 8.632812 -11.503906 8.78125 -10.828125 C 8.925781 -10.160156 8.972656 -9.484375 8.921875 -8.796875 C 8.859375 -8.117188 8.703125 -7.46875 8.453125 -6.84375 C 8.179688 -6.226562 7.820312 -5.707031 7.375 -5.28125 C 7.175781 -5.113281 7.125 -4.910156 7.21875 -4.671875 L 8.640625 -0.765625 C 8.710938 -0.585938 8.691406 -0.414062 8.578125 -0.25 C 8.460938 -0.0820312 8.300781 0 8.09375 0 L 6.96875 0 C 6.6875 0 6.5 -0.125 6.40625 -0.375 L 5.125 -3.921875 C 5.039062 -4.171875 4.859375 -4.296875 4.578125 -4.296875 L 3.78125 -4.296875 C 3.625 -4.296875 3.492188 -4.242188 3.390625 -4.140625 C 3.273438 -4.023438 3.21875 -3.890625 3.21875 -3.734375 L 3.21875 -0.578125 C 3.21875 -0.410156 3.164062 -0.273438 3.0625 -0.171875 C 2.9375 -0.0546875 2.796875 0 2.640625 0 L 1.5625 0 C 1.40625 0 1.273438 -0.0546875 1.171875 -0.171875 C 1.046875 -0.273438 0.984375 -0.410156 0.984375 -0.578125 L 0.984375 -13.890625 C 0.984375 -14.046875 1.046875 -14.1875 1.171875 -14.3125 C 1.273438 -14.414062 1.40625 -14.46875 1.5625 -14.46875 Z M 3.21875 -7.109375 C 3.21875 -6.953125 3.273438 -6.816406 3.390625 -6.703125 C 3.492188 -6.585938 3.625 -6.53125 3.78125 -6.53125 L 4.859375 -6.53125 C 5.265625 -6.53125 5.601562 -6.675781 5.875 -6.96875 C 6.15625 -7.238281 6.367188 -7.585938 6.515625 -8.015625 C 6.660156 -8.429688 6.734375 -8.890625 6.734375 -9.390625 C 6.734375 -9.878906 6.664062 -10.332031 6.53125 -10.75 C 6.382812 -11.175781 6.175781 -11.535156 5.90625 -11.828125 C 5.625 -12.097656 5.273438 -12.234375 4.859375 -12.234375 L 3.78125 -12.234375 C 3.625 -12.234375 3.492188 -12.179688 3.390625 -12.078125 C 3.273438 -11.960938 3.21875 -11.820312 3.21875 -11.65625 Z M 3.21875 -7.109375 "/></g></g></g><g fill="#000000" fill-opacity="0.4"><g transform="translate(88.568312, 26.20587)"><g><path d="M 8.09375 -12.8125 C 8.09375 -12.65625 8.039062 -12.519531 7.9375 -12.40625 C 7.8125 -12.289062 7.671875 -12.234375 7.515625 -12.234375 L 3.78125 -12.234375 C 3.625 -12.234375 3.492188 -12.179688 3.390625 -12.078125 C 3.273438 -11.960938 3.21875 -11.820312 3.21875 -11.65625 L 3.21875 -10.484375 C 3.21875 -10.316406 3.273438 -10.179688 3.390625 -10.078125 C 3.492188 -9.960938 3.625 -9.90625 3.78125 -9.90625 L 6.25 -9.90625 C 6.425781 -9.90625 6.570312 -9.851562 6.6875 -9.75 C 6.789062 -9.632812 6.84375 -9.492188 6.84375 -9.328125 L 6.84375 -8.265625 C 6.84375 -8.109375 6.789062 -7.972656 6.6875 -7.859375 C 6.570312 -7.734375 6.425781 -7.671875 6.25 -7.671875 L 3.78125 -7.671875 C 3.625 -7.671875 3.492188 -7.617188 3.390625 -7.515625 C 3.273438 -7.398438 3.21875 -7.265625 3.21875 -7.109375 L 3.21875 -2.796875 C 3.21875 -2.640625 3.273438 -2.507812 3.390625 -2.40625 C 3.492188 -2.289062 3.625 -2.234375 3.78125 -2.234375 L 7.515625 -2.234375 C 7.671875 -2.234375 7.8125 -2.179688 7.9375 -2.078125 C 8.039062 -1.953125 8.09375 -1.8125 8.09375 -1.65625 L 8.09375 -0.578125 C 8.09375 -0.410156 8.039062 -0.273438 7.9375 -0.171875 C 7.8125 -0.0546875 7.671875 0 7.515625 0 L 1.5625 0 C 1.40625 0 1.273438 -0.0546875 1.171875 -0.171875 C 1.046875 -0.273438 0.984375 -0.410156 0.984375 -0.578125 L 0.984375 -13.890625 C 0.984375 -14.046875 1.046875 -14.1875 1.171875 -14.3125 C 1.273438 -14.414062 1.40625 -14.46875 1.5625 -14.46875 L 7.515625 -14.46875 C 7.671875 -14.46875 7.8125 -14.414062 7.9375 -14.3125 C 8.039062 -14.1875 8.09375 -14.046875 8.09375 -13.890625 Z M 8.09375 -12.8125 "/></g></g></g><g fill="#000000" fill-opacity="0.4"><g transform="translate(97.643676, 26.20587)"><g><path d="M 9.609375 -14.46875 C 9.765625 -14.46875 9.90625 -14.414062 10.03125 -14.3125 C 10.132812 -14.1875 10.1875 -14.046875 10.1875 -13.890625 L 10.1875 -0.578125 C 10.1875 -0.410156 10.132812 -0.273438 10.03125 -0.171875 C 9.90625 -0.0546875 9.765625 0 9.609375 0 L 8.09375 0 C 7.851562 0 7.679688 -0.109375 7.578125 -0.328125 L 3.625 -8.78125 C 3.59375 -8.882812 3.515625 -8.925781 3.390625 -8.90625 C 3.273438 -8.875 3.21875 -8.800781 3.21875 -8.6875 L 3.21875 -0.578125 C 3.21875 -0.410156 3.164062 -0.273438 3.0625 -0.171875 C 2.9375 -0.0546875 2.789062 0 2.625 0 L 1.5625 0 C 1.40625 0 1.273438 -0.0546875 1.171875 -0.171875 C 1.046875 -0.273438 0.984375 -0.410156 0.984375 -0.578125 L 0.984375 -13.890625 C 0.984375 -14.046875 1.046875 -14.1875 1.171875 -14.3125 C 1.273438 -14.414062 1.40625 -14.46875 1.5625 -14.46875 L 3.078125 -14.46875 C 3.328125 -14.46875 3.5 -14.351562 3.59375 -14.125 L 7.53125 -5.6875 C 7.570312 -5.582031 7.660156 -5.539062 7.796875 -5.5625 C 7.898438 -5.59375 7.953125 -5.664062 7.953125 -5.78125 L 7.953125 -13.890625 C 7.953125 -14.046875 8.007812 -14.1875 8.125 -14.3125 C 8.25 -14.414062 8.390625 -14.46875 8.546875 -14.46875 Z M 9.609375 -14.46875 "/></g></g></g><g fill="#000000" fill-opacity="0.4"><g transform="translate(108.810328, 26.20587)"><g><path d="M 4.515625 -14.46875 C 5.660156 -14.46875 6.523438 -14.15625 7.109375 -13.53125 C 7.679688 -12.914062 7.96875 -12.039062 7.96875 -10.90625 C 7.96875 -10.78125 7.929688 -10.675781 7.859375 -10.59375 C 7.765625 -10.5 7.648438 -10.453125 7.515625 -10.453125 L 6.203125 -10.453125 C 6.066406 -10.453125 5.957031 -10.5 5.875 -10.59375 C 5.789062 -10.675781 5.75 -10.78125 5.75 -10.90625 L 5.75 -11.046875 C 5.75 -11.546875 5.648438 -11.910156 5.453125 -12.140625 C 5.253906 -12.347656 4.960938 -12.453125 4.578125 -12.453125 C 4.191406 -12.453125 3.898438 -12.347656 3.703125 -12.140625 C 3.492188 -11.910156 3.390625 -11.546875 3.390625 -11.046875 C 3.390625 -10.785156 3.425781 -10.546875 3.5 -10.328125 C 3.5625 -10.085938 3.671875 -9.847656 3.828125 -9.609375 C 3.984375 -9.367188 4.191406 -9.117188 4.453125 -8.859375 C 4.703125 -8.585938 5.019531 -8.289062 5.40625 -7.96875 C 5.894531 -7.5625 6.3125 -7.179688 6.65625 -6.828125 C 6.976562 -6.460938 7.238281 -6.109375 7.4375 -5.765625 C 7.632812 -5.410156 7.78125 -5.054688 7.875 -4.703125 C 7.957031 -4.335938 8 -3.953125 8 -3.546875 C 8 -2.398438 7.707031 -1.523438 7.125 -0.921875 C 6.53125 -0.304688 5.65625 0 4.5 0 C 3.34375 0 2.46875 -0.304688 1.875 -0.921875 C 1.28125 -1.523438 0.984375 -2.398438 0.984375 -3.546875 L 0.984375 -3.984375 C 0.984375 -4.097656 1.03125 -4.203125 1.125 -4.296875 C 1.207031 -4.378906 1.304688 -4.421875 1.421875 -4.421875 L 2.765625 -4.421875 C 2.878906 -4.421875 2.984375 -4.378906 3.078125 -4.296875 C 3.171875 -4.203125 3.21875 -4.097656 3.21875 -3.984375 L 3.21875 -3.40625 C 3.21875 -2.914062 3.320312 -2.5625 3.53125 -2.34375 C 3.738281 -2.132812 4.035156 -2.03125 4.421875 -2.03125 C 4.804688 -2.03125 5.109375 -2.132812 5.328125 -2.34375 C 5.535156 -2.5625 5.640625 -2.914062 5.640625 -3.40625 C 5.640625 -3.65625 5.609375 -3.898438 5.546875 -4.140625 C 5.484375 -4.378906 5.367188 -4.617188 5.203125 -4.859375 C 5.046875 -5.085938 4.84375 -5.34375 4.59375 -5.625 C 4.332031 -5.882812 4.007812 -6.175781 3.625 -6.5 C 3.144531 -6.90625 2.738281 -7.285156 2.40625 -7.640625 C 2.082031 -7.992188 1.820312 -8.347656 1.625 -8.703125 C 1.40625 -9.054688 1.257812 -9.410156 1.1875 -9.765625 C 1.09375 -10.117188 1.046875 -10.5 1.046875 -10.90625 C 1.046875 -12.039062 1.335938 -12.914062 1.921875 -13.53125 C 2.492188 -14.15625 3.359375 -14.46875 4.515625 -14.46875 Z M 4.515625 -14.46875 "/></g></g></g><g fill="#000000" fill-opacity="0.4"><g transform="translate(117.787054, 26.20587)"><g><path d="M 2.640625 -14.46875 C 2.796875 -14.46875 2.9375 -14.414062 3.0625 -14.3125 C 3.164062 -14.1875 3.21875 -14.046875 3.21875 -13.890625 L 3.21875 -0.578125 C 3.21875 -0.410156 3.164062 -0.273438 3.0625 -0.171875 C 2.9375 -0.0546875 2.796875 0 2.640625 0 L 1.5625 0 C 1.40625 0 1.273438 -0.0546875 1.171875 -0.171875 C 1.046875 -0.273438 0.984375 -0.410156 0.984375 -0.578125 L 0.984375 -13.890625 C 0.984375 -14.046875 1.046875 -14.1875 1.171875 -14.3125 C 1.273438 -14.414062 1.40625 -14.46875 1.5625 -14.46875 Z M 2.640625 -14.46875 "/></g></g></g><g fill="#000000" fill-opacity="1"><g transform="translate(42.24763, 24.789957)"><g><path d="M 4.8125 -14.46875 C 5.550781 -14.46875 6.191406 -14.300781 6.734375 -13.96875 C 7.265625 -13.625 7.703125 -13.1875 8.046875 -12.65625 C 8.390625 -12.113281 8.632812 -11.503906 8.78125 -10.828125 C 8.925781 -10.160156 8.972656 -9.484375 8.921875 -8.796875 C 8.859375 -8.117188 8.703125 -7.46875 8.453125 -6.84375 C 8.179688 -6.226562 7.820312 -5.707031 7.375 -5.28125 C 7.175781 -5.113281 7.125 -4.910156 7.21875 -4.671875 L 8.640625 -0.765625 C 8.710938 -0.585938 8.691406 -0.414062 8.578125 -0.25 C 8.460938 -0.0820312 8.300781 0 8.09375 0 L 6.96875 0 C 6.6875 0 6.5 -0.125 6.40625 -0.375 L 5.125 -3.921875 C 5.039062 -4.171875 4.859375 -4.296875 4.578125 -4.296875 L 3.78125 -4.296875 C 3.625 -4.296875 3.492188 -4.242188 3.390625 -4.140625 C 3.273438 -4.023438 3.21875 -3.890625 3.21875 -3.734375 L 3.21875 -0.578125 C 3.21875 -0.410156 3.164062 -0.273438 3.0625 -0.171875 C 2.9375 -0.0546875 2.796875 0 2.640625 0 L 1.5625 0 C 1.40625 0 1.273438 -0.0546875 1.171875 -0.171875 C 1.046875 -0.273438 0.984375 -0.410156 0.984375 -0.578125 L 0.984375 -13.890625 C 0.984375 -14.046875 1.046875 -14.1875 1.171875 -14.3125 C 1.273438 -14.414062 1.40625 -14.46875 1.5625 -14.46875 Z M 3.21875 -7.109375 C 3.21875 -6.953125 3.273438 -6.816406 3.390625 -6.703125 C 3.492188 -6.585938 3.625 -6.53125 3.78125 -6.53125 L 4.859375 -6.53125 C 5.265625 -6.53125 5.601562 -6.675781 5.875 -6.96875 C 6.15625 -7.238281 6.367188 -7.585938 6.515625 -8.015625 C 6.660156 -8.429688 6.734375 -8.890625 6.734375 -9.390625 C 6.734375 -9.878906 6.664062 -10.332031 6.53125 -10.75 C 6.382812 -11.175781 6.175781 -11.535156 5.90625 -11.828125 C 5.625 -12.097656 5.273438 -12.234375 4.859375 -12.234375 L 3.78125 -12.234375 C 3.625 -12.234375 3.492188 -12.179688 3.390625 -12.078125 C 3.273438 -11.960938 3.21875 -11.820312 3.21875 -11.65625 Z M 3.21875 -7.109375 "/></g></g></g><g fill="#000000" fill-opacity="1"><g transform="translate(52.171352, 24.789957)"><g><path d="M 8.09375 -12.8125 C 8.09375 -12.65625 8.039062 -12.519531 7.9375 -12.40625 C 7.8125 -12.289062 7.671875 -12.234375 7.515625 -12.234375 L 3.78125 -12.234375 C 3.625 -12.234375 3.492188 -12.179688 3.390625 -12.078125 C 3.273438 -11.960938 3.21875 -11.820312 3.21875 -11.65625 L 3.21875 -10.484375 C 3.21875 -10.316406 3.273438 -10.179688 3.390625 -10.078125 C 3.492188 -9.960938 3.625 -9.90625 3.78125 -9.90625 L 6.25 -9.90625 C 6.425781 -9.90625 6.570312 -9.851562 6.6875 -9.75 C 6.789062 -9.632812 6.84375 -9.492188 6.84375 -9.328125 L 6.84375 -8.265625 C 6.84375 -8.109375 6.789062 -7.972656 6.6875 -7.859375 C 6.570312 -7.734375 6.425781 -7.671875 6.25 -7.671875 L 3.78125 -7.671875 C 3.625 -7.671875 3.492188 -7.617188 3.390625 -7.515625 C 3.273438 -7.398438 3.21875 -7.265625 3.21875 -7.109375 L 3.21875 -2.796875 C 3.21875 -2.640625 3.273438 -2.507812 3.390625 -2.40625 C 3.492188 -2.289062 3.625 -2.234375 3.78125 -2.234375 L 7.515625 -2.234375 C 7.671875 -2.234375 7.8125 -2.179688 7.9375 -2.078125 C 8.039062 -1.953125 8.09375 -1.8125 8.09375 -1.65625 L 8.09375 -0.578125 C 8.09375 -0.410156 8.039062 -0.273438 7.9375 -0.171875 C 7.8125 -0.0546875 7.671875 0 7.515625 0 L 1.5625 0 C 1.40625 0 1.273438 -0.0546875 1.171875 -0.171875 C 1.046875 -0.273438 0.984375 -0.410156 0.984375 -0.578125 L 0.984375 -13.890625 C 0.984375 -14.046875 1.046875 -14.1875 1.171875 -14.3125 C 1.273438 -14.414062 1.40625 -14.46875 1.5625 -14.46875 L 7.515625 -14.46875 C 7.671875 -14.46875 7.8125 -14.414062 7.9375 -14.3125 C 8.039062 -14.1875 8.09375 -14.046875 8.09375 -13.890625 Z M 8.09375 -12.8125 "/></g></g></g><g fill="#000000" fill-opacity="1"><g transform="translate(61.246716, 24.789957)"><g><path d="M 8.09375 -12.8125 C 8.09375 -12.65625 8.039062 -12.519531 7.9375 -12.40625 C 7.8125 -12.289062 7.671875 -12.234375 7.515625 -12.234375 L 3.78125 -12.234375 C 3.625 -12.234375 3.492188 -12.179688 3.390625 -12.078125 C 3.273438 -11.960938 3.21875 -11.820312 3.21875 -11.65625 L 3.21875 -10.484375 C 3.21875 -10.316406 3.273438 -10.179688 3.390625 -10.078125 C 3.492188 -9.960938 3.625 -9.90625 3.78125 -9.90625 L 6.25 -9.90625 C 6.425781 -9.90625 6.570312 -9.851562 6.6875 -9.75 C 6.789062 -9.632812 6.84375 -9.492188 6.84375 -9.328125 L 6.84375 -8.265625 C 6.84375 -8.109375 6.789062 -7.972656 6.6875 -7.859375 C 6.570312 -7.734375 6.425781 -7.671875 6.25 -7.671875 L 3.78125 -7.671875 C 3.625 -7.671875 3.492188 -7.617188 3.390625 -7.515625 C 3.273438 -7.398438 3.21875 -7.265625 3.21875 -7.109375 L 3.21875 -0.578125 C 3.21875 -0.410156 3.164062 -0.273438 3.0625 -0.171875 C 2.9375 -0.0546875 2.796875 0 2.640625 0 L 1.5625 0 C 1.40625 0 1.273438 -0.0546875 1.171875 -0.171875 C 1.046875 -0.273438 0.984375 -0.410156 0.984375 -0.578125 L 0.984375 -13.890625 C 0.984375 -14.046875 1.046875 -14.1875 1.171875 -14.3125 C 1.273438 -14.414062 1.40625 -14.46875 1.5625 -14.46875 L 7.515625 -14.46875 C 7.671875 -14.46875 7.8125 -14.414062 7.9375 -14.3125 C 8.039062 -14.1875 8.09375 -14.046875 8.09375 -13.890625 Z M 8.09375 -12.8125 "/></g></g></g><g fill="#000000" fill-opacity="1"><g transform="translate(70.32208, 24.789957)"><g><path d="M 8.09375 -12.8125 C 8.09375 -12.65625 8.039062 -12.519531 7.9375 -12.40625 C 7.8125 -12.289062 7.671875 -12.234375 7.515625 -12.234375 L 3.78125 -12.234375 C 3.625 -12.234375 3.492188 -12.179688 3.390625 -12.078125 C 3.273438 -11.960938 3.21875 -11.820312 3.21875 -11.65625 L 3.21875 -10.484375 C 3.21875 -10.316406 3.273438 -10.179688 3.390625 -10.078125 C 3.492188 -9.960938 3.625 -9.90625 3.78125 -9.90625 L 6.25 -9.90625 C 6.425781 -9.90625 6.570312 -9.851562 6.6875 -9.75 C 6.789062 -9.632812 6.84375 -9.492188 6.84375 -9.328125 L 6.84375 -8.265625 C 6.84375 -8.109375 6.789062 -7.972656 6.6875 -7.859375 C 6.570312 -7.734375 6.425781 -7.671875 6.25 -7.671875 L 3.78125 -7.671875 C 3.625 -7.671875 3.492188 -7.617188 3.390625 -7.515625 C 3.273438 -7.398438 3.21875 -7.265625 3.21875 -7.109375 L 3.21875 -2.796875 C 3.21875 -2.640625 3.273438 -2.507812 3.390625 -2.40625 C 3.492188 -2.289062 3.625 -2.234375 3.78125 -2.234375 L 7.515625 -2.234375 C 7.671875 -2.234375 7.8125 -2.179688 7.9375 -2.078125 C 8.039062 -1.953125 8.09375 -1.8125 8.09375 -1.65625 L 8.09375 -0.578125 C 8.09375 -0.410156 8.039062 -0.273438 7.9375 -0.171875 C 7.8125 -0.0546875 7.671875 0 7.515625 0 L 1.5625 0 C 1.40625 0 1.273438 -0.0546875 1.171875 -0.171875 C 1.046875 -0.273438 0.984375 -0.410156 0.984375 -0.578125 L 0.984375 -13.890625 C 0.984375 -14.046875 1.046875 -14.1875 1.171875 -14.3125 C 1.273438 -14.414062 1.40625 -14.46875 1.5625 -14.46875 L 7.515625 -14.46875 C 7.671875 -14.46875 7.8125 -14.414062 7.9375 -14.3125 C 8.039062 -14.1875 8.09375 -14.046875 8.09375 -13.890625 Z M 8.09375 -12.8125 "/></g></g></g><g fill="#000000" fill-opacity="1"><g transform="translate(79.397444, 24.789957)"><g><path d="M 4.8125 -14.46875 C 5.550781 -14.46875 6.191406 -14.300781 6.734375 -13.96875 C 7.265625 -13.625 7.703125 -13.1875 8.046875 -12.65625 C 8.390625 -12.113281 8.632812 -11.503906 8.78125 -10.828125 C 8.925781 -10.160156 8.972656 -9.484375 8.921875 -8.796875 C 8.859375 -8.117188 8.703125 -7.46875 8.453125 -6.84375 C 8.179688 -6.226562 7.820312 -5.707031 7.375 -5.28125 C 7.175781 -5.113281 7.125 -4.910156 7.21875 -4.671875 L 8.640625 -0.765625 C 8.710938 -0.585938 8.691406 -0.414062 8.578125 -0.25 C 8.460938 -0.0820312 8.300781 0 8.09375 0 L 6.96875 0 C 6.6875 0 6.5 -0.125 6.40625 -0.375 L 5.125 -3.921875 C 5.039062 -4.171875 4.859375 -4.296875 4.578125 -4.296875 L 3.78125 -4.296875 C 3.625 -4.296875 3.492188 -4.242188 3.390625 -4.140625 C 3.273438 -4.023438 3.21875 -3.890625 3.21875 -3.734375 L 3.21875 -0.578125 C 3.21875 -0.410156 3.164062 -0.273438 3.0625 -0.171875 C 2.9375 -0.0546875 2.796875 0 2.640625 0 L 1.5625 0 C 1.40625 0 1.273438 -0.0546875 1.171875 -0.171875 C 1.046875 -0.273438 0.984375 -0.410156 0.984375 -0.578125 L 0.984375 -13.890625 C 0.984375 -14.046875 1.046875 -14.1875 1.171875 -14.3125 C 1.273438 -14.414062 1.40625 -14.46875 1.5625 -14.46875 Z M 3.21875 -7.109375 C 3.21875 -6.953125 3.273438 -6.816406 3.390625 -6.703125 C 3.492188 -6.585938 3.625 -6.53125 3.78125 -6.53125 L 4.859375 -6.53125 C 5.265625 -6.53125 5.601562 -6.675781 5.875 -6.96875 C 6.15625 -7.238281 6.367188 -7.585938 6.515625 -8.015625 C 6.660156 -8.429688 6.734375 -8.890625 6.734375 -9.390625 C 6.734375 -9.878906 6.664062 -10.332031 6.53125 -10.75 C 6.382812 -11.175781 6.175781 -11.535156 5.90625 -11.828125 C 5.625 -12.097656 5.273438 -12.234375 4.859375 -12.234375 L 3.78125 -12.234375 C 3.625 -12.234375 3.492188 -12.179688 3.390625 -12.078125 C 3.273438 -11.960938 3.21875 -11.820312 3.21875 -11.65625 Z M 3.21875 -7.109375 "/></g></g></g><g fill="#000000" fill-opacity="1"><g transform="translate(89.321165, 24.789957)"><g><path d="M 8.09375 -12.8125 C 8.09375 -12.65625 8.039062 -12.519531 7.9375 -12.40625 C 7.8125 -12.289062 7.671875 -12.234375 7.515625 -12.234375 L 3.78125 -12.234375 C 3.625 -12.234375 3.492188 -12.179688 3.390625 -12.078125 C 3.273438 -11.960938 3.21875 -11.820312 3.21875 -11.65625 L 3.21875 -10.484375 C 3.21875 -10.316406 3.273438 -10.179688 3.390625 -10.078125 C 3.492188 -9.960938 3.625 -9.90625 3.78125 -9.90625 L 6.25 -9.90625 C 6.425781 -9.90625 6.570312 -9.851562 6.6875 -9.75 C 6.789062 -9.632812 6.84375 -9.492188 6.84375 -9.328125 L 6.84375 -8.265625 C 6.84375 -8.109375 6.789062 -7.972656 6.6875 -7.859375 C 6.570312 -7.734375 6.425781 -7.671875 6.25 -7.671875 L 3.78125 -7.671875 C 3.625 -7.671875 3.492188 -7.617188 3.390625 -7.515625 C 3.273438 -7.398438 3.21875 -7.265625 3.21875 -7.109375 L 3.21875 -2.796875 C 3.21875 -2.640625 3.273438 -2.507812 3.390625 -2.40625 C 3.492188 -2.289062 3.625 -2.234375 3.78125 -2.234375 L 7.515625 -2.234375 C 7.671875 -2.234375 7.8125 -2.179688 7.9375 -2.078125 C 8.039062 -1.953125 8.09375 -1.8125 8.09375 -1.65625 L 8.09375 -0.578125 C 8.09375 -0.410156 8.039062 -0.273438 7.9375 -0.171875 C 7.8125 -0.0546875 7.671875 0 7.515625 0 L 1.5625 0 C 1.40625 0 1.273438 -0.0546875 1.171875 -0.171875 C 1.046875 -0.273438 0.984375 -0.410156 0.984375 -0.578125 L 0.984375 -13.890625 C 0.984375 -14.046875 1.046875 -14.1875 1.171875 -14.3125 C 1.273438 -14.414062 1.40625 -14.46875 1.5625 -14.46875 L 7.515625 -14.46875 C 7.671875 -14.46875 7.8125 -14.414062 7.9375 -14.3125 C 8.039062 -14.1875 8.09375 -14.046875 8.09375 -13.890625 Z M 8.09375 -12.8125 "/></g></g></g><g fill="#000000" fill-opacity="1"><g transform="translate(98.396529, 24.789957)"><g><path d="M 9.609375 -14.46875 C 9.765625 -14.46875 9.90625 -14.414062 10.03125 -14.3125 C 10.132812 -14.1875 10.1875 -14.046875 10.1875 -13.890625 L 10.1875 -0.578125 C 10.1875 -0.410156 10.132812 -0.273438 10.03125 -0.171875 C 9.90625 -0.0546875 9.765625 0 9.609375 0 L 8.09375 0 C 7.851562 0 7.679688 -0.109375 7.578125 -0.328125 L 3.625 -8.78125 C 3.59375 -8.882812 3.515625 -8.925781 3.390625 -8.90625 C 3.273438 -8.875 3.21875 -8.800781 3.21875 -8.6875 L 3.21875 -0.578125 C 3.21875 -0.410156 3.164062 -0.273438 3.0625 -0.171875 C 2.9375 -0.0546875 2.789062 0 2.625 0 L 1.5625 0 C 1.40625 0 1.273438 -0.0546875 1.171875 -0.171875 C 1.046875 -0.273438 0.984375 -0.410156 0.984375 -0.578125 L 0.984375 -13.890625 C 0.984375 -14.046875 1.046875 -14.1875 1.171875 -14.3125 C 1.273438 -14.414062 1.40625 -14.46875 1.5625 -14.46875 L 3.078125 -14.46875 C 3.328125 -14.46875 3.5 -14.351562 3.59375 -14.125 L 7.53125 -5.6875 C 7.570312 -5.582031 7.660156 -5.539062 7.796875 -5.5625 C 7.898438 -5.59375 7.953125 -5.664062 7.953125 -5.78125 L 7.953125 -13.890625 C 7.953125 -14.046875 8.007812 -14.1875 8.125 -14.3125 C 8.25 -14.414062 8.390625 -14.46875 8.546875 -14.46875 Z M 9.609375 -14.46875 "/></g></g></g><g fill="#000000" fill-opacity="1"><g transform="translate(109.56318, 24.789957)"><g><path d="M 4.515625 -14.46875 C 5.660156 -14.46875 6.523438 -14.15625 7.109375 -13.53125 C 7.679688 -12.914062 7.96875 -12.039062 7.96875 -10.90625 C 7.96875 -10.78125 7.929688 -10.675781 7.859375 -10.59375 C 7.765625 -10.5 7.648438 -10.453125 7.515625 -10.453125 L 6.203125 -10.453125 C 6.066406 -10.453125 5.957031 -10.5 5.875 -10.59375 C 5.789062 -10.675781 5.75 -10.78125 5.75 -10.90625 L 5.75 -11.046875 C 5.75 -11.546875 5.648438 -11.910156 5.453125 -12.140625 C 5.253906 -12.347656 4.960938 -12.453125 4.578125 -12.453125 C 4.191406 -12.453125 3.898438 -12.347656 3.703125 -12.140625 C 3.492188 -11.910156 3.390625 -11.546875 3.390625 -11.046875 C 3.390625 -10.785156 3.425781 -10.546875 3.5 -10.328125 C 3.5625 -10.085938 3.671875 -9.847656 3.828125 -9.609375 C 3.984375 -9.367188 4.191406 -9.117188 4.453125 -8.859375 C 4.703125 -8.585938 5.019531 -8.289062 5.40625 -7.96875 C 5.894531 -7.5625 6.3125 -7.179688 6.65625 -6.828125 C 6.976562 -6.460938 7.238281 -6.109375 7.4375 -5.765625 C 7.632812 -5.410156 7.78125 -5.054688 7.875 -4.703125 C 7.957031 -4.335938 8 -3.953125 8 -3.546875 C 8 -2.398438 7.707031 -1.523438 7.125 -0.921875 C 6.53125 -0.304688 5.65625 0 4.5 0 C 3.34375 0 2.46875 -0.304688 1.875 -0.921875 C 1.28125 -1.523438 0.984375 -2.398438 0.984375 -3.546875 L 0.984375 -3.984375 C 0.984375 -4.097656 1.03125 -4.203125 1.125 -4.296875 C 1.207031 -4.378906 1.304688 -4.421875 1.421875 -4.421875 L 2.765625 -4.421875 C 2.878906 -4.421875 2.984375 -4.378906 3.078125 -4.296875 C 3.171875 -4.203125 3.21875 -4.097656 3.21875 -3.984375 L 3.21875 -3.40625 C 3.21875 -2.914062 3.320312 -2.5625 3.53125 -2.34375 C 3.738281 -2.132812 4.035156 -2.03125 4.421875 -2.03125 C 4.804688 -2.03125 5.109375 -2.132812 5.328125 -2.34375 C 5.535156 -2.5625 5.640625 -2.914062 5.640625 -3.40625 C 5.640625 -3.65625 5.609375 -3.898438 5.546875 -4.140625 C 5.484375 -4.378906 5.367188 -4.617188 5.203125 -4.859375 C 5.046875 -5.085938 4.84375 -5.34375 4.59375 -5.625 C 4.332031 -5.882812 4.007812 -6.175781 3.625 -6.5 C 3.144531 -6.90625 2.738281 -7.285156 2.40625 -7.640625 C 2.082031 -7.992188 1.820312 -8.347656 1.625 -8.703125 C 1.40625 -9.054688 1.257812 -9.410156 1.1875 -9.765625 C 1.09375 -10.117188 1.046875 -10.5 1.046875 -10.90625 C 1.046875 -12.039062 1.335938 -12.914062 1.921875 -13.53125 C 2.492188 -14.15625 3.359375 -14.46875 4.515625 -14.46875 Z M 4.515625 -14.46875 "/></g></g></g><g fill="#000000" fill-opacity="1"><g transform="translate(118.539906, 24.789957)"><g><path d="M 2.640625 -14.46875 C 2.796875 -14.46875 2.9375 -14.414062 3.0625 -14.3125 C 3.164062 -14.1875 3.21875 -14.046875 3.21875 -13.890625 L 3.21875 -0.578125 C 3.21875 -0.410156 3.164062 -0.273438 3.0625 -0.171875 C 2.9375 -0.0546875 2.796875 0 2.640625 0 L 1.5625 0 C 1.40625 0 1.273438 -0.0546875 1.171875 -0.171875 C 1.046875 -0.273438 0.984375 -0.410156 0.984375 -0.578125 L 0.984375 -13.890625 C 0.984375 -14.046875 1.046875 -14.1875 1.171875 -14.3125 C 1.273438 -14.414062 1.40625 -14.46875 1.5625 -14.46875 Z M 2.640625 -14.46875 "/></g></g></g></svg>