<svg xmlns="http://www.w3.org/2000/svg" xmlns:xlink="http://www.w3.org/1999/xlink" width="250" zoomAndPan="magnify" viewBox="0 0 187.5 30.000001" height="40" preserveAspectRatio="xMidYMid meet" version="1.0"><defs><g/><clipPath id="cf9344f6d1"><path d="M 2.78125 0 L 184.234375 0 L 184.234375 29.03125 L 2.78125 29.03125 Z M 2.78125 0 " clip-rule="nonzero"/></clipPath></defs><g clip-path="url(#cf9344f6d1)"><path fill="#ffffff" d="M 2.78125 0 L 184.234375 0 L 184.234375 29.03125 L 2.78125 29.03125 Z M 2.78125 0 " fill-opacity="1" fill-rule="nonzero"/><path fill="#ffffff" d="M 2.78125 0 L 184.234375 0 L 184.234375 29.03125 L 2.78125 29.03125 Z M 2.78125 0 " fill-opacity="1" fill-rule="nonzero"/><path stroke-linecap="butt" transform="matrix(0.725806, 0, 0, 0.725806, 2.782255, 0.0000024285)" fill-opacity="1" fill="#ffffff" fill-rule="nonzero" stroke-linejoin="miter" d="M -0.00138471 -0.00000334593 L 250.000701 -0.00000334593 L 250.000701 39.998608 L -0.00138471 39.998608 Z M -0.00138471 -0.00000334593 " stroke="#000000" stroke-width="4" stroke-opacity="1" stroke-miterlimit="4"/></g><g fill="#000000" fill-opacity="0.4"><g transform="translate(62.055685, 20.483529)"><g><path d="M 4.25 -12.765625 C 4.90625 -12.765625 5.46875 -12.617188 5.9375 -12.328125 C 6.414062 -12.023438 6.804688 -11.640625 7.109375 -11.171875 C 7.410156 -10.691406 7.625 -10.15625 7.75 -9.5625 C 7.875 -8.96875 7.914062 -8.367188 7.875 -7.765625 C 7.8125 -7.160156 7.671875 -6.585938 7.453125 -6.046875 C 7.222656 -5.503906 6.910156 -5.046875 6.515625 -4.671875 C 6.335938 -4.515625 6.289062 -4.332031 6.375 -4.125 L 7.625 -0.671875 C 7.6875 -0.515625 7.671875 -0.363281 7.578125 -0.21875 C 7.472656 -0.0703125 7.328125 0 7.140625 0 L 6.15625 0 C 5.90625 0 5.738281 -0.109375 5.65625 -0.328125 L 4.53125 -3.46875 C 4.445312 -3.6875 4.285156 -3.796875 4.046875 -3.796875 L 3.34375 -3.796875 C 3.207031 -3.796875 3.09375 -3.75 3 -3.65625 C 2.894531 -3.550781 2.84375 -3.429688 2.84375 -3.296875 L 2.84375 -0.5 C 2.84375 -0.363281 2.796875 -0.25 2.703125 -0.15625 C 2.597656 -0.0507812 2.472656 0 2.328125 0 L 1.375 0 C 1.238281 0 1.125 -0.0507812 1.03125 -0.15625 C 0.925781 -0.25 0.875 -0.363281 0.875 -0.5 L 0.875 -12.265625 C 0.875 -12.398438 0.925781 -12.519531 1.03125 -12.625 C 1.125 -12.71875 1.238281 -12.765625 1.375 -12.765625 Z M 2.84375 -6.265625 C 2.84375 -6.128906 2.894531 -6.015625 3 -5.921875 C 3.09375 -5.816406 3.207031 -5.765625 3.34375 -5.765625 L 4.28125 -5.765625 C 4.644531 -5.765625 4.945312 -5.894531 5.1875 -6.15625 C 5.4375 -6.394531 5.625 -6.703125 5.75 -7.078125 C 5.875 -7.441406 5.9375 -7.847656 5.9375 -8.296875 C 5.9375 -8.722656 5.878906 -9.125 5.765625 -9.5 C 5.640625 -9.863281 5.453125 -10.175781 5.203125 -10.4375 C 4.960938 -10.675781 4.65625 -10.796875 4.28125 -10.796875 L 3.34375 -10.796875 C 3.207031 -10.796875 3.09375 -10.75 3 -10.65625 C 2.894531 -10.550781 2.84375 -10.429688 2.84375 -10.296875 Z M 2.84375 -6.265625 "/></g></g></g><g fill="#000000" fill-opacity="0.4"><g transform="translate(70.817592, 20.483529)"><g><path d="M 7.140625 -11.3125 C 7.140625 -11.164062 7.09375 -11.046875 7 -10.953125 C 6.894531 -10.847656 6.773438 -10.796875 6.640625 -10.796875 L 3.34375 -10.796875 C 3.207031 -10.796875 3.09375 -10.75 3 -10.65625 C 2.894531 -10.550781 2.84375 -10.429688 2.84375 -10.296875 L 2.84375 -9.25 C 2.84375 -9.113281 2.894531 -9 3 -8.90625 C 3.09375 -8.800781 3.207031 -8.75 3.34375 -8.75 L 5.515625 -8.75 C 5.671875 -8.75 5.800781 -8.703125 5.90625 -8.609375 C 6 -8.503906 6.046875 -8.378906 6.046875 -8.234375 L 6.046875 -7.296875 C 6.046875 -7.160156 6 -7.039062 5.90625 -6.9375 C 5.800781 -6.832031 5.671875 -6.78125 5.515625 -6.78125 L 3.34375 -6.78125 C 3.207031 -6.78125 3.09375 -6.734375 3 -6.640625 C 2.894531 -6.535156 2.84375 -6.410156 2.84375 -6.265625 L 2.84375 -2.46875 C 2.84375 -2.332031 2.894531 -2.21875 3 -2.125 C 3.09375 -2.019531 3.207031 -1.96875 3.34375 -1.96875 L 6.640625 -1.96875 C 6.773438 -1.96875 6.894531 -1.921875 7 -1.828125 C 7.09375 -1.722656 7.140625 -1.601562 7.140625 -1.46875 L 7.140625 -0.5 C 7.140625 -0.363281 7.09375 -0.25 7 -0.15625 C 6.894531 -0.0507812 6.773438 0 6.640625 0 L 1.375 0 C 1.238281 0 1.125 -0.0507812 1.03125 -0.15625 C 0.925781 -0.25 0.875 -0.363281 0.875 -0.5 L 0.875 -12.265625 C 0.875 -12.398438 0.925781 -12.519531 1.03125 -12.625 C 1.125 -12.71875 1.238281 -12.765625 1.375 -12.765625 L 6.640625 -12.765625 C 6.773438 -12.765625 6.894531 -12.71875 7 -12.625 C 7.09375 -12.519531 7.140625 -12.398438 7.140625 -12.265625 Z M 7.140625 -11.3125 "/></g></g></g><g fill="#000000" fill-opacity="0.4"><g transform="translate(78.830468, 20.483529)"><g><path d="M 7.140625 -11.3125 C 7.140625 -11.164062 7.09375 -11.046875 7 -10.953125 C 6.894531 -10.847656 6.773438 -10.796875 6.640625 -10.796875 L 3.34375 -10.796875 C 3.207031 -10.796875 3.09375 -10.75 3 -10.65625 C 2.894531 -10.550781 2.84375 -10.429688 2.84375 -10.296875 L 2.84375 -9.25 C 2.84375 -9.113281 2.894531 -9 3 -8.90625 C 3.09375 -8.800781 3.207031 -8.75 3.34375 -8.75 L 5.515625 -8.75 C 5.671875 -8.75 5.800781 -8.703125 5.90625 -8.609375 C 6 -8.503906 6.046875 -8.378906 6.046875 -8.234375 L 6.046875 -7.296875 C 6.046875 -7.160156 6 -7.039062 5.90625 -6.9375 C 5.800781 -6.832031 5.671875 -6.78125 5.515625 -6.78125 L 3.34375 -6.78125 C 3.207031 -6.78125 3.09375 -6.734375 3 -6.640625 C 2.894531 -6.535156 2.84375 -6.410156 2.84375 -6.265625 L 2.84375 -0.5 C 2.84375 -0.363281 2.796875 -0.25 2.703125 -0.15625 C 2.597656 -0.0507812 2.472656 0 2.328125 0 L 1.375 0 C 1.238281 0 1.125 -0.0507812 1.03125 -0.15625 C 0.925781 -0.25 0.875 -0.363281 0.875 -0.5 L 0.875 -12.265625 C 0.875 -12.398438 0.925781 -12.519531 1.03125 -12.625 C 1.125 -12.71875 1.238281 -12.765625 1.375 -12.765625 L 6.640625 -12.765625 C 6.773438 -12.765625 6.894531 -12.71875 7 -12.625 C 7.09375 -12.519531 7.140625 -12.398438 7.140625 -12.265625 Z M 7.140625 -11.3125 "/></g></g></g><g fill="#000000" fill-opacity="0.4"><g transform="translate(86.843344, 20.483529)"><g><path d="M 6.1875 -1.96875 C 6.320312 -1.96875 6.441406 -1.921875 6.546875 -1.828125 C 6.640625 -1.722656 6.6875 -1.601562 6.6875 -1.46875 L 6.6875 -0.5 C 6.6875 -0.363281 6.640625 -0.25 6.546875 -0.15625 C 6.441406 -0.0507812 6.320312 0 6.1875 0 L 1.375 0 C 1.238281 0 1.125 -0.0507812 1.03125 -0.15625 C 0.925781 -0.25 0.875 -0.363281 0.875 -0.5 L 0.875 -12.265625 C 0.875 -12.398438 0.925781 -12.519531 1.03125 -12.625 C 1.125 -12.71875 1.238281 -12.765625 1.375 -12.765625 L 2.328125 -12.765625 C 2.472656 -12.765625 2.597656 -12.71875 2.703125 -12.625 C 2.796875 -12.519531 2.84375 -12.398438 2.84375 -12.265625 L 2.84375 -2.46875 C 2.84375 -2.332031 2.894531 -2.21875 3 -2.125 C 3.09375 -2.019531 3.207031 -1.96875 3.34375 -1.96875 Z M 6.1875 -1.96875 "/></g></g></g><g fill="#000000" fill-opacity="0.4"><g transform="translate(94.403322, 20.483529)"><g><path d="M 7.140625 -11.3125 C 7.140625 -11.164062 7.09375 -11.046875 7 -10.953125 C 6.894531 -10.847656 6.773438 -10.796875 6.640625 -10.796875 L 3.34375 -10.796875 C 3.207031 -10.796875 3.09375 -10.75 3 -10.65625 C 2.894531 -10.550781 2.84375 -10.429688 2.84375 -10.296875 L 2.84375 -9.25 C 2.84375 -9.113281 2.894531 -9 3 -8.90625 C 3.09375 -8.800781 3.207031 -8.75 3.34375 -8.75 L 5.515625 -8.75 C 5.671875 -8.75 5.800781 -8.703125 5.90625 -8.609375 C 6 -8.503906 6.046875 -8.378906 6.046875 -8.234375 L 6.046875 -7.296875 C 6.046875 -7.160156 6 -7.039062 5.90625 -6.9375 C 5.800781 -6.832031 5.671875 -6.78125 5.515625 -6.78125 L 3.34375 -6.78125 C 3.207031 -6.78125 3.09375 -6.734375 3 -6.640625 C 2.894531 -6.535156 2.84375 -6.410156 2.84375 -6.265625 L 2.84375 -2.46875 C 2.84375 -2.332031 2.894531 -2.21875 3 -2.125 C 3.09375 -2.019531 3.207031 -1.96875 3.34375 -1.96875 L 6.640625 -1.96875 C 6.773438 -1.96875 6.894531 -1.921875 7 -1.828125 C 7.09375 -1.722656 7.140625 -1.601562 7.140625 -1.46875 L 7.140625 -0.5 C 7.140625 -0.363281 7.09375 -0.25 7 -0.15625 C 6.894531 -0.0507812 6.773438 0 6.640625 0 L 1.375 0 C 1.238281 0 1.125 -0.0507812 1.03125 -0.15625 C 0.925781 -0.25 0.875 -0.363281 0.875 -0.5 L 0.875 -12.265625 C 0.875 -12.398438 0.925781 -12.519531 1.03125 -12.625 C 1.125 -12.71875 1.238281 -12.765625 1.375 -12.765625 L 6.640625 -12.765625 C 6.773438 -12.765625 6.894531 -12.71875 7 -12.625 C 7.09375 -12.519531 7.140625 -12.398438 7.140625 -12.265625 Z M 7.140625 -11.3125 "/></g></g></g><g fill="#000000" fill-opacity="0.4"><g transform="translate(102.416198, 20.483529)"><g><path d="M 4.703125 -6.6875 C 4.640625 -6.59375 4.609375 -6.492188 4.609375 -6.390625 C 4.609375 -6.273438 4.640625 -6.171875 4.703125 -6.078125 L 8.578125 -0.8125 C 8.703125 -0.65625 8.71875 -0.476562 8.625 -0.28125 C 8.53125 -0.09375 8.378906 0 8.171875 0 L 7 0 C 6.832031 0 6.691406 -0.0664062 6.578125 -0.203125 L 3.375 -4.5625 C 3.332031 -4.613281 3.296875 -4.640625 3.265625 -4.640625 C 3.210938 -4.640625 3.175781 -4.613281 3.15625 -4.5625 L 2.859375 -4.1875 C 2.847656 -4.164062 2.84375 -4.132812 2.84375 -4.09375 L 2.84375 -0.515625 C 2.84375 -0.367188 2.796875 -0.25 2.703125 -0.15625 C 2.597656 -0.0507812 2.46875 0 2.3125 0 L 1.390625 0 C 1.242188 0 1.125 -0.0507812 1.03125 -0.15625 C 0.925781 -0.25 0.875 -0.367188 0.875 -0.515625 L 0.875 -12.25 C 0.875 -12.394531 0.925781 -12.519531 1.03125 -12.625 C 1.125 -12.71875 1.242188 -12.765625 1.390625 -12.765625 L 2.3125 -12.765625 C 2.46875 -12.765625 2.597656 -12.71875 2.703125 -12.625 C 2.796875 -12.519531 2.84375 -12.394531 2.84375 -12.25 L 2.84375 -7.90625 C 2.84375 -7.820312 2.875 -7.773438 2.9375 -7.765625 C 3.007812 -7.742188 3.0625 -7.765625 3.09375 -7.828125 L 6.578125 -12.5625 C 6.703125 -12.695312 6.84375 -12.765625 7 -12.765625 L 8.171875 -12.765625 C 8.378906 -12.765625 8.53125 -12.671875 8.625 -12.484375 C 8.71875 -12.296875 8.703125 -12.117188 8.578125 -11.953125 Z M 4.703125 -6.6875 "/></g></g></g><g fill="#000000" fill-opacity="0.4"><g transform="translate(111.979398, 20.483529)"><g><path d="M 3.984375 -12.765625 C 4.992188 -12.765625 5.753906 -12.492188 6.265625 -11.953125 C 6.773438 -11.398438 7.03125 -10.628906 7.03125 -9.640625 C 7.03125 -9.515625 7 -9.421875 6.9375 -9.359375 C 6.851562 -9.273438 6.753906 -9.234375 6.640625 -9.234375 L 5.46875 -9.234375 C 5.351562 -9.234375 5.257812 -9.273438 5.1875 -9.359375 C 5.101562 -9.421875 5.0625 -9.515625 5.0625 -9.640625 L 5.0625 -9.75 C 5.0625 -10.195312 4.976562 -10.519531 4.8125 -10.71875 C 4.632812 -10.90625 4.378906 -11 4.046875 -11 C 3.703125 -11 3.445312 -10.90625 3.28125 -10.71875 C 3.09375 -10.519531 3 -10.195312 3 -9.75 C 3 -9.519531 3.023438 -9.304688 3.078125 -9.109375 C 3.140625 -8.898438 3.238281 -8.691406 3.375 -8.484375 C 3.519531 -8.273438 3.707031 -8.054688 3.9375 -7.828125 C 4.15625 -7.578125 4.4375 -7.3125 4.78125 -7.03125 C 5.207031 -6.675781 5.570312 -6.34375 5.875 -6.03125 C 6.164062 -5.707031 6.394531 -5.394531 6.5625 -5.09375 C 6.738281 -4.769531 6.867188 -4.453125 6.953125 -4.140625 C 7.023438 -3.828125 7.0625 -3.492188 7.0625 -3.140625 C 7.0625 -2.128906 6.804688 -1.351562 6.296875 -0.8125 C 5.765625 -0.269531 4.988281 0 3.96875 0 C 2.945312 0 2.175781 -0.269531 1.65625 -0.8125 C 1.132812 -1.351562 0.875 -2.128906 0.875 -3.140625 L 0.875 -3.515625 C 0.875 -3.617188 0.914062 -3.710938 1 -3.796875 C 1.0625 -3.867188 1.144531 -3.90625 1.25 -3.90625 L 2.4375 -3.90625 C 2.539062 -3.90625 2.632812 -3.867188 2.71875 -3.796875 C 2.800781 -3.710938 2.84375 -3.617188 2.84375 -3.515625 L 2.84375 -3.015625 C 2.84375 -2.578125 2.9375 -2.265625 3.125 -2.078125 C 3.300781 -1.890625 3.5625 -1.796875 3.90625 -1.796875 C 4.238281 -1.796875 4.503906 -1.890625 4.703125 -2.078125 C 4.890625 -2.265625 4.984375 -2.578125 4.984375 -3.015625 C 4.984375 -3.234375 4.953125 -3.445312 4.890625 -3.65625 C 4.835938 -3.863281 4.738281 -4.070312 4.59375 -4.28125 C 4.457031 -4.488281 4.28125 -4.71875 4.0625 -4.96875 C 3.820312 -5.195312 3.535156 -5.453125 3.203125 -5.734375 C 2.773438 -6.085938 2.414062 -6.425781 2.125 -6.75 C 1.832031 -7.0625 1.597656 -7.375 1.421875 -7.6875 C 1.242188 -8 1.117188 -8.3125 1.046875 -8.625 C 0.960938 -8.9375 0.921875 -9.273438 0.921875 -9.640625 C 0.921875 -10.628906 1.175781 -11.398438 1.6875 -11.953125 C 2.195312 -12.492188 2.960938 -12.765625 3.984375 -12.765625 Z M 3.984375 -12.765625 "/></g></g></g><g fill="#000000" fill-opacity="0.4"><g transform="translate(119.905181, 20.483529)"><g><path d="M 2.328125 -12.765625 C 2.472656 -12.765625 2.597656 -12.71875 2.703125 -12.625 C 2.796875 -12.519531 2.84375 -12.398438 2.84375 -12.265625 L 2.84375 -0.5 C 2.84375 -0.363281 2.796875 -0.25 2.703125 -0.15625 C 2.597656 -0.0507812 2.472656 0 2.328125 0 L 1.375 0 C 1.238281 0 1.125 -0.0507812 1.03125 -0.15625 C 0.925781 -0.25 0.875 -0.363281 0.875 -0.5 L 0.875 -12.265625 C 0.875 -12.398438 0.925781 -12.519531 1.03125 -12.625 C 1.125 -12.71875 1.238281 -12.765625 1.375 -12.765625 Z M 2.328125 -12.765625 "/></g></g></g><g fill="#000000" fill-opacity="1"><g transform="translate(62.720138, 19.233873)"><g><path d="M 4.25 -12.765625 C 4.90625 -12.765625 5.46875 -12.617188 5.9375 -12.328125 C 6.414062 -12.023438 6.804688 -11.640625 7.109375 -11.171875 C 7.410156 -10.691406 7.625 -10.15625 7.75 -9.5625 C 7.875 -8.96875 7.914062 -8.367188 7.875 -7.765625 C 7.8125 -7.160156 7.671875 -6.585938 7.453125 -6.046875 C 7.222656 -5.503906 6.910156 -5.046875 6.515625 -4.671875 C 6.335938 -4.515625 6.289062 -4.332031 6.375 -4.125 L 7.625 -0.671875 C 7.6875 -0.515625 7.671875 -0.363281 7.578125 -0.21875 C 7.472656 -0.0703125 7.328125 0 7.140625 0 L 6.15625 0 C 5.90625 0 5.738281 -0.109375 5.65625 -0.328125 L 4.53125 -3.46875 C 4.445312 -3.6875 4.285156 -3.796875 4.046875 -3.796875 L 3.34375 -3.796875 C 3.207031 -3.796875 3.09375 -3.75 3 -3.65625 C 2.894531 -3.550781 2.84375 -3.429688 2.84375 -3.296875 L 2.84375 -0.5 C 2.84375 -0.363281 2.796875 -0.25 2.703125 -0.15625 C 2.597656 -0.0507812 2.472656 0 2.328125 0 L 1.375 0 C 1.238281 0 1.125 -0.0507812 1.03125 -0.15625 C 0.925781 -0.25 0.875 -0.363281 0.875 -0.5 L 0.875 -12.265625 C 0.875 -12.398438 0.925781 -12.519531 1.03125 -12.625 C 1.125 -12.71875 1.238281 -12.765625 1.375 -12.765625 Z M 2.84375 -6.265625 C 2.84375 -6.128906 2.894531 -6.015625 3 -5.921875 C 3.09375 -5.816406 3.207031 -5.765625 3.34375 -5.765625 L 4.28125 -5.765625 C 4.644531 -5.765625 4.945312 -5.894531 5.1875 -6.15625 C 5.4375 -6.394531 5.625 -6.703125 5.75 -7.078125 C 5.875 -7.441406 5.9375 -7.847656 5.9375 -8.296875 C 5.9375 -8.722656 5.878906 -9.125 5.765625 -9.5 C 5.640625 -9.863281 5.453125 -10.175781 5.203125 -10.4375 C 4.960938 -10.675781 4.65625 -10.796875 4.28125 -10.796875 L 3.34375 -10.796875 C 3.207031 -10.796875 3.09375 -10.75 3 -10.65625 C 2.894531 -10.550781 2.84375 -10.429688 2.84375 -10.296875 Z M 2.84375 -6.265625 "/></g></g></g><g fill="#000000" fill-opacity="1"><g transform="translate(71.482045, 19.233873)"><g><path d="M 7.140625 -11.3125 C 7.140625 -11.164062 7.09375 -11.046875 7 -10.953125 C 6.894531 -10.847656 6.773438 -10.796875 6.640625 -10.796875 L 3.34375 -10.796875 C 3.207031 -10.796875 3.09375 -10.75 3 -10.65625 C 2.894531 -10.550781 2.84375 -10.429688 2.84375 -10.296875 L 2.84375 -9.25 C 2.84375 -9.113281 2.894531 -9 3 -8.90625 C 3.09375 -8.800781 3.207031 -8.75 3.34375 -8.75 L 5.515625 -8.75 C 5.671875 -8.75 5.800781 -8.703125 5.90625 -8.609375 C 6 -8.503906 6.046875 -8.378906 6.046875 -8.234375 L 6.046875 -7.296875 C 6.046875 -7.160156 6 -7.039062 5.90625 -6.9375 C 5.800781 -6.832031 5.671875 -6.78125 5.515625 -6.78125 L 3.34375 -6.78125 C 3.207031 -6.78125 3.09375 -6.734375 3 -6.640625 C 2.894531 -6.535156 2.84375 -6.410156 2.84375 -6.265625 L 2.84375 -2.46875 C 2.84375 -2.332031 2.894531 -2.21875 3 -2.125 C 3.09375 -2.019531 3.207031 -1.96875 3.34375 -1.96875 L 6.640625 -1.96875 C 6.773438 -1.96875 6.894531 -1.921875 7 -1.828125 C 7.09375 -1.722656 7.140625 -1.601562 7.140625 -1.46875 L 7.140625 -0.5 C 7.140625 -0.363281 7.09375 -0.25 7 -0.15625 C 6.894531 -0.0507812 6.773438 0 6.640625 0 L 1.375 0 C 1.238281 0 1.125 -0.0507812 1.03125 -0.15625 C 0.925781 -0.25 0.875 -0.363281 0.875 -0.5 L 0.875 -12.265625 C 0.875 -12.398438 0.925781 -12.519531 1.03125 -12.625 C 1.125 -12.71875 1.238281 -12.765625 1.375 -12.765625 L 6.640625 -12.765625 C 6.773438 -12.765625 6.894531 -12.71875 7 -12.625 C 7.09375 -12.519531 7.140625 -12.398438 7.140625 -12.265625 Z M 7.140625 -11.3125 "/></g></g></g><g fill="#000000" fill-opacity="1"><g transform="translate(79.494921, 19.233873)"><g><path d="M 7.140625 -11.3125 C 7.140625 -11.164062 7.09375 -11.046875 7 -10.953125 C 6.894531 -10.847656 6.773438 -10.796875 6.640625 -10.796875 L 3.34375 -10.796875 C 3.207031 -10.796875 3.09375 -10.75 3 -10.65625 C 2.894531 -10.550781 2.84375 -10.429688 2.84375 -10.296875 L 2.84375 -9.25 C 2.84375 -9.113281 2.894531 -9 3 -8.90625 C 3.09375 -8.800781 3.207031 -8.75 3.34375 -8.75 L 5.515625 -8.75 C 5.671875 -8.75 5.800781 -8.703125 5.90625 -8.609375 C 6 -8.503906 6.046875 -8.378906 6.046875 -8.234375 L 6.046875 -7.296875 C 6.046875 -7.160156 6 -7.039062 5.90625 -6.9375 C 5.800781 -6.832031 5.671875 -6.78125 5.515625 -6.78125 L 3.34375 -6.78125 C 3.207031 -6.78125 3.09375 -6.734375 3 -6.640625 C 2.894531 -6.535156 2.84375 -6.410156 2.84375 -6.265625 L 2.84375 -0.5 C 2.84375 -0.363281 2.796875 -0.25 2.703125 -0.15625 C 2.597656 -0.0507812 2.472656 0 2.328125 0 L 1.375 0 C 1.238281 0 1.125 -0.0507812 1.03125 -0.15625 C 0.925781 -0.25 0.875 -0.363281 0.875 -0.5 L 0.875 -12.265625 C 0.875 -12.398438 0.925781 -12.519531 1.03125 -12.625 C 1.125 -12.71875 1.238281 -12.765625 1.375 -12.765625 L 6.640625 -12.765625 C 6.773438 -12.765625 6.894531 -12.71875 7 -12.625 C 7.09375 -12.519531 7.140625 -12.398438 7.140625 -12.265625 Z M 7.140625 -11.3125 "/></g></g></g><g fill="#000000" fill-opacity="1"><g transform="translate(87.507797, 19.233873)"><g><path d="M 6.1875 -1.96875 C 6.320312 -1.96875 6.441406 -1.921875 6.546875 -1.828125 C 6.640625 -1.722656 6.6875 -1.601562 6.6875 -1.46875 L 6.6875 -0.5 C 6.6875 -0.363281 6.640625 -0.25 6.546875 -0.15625 C 6.441406 -0.0507812 6.320312 0 6.1875 0 L 1.375 0 C 1.238281 0 1.125 -0.0507812 1.03125 -0.15625 C 0.925781 -0.25 0.875 -0.363281 0.875 -0.5 L 0.875 -12.265625 C 0.875 -12.398438 0.925781 -12.519531 1.03125 -12.625 C 1.125 -12.71875 1.238281 -12.765625 1.375 -12.765625 L 2.328125 -12.765625 C 2.472656 -12.765625 2.597656 -12.71875 2.703125 -12.625 C 2.796875 -12.519531 2.84375 -12.398438 2.84375 -12.265625 L 2.84375 -2.46875 C 2.84375 -2.332031 2.894531 -2.21875 3 -2.125 C 3.09375 -2.019531 3.207031 -1.96875 3.34375 -1.96875 Z M 6.1875 -1.96875 "/></g></g></g><g fill="#000000" fill-opacity="1"><g transform="translate(95.067775, 19.233873)"><g><path d="M 7.140625 -11.3125 C 7.140625 -11.164062 7.09375 -11.046875 7 -10.953125 C 6.894531 -10.847656 6.773438 -10.796875 6.640625 -10.796875 L 3.34375 -10.796875 C 3.207031 -10.796875 3.09375 -10.75 3 -10.65625 C 2.894531 -10.550781 2.84375 -10.429688 2.84375 -10.296875 L 2.84375 -9.25 C 2.84375 -9.113281 2.894531 -9 3 -8.90625 C 3.09375 -8.800781 3.207031 -8.75 3.34375 -8.75 L 5.515625 -8.75 C 5.671875 -8.75 5.800781 -8.703125 5.90625 -8.609375 C 6 -8.503906 6.046875 -8.378906 6.046875 -8.234375 L 6.046875 -7.296875 C 6.046875 -7.160156 6 -7.039062 5.90625 -6.9375 C 5.800781 -6.832031 5.671875 -6.78125 5.515625 -6.78125 L 3.34375 -6.78125 C 3.207031 -6.78125 3.09375 -6.734375 3 -6.640625 C 2.894531 -6.535156 2.84375 -6.410156 2.84375 -6.265625 L 2.84375 -2.46875 C 2.84375 -2.332031 2.894531 -2.21875 3 -2.125 C 3.09375 -2.019531 3.207031 -1.96875 3.34375 -1.96875 L 6.640625 -1.96875 C 6.773438 -1.96875 6.894531 -1.921875 7 -1.828125 C 7.09375 -1.722656 7.140625 -1.601562 7.140625 -1.46875 L 7.140625 -0.5 C 7.140625 -0.363281 7.09375 -0.25 7 -0.15625 C 6.894531 -0.0507812 6.773438 0 6.640625 0 L 1.375 0 C 1.238281 0 1.125 -0.0507812 1.03125 -0.15625 C 0.925781 -0.25 0.875 -0.363281 0.875 -0.5 L 0.875 -12.265625 C 0.875 -12.398438 0.925781 -12.519531 1.03125 -12.625 C 1.125 -12.71875 1.238281 -12.765625 1.375 -12.765625 L 6.640625 -12.765625 C 6.773438 -12.765625 6.894531 -12.71875 7 -12.625 C 7.09375 -12.519531 7.140625 -12.398438 7.140625 -12.265625 Z M 7.140625 -11.3125 "/></g></g></g><g fill="#000000" fill-opacity="1"><g transform="translate(103.080651, 19.233873)"><g><path d="M 4.703125 -6.6875 C 4.640625 -6.59375 4.609375 -6.492188 4.609375 -6.390625 C 4.609375 -6.273438 4.640625 -6.171875 4.703125 -6.078125 L 8.578125 -0.8125 C 8.703125 -0.65625 8.71875 -0.476562 8.625 -0.28125 C 8.53125 -0.09375 8.378906 0 8.171875 0 L 7 0 C 6.832031 0 6.691406 -0.0664062 6.578125 -0.203125 L 3.375 -4.5625 C 3.332031 -4.613281 3.296875 -4.640625 3.265625 -4.640625 C 3.210938 -4.640625 3.175781 -4.613281 3.15625 -4.5625 L 2.859375 -4.1875 C 2.847656 -4.164062 2.84375 -4.132812 2.84375 -4.09375 L 2.84375 -0.515625 C 2.84375 -0.367188 2.796875 -0.25 2.703125 -0.15625 C 2.597656 -0.0507812 2.46875 0 2.3125 0 L 1.390625 0 C 1.242188 0 1.125 -0.0507812 1.03125 -0.15625 C 0.925781 -0.25 0.875 -0.367188 0.875 -0.515625 L 0.875 -12.25 C 0.875 -12.394531 0.925781 -12.519531 1.03125 -12.625 C 1.125 -12.71875 1.242188 -12.765625 1.390625 -12.765625 L 2.3125 -12.765625 C 2.46875 -12.765625 2.597656 -12.71875 2.703125 -12.625 C 2.796875 -12.519531 2.84375 -12.394531 2.84375 -12.25 L 2.84375 -7.90625 C 2.84375 -7.820312 2.875 -7.773438 2.9375 -7.765625 C 3.007812 -7.742188 3.0625 -7.765625 3.09375 -7.828125 L 6.578125 -12.5625 C 6.703125 -12.695312 6.84375 -12.765625 7 -12.765625 L 8.171875 -12.765625 C 8.378906 -12.765625 8.53125 -12.671875 8.625 -12.484375 C 8.71875 -12.296875 8.703125 -12.117188 8.578125 -11.953125 Z M 4.703125 -6.6875 "/></g></g></g><g fill="#000000" fill-opacity="1"><g transform="translate(112.643851, 19.233873)"><g><path d="M 3.984375 -12.765625 C 4.992188 -12.765625 5.753906 -12.492188 6.265625 -11.953125 C 6.773438 -11.398438 7.03125 -10.628906 7.03125 -9.640625 C 7.03125 -9.515625 7 -9.421875 6.9375 -9.359375 C 6.851562 -9.273438 6.753906 -9.234375 6.640625 -9.234375 L 5.46875 -9.234375 C 5.351562 -9.234375 5.257812 -9.273438 5.1875 -9.359375 C 5.101562 -9.421875 5.0625 -9.515625 5.0625 -9.640625 L 5.0625 -9.75 C 5.0625 -10.195312 4.976562 -10.519531 4.8125 -10.71875 C 4.632812 -10.90625 4.378906 -11 4.046875 -11 C 3.703125 -11 3.445312 -10.90625 3.28125 -10.71875 C 3.09375 -10.519531 3 -10.195312 3 -9.75 C 3 -9.519531 3.023438 -9.304688 3.078125 -9.109375 C 3.140625 -8.898438 3.238281 -8.691406 3.375 -8.484375 C 3.519531 -8.273438 3.707031 -8.054688 3.9375 -7.828125 C 4.15625 -7.578125 4.4375 -7.3125 4.78125 -7.03125 C 5.207031 -6.675781 5.570312 -6.34375 5.875 -6.03125 C 6.164062 -5.707031 6.394531 -5.394531 6.5625 -5.09375 C 6.738281 -4.769531 6.867188 -4.453125 6.953125 -4.140625 C 7.023438 -3.828125 7.0625 -3.492188 7.0625 -3.140625 C 7.0625 -2.128906 6.804688 -1.351562 6.296875 -0.8125 C 5.765625 -0.269531 4.988281 0 3.96875 0 C 2.945312 0 2.175781 -0.269531 1.65625 -0.8125 C 1.132812 -1.351562 0.875 -2.128906 0.875 -3.140625 L 0.875 -3.515625 C 0.875 -3.617188 0.914062 -3.710938 1 -3.796875 C 1.0625 -3.867188 1.144531 -3.90625 1.25 -3.90625 L 2.4375 -3.90625 C 2.539062 -3.90625 2.632812 -3.867188 2.71875 -3.796875 C 2.800781 -3.710938 2.84375 -3.617188 2.84375 -3.515625 L 2.84375 -3.015625 C 2.84375 -2.578125 2.9375 -2.265625 3.125 -2.078125 C 3.300781 -1.890625 3.5625 -1.796875 3.90625 -1.796875 C 4.238281 -1.796875 4.503906 -1.890625 4.703125 -2.078125 C 4.890625 -2.265625 4.984375 -2.578125 4.984375 -3.015625 C 4.984375 -3.234375 4.953125 -3.445312 4.890625 -3.65625 C 4.835938 -3.863281 4.738281 -4.070312 4.59375 -4.28125 C 4.457031 -4.488281 4.28125 -4.71875 4.0625 -4.96875 C 3.820312 -5.195312 3.535156 -5.453125 3.203125 -5.734375 C 2.773438 -6.085938 2.414062 -6.425781 2.125 -6.75 C 1.832031 -7.0625 1.597656 -7.375 1.421875 -7.6875 C 1.242188 -8 1.117188 -8.3125 1.046875 -8.625 C 0.960938 -8.9375 0.921875 -9.273438 0.921875 -9.640625 C 0.921875 -10.628906 1.175781 -11.398438 1.6875 -11.953125 C 2.195312 -12.492188 2.960938 -12.765625 3.984375 -12.765625 Z M 3.984375 -12.765625 "/></g></g></g><g fill="#000000" fill-opacity="1"><g transform="translate(120.569634, 19.233873)"><g><path d="M 2.328125 -12.765625 C 2.472656 -12.765625 2.597656 -12.71875 2.703125 -12.625 C 2.796875 -12.519531 2.84375 -12.398438 2.84375 -12.265625 L 2.84375 -0.5 C 2.84375 -0.363281 2.796875 -0.25 2.703125 -0.15625 C 2.597656 -0.0507812 2.472656 0 2.328125 0 L 1.375 0 C 1.238281 0 1.125 -0.0507812 1.03125 -0.15625 C 0.925781 -0.25 0.875 -0.363281 0.875 -0.5 L 0.875 -12.265625 C 0.875 -12.398438 0.925781 -12.519531 1.03125 -12.625 C 1.125 -12.71875 1.238281 -12.765625 1.375 -12.765625 Z M 2.328125 -12.765625 "/></g></g></g></svg>