<svg xmlns="http://www.w3.org/2000/svg" xmlns:xlink="http://www.w3.org/1999/xlink" width="170" zoomAndPan="magnify" viewBox="0 0 127.5 37.5" height="50" preserveAspectRatio="xMidYMid meet" version="1.0"><defs><g/><clipPath id="7c0a05d04e"><path d="M 0.59375 0 L 126.414062 0 L 126.414062 37.007812 L 0.59375 37.007812 Z M 0.59375 0 " clip-rule="nonzero"/></clipPath></defs><g clip-path="url(#7c0a05d04e)"><path fill="#ffffff" d="M 0.59375 0 L 126.414062 0 L 126.414062 37.007812 L 0.59375 37.007812 Z M 0.59375 0 " fill-opacity="1" fill-rule="nonzero"/><path fill="#ffffff" d="M 0.59375 0 L 126.414062 0 L 126.414062 37.007812 L 0.59375 37.007812 Z M 0.59375 0 " fill-opacity="1" fill-rule="nonzero"/><path fill="#ffffff" d="M 0.59375 0 L 126.355469 0 L 126.355469 37.007812 L 0.59375 37.007812 Z M 0.59375 0 " fill-opacity="1" fill-rule="nonzero"/><path stroke-linecap="butt" transform="matrix(0.740132, 0, 0, 0.740132, 0.592105, 0.00000194228)" fill="none" stroke-linejoin="miter" d="M 0.00222222 -0.00000262424 L 169.999452 -0.00000262424 L 169.999452 50.001666 L 0.00222222 50.001666 Z M 0.00222222 -0.00000262424 " stroke="#000000" stroke-width="4" stroke-opacity="1" stroke-miterlimit="4"/></g><g fill="#000000" fill-opacity="0.4"><g transform="translate(41.081776, 25.470189)"><g><path d="M 4.515625 -14.46875 C 5.660156 -14.46875 6.523438 -14.15625 7.109375 -13.53125 C 7.679688 -12.914062 7.96875 -12.039062 7.96875 -10.90625 C 7.96875 -10.78125 7.929688 -10.675781 7.859375 -10.59375 C 7.765625 -10.5 7.648438 -10.453125 7.515625 -10.453125 L 6.203125 -10.453125 C 6.066406 -10.453125 5.957031 -10.5 5.875 -10.59375 C 5.789062 -10.675781 5.75 -10.78125 5.75 -10.90625 L 5.75 -11.046875 C 5.75 -11.546875 5.648438 -11.910156 5.453125 -12.140625 C 5.253906 -12.347656 4.960938 -12.453125 4.578125 -12.453125 C 4.191406 -12.453125 3.898438 -12.347656 3.703125 -12.140625 C 3.492188 -11.910156 3.390625 -11.546875 3.390625 -11.046875 C 3.390625 -10.785156 3.425781 -10.546875 3.5 -10.328125 C 3.5625 -10.085938 3.671875 -9.847656 3.828125 -9.609375 C 3.984375 -9.367188 4.191406 -9.117188 4.453125 -8.859375 C 4.703125 -8.585938 5.019531 -8.289062 5.40625 -7.96875 C 5.894531 -7.5625 6.3125 -7.179688 6.65625 -6.828125 C 6.976562 -6.460938 7.238281 -6.109375 7.4375 -5.765625 C 7.632812 -5.410156 7.78125 -5.054688 7.875 -4.703125 C 7.957031 -4.335938 8 -3.953125 8 -3.546875 C 8 -2.398438 7.707031 -1.523438 7.125 -0.921875 C 6.53125 -0.304688 5.65625 0 4.5 0 C 3.34375 0 2.46875 -0.304688 1.875 -0.921875 C 1.28125 -1.523438 0.984375 -2.398438 0.984375 -3.546875 L 0.984375 -3.984375 C 0.984375 -4.097656 1.03125 -4.203125 1.125 -4.296875 C 1.207031 -4.378906 1.304688 -4.421875 1.421875 -4.421875 L 2.765625 -4.421875 C 2.878906 -4.421875 2.984375 -4.378906 3.078125 -4.296875 C 3.171875 -4.203125 3.21875 -4.097656 3.21875 -3.984375 L 3.21875 -3.40625 C 3.21875 -2.914062 3.320312 -2.5625 3.53125 -2.34375 C 3.738281 -2.132812 4.035156 -2.03125 4.421875 -2.03125 C 4.804688 -2.03125 5.109375 -2.132812 5.328125 -2.34375 C 5.535156 -2.5625 5.640625 -2.914062 5.640625 -3.40625 C 5.640625 -3.65625 5.609375 -3.898438 5.546875 -4.140625 C 5.484375 -4.378906 5.367188 -4.617188 5.203125 -4.859375 C 5.046875 -5.085938 4.84375 -5.34375 4.59375 -5.625 C 4.332031 -5.882812 4.007812 -6.175781 3.625 -6.5 C 3.144531 -6.90625 2.738281 -7.285156 2.40625 -7.640625 C 2.082031 -7.992188 1.820312 -8.347656 1.625 -8.703125 C 1.40625 -9.054688 1.257812 -9.410156 1.1875 -9.765625 C 1.09375 -10.117188 1.046875 -10.5 1.046875 -10.90625 C 1.046875 -12.039062 1.335938 -12.914062 1.921875 -13.53125 C 2.492188 -14.15625 3.359375 -14.46875 4.515625 -14.46875 Z M 4.515625 -14.46875 "/></g></g></g><g fill="#000000" fill-opacity="0.4"><g transform="translate(50.058502, 25.470189)"><g><path d="M 3.21875 -14.46875 C 4.28125 -14.46875 5.238281 -14.273438 6.09375 -13.890625 C 6.945312 -13.515625 7.675781 -13.003906 8.28125 -12.359375 C 8.875 -11.691406 9.335938 -10.925781 9.671875 -10.0625 C 9.984375 -9.1875 10.140625 -8.25 10.140625 -7.25 C 10.140625 -6.25 9.984375 -5.3125 9.671875 -4.4375 C 9.335938 -3.5625 8.875 -2.789062 8.28125 -2.125 C 7.675781 -1.46875 6.945312 -0.953125 6.09375 -0.578125 C 5.238281 -0.191406 4.28125 0 3.21875 0 L 1.5625 0 C 1.40625 0 1.273438 -0.0546875 1.171875 -0.171875 C 1.046875 -0.273438 0.984375 -0.410156 0.984375 -0.578125 L 0.984375 -13.890625 C 0.984375 -14.046875 1.046875 -14.1875 1.171875 -14.3125 C 1.273438 -14.414062 1.40625 -14.46875 1.5625 -14.46875 Z M 3.21875 -2.84375 C 3.21875 -2.65625 3.28125 -2.507812 3.40625 -2.40625 C 3.53125 -2.289062 3.6875 -2.242188 3.875 -2.265625 C 4.5 -2.347656 5.054688 -2.535156 5.546875 -2.828125 C 6.035156 -3.109375 6.441406 -3.472656 6.765625 -3.921875 C 7.097656 -4.359375 7.347656 -4.867188 7.515625 -5.453125 C 7.671875 -6.015625 7.75 -6.613281 7.75 -7.25 C 7.75 -7.875 7.671875 -8.476562 7.515625 -9.0625 C 7.347656 -9.625 7.097656 -10.128906 6.765625 -10.578125 C 6.441406 -11.015625 6.035156 -11.375 5.546875 -11.65625 C 5.054688 -11.945312 4.5 -12.132812 3.875 -12.21875 C 3.6875 -12.238281 3.53125 -12.191406 3.40625 -12.078125 C 3.28125 -11.960938 3.21875 -11.816406 3.21875 -11.640625 Z M 3.21875 -2.84375 "/></g></g></g><g fill="#000000" fill-opacity="0.4"><g transform="translate(61.185694, 25.470189)"><g><path d="M 12.953125 -7.53125 C 13.035156 -7.53125 13.113281 -7.503906 13.1875 -7.453125 C 13.238281 -7.390625 13.265625 -7.320312 13.265625 -7.25 C 13.265625 -6.351562 13.160156 -5.46875 12.953125 -4.59375 C 12.722656 -3.726562 12.347656 -2.941406 11.828125 -2.234375 C 11.265625 -1.492188 10.59375 -0.941406 9.8125 -0.578125 C 9.007812 -0.191406 8.113281 0 7.125 0 C 5.125 0 3.554688 -0.742188 2.421875 -2.234375 C 1.460938 -3.535156 0.984375 -5.195312 0.984375 -7.21875 C 0.984375 -8.238281 1.109375 -9.164062 1.359375 -10 C 1.597656 -10.84375 1.953125 -11.582031 2.421875 -12.21875 C 2.972656 -12.96875 3.648438 -13.53125 4.453125 -13.90625 C 5.242188 -14.28125 6.132812 -14.46875 7.125 -14.46875 C 8.113281 -14.46875 9.007812 -14.28125 9.8125 -13.90625 C 10.59375 -13.53125 11.265625 -12.96875 11.828125 -12.21875 C 11.878906 -12.144531 11.894531 -12.070312 11.875 -12 C 11.851562 -11.90625 11.800781 -11.832031 11.71875 -11.78125 L 10.296875 -10.96875 C 10.171875 -10.894531 10.046875 -10.914062 9.921875 -11.03125 C 9.703125 -11.289062 9.46875 -11.5 9.21875 -11.65625 C 8.957031 -11.820312 8.703125 -11.945312 8.453125 -12.03125 C 8.203125 -12.113281 7.960938 -12.171875 7.734375 -12.203125 C 7.492188 -12.222656 7.289062 -12.234375 7.125 -12.234375 C 6.820312 -12.234375 6.453125 -12.1875 6.015625 -12.09375 C 5.566406 -11.988281 5.140625 -11.765625 4.734375 -11.421875 C 4.316406 -11.078125 3.960938 -10.578125 3.671875 -9.921875 C 3.367188 -9.253906 3.21875 -8.351562 3.21875 -7.21875 C 3.21875 -6.09375 3.367188 -5.195312 3.671875 -4.53125 C 3.960938 -3.875 4.316406 -3.378906 4.734375 -3.046875 C 5.140625 -2.703125 5.566406 -2.484375 6.015625 -2.390625 C 6.453125 -2.285156 6.820312 -2.234375 7.125 -2.234375 C 7.363281 -2.234375 7.644531 -2.257812 7.96875 -2.3125 C 8.300781 -2.363281 8.644531 -2.488281 9 -2.6875 C 9.34375 -2.863281 9.671875 -3.132812 9.984375 -3.5 C 10.285156 -3.851562 10.53125 -4.320312 10.71875 -4.90625 C 10.738281 -5.019531 10.722656 -5.113281 10.671875 -5.1875 C 10.617188 -5.269531 10.539062 -5.3125 10.4375 -5.3125 L 8.03125 -5.3125 C 7.875 -5.3125 7.742188 -5.367188 7.640625 -5.484375 C 7.515625 -5.585938 7.453125 -5.726562 7.453125 -5.90625 L 7.453125 -6.96875 C 7.453125 -7.125 7.515625 -7.257812 7.640625 -7.375 C 7.742188 -7.476562 7.875 -7.53125 8.03125 -7.53125 Z M 12.953125 -7.53125 "/></g></g></g><g fill="#000000" fill-opacity="0.4"><g transform="translate(75.430075, 25.470189)"><g><path d="M 4.515625 -14.46875 C 5.660156 -14.46875 6.523438 -14.15625 7.109375 -13.53125 C 7.679688 -12.914062 7.96875 -12.039062 7.96875 -10.90625 C 7.96875 -10.78125 7.929688 -10.675781 7.859375 -10.59375 C 7.765625 -10.5 7.648438 -10.453125 7.515625 -10.453125 L 6.203125 -10.453125 C 6.066406 -10.453125 5.957031 -10.5 5.875 -10.59375 C 5.789062 -10.675781 5.75 -10.78125 5.75 -10.90625 L 5.75 -11.046875 C 5.75 -11.546875 5.648438 -11.910156 5.453125 -12.140625 C 5.253906 -12.347656 4.960938 -12.453125 4.578125 -12.453125 C 4.191406 -12.453125 3.898438 -12.347656 3.703125 -12.140625 C 3.492188 -11.910156 3.390625 -11.546875 3.390625 -11.046875 C 3.390625 -10.785156 3.425781 -10.546875 3.5 -10.328125 C 3.5625 -10.085938 3.671875 -9.847656 3.828125 -9.609375 C 3.984375 -9.367188 4.191406 -9.117188 4.453125 -8.859375 C 4.703125 -8.585938 5.019531 -8.289062 5.40625 -7.96875 C 5.894531 -7.5625 6.3125 -7.179688 6.65625 -6.828125 C 6.976562 -6.460938 7.238281 -6.109375 7.4375 -5.765625 C 7.632812 -5.410156 7.78125 -5.054688 7.875 -4.703125 C 7.957031 -4.335938 8 -3.953125 8 -3.546875 C 8 -2.398438 7.707031 -1.523438 7.125 -0.921875 C 6.53125 -0.304688 5.65625 0 4.5 0 C 3.34375 0 2.46875 -0.304688 1.875 -0.921875 C 1.28125 -1.523438 0.984375 -2.398438 0.984375 -3.546875 L 0.984375 -3.984375 C 0.984375 -4.097656 1.03125 -4.203125 1.125 -4.296875 C 1.207031 -4.378906 1.304688 -4.421875 1.421875 -4.421875 L 2.765625 -4.421875 C 2.878906 -4.421875 2.984375 -4.378906 3.078125 -4.296875 C 3.171875 -4.203125 3.21875 -4.097656 3.21875 -3.984375 L 3.21875 -3.40625 C 3.21875 -2.914062 3.320312 -2.5625 3.53125 -2.34375 C 3.738281 -2.132812 4.035156 -2.03125 4.421875 -2.03125 C 4.804688 -2.03125 5.109375 -2.132812 5.328125 -2.34375 C 5.535156 -2.5625 5.640625 -2.914062 5.640625 -3.40625 C 5.640625 -3.65625 5.609375 -3.898438 5.546875 -4.140625 C 5.484375 -4.378906 5.367188 -4.617188 5.203125 -4.859375 C 5.046875 -5.085938 4.84375 -5.34375 4.59375 -5.625 C 4.332031 -5.882812 4.007812 -6.175781 3.625 -6.5 C 3.144531 -6.90625 2.738281 -7.285156 2.40625 -7.640625 C 2.082031 -7.992188 1.820312 -8.347656 1.625 -8.703125 C 1.40625 -9.054688 1.257812 -9.410156 1.1875 -9.765625 C 1.09375 -10.117188 1.046875 -10.5 1.046875 -10.90625 C 1.046875 -12.039062 1.335938 -12.914062 1.921875 -13.53125 C 2.492188 -14.15625 3.359375 -14.46875 4.515625 -14.46875 Z M 4.515625 -14.46875 "/></g></g></g><g fill="#000000" fill-opacity="1"><g transform="translate(41.83463, 24.054276)"><g><path d="M 4.515625 -14.46875 C 5.660156 -14.46875 6.523438 -14.15625 7.109375 -13.53125 C 7.679688 -12.914062 7.96875 -12.039062 7.96875 -10.90625 C 7.96875 -10.78125 7.929688 -10.675781 7.859375 -10.59375 C 7.765625 -10.5 7.648438 -10.453125 7.515625 -10.453125 L 6.203125 -10.453125 C 6.066406 -10.453125 5.957031 -10.5 5.875 -10.59375 C 5.789062 -10.675781 5.75 -10.78125 5.75 -10.90625 L 5.75 -11.046875 C 5.75 -11.546875 5.648438 -11.910156 5.453125 -12.140625 C 5.253906 -12.347656 4.960938 -12.453125 4.578125 -12.453125 C 4.191406 -12.453125 3.898438 -12.347656 3.703125 -12.140625 C 3.492188 -11.910156 3.390625 -11.546875 3.390625 -11.046875 C 3.390625 -10.785156 3.425781 -10.546875 3.5 -10.328125 C 3.5625 -10.085938 3.671875 -9.847656 3.828125 -9.609375 C 3.984375 -9.367188 4.191406 -9.117188 4.453125 -8.859375 C 4.703125 -8.585938 5.019531 -8.289062 5.40625 -7.96875 C 5.894531 -7.5625 6.3125 -7.179688 6.65625 -6.828125 C 6.976562 -6.460938 7.238281 -6.109375 7.4375 -5.765625 C 7.632812 -5.410156 7.78125 -5.054688 7.875 -4.703125 C 7.957031 -4.335938 8 -3.953125 8 -3.546875 C 8 -2.398438 7.707031 -1.523438 7.125 -0.921875 C 6.53125 -0.304688 5.65625 0 4.5 0 C 3.34375 0 2.46875 -0.304688 1.875 -0.921875 C 1.28125 -1.523438 0.984375 -2.398438 0.984375 -3.546875 L 0.984375 -3.984375 C 0.984375 -4.097656 1.03125 -4.203125 1.125 -4.296875 C 1.207031 -4.378906 1.304688 -4.421875 1.421875 -4.421875 L 2.765625 -4.421875 C 2.878906 -4.421875 2.984375 -4.378906 3.078125 -4.296875 C 3.171875 -4.203125 3.21875 -4.097656 3.21875 -3.984375 L 3.21875 -3.40625 C 3.21875 -2.914062 3.320312 -2.5625 3.53125 -2.34375 C 3.738281 -2.132812 4.035156 -2.03125 4.421875 -2.03125 C 4.804688 -2.03125 5.109375 -2.132812 5.328125 -2.34375 C 5.535156 -2.5625 5.640625 -2.914062 5.640625 -3.40625 C 5.640625 -3.65625 5.609375 -3.898438 5.546875 -4.140625 C 5.484375 -4.378906 5.367188 -4.617188 5.203125 -4.859375 C 5.046875 -5.085938 4.84375 -5.34375 4.59375 -5.625 C 4.332031 -5.882812 4.007812 -6.175781 3.625 -6.5 C 3.144531 -6.90625 2.738281 -7.285156 2.40625 -7.640625 C 2.082031 -7.992188 1.820312 -8.347656 1.625 -8.703125 C 1.40625 -9.054688 1.257812 -9.410156 1.1875 -9.765625 C 1.09375 -10.117188 1.046875 -10.5 1.046875 -10.90625 C 1.046875 -12.039062 1.335938 -12.914062 1.921875 -13.53125 C 2.492188 -14.15625 3.359375 -14.46875 4.515625 -14.46875 Z M 4.515625 -14.46875 "/></g></g></g><g fill="#000000" fill-opacity="1"><g transform="translate(50.811357, 24.054276)"><g><path d="M 3.21875 -14.46875 C 4.28125 -14.46875 5.238281 -14.273438 6.09375 -13.890625 C 6.945312 -13.515625 7.675781 -13.003906 8.28125 -12.359375 C 8.875 -11.691406 9.335938 -10.925781 9.671875 -10.0625 C 9.984375 -9.1875 10.140625 -8.25 10.140625 -7.25 C 10.140625 -6.25 9.984375 -5.3125 9.671875 -4.4375 C 9.335938 -3.5625 8.875 -2.789062 8.28125 -2.125 C 7.675781 -1.46875 6.945312 -0.953125 6.09375 -0.578125 C 5.238281 -0.191406 4.28125 0 3.21875 0 L 1.5625 0 C 1.40625 0 1.273438 -0.0546875 1.171875 -0.171875 C 1.046875 -0.273438 0.984375 -0.410156 0.984375 -0.578125 L 0.984375 -13.890625 C 0.984375 -14.046875 1.046875 -14.1875 1.171875 -14.3125 C 1.273438 -14.414062 1.40625 -14.46875 1.5625 -14.46875 Z M 3.21875 -2.84375 C 3.21875 -2.65625 3.28125 -2.507812 3.40625 -2.40625 C 3.53125 -2.289062 3.6875 -2.242188 3.875 -2.265625 C 4.5 -2.347656 5.054688 -2.535156 5.546875 -2.828125 C 6.035156 -3.109375 6.441406 -3.472656 6.765625 -3.921875 C 7.097656 -4.359375 7.347656 -4.867188 7.515625 -5.453125 C 7.671875 -6.015625 7.75 -6.613281 7.75 -7.25 C 7.75 -7.875 7.671875 -8.476562 7.515625 -9.0625 C 7.347656 -9.625 7.097656 -10.128906 6.765625 -10.578125 C 6.441406 -11.015625 6.035156 -11.375 5.546875 -11.65625 C 5.054688 -11.945312 4.5 -12.132812 3.875 -12.21875 C 3.6875 -12.238281 3.53125 -12.191406 3.40625 -12.078125 C 3.28125 -11.960938 3.21875 -11.816406 3.21875 -11.640625 Z M 3.21875 -2.84375 "/></g></g></g><g fill="#000000" fill-opacity="1"><g transform="translate(61.938548, 24.054276)"><g><path d="M 12.953125 -7.53125 C 13.035156 -7.53125 13.113281 -7.503906 13.1875 -7.453125 C 13.238281 -7.390625 13.265625 -7.320312 13.265625 -7.25 C 13.265625 -6.351562 13.160156 -5.46875 12.953125 -4.59375 C 12.722656 -3.726562 12.347656 -2.941406 11.828125 -2.234375 C 11.265625 -1.492188 10.59375 -0.941406 9.8125 -0.578125 C 9.007812 -0.191406 8.113281 0 7.125 0 C 5.125 0 3.554688 -0.742188 2.421875 -2.234375 C 1.460938 -3.535156 0.984375 -5.195312 0.984375 -7.21875 C 0.984375 -8.238281 1.109375 -9.164062 1.359375 -10 C 1.597656 -10.84375 1.953125 -11.582031 2.421875 -12.21875 C 2.972656 -12.96875 3.648438 -13.53125 4.453125 -13.90625 C 5.242188 -14.28125 6.132812 -14.46875 7.125 -14.46875 C 8.113281 -14.46875 9.007812 -14.28125 9.8125 -13.90625 C 10.59375 -13.53125 11.265625 -12.96875 11.828125 -12.21875 C 11.878906 -12.144531 11.894531 -12.070312 11.875 -12 C 11.851562 -11.90625 11.800781 -11.832031 11.71875 -11.78125 L 10.296875 -10.96875 C 10.171875 -10.894531 10.046875 -10.914062 9.921875 -11.03125 C 9.703125 -11.289062 9.46875 -11.5 9.21875 -11.65625 C 8.957031 -11.820312 8.703125 -11.945312 8.453125 -12.03125 C 8.203125 -12.113281 7.960938 -12.171875 7.734375 -12.203125 C 7.492188 -12.222656 7.289062 -12.234375 7.125 -12.234375 C 6.820312 -12.234375 6.453125 -12.1875 6.015625 -12.09375 C 5.566406 -11.988281 5.140625 -11.765625 4.734375 -11.421875 C 4.316406 -11.078125 3.960938 -10.578125 3.671875 -9.921875 C 3.367188 -9.253906 3.21875 -8.351562 3.21875 -7.21875 C 3.21875 -6.09375 3.367188 -5.195312 3.671875 -4.53125 C 3.960938 -3.875 4.316406 -3.378906 4.734375 -3.046875 C 5.140625 -2.703125 5.566406 -2.484375 6.015625 -2.390625 C 6.453125 -2.285156 6.820312 -2.234375 7.125 -2.234375 C 7.363281 -2.234375 7.644531 -2.257812 7.96875 -2.3125 C 8.300781 -2.363281 8.644531 -2.488281 9 -2.6875 C 9.34375 -2.863281 9.671875 -3.132812 9.984375 -3.5 C 10.285156 -3.851562 10.53125 -4.320312 10.71875 -4.90625 C 10.738281 -5.019531 10.722656 -5.113281 10.671875 -5.1875 C 10.617188 -5.269531 10.539062 -5.3125 10.4375 -5.3125 L 8.03125 -5.3125 C 7.875 -5.3125 7.742188 -5.367188 7.640625 -5.484375 C 7.515625 -5.585938 7.453125 -5.726562 7.453125 -5.90625 L 7.453125 -6.96875 C 7.453125 -7.125 7.515625 -7.257812 7.640625 -7.375 C 7.742188 -7.476562 7.875 -7.53125 8.03125 -7.53125 Z M 12.953125 -7.53125 "/></g></g></g><g fill="#000000" fill-opacity="1"><g transform="translate(76.18293, 24.054276)"><g><path d="M 4.515625 -14.46875 C 5.660156 -14.46875 6.523438 -14.15625 7.109375 -13.53125 C 7.679688 -12.914062 7.96875 -12.039062 7.96875 -10.90625 C 7.96875 -10.78125 7.929688 -10.675781 7.859375 -10.59375 C 7.765625 -10.5 7.648438 -10.453125 7.515625 -10.453125 L 6.203125 -10.453125 C 6.066406 -10.453125 5.957031 -10.5 5.875 -10.59375 C 5.789062 -10.675781 5.75 -10.78125 5.75 -10.90625 L 5.75 -11.046875 C 5.75 -11.546875 5.648438 -11.910156 5.453125 -12.140625 C 5.253906 -12.347656 4.960938 -12.453125 4.578125 -12.453125 C 4.191406 -12.453125 3.898438 -12.347656 3.703125 -12.140625 C 3.492188 -11.910156 3.390625 -11.546875 3.390625 -11.046875 C 3.390625 -10.785156 3.425781 -10.546875 3.5 -10.328125 C 3.5625 -10.085938 3.671875 -9.847656 3.828125 -9.609375 C 3.984375 -9.367188 4.191406 -9.117188 4.453125 -8.859375 C 4.703125 -8.585938 5.019531 -8.289062 5.40625 -7.96875 C 5.894531 -7.5625 6.3125 -7.179688 6.65625 -6.828125 C 6.976562 -6.460938 7.238281 -6.109375 7.4375 -5.765625 C 7.632812 -5.410156 7.78125 -5.054688 7.875 -4.703125 C 7.957031 -4.335938 8 -3.953125 8 -3.546875 C 8 -2.398438 7.707031 -1.523438 7.125 -0.921875 C 6.53125 -0.304688 5.65625 0 4.5 0 C 3.34375 0 2.46875 -0.304688 1.875 -0.921875 C 1.28125 -1.523438 0.984375 -2.398438 0.984375 -3.546875 L 0.984375 -3.984375 C 0.984375 -4.097656 1.03125 -4.203125 1.125 -4.296875 C 1.207031 -4.378906 1.304688 -4.421875 1.421875 -4.421875 L 2.765625 -4.421875 C 2.878906 -4.421875 2.984375 -4.378906 3.078125 -4.296875 C 3.171875 -4.203125 3.21875 -4.097656 3.21875 -3.984375 L 3.21875 -3.40625 C 3.21875 -2.914062 3.320312 -2.5625 3.53125 -2.34375 C 3.738281 -2.132812 4.035156 -2.03125 4.421875 -2.03125 C 4.804688 -2.03125 5.109375 -2.132812 5.328125 -2.34375 C 5.535156 -2.5625 5.640625 -2.914062 5.640625 -3.40625 C 5.640625 -3.65625 5.609375 -3.898438 5.546875 -4.140625 C 5.484375 -4.378906 5.367188 -4.617188 5.203125 -4.859375 C 5.046875 -5.085938 4.84375 -5.34375 4.59375 -5.625 C 4.332031 -5.882812 4.007812 -6.175781 3.625 -6.5 C 3.144531 -6.90625 2.738281 -7.285156 2.40625 -7.640625 C 2.082031 -7.992188 1.820312 -8.347656 1.625 -8.703125 C 1.40625 -9.054688 1.257812 -9.410156 1.1875 -9.765625 C 1.09375 -10.117188 1.046875 -10.5 1.046875 -10.90625 C 1.046875 -12.039062 1.335938 -12.914062 1.921875 -13.53125 C 2.492188 -14.15625 3.359375 -14.46875 4.515625 -14.46875 Z M 4.515625 -14.46875 "/></g></g></g></svg>